<svg width="140" height="140" viewBox="0 0 140 140" fill="none" xmlns="http://www.w3.org/2000/svg">
<rect x="137.5" y="2.5" width="135" height="135" rx="2.5" transform="rotate(90 137.5 2.5)" fill="#FF882B" stroke="#FF882B" stroke-width="5" stroke-linecap="round"/>
<path d="M69.6042 40.6133C86.0323 40.6135 99.321 53.833 99.321 70.1035C99.3208 86.3738 86.0321 99.5926 69.6042 99.5928C53.1762 99.5928 39.8867 86.3739 39.8865 70.1035C39.8865 53.8329 53.176 40.6133 69.6042 40.6133Z" fill="#FFFEFD" stroke="#FFFEFD" stroke-width="4.75472"/>
<path d="M68.4937 47.5603C68.9702 46.1044 71.0299 46.1043 71.5063 47.5603L75.8698 60.8944C76.0829 61.5458 76.6907 61.9864 77.3761 61.9864L91.4723 61.9864C93.0104 61.9864 93.6469 63.9568 92.3996 64.8566L81.0149 73.0694C80.4555 73.473 80.2213 74.1921 80.4358 74.8477L84.789 88.1502C85.2662 89.6084 83.5997 90.8261 82.3554 89.9285L70.9273 81.6843C70.3736 81.2849 69.6264 81.2849 69.0728 81.6843L57.6446 89.9285C56.4003 90.8261 54.7339 89.6084 55.211 88.1502L59.5642 74.8477C59.7787 74.1921 59.5446 73.473 58.9851 73.0694L47.6005 64.8566C46.3531 63.9568 46.9896 61.9864 48.5277 61.9864L62.624 61.9864C63.3094 61.9864 63.9171 61.5458 64.1303 60.8944L68.4937 47.5603Z" fill="#FF882B"/>
<path d="M70 31.1714C91.899 31.1714 109.623 48.794 109.623 70.4966C109.623 92.1991 91.899 109.822 70 109.822C48.101 109.822 30.377 92.1991 30.377 70.4966C30.377 48.794 48.101 31.1714 70 31.1714Z" stroke="#FFFEFD" stroke-width="4.75472"/>
</svg>
