<svg width="148" height="148" viewBox="0 0 148 148" fill="none" xmlns="http://www.w3.org/2000/svg">
<g filter="url(#filter0_d_29_1351)">
<rect x="4" width="140" height="140" rx="5" fill="#EC5228"/>
<rect x="6.5" y="2.5" width="135" height="135" rx="2.5" stroke="#EC5228" stroke-width="5" stroke-linecap="round"/>
</g>
<path d="M46.2521 79.0651C53.7949 77.9034 56.3885 72.7356 56.5912 68.6521C51.9703 50.3396 69.1603 49.9313 77.8776 54.6273C96.3664 65.4078 87.9432 76.6694 82.7431 79.0651C79.9469 80.3533 77.1322 87.0333 77.8777 90.7031C82.7431 114.655 66.7695 119.147 50.1458 114.043C33.7249 104.855 34.9411 84.6412 46.2521 79.0651Z" fill="#FFFEFD" stroke="#FFFEFD" stroke-width="2.02134"/>
<path d="M87.2896 36.8369C87.5467 36.9414 87.6749 37.2332 87.5768 37.493L74.9875 70.755C74.883 71.031 74.5674 71.1602 74.2999 71.0358L68.3212 68.2514C68.0513 68.1254 67.9452 67.7947 68.0913 67.5352L85.5186 36.5945C85.6439 36.3721 85.9138 36.2774 86.1503 36.3733L87.2896 36.8369Z" fill="#EC5228" stroke="#FFFEFD" stroke-width="1.01934"/>
<path d="M49.7531 114.005C49.1448 113.719 48.8365 113.027 49.0297 112.382L53.8779 96.202C54.1494 95.2963 55.1712 94.8606 56.0114 95.2923L59.5058 97.0878C60.2906 97.4912 60.5705 98.4791 60.1135 99.2335L51.4767 113.486C51.1195 114.075 50.3769 114.299 49.7531 114.005Z" fill="#EC5228" stroke="#EC5228" stroke-width="1.01067"/>
<path d="M93.3006 28.5091L90.1404 38.1207L83.995 35.0309L88.6047 26.3249L93.3006 28.5091Z" fill="#EC5228" stroke="#FFFEFD" stroke-width="3.03201"/>
<path d="M95.1511 30.6299C95.8763 30.6299 96.4705 31.2237 96.4705 31.9629C96.4703 32.7019 95.8762 33.2949 95.1511 33.2949C94.4262 33.2947 93.832 32.7018 93.8318 31.9629C93.8318 31.2238 94.4261 30.6301 95.1511 30.6299Z" fill="#FFFEFD" stroke="#FFFEFD" stroke-width="1.01067"/>
<path d="M84.812 25.7295C85.5372 25.7295 86.1313 26.3233 86.1313 27.0625C86.1312 27.8015 85.5371 28.3945 84.812 28.3945C84.0871 28.3943 83.4928 27.8014 83.4927 27.0625C83.4927 26.3234 84.087 25.7297 84.812 25.7295Z" fill="#FFFEFD" stroke="#FFFEFD" stroke-width="1.01067"/>
<path d="M93.3267 35.5303C94.0519 35.5303 94.646 36.1241 94.646 36.8633C94.6458 37.6023 94.0518 38.1953 93.3267 38.1953C92.6017 38.1951 92.0075 37.6022 92.0073 36.8633C92.0073 36.1242 92.6016 35.5305 93.3267 35.5303Z" fill="#FFFEFD" stroke="#FFFEFD" stroke-width="1.01067"/>
<path d="M82.3794 30.6299C83.1046 30.6299 83.6987 31.2237 83.6987 31.9629C83.6986 32.7019 83.1045 33.2949 82.3794 33.2949C81.6544 33.2947 81.0602 32.7018 81.0601 31.9629C81.0601 31.2238 81.6543 30.6301 82.3794 30.6299Z" fill="#FFFEFD" stroke="#FFFEFD" stroke-width="1.01067"/>
<rect x="0.261298" y="0.667173" width="2.64263" height="1.43666" transform="matrix(0.915228 0.402936 -0.39815 0.917321 90.6359 23.9499)" fill="#FFFEFD" stroke="#FFFEFD" stroke-width="1.01067"/>
<path d="M42.5963 90.3927C45.3793 89.8025 48.4452 92.2275 49.2612 96.1298C50.0772 100.032 48.2429 103.496 45.4598 104.087C42.6768 104.677 39.6108 102.252 38.7948 98.3497C37.9789 94.4475 39.8133 90.9831 42.5963 90.3927Z" fill="#EC5228" stroke="#EC5228" stroke-width="1.01067"/>
<path d="M72.8581 79.1267C73.1423 80.4888 73.1479 82.8182 70.5272 83.7468C67.9065 84.6754 68.6398 87.4901 69.612 89.3398" stroke="#EC5228" stroke-width="2.27128" stroke-linecap="round"/>
<path d="M63.1009 74.6667C61.7153 74.9181 59.5511 75.7828 59.8104 78.5006C60.0697 81.2184 57.1439 81.6059 55.0114 81.4168" stroke="#EC5228" stroke-width="2.27128" stroke-linecap="round"/>
<path d="M104.03 108.19C104.752 108.275 105.401 107.751 105.472 107.027L111.848 41.3047C111.865 41.1222 111.84 40.9379 111.774 40.7666C111.331 39.6086 109.633 39.8208 109.491 41.0518L109.271 42.9551L110.301 43.0605L104.654 98.708L102.868 98.5244L102.298 103.479L103.814 103.575L103.525 108.132L104.03 108.19Z" fill="#FFFEFD"/>
<defs>
<filter id="filter0_d_29_1351" x="0" y="0" width="148" height="148" filterUnits="userSpaceOnUse" color-interpolation-filters="sRGB">
<feFlood flood-opacity="0" result="BackgroundImageFix"/>
<feColorMatrix in="SourceAlpha" type="matrix" values="0 0 0 0 0 0 0 0 0 0 0 0 0 0 0 0 0 0 127 0" result="hardAlpha"/>
<feOffset dy="4"/>
<feGaussianBlur stdDeviation="2"/>
<feComposite in2="hardAlpha" operator="out"/>
<feColorMatrix type="matrix" values="0 0 0 0 0 0 0 0 0 0 0 0 0 0 0 0 0 0 0.25 0"/>
<feBlend mode="normal" in2="BackgroundImageFix" result="effect1_dropShadow_29_1351"/>
<feBlend mode="normal" in="SourceGraphic" in2="effect1_dropShadow_29_1351" result="shape"/>
</filter>
</defs>
</svg>
