<svg width="140" height="140" viewBox="0 0 140 140" fill="none" xmlns="http://www.w3.org/2000/svg">
<rect width="140" height="140" rx="5" fill="#EC5228" fill-opacity="0.6"/>
<path d="M42.2521 79.0641C49.7949 77.9025 52.3885 72.7346 52.5912 68.6511C47.9703 50.3387 65.1603 49.9303 73.8776 54.6263C92.3664 65.4068 83.9432 76.6684 78.7431 79.0641C75.9469 80.3523 73.1322 87.0323 73.8777 90.7021C78.7431 114.654 62.7695 119.146 46.1458 114.042C29.7249 104.854 30.9411 84.6403 42.2521 79.0641Z" fill="#FFFEFD" stroke="#FFFEFD" stroke-width="2.02134"/>
<path d="M83.2896 36.8364C83.5467 36.9409 83.6749 37.2327 83.5768 37.4925L70.9875 70.7545C70.883 71.0306 70.5674 71.1597 70.2999 71.0353L64.3212 68.2509C64.0513 68.125 63.9452 67.7942 64.0913 67.5347L81.5186 36.594C81.6439 36.3716 81.9138 36.2769 82.1503 36.3728L83.2896 36.8364Z" fill="#FFA289" stroke="#FFFEFD" stroke-width="1.01934"/>
<path d="M47.9075 113.75C47.4169 114.559 46.3974 114.867 45.5407 114.464C44.705 114.07 44.2817 113.121 44.5472 112.235L49.3947 96.0544C49.7566 94.8466 51.119 94.2655 52.2393 94.8411L55.7339 96.6367C56.7806 97.1744 57.1536 98.4918 56.544 99.4977L47.9075 113.75Z" fill="#EC5228" fill-opacity="0.6"/>
<path d="M89.3006 28.5091L86.1404 38.1207L79.995 35.0309L84.6047 26.3249L89.3006 28.5091Z" stroke="#FFFEFD" stroke-width="3.03201"/>
<path d="M91.1511 30.6304C91.8763 30.6304 92.4705 31.2242 92.4705 31.9634C92.4703 32.7024 91.8762 33.2954 91.1511 33.2954C90.4262 33.2952 89.832 32.7023 89.8318 31.9634C89.8318 31.2243 90.4261 30.6306 91.1511 30.6304Z" fill="#FFFEFD" stroke="#FFFEFD" stroke-width="1.01067"/>
<path d="M80.812 25.73C81.5372 25.73 82.1313 26.3238 82.1313 27.063C82.1312 27.802 81.5371 28.395 80.812 28.395C80.0871 28.3948 79.4928 27.8019 79.4927 27.063C79.4927 26.3239 80.087 25.7302 80.812 25.73Z" fill="#FFFEFD" stroke="#FFFEFD" stroke-width="1.01067"/>
<path d="M89.3267 35.5305C90.0519 35.5305 90.646 36.1243 90.646 36.8635C90.6458 37.6026 90.0518 38.1956 89.3267 38.1956C88.6017 38.1954 88.0075 37.6024 88.0073 36.8635C88.0073 36.1245 88.6016 35.5307 89.3267 35.5305Z" fill="#FFFEFD" stroke="#FFFEFD" stroke-width="1.01067"/>
<path d="M78.3794 30.6304C79.1046 30.6304 79.6987 31.2242 79.6987 31.9634C79.6986 32.7024 79.1045 33.2954 78.3794 33.2954C77.6544 33.2952 77.0602 32.7023 77.0601 31.9634C77.0601 31.2243 77.6543 30.6306 78.3794 30.6304Z" fill="#FFFEFD" stroke="#FFFEFD" stroke-width="1.01067"/>
<rect x="0.261298" y="0.667173" width="2.64263" height="1.43666" transform="matrix(0.915228 0.402936 -0.39815 0.917321 86.6359 23.9499)" fill="#FFFEFD" stroke="#FFFEFD" stroke-width="1.01067"/>
<ellipse cx="5.85468" cy="7.50009" rx="5.85468" ry="7.50009" transform="matrix(0.978238 -0.207487 0.204678 0.978829 32.7659 91.1128)" fill="#EC5228" fill-opacity="0.6"/>
<path d="M68.8581 79.1277C69.1423 80.4897 69.1479 82.8192 66.5272 83.7478C63.9065 84.6764 64.6398 87.4911 65.612 89.3407" stroke="#EC5228" stroke-opacity="0.6" stroke-width="2.27128" stroke-linecap="round"/>
<path d="M59.1009 74.6672C57.7153 74.9186 55.5511 75.7833 55.8104 78.5011C56.0697 81.2189 53.1439 81.6064 51.0114 81.4173" stroke="#EC5228" stroke-opacity="0.6" stroke-width="2.27128" stroke-linecap="round"/>
<path d="M100.03 108.191C100.752 108.275 101.401 107.751 101.472 107.028L107.848 41.3052C107.865 41.1227 107.84 40.9384 107.774 40.7671C107.331 39.6091 105.633 39.8212 105.491 41.0522L105.271 42.9556L106.301 43.061L100.654 98.7085L98.8682 98.5249L98.2979 103.479L99.8145 103.576L99.5254 108.132L100.03 108.191Z" fill="#FFFEFD"/>
</svg>
