<svg width="140" height="140" viewBox="0 0 140 140" fill="none" xmlns="http://www.w3.org/2000/svg">
<rect x="140" width="140" height="140" rx="5" transform="rotate(90 140 0)" fill="#3F39C2" fill-opacity="0.6"/>
<path d="M31 46.0376H84.5715" stroke="#FFFEFD" stroke-width="4" stroke-linecap="round"/>
<path d="M32.0713 62.6272H74.3928" stroke="#FFFEFD" stroke-width="4" stroke-linecap="round"/>
<path d="M32.0713 80.3228H54.5713" stroke="#FFFEFD" stroke-width="4" stroke-linecap="round"/>
<path d="M95 77.9444L95.9229 80.3227C96.3849 72.0793 97.4936 55.4975 98.2329 55.1171C99.157 54.6415 102.851 56.0682 105.16 60.3483C107.007 63.7723 103.774 70.3353 101.927 73.6642C105.622 69.8597 107.161 67.3233 107.469 66.0551C111.163 60.3484 107.007 52.1054 104.236 48.935C101.004 45.2362 99.1563 43.2282 97.3091 32.7659L95 77.9444Z" fill="#FFFEFD"/>
<path d="M70.8734 78.6153C79.9057 73.3668 90.3905 75.2805 94.3857 82.6066C98.3808 89.9327 94.527 100.178 85.4947 105.427C76.4624 110.675 65.9776 108.761 61.9824 101.435C57.9872 94.1092 61.8411 83.8637 70.8734 78.6153Z" fill="#FFFEFD" stroke="#FFFEFD"/>
</svg>
