<svg width="140" height="140" viewBox="0 0 140 140" fill="none" xmlns="http://www.w3.org/2000/svg">
<rect x="140" width="140" height="140" rx="5" transform="rotate(90 140 0)" fill="#357D58" fill-opacity="0.6"/>
<path d="M107.054 43.6772C109.205 43.6775 111.056 45.1996 111.47 47.3101L119.158 86.48C119.395 87.6853 119.456 88.9614 119.232 90.2388C118.659 93.4973 117.61 96.9204 115.908 99.6519C114.201 102.392 111.728 104.592 108.313 104.982C104.944 105.367 101.07 103.938 96.6506 100.402C92.2162 96.853 87.0551 91.0433 81.0442 82.2778C80.7434 81.8392 80.2418 81.5769 79.7649 81.5767H60.635C60.1252 81.5768 59.6358 81.8386 59.3372 82.2896C56.6895 86.2904 53.3044 90.6587 49.6575 94.4917C46.0273 98.3071 42.0579 101.677 38.2317 103.585C34.4262 105.483 30.3705 106.104 27.0334 103.646C23.8293 101.286 21.8125 96.4263 21.0247 88.8188C20.9914 88.4974 20.9927 88.1539 21.0315 87.8267L25.7991 47.647C26.0678 45.3828 27.9877 43.6772 30.2678 43.6772H107.054ZM66.9827 69.4858C65.6021 69.4858 64.4828 70.6053 64.4827 71.9858C64.4829 73.3664 65.6021 74.4858 66.9827 74.4858H71.9827C73.3631 74.4856 74.4825 73.3662 74.4827 71.9858C74.4825 70.6054 73.3631 69.4861 71.9827 69.4858H66.9827ZM41.9827 55.5854C40.602 55.5854 39.4827 56.7047 39.4827 58.0854V62.4946L35.4944 62.4771C34.1137 62.4708 32.9889 63.5856 32.9827 64.9663C32.9767 66.3466 34.0906 67.4706 35.4709 67.4771L39.4827 67.4946V70.9937C39.4831 72.374 40.6022 73.4937 41.9827 73.4937C43.3629 73.4934 44.4823 72.3739 44.4827 70.9937V67.5171L48.4709 67.5356C49.8512 67.5416 50.9761 66.4276 50.9827 65.0474C50.9889 63.667 49.8747 62.5423 48.4944 62.5356L44.4827 62.5171V58.0854C44.4827 56.7049 43.3632 55.5857 41.9827 55.5854ZM97.7004 68.0386C96.4776 66.9286 94.5904 67.0216 93.4846 68.2466C92.3788 69.4717 92.4737 71.3651 93.6965 72.4751C94.9194 73.5848 96.8066 73.4911 97.9124 72.2661C99.0182 71.041 98.9233 69.1486 97.7004 68.0386ZM91.7004 62.0806C90.4776 60.9708 88.5903 61.0646 87.4846 62.2896C86.379 63.5146 86.4738 65.4071 87.6965 66.5171C88.9193 67.627 90.8065 67.5339 91.9124 66.3091C93.0182 65.084 92.9233 63.1906 91.7004 62.0806ZM101.483 61.064C99.8258 61.064 98.4827 62.3974 98.4827 64.0425C98.4827 65.6876 99.8258 67.021 101.483 67.021C103.139 67.0208 104.483 65.6874 104.483 64.0425C104.483 62.3976 103.139 61.0642 101.483 61.064ZM95.4827 55.106C93.8258 55.106 92.4827 56.4403 92.4827 58.0854C92.4828 59.7304 93.8259 61.064 95.4827 61.064C97.1392 61.0637 98.4825 59.7303 98.4827 58.0854C98.4827 56.4405 97.1393 55.1062 95.4827 55.106Z" fill="#FFFEFD"/>
</svg>
