<svg width="140" height="140" viewBox="0 0 140 140" fill="none" xmlns="http://www.w3.org/2000/svg">
<rect x="137.5" y="2.5" width="135" height="135" rx="2.5" transform="rotate(90 137.5 2.5)" fill="#357D58" stroke="#357D58" stroke-width="5" stroke-linecap="round"/>
<path d="M107.053 43.6772C109.204 43.6772 111.055 45.1995 111.469 47.3101L119.158 86.48C119.394 87.6853 119.456 88.9613 119.231 90.2388C118.658 93.4974 117.609 96.9204 115.908 99.6519C114.2 102.392 111.727 104.592 108.312 104.982C104.943 105.367 101.069 103.938 96.6499 100.402C92.2154 96.8529 87.0544 91.0433 81.0435 82.2778C80.7425 81.8391 80.2411 81.5767 79.7642 81.5767H60.6343C60.1245 81.5769 59.635 81.8386 59.3364 82.2896C56.6887 86.2905 53.3037 90.6586 49.6567 94.4917C46.0265 98.3072 42.0572 101.677 38.231 103.585C34.4254 105.483 30.3698 106.104 27.0327 103.646C23.8286 101.285 21.8118 96.4261 21.0239 88.8188C20.9907 88.4975 20.9919 88.1539 21.0308 87.8267L25.7983 47.647C26.067 45.3828 27.987 43.6774 30.2671 43.6772H107.053ZM66.9819 69.4858C65.6014 69.486 64.4821 70.6054 64.4819 71.9858C64.4821 73.3663 65.6015 74.4857 66.9819 74.4858H71.9819C73.3625 74.4858 74.4817 73.3664 74.4819 71.9858C74.4818 70.6053 73.3625 69.4858 71.9819 69.4858H66.9819ZM41.9819 55.5854C40.6013 55.5856 39.4819 56.7048 39.4819 58.0854V62.4946L35.4937 62.4771C34.1131 62.471 32.9881 63.5857 32.9819 64.9663C32.976 66.3465 34.09 67.4704 35.4702 67.4771L39.4819 67.4946V70.9937C39.4823 72.3739 40.6016 73.4935 41.9819 73.4937C43.3624 73.4936 44.4815 72.374 44.4819 70.9937V67.5171L48.4702 67.5356C49.8507 67.5418 50.9754 66.4278 50.9819 65.0474C50.9881 63.6668 49.8741 62.5421 48.4937 62.5356L44.4819 62.5171V58.0854C44.4819 56.7047 43.3626 55.5855 41.9819 55.5854ZM97.7007 68.0386C96.4779 66.9286 94.5907 67.0217 93.4849 68.2466C92.3791 69.4717 92.4739 71.3651 93.6968 72.4751C94.9196 73.5847 96.8069 73.491 97.9126 72.2661C99.0183 71.0411 98.9234 69.1486 97.7007 68.0386ZM91.7007 62.0806C90.4779 60.9707 88.5906 61.0645 87.4849 62.2896C86.3791 63.5146 86.474 65.4071 87.6968 66.5171C88.9196 67.6269 90.8068 67.534 91.9126 66.3091C93.0184 65.084 92.9235 63.1906 91.7007 62.0806ZM101.482 61.064C99.8252 61.0641 98.482 62.3975 98.4819 64.0425C98.4819 65.6875 99.8252 67.0209 101.482 67.021C103.139 67.021 104.482 65.6876 104.482 64.0425C104.482 62.3974 103.139 61.064 101.482 61.064ZM95.4819 55.106C93.8252 55.1061 92.4819 56.4404 92.4819 58.0854C92.4821 59.7303 93.8253 61.0638 95.4819 61.064C97.1387 61.064 98.4818 59.7304 98.4819 58.0854C98.4819 56.4403 97.1388 55.106 95.4819 55.106Z" fill="#FFFEFD"/>
</svg>
