<svg width="148" height="148" viewBox="0 0 148 148" fill="none" xmlns="http://www.w3.org/2000/svg">
<g filter="url(#filter0_d_29_1332)">
<rect x="144" width="140" height="140" rx="5" transform="rotate(90 144 0)" fill="#357D58"/>
<rect x="141.5" y="2.5" width="135" height="135" rx="2.5" transform="rotate(90 141.5 2.5)" stroke="#357D58" stroke-width="5" stroke-linecap="round"/>
</g>
<path d="M111.053 43.6777C113.204 43.6777 115.055 45.2 115.469 47.3105L123.158 86.4805C123.394 87.6858 123.456 88.9618 123.231 90.2393C122.658 93.4979 121.609 96.9208 119.908 99.6523C118.2 102.393 115.727 104.592 112.312 104.982C108.943 105.367 105.069 103.939 100.65 100.402C96.2154 96.8534 91.0544 91.0437 85.0435 82.2783C84.7425 81.8396 84.2411 81.5772 83.7642 81.5771H64.6343C64.1245 81.5774 63.635 81.839 63.3364 82.29C60.6887 86.291 57.3037 90.6591 53.6567 94.4922C50.0265 98.3077 46.0572 101.678 42.231 103.586C38.4254 105.484 34.3698 106.105 31.0327 103.646C27.8286 101.286 25.8118 96.4266 25.0239 88.8193C24.9907 88.498 24.9919 88.1544 25.0308 87.8271L29.7983 47.6475C30.067 45.3833 31.987 43.6779 34.2671 43.6777H111.053ZM70.9819 69.4863C69.6014 69.4865 68.4821 70.6059 68.4819 71.9863C68.4821 73.3668 69.6015 74.4862 70.9819 74.4863H75.9819C77.3625 74.4863 78.4817 73.3669 78.4819 71.9863C78.4818 70.6058 77.3625 69.4863 75.9819 69.4863H70.9819ZM45.9819 55.5859C44.6013 55.5861 43.4819 56.7053 43.4819 58.0859V62.4951L39.4937 62.4775C38.1131 62.4715 36.9881 63.5862 36.9819 64.9668C36.976 66.347 38.09 67.4709 39.4702 67.4775L43.4819 67.4951V70.9941C43.4823 72.3744 44.6016 73.494 45.9819 73.4941C47.3624 73.4941 48.4815 72.3745 48.4819 70.9941V67.5176L52.4702 67.5361C53.8507 67.5423 54.9754 66.4282 54.9819 65.0479C54.9881 63.6673 53.8741 62.5426 52.4937 62.5361L48.4819 62.5176V58.0859C48.4819 56.7052 47.3626 55.5859 45.9819 55.5859ZM101.701 68.0391C100.478 66.9291 98.5907 67.0222 97.4849 68.2471C96.3791 69.4722 96.4739 71.3655 97.6968 72.4756C98.9196 73.5852 100.807 73.4915 101.913 72.2666C103.018 71.0416 102.923 69.1491 101.701 68.0391ZM95.7007 62.0811C94.4779 60.9712 92.5906 61.065 91.4849 62.29C90.3791 63.5151 90.474 65.4075 91.6968 66.5176C92.9196 67.6274 94.8068 67.5345 95.9126 66.3096C97.0184 65.0845 96.9235 63.1911 95.7007 62.0811ZM105.482 61.0645C103.825 61.0646 102.482 62.398 102.482 64.043C102.482 65.688 103.825 67.0213 105.482 67.0215C107.139 67.0215 108.482 65.6881 108.482 64.043C108.482 62.3979 107.139 61.0645 105.482 61.0645ZM99.4819 55.1064C97.8252 55.1066 96.4819 56.4409 96.4819 58.0859C96.4821 59.7308 97.8253 61.0643 99.4819 61.0645C101.139 61.0645 102.482 59.7309 102.482 58.0859C102.482 56.4408 101.139 55.1064 99.4819 55.1064Z" fill="#FFFEFD"/>
<defs>
<filter id="filter0_d_29_1332" x="0" y="0" width="148" height="148" filterUnits="userSpaceOnUse" color-interpolation-filters="sRGB">
<feFlood flood-opacity="0" result="BackgroundImageFix"/>
<feColorMatrix in="SourceAlpha" type="matrix" values="0 0 0 0 0 0 0 0 0 0 0 0 0 0 0 0 0 0 127 0" result="hardAlpha"/>
<feOffset dy="4"/>
<feGaussianBlur stdDeviation="2"/>
<feComposite in2="hardAlpha" operator="out"/>
<feColorMatrix type="matrix" values="0 0 0 0 0 0 0 0 0 0 0 0 0 0 0 0 0 0 0.25 0"/>
<feBlend mode="normal" in2="BackgroundImageFix" result="effect1_dropShadow_29_1332"/>
<feBlend mode="normal" in="SourceGraphic" in2="effect1_dropShadow_29_1332" result="shape"/>
</filter>
</defs>
</svg>
