<svg width="1081" height="190" viewBox="0 0 1081 190" fill="none" xmlns="http://www.w3.org/2000/svg">
<path d="M0 18.7131L1080.5 18.7131" stroke="#1C1C1C" stroke-width="2.48223"/>
<path d="M0 50.9821L1080.5 50.9821" stroke="#1C1C1C" stroke-width="2.48223"/>
<path d="M0 83.2512L1080.5 83.2512" stroke="#1C1C1C" stroke-width="2.48223"/>
<path d="M0 115.52L1080.5 115.52" stroke="#1C1C1C" stroke-width="2.48223"/>
<path d="M0 147.789L1080.5 147.789" stroke="#1C1C1C" stroke-width="2.48223"/>
<path d="M26.375 129.172C28.7075 113.452 37.8938 86.7262 55.9794 105.591C78.5864 129.172 36.602 166.406 16.1481 141.584C-0.21509 121.726 28.9146 89.0006 41.4464 69.5989C53.9781 50.1971 63.8379 3.07504 41.4464 5.06083C19.0548 7.04662 44.6757 137.24 44.6757 170.75C44.6757 204.26 32.2952 178.817 33.9105 176.955" stroke="#1C1C1C" stroke-width="3.72335" stroke-linecap="round"/>
<path d="M152.992 184.424C141.648 184.424 132.62 176.558 132.62 167.048C132.62 157.538 141.648 149.672 152.992 149.672C164.336 149.672 173.364 157.538 173.364 167.048C173.364 176.558 164.336 184.424 152.992 184.424Z" fill="#1C1C1C" stroke="#1C1C1C" stroke-width="1.24112"/>
<path d="M170.508 168.289C170.508 169.317 171.341 170.151 172.37 170.151C173.398 170.151 174.231 169.317 174.231 168.289L172.37 168.289L170.508 168.289ZM172.37 168.289L174.231 168.289L174.231 69L172.37 69L170.508 69L170.508 168.289L172.37 168.289Z" fill="#1C1C1C"/>
<mask id="path-9-outside-1_24_266" maskUnits="userSpaceOnUse" x="145" y="156" width="19" height="21" fill="black">
<rect fill="white" x="145" y="156" width="19" height="21"/>
<path d="M153.067 157.575C154.904 157.575 156.509 157.939 157.883 158.667C159.256 159.395 160.315 160.421 161.06 161.745C161.821 163.052 162.202 164.566 162.202 166.287C162.202 167.992 161.821 169.506 161.06 170.83C160.315 172.154 159.248 173.18 157.858 173.908C156.484 174.636 154.888 175 153.067 175H146.539V157.575H153.067ZM152.794 171.326C154.399 171.326 155.649 170.888 156.542 170.011C157.436 169.134 157.883 167.893 157.883 166.287C157.883 164.682 157.436 163.433 156.542 162.539C155.649 161.646 154.399 161.199 152.794 161.199H150.784V171.326H152.794Z"/>
</mask>
<path d="M153.067 157.575C154.904 157.575 156.509 157.939 157.883 158.667C159.256 159.395 160.315 160.421 161.06 161.745C161.821 163.052 162.202 164.566 162.202 166.287C162.202 167.992 161.821 169.506 161.06 170.83C160.315 172.154 159.248 173.18 157.858 173.908C156.484 174.636 154.888 175 153.067 175H146.539V157.575H153.067ZM152.794 171.326C154.399 171.326 155.649 170.888 156.542 170.011C157.436 169.134 157.883 167.893 157.883 166.287C157.883 164.682 157.436 163.433 156.542 162.539C155.649 161.646 154.399 161.199 152.794 161.199H150.784V171.326H152.794Z" fill="#FFFEFD"/>
<path d="M157.883 158.667L158.464 157.57H158.464L157.883 158.667ZM161.06 161.745L159.978 162.353L159.983 162.361L159.987 162.369L161.06 161.745ZM161.06 170.83L159.984 170.211L159.978 170.221L161.06 170.83ZM157.858 173.908L157.282 172.808L157.277 172.811L157.858 173.908ZM146.539 175H145.298V176.241H146.539V175ZM146.539 157.575V156.334H145.298V157.575H146.539ZM150.784 161.199V159.958H149.542V161.199H150.784ZM150.784 171.326H149.542V172.567H150.784V171.326ZM153.067 157.575V158.816C154.738 158.816 156.137 159.146 157.301 159.763L157.883 158.667L158.464 157.57C156.882 156.731 155.07 156.334 153.067 156.334V157.575ZM157.883 158.667L157.301 159.763C158.47 160.383 159.353 161.242 159.978 162.353L161.06 161.745L162.142 161.136C161.278 159.6 160.043 158.407 158.464 157.57L157.883 158.667ZM161.06 161.745L159.987 162.369C160.624 163.462 160.961 164.755 160.961 166.287H162.202H163.443C163.443 164.378 163.019 162.642 162.133 161.12L161.06 161.745ZM162.202 166.287H160.961C160.961 167.8 160.625 169.097 159.984 170.211L161.06 170.83L162.136 171.449C163.018 169.915 163.443 168.183 163.443 166.287H162.202ZM161.06 170.83L159.978 170.221C159.355 171.329 158.467 172.188 157.282 172.808L157.858 173.908L158.434 175.007C160.029 174.172 161.275 172.978 162.142 171.438L161.06 170.83ZM157.858 173.908L157.277 172.811C156.111 173.429 154.72 173.759 153.067 173.759V175V176.241C155.056 176.241 156.858 175.842 158.439 175.004L157.858 173.908ZM153.067 175V173.759H146.539V175V176.241H153.067V175ZM146.539 175H147.78V157.575H146.539H145.298V175H146.539ZM146.539 157.575V158.816H153.067V157.575V156.334H146.539V157.575ZM152.794 171.326V172.567C154.629 172.567 156.226 172.061 157.412 170.896L156.542 170.011L155.673 169.125C155.072 169.715 154.17 170.085 152.794 170.085V171.326ZM156.542 170.011L157.412 170.896C158.605 169.725 159.124 168.127 159.124 166.287H157.883H156.642C156.642 167.658 156.267 168.542 155.673 169.125L156.542 170.011ZM157.883 166.287H159.124C159.124 164.446 158.605 162.847 157.42 161.662L156.542 162.539L155.665 163.417C156.267 164.019 156.642 164.918 156.642 166.287H157.883ZM156.542 162.539L157.42 161.662C156.235 160.477 154.635 159.958 152.794 159.958V161.199V162.44C154.164 162.44 155.063 162.815 155.665 163.417L156.542 162.539ZM152.794 161.199V159.958H150.784V161.199V162.44H152.794V161.199ZM150.784 161.199H149.542V171.326H150.784H152.025V161.199H150.784ZM150.784 171.326V172.567H152.794V171.326V170.085H150.784V171.326Z" fill="#1C1C1C" mask="url(#path-9-outside-1_24_266)"/>
<path d="M262.992 167.424C251.648 167.424 242.62 159.558 242.62 150.048C242.62 140.538 251.648 132.672 262.992 132.672C274.336 132.672 283.364 140.538 283.364 150.048C283.364 159.558 274.336 167.424 262.992 167.424Z" fill="#1C1C1C" stroke="#1C1C1C" stroke-width="1.24112"/>
<path d="M280.508 151.289C280.508 152.317 281.341 153.151 282.37 153.151C283.398 153.151 284.231 152.317 284.231 151.289L282.37 151.289L280.508 151.289ZM282.37 151.289L284.231 151.289L284.231 52L282.37 52L280.508 52L280.508 151.289L282.37 151.289Z" fill="#1C1C1C"/>
<mask id="path-13-outside-2_24_266" maskUnits="userSpaceOnUse" x="257" y="139" width="14" height="21" fill="black">
<rect fill="white" x="257" y="139" width="14" height="21"/>
<path d="M262.784 143.975V147.5H268.468V150.777H262.784V154.599H269.213V158H258.539V140.575H269.213V143.975H262.784Z"/>
</mask>
<path d="M262.784 143.975V147.5H268.468V150.777H262.784V154.599H269.213V158H258.539V140.575H269.213V143.975H262.784Z" fill="#FFFEFD"/>
<path d="M262.784 143.975V142.734H261.542V143.975H262.784ZM262.784 147.5H261.542V148.741H262.784V147.5ZM268.468 147.5H269.709V146.259H268.468V147.5ZM268.468 150.777V152.018H269.709V150.777H268.468ZM262.784 150.777V149.536H261.542V150.777H262.784ZM262.784 154.599H261.542V155.84H262.784V154.599ZM269.213 154.599H270.454V153.358H269.213V154.599ZM269.213 158V159.241H270.454V158H269.213ZM258.539 158H257.298V159.241H258.539V158ZM258.539 140.575V139.334H257.298V140.575H258.539ZM269.213 140.575H270.454V139.334H269.213V140.575ZM269.213 143.975V145.217H270.454V143.975H269.213ZM262.784 143.975H261.542V147.5H262.784H264.025V143.975H262.784ZM262.784 147.5V148.741H268.468V147.5V146.259H262.784V147.5ZM268.468 147.5H267.227V150.777H268.468H269.709V147.5H268.468ZM268.468 150.777V149.536H262.784V150.777V152.018H268.468V150.777ZM262.784 150.777H261.542V154.599H262.784H264.025V150.777H262.784ZM262.784 154.599V155.84H269.213V154.599V153.358H262.784V154.599ZM269.213 154.599H267.971V158H269.213H270.454V154.599H269.213ZM269.213 158V156.759H258.539V158V159.241H269.213V158ZM258.539 158H259.78V140.575H258.539H257.298V158H258.539ZM258.539 140.575V141.816H269.213V140.575V139.334H258.539V140.575ZM269.213 140.575H267.971V143.975H269.213H270.454V140.575H269.213ZM269.213 143.975V142.734H262.784V143.975V145.217H269.213V143.975Z" fill="#1C1C1C" mask="url(#path-13-outside-2_24_266)"/>
<path d="M482.992 136.424C471.648 136.424 462.62 128.558 462.62 119.048C462.62 109.538 471.648 101.672 482.992 101.672C494.336 101.672 503.364 109.538 503.364 119.048C503.364 128.558 494.336 136.424 482.992 136.424Z" fill="#1C1C1C" stroke="#1C1C1C" stroke-width="1.24112"/>
<path d="M500.508 120.289C500.508 121.317 501.341 122.151 502.37 122.151C503.398 122.151 504.231 121.317 504.231 120.289L502.37 120.289L500.508 120.289ZM502.37 120.289L504.231 120.289L504.231 21L502.37 21L500.508 21L500.508 120.289L502.37 120.289Z" fill="#1C1C1C"/>
<path d="M485.626 116.339C485.371 115.87 485.002 115.514 484.519 115.273C484.05 115.018 483.493 114.89 482.849 114.89C481.735 114.89 480.843 115.259 480.172 115.997C479.501 116.722 479.166 117.695 479.166 118.916C479.166 120.217 479.515 121.237 480.212 121.975C480.924 122.699 481.896 123.062 483.131 123.062C483.976 123.062 484.687 122.847 485.264 122.418C485.854 121.988 486.284 121.371 486.552 120.566H482.185V118.03H489.672V121.23C489.417 122.089 488.981 122.887 488.364 123.625C487.76 124.363 486.988 124.96 486.049 125.416C485.11 125.873 484.05 126.101 482.869 126.101C481.474 126.101 480.226 125.799 479.126 125.195C478.039 124.578 477.187 123.726 476.57 122.639C475.966 121.552 475.664 120.311 475.664 118.916C475.664 117.52 475.966 116.279 476.57 115.192C477.187 114.092 478.039 113.24 479.126 112.636C480.212 112.019 481.454 111.71 482.849 111.71C484.54 111.71 485.962 112.12 487.116 112.938C488.283 113.757 489.055 114.89 489.43 116.339H485.626Z" fill="#FFFEFD"/>
<path d="M712.992 65.6201C724.336 65.6201 733.364 73.4861 733.364 82.9961C733.364 92.5062 724.336 100.372 712.992 100.372C701.648 100.372 692.62 92.5062 692.62 82.9961C692.62 73.4861 701.648 65.6201 712.992 65.6201Z" fill="#1C1C1C" stroke="#1C1C1C" stroke-width="1.24112"/>
<path d="M695.476 81.7551C695.476 80.7269 694.643 79.8934 693.615 79.8934C692.587 79.8934 691.753 80.7269 691.753 81.7551L693.615 81.7551L695.476 81.7551ZM693.615 81.7551L691.753 81.7551L691.753 181.044L693.615 181.044L695.476 181.044L695.476 81.7551L693.615 81.7551Z" fill="#1C1C1C"/>
<mask id="path-20-outside-3_24_266" maskUnits="userSpaceOnUse" x="704.995" y="73" width="17" height="21" fill="black">
<rect fill="white" x="704.995" y="73" width="17" height="21"/>
<path d="M717.083 83.064C718.093 83.2791 718.904 83.7838 719.516 84.5781C720.128 85.3559 720.434 86.2495 720.434 87.2589C720.434 88.7152 719.921 89.8736 718.895 90.7341C717.886 91.578 716.471 92 714.651 92H706.534V74.5747H714.378C716.148 74.5747 717.53 74.9802 718.523 75.791C719.532 76.6019 720.037 77.7023 720.037 79.0924C720.037 80.1184 719.764 80.9706 719.218 81.6491C718.688 82.3276 717.977 82.7992 717.083 83.064ZM710.778 81.6243H713.558C714.253 81.6243 714.783 81.4753 715.147 81.1775C715.528 80.8631 715.718 80.408 715.718 79.8122C715.718 79.2165 715.528 78.7614 715.147 78.447C714.783 78.1326 714.253 77.9754 713.558 77.9754H710.778V81.6243ZM713.906 88.5745C714.618 88.5745 715.164 88.4173 715.544 88.1029C715.941 87.7719 716.14 87.3003 716.14 86.688C716.14 86.0757 715.933 85.5958 715.519 85.2483C715.122 84.9008 714.568 84.7271 713.856 84.7271H710.778V88.5745H713.906Z"/>
</mask>
<path d="M717.083 83.064C718.093 83.2791 718.904 83.7838 719.516 84.5781C720.128 85.3559 720.434 86.2495 720.434 87.2589C720.434 88.7152 719.921 89.8736 718.895 90.7341C717.886 91.578 716.471 92 714.651 92H706.534V74.5747H714.378C716.148 74.5747 717.53 74.9802 718.523 75.791C719.532 76.6019 720.037 77.7023 720.037 79.0924C720.037 80.1184 719.764 80.9706 719.218 81.6491C718.688 82.3276 717.977 82.7992 717.083 83.064ZM710.778 81.6243H713.558C714.253 81.6243 714.783 81.4753 715.147 81.1775C715.528 80.8631 715.718 80.408 715.718 79.8122C715.718 79.2165 715.528 78.7614 715.147 78.447C714.783 78.1326 714.253 77.9754 713.558 77.9754H710.778V81.6243ZM713.906 88.5745C714.618 88.5745 715.164 88.4173 715.544 88.1029C715.941 87.7719 716.14 87.3003 716.14 86.688C716.14 86.0757 715.933 85.5958 715.519 85.2483C715.122 84.9008 714.568 84.7271 713.856 84.7271H710.778V88.5745H713.906Z" fill="#FFFEFD"/>
<path d="M717.083 83.064L716.731 81.874L716.825 84.2778L717.083 83.064ZM719.516 84.5781L718.533 85.3359L718.541 85.3458L719.516 84.5781ZM718.895 90.7341L719.691 91.6862L719.693 91.685L718.895 90.7341ZM706.534 92H705.293V93.2411H706.534V92ZM706.534 74.5747V73.3336H705.293V74.5747H706.534ZM718.523 75.791L717.738 76.7523L717.746 76.7586L718.523 75.791ZM719.218 81.6491L718.251 80.8709L718.245 80.8781L718.24 80.8855L719.218 81.6491ZM710.778 81.6243H709.537V82.8654H710.778V81.6243ZM715.147 81.1775L715.933 82.1381L715.938 82.1343L715.147 81.1775ZM715.147 78.447L714.336 79.3863L714.346 79.3952L714.357 79.4039L715.147 78.447ZM710.778 77.9754V76.7343H709.537V77.9754H710.778ZM715.544 88.1029L716.335 89.0598L716.339 89.0563L715.544 88.1029ZM715.519 85.2483L714.702 86.1824L714.712 86.1906L714.721 86.1987L715.519 85.2483ZM710.778 84.7271V83.4859H709.537V84.7271H710.778ZM710.778 88.5745H709.537V89.8156H710.778V88.5745ZM717.083 83.064L716.825 84.2778C717.555 84.4335 718.106 84.782 718.533 85.3358L719.516 84.5781L720.499 83.8204C719.701 82.7857 718.63 82.1246 717.342 81.8501L717.083 83.064ZM719.516 84.5781L718.541 85.3458C718.977 85.9001 719.193 86.522 719.193 87.2589H720.434H721.675C721.675 85.977 721.279 84.8117 720.491 83.8104L719.516 84.5781ZM720.434 87.2589H719.193C719.193 88.3847 718.816 89.1809 718.098 89.7831L718.895 90.7341L719.693 91.685C721.027 90.5662 721.675 89.0457 721.675 87.2589H720.434ZM718.895 90.7341L718.099 89.7819C717.385 90.3786 716.291 90.7589 714.651 90.7589V92V93.2411C716.651 93.2411 718.386 92.7774 719.691 91.6862L718.895 90.7341ZM714.651 92V90.7589H706.534V92V93.2411H714.651V92ZM706.534 92H707.775V74.5747H706.534H705.293V92H706.534ZM706.534 74.5747V75.8158H714.378V74.5747V73.3336H706.534V74.5747ZM714.378 74.5747V75.8158C715.97 75.8158 717.038 76.1807 717.738 76.7523L718.523 75.791L719.308 74.8297C718.022 73.7796 716.326 73.3336 714.378 73.3336V74.5747ZM718.523 75.791L717.746 76.7586C718.438 77.3147 718.796 78.0467 718.796 79.0924H720.037H721.278C721.278 77.3579 720.627 75.8891 719.3 74.8234L718.523 75.791ZM720.037 79.0924H718.796C718.796 79.8879 718.589 80.4507 718.251 80.8709L719.218 81.6491L720.185 82.4273C720.939 81.4905 721.278 80.3489 721.278 79.0924H720.037ZM719.218 81.6491L718.24 80.8855C717.882 81.343 717.398 81.6763 716.731 81.874L717.083 83.064L717.436 84.2539C718.556 83.9221 719.494 83.3121 720.196 82.4127L719.218 81.6491ZM710.778 81.6243V82.8654H713.558V81.6243V80.3832H710.778V81.6243ZM713.558 81.6243V82.8654C714.408 82.8654 715.263 82.6864 715.933 82.138L715.147 81.1775L714.361 80.2169C714.303 80.2643 714.099 80.3832 713.558 80.3832V81.6243ZM715.147 81.1775L715.938 82.1343C716.663 81.5352 716.959 80.6938 716.959 79.8122H715.718H714.477C714.477 80.1222 714.393 80.1909 714.357 80.2206L715.147 81.1775ZM715.718 79.8122H716.959C716.959 78.9307 716.663 78.0893 715.938 77.4902L715.147 78.447L714.357 79.4039C714.393 79.4336 714.477 79.5023 714.477 79.8122H715.718ZM715.147 78.447L715.958 77.5077C715.287 76.9277 714.421 76.7343 713.558 76.7343V77.9754V79.2165C714.086 79.2165 714.279 79.3375 714.336 79.3863L715.147 78.447ZM713.558 77.9754V76.7343H710.778V77.9754V79.2165H713.558V77.9754ZM710.778 77.9754H709.537V81.6243H710.778H712.019V77.9754H710.778ZM713.906 88.5745V89.8156C714.782 89.8156 715.652 89.624 716.335 89.0597L715.544 88.1029L714.754 87.146C714.676 87.2106 714.453 87.3334 713.906 87.3334V88.5745ZM715.544 88.1029L716.339 89.0563C717.072 88.4453 717.381 87.5934 717.381 86.688H716.14H714.899C714.899 87.0072 714.811 87.0985 714.75 87.1494L715.544 88.1029ZM716.14 86.688H717.381C717.381 85.7639 717.052 84.9144 716.318 84.298L715.519 85.2483L714.721 86.1987C714.815 86.2773 714.899 86.3876 714.899 86.688H716.14ZM715.519 85.2483L716.337 84.3143C715.645 83.7088 714.763 83.4859 713.856 83.4859V84.7271V85.9682C714.373 85.9682 714.6 86.0928 714.702 86.1824L715.519 85.2483ZM713.856 84.7271V83.4859H710.778V84.7271V85.9682H713.856V84.7271ZM710.778 84.7271H709.537V88.5745H710.778H712.019V84.7271H710.778ZM710.778 88.5745V89.8156H713.906V88.5745V87.3334H710.778V88.5745Z" fill="#1C1C1C" mask="url(#path-20-outside-3_24_266)"/>
<path d="M602.992 115.424C591.648 115.424 582.62 107.558 582.62 98.0482C582.62 88.5382 591.648 80.6723 602.992 80.6723C614.336 80.6723 623.364 88.5382 623.364 98.0482C623.364 107.558 614.336 115.424 602.992 115.424Z" fill="#1C1C1C" stroke="#1C1C1C" stroke-width="1.24112"/>
<path d="M620.508 99.2893C620.508 100.317 621.341 101.151 622.37 101.151C623.398 101.151 624.231 100.317 624.231 99.2893L622.37 99.2893L620.508 99.2893ZM622.37 99.2893L624.231 99.2893L624.231 9.3818e-08L622.37 7.62939e-06L620.508 7.53558e-06L620.508 99.2893L622.37 99.2893Z" fill="#1C1C1C"/>
<mask id="path-24-outside-4_24_266" maskUnits="userSpaceOnUse" x="592" y="87" width="22" height="21" fill="black">
<rect fill="white" x="592" y="87" width="22" height="21"/>
<path d="M606.386 102.922H599.883L598.84 106H594.397L600.702 88.5747H605.617L611.922 106H607.429L606.386 102.922ZM605.294 99.6455L603.135 93.2662L601 99.6455H605.294Z"/>
</mask>
<path d="M606.386 102.922H599.883L598.84 106H594.397L600.702 88.5747H605.617L611.922 106H607.429L606.386 102.922ZM605.294 99.6455L603.135 93.2662L601 99.6455H605.294Z" fill="#FFFEFD"/>
<path d="M606.386 102.922L607.562 102.524L607.276 101.681H606.386V102.922ZM599.883 102.922V101.681H598.993L598.707 102.524L599.883 102.922ZM598.84 106V107.241H599.73L600.016 106.398L598.84 106ZM594.397 106L593.23 105.578L592.628 107.241H594.397V106ZM600.702 88.5747V87.3336H599.831L599.535 88.1525L600.702 88.5747ZM605.617 88.5747L606.784 88.1525L606.488 87.3336H605.617V88.5747ZM611.922 106V107.241H613.691L613.089 105.578L611.922 106ZM607.429 106L606.253 106.398L606.539 107.241H607.429V106ZM605.294 99.6455V100.887H607.025L606.47 99.2475L605.294 99.6455ZM603.135 93.2662L604.31 92.8682L603.128 89.3754L601.958 92.8723L603.135 93.2662ZM601 99.6455L599.823 99.2516L599.276 100.887H601V99.6455ZM606.386 102.922V101.681H599.883V102.922V104.163H606.386V102.922ZM599.883 102.922L598.707 102.524L597.665 105.602L598.84 106L600.016 106.398L601.058 103.32L599.883 102.922ZM598.84 106V104.759H594.397V106V107.241H598.84V106ZM594.397 106L595.564 106.422L601.869 88.997L600.702 88.5747L599.535 88.1525L593.23 105.578L594.397 106ZM600.702 88.5747V89.8158H605.617V88.5747V87.3336H600.702V88.5747ZM605.617 88.5747L604.45 88.997L610.755 106.422L611.922 106L613.089 105.578L606.784 88.1525L605.617 88.5747ZM611.922 106V104.759H607.429V106V107.241H611.922V106ZM607.429 106L608.604 105.602L607.562 102.524L606.386 102.922L605.211 103.32L606.253 106.398L607.429 106ZM605.294 99.6455L606.47 99.2475L604.31 92.8682L603.135 93.2662L601.959 93.6641L604.119 100.043L605.294 99.6455ZM603.135 93.2662L601.958 92.8723L599.823 99.2516L601 99.6455L602.177 100.039L604.312 93.66L603.135 93.2662ZM601 99.6455V100.887H605.294V99.6455V98.4044H601V99.6455Z" fill="#1C1C1C" mask="url(#path-24-outside-4_24_266)"/>
<path d="M932.992 32.6201C944.336 32.6201 953.364 40.4861 953.364 49.9961C953.364 59.5062 944.336 67.3721 932.992 67.3721C921.648 67.3721 912.62 59.5062 912.62 49.9961C912.62 40.4861 921.648 32.6201 932.992 32.6201Z" fill="#1C1C1C" stroke="#1C1C1C" stroke-width="1.24112"/>
<path d="M915.476 48.7551C915.476 47.7269 914.643 46.8934 913.615 46.8934C912.587 46.8934 911.753 47.7269 911.753 48.7551L913.615 48.7551L915.476 48.7551ZM913.615 48.7551L911.753 48.7551L911.753 148.044L913.615 148.044L915.476 148.044L915.476 48.7551L913.615 48.7551Z" fill="#1C1C1C"/>
<mask id="path-28-outside-5_24_266" maskUnits="userSpaceOnUse" x="924.995" y="40" width="19" height="21" fill="black">
<rect fill="white" x="924.995" y="40" width="19" height="21"/>
<path d="M933.062 41.5747C934.899 41.5747 936.504 41.9388 937.878 42.6669C939.251 43.395 940.31 44.421 941.055 45.7449C941.816 47.0522 942.197 48.5664 942.197 50.2874C942.197 51.9918 941.816 53.506 941.055 54.8299C940.31 56.1537 939.243 57.1797 937.853 57.9078C936.479 58.6359 934.882 59 933.062 59H926.534V41.5747H933.062ZM932.789 55.3263C934.394 55.3263 935.644 54.8878 936.537 54.0107C937.431 53.1337 937.878 51.8925 937.878 50.2874C937.878 48.6822 937.431 47.4328 936.537 46.5392C935.644 45.6456 934.394 45.1988 932.789 45.1988H930.778V55.3263H932.789Z"/>
</mask>
<path d="M933.062 41.5747C934.899 41.5747 936.504 41.9388 937.878 42.6669C939.251 43.395 940.31 44.421 941.055 45.7449C941.816 47.0522 942.197 48.5664 942.197 50.2874C942.197 51.9918 941.816 53.506 941.055 54.8299C940.31 56.1537 939.243 57.1797 937.853 57.9078C936.479 58.6359 934.882 59 933.062 59H926.534V41.5747H933.062ZM932.789 55.3263C934.394 55.3263 935.644 54.8878 936.537 54.0107C937.431 53.1337 937.878 51.8925 937.878 50.2874C937.878 48.6822 937.431 47.4328 936.537 46.5392C935.644 45.6456 934.394 45.1988 932.789 45.1988H930.778V55.3263H932.789Z" fill="#FFFEFD"/>
<path d="M937.878 42.6669L938.459 41.5704H938.459L937.878 42.6669ZM941.055 45.7449L939.973 46.3534L939.978 46.3614L939.982 46.3694L941.055 45.7449ZM941.055 54.8298L939.979 54.2112L939.973 54.2214L941.055 54.8298ZM937.853 57.9078L937.277 56.8084L937.271 56.8113L937.853 57.9078ZM926.534 59H925.293V60.2411H926.534V59ZM926.534 41.5747V40.3336H925.293V41.5747H926.534ZM930.778 45.1988V43.9577H929.537V45.1988H930.778ZM930.778 55.3263H929.537V56.5674H930.778V55.3263ZM933.062 41.5747V42.8158C934.733 42.8158 936.132 43.1461 937.296 43.7635L937.878 42.6669L938.459 41.5704C936.876 40.7315 935.065 40.3336 933.062 40.3336V41.5747ZM937.878 42.6669L937.296 43.7635C938.465 44.383 939.348 45.2419 939.973 46.3534L941.055 45.7449L942.137 45.1364C941.272 43.6002 940.037 42.4071 938.459 41.5704L937.878 42.6669ZM941.055 45.7449L939.982 46.3694C940.619 47.4622 940.956 48.755 940.956 50.2874H942.197H943.438C943.438 48.3777 943.013 46.6422 942.127 45.1204L941.055 45.7449ZM942.197 50.2874H940.956C940.956 51.8005 940.62 53.0967 939.979 54.2112L941.055 54.8298L942.131 55.4485C943.012 53.9153 943.438 52.1832 943.438 50.2874H942.197ZM941.055 54.8298L939.973 54.2214C939.35 55.3289 938.462 56.1877 937.277 56.8084L937.853 57.9078L938.429 59.0072C940.024 58.1717 941.27 56.9785 942.137 55.4383L941.055 54.8298ZM937.853 57.9078L937.271 56.8113C936.105 57.4294 934.714 57.7589 933.062 57.7589V59V60.2411C935.05 60.2411 936.853 59.8424 938.434 59.0044L937.853 57.9078ZM933.062 59V57.7589H926.534V59V60.2411H933.062V59ZM926.534 59H927.775V41.5747H926.534H925.293V59H926.534ZM926.534 41.5747V42.8158H933.062V41.5747V40.3336H926.534V41.5747ZM932.789 55.3263V56.5674C934.624 56.5674 936.22 56.0606 937.406 54.8965L936.537 54.0107L935.668 53.1249C935.067 53.715 934.165 54.0852 932.789 54.0852V55.3263ZM936.537 54.0107L937.406 54.8965C938.6 53.7249 939.119 52.127 939.119 50.2874H937.878H936.636C936.636 51.658 936.261 52.5424 935.668 53.1249L936.537 54.0107ZM937.878 50.2874H939.119C939.119 48.4465 938.6 46.8466 937.415 45.6616L936.537 46.5392L935.66 47.4168C936.262 48.019 936.636 48.9179 936.636 50.2874H937.878ZM936.537 46.5392L937.415 45.6616C936.23 44.4766 934.63 43.9577 932.789 43.9577V45.1988V46.4399C934.158 46.4399 935.057 46.8146 935.66 47.4168L936.537 46.5392ZM932.789 45.1988V43.9577H930.778V45.1988V46.4399H932.789V45.1988ZM930.778 45.1988H929.537V55.3263H930.778H932.019V45.1988H930.778ZM930.778 55.3263V56.5674H932.789V55.3263V54.0852H930.778V55.3263Z" fill="#1C1C1C" mask="url(#path-28-outside-5_24_266)"/>
<path d="M822.992 49.6201C834.336 49.6201 843.364 57.4861 843.364 66.9961C843.364 76.5062 834.336 84.3721 822.992 84.3721C811.648 84.3721 802.62 76.5062 802.62 66.9961C802.62 57.4861 811.648 49.6201 822.992 49.6201Z" fill="#1C1C1C" stroke="#1C1C1C" stroke-width="1.24112"/>
<path d="M805.476 65.7551C805.476 64.7269 804.643 63.8934 803.615 63.8934C802.587 63.8934 801.753 64.7269 801.753 65.7551L803.615 65.7551L805.476 65.7551ZM803.615 65.7551L801.753 65.7551L801.753 165.044L803.615 165.044L805.476 165.044L805.476 65.7551L803.615 65.7551Z" fill="#1C1C1C"/>
<path d="M806.664 67.9156C806.664 66.5202 806.966 65.279 807.57 64.1922C808.174 63.092 809.012 62.24 810.086 61.6362C811.172 61.019 812.4 60.7104 813.769 60.7104C815.446 60.7104 816.882 61.1532 818.076 62.0387C819.27 62.9243 820.068 64.1318 820.471 65.6614H816.687C816.405 65.0711 816.003 64.6216 815.479 64.313C814.97 64.0044 814.386 63.8501 813.728 63.8501C812.668 63.8501 811.81 64.2191 811.152 64.957C810.495 65.695 810.166 66.6812 810.166 67.9156C810.166 69.15 810.495 70.1362 811.152 70.8741C811.81 71.6121 812.668 71.9811 813.728 71.9811C814.386 71.9811 814.97 71.8268 815.479 71.5182C816.003 71.2096 816.405 70.7601 816.687 70.1697H820.471C820.068 71.6993 819.27 72.9069 818.076 73.7924C816.882 74.6646 815.446 75.1006 813.769 75.1006C812.4 75.1006 811.172 74.7987 810.086 74.195C809.012 73.5777 808.174 72.7257 807.57 71.6389C806.966 70.5521 806.664 69.311 806.664 67.9156ZM835.721 66.1847L835.157 68.8213H837.572V71.9207H834.493L833.829 75H830.609L831.273 71.9207H827.932L827.268 75H824.048L824.712 71.9207H821.733V68.8213H825.376L825.939 66.1847H823.021V63.0853H826.583L827.227 60.1066H830.448L829.804 63.0853H833.145L833.789 60.1066H837.009L836.365 63.0853H838.86V66.1847H835.721ZM832.501 66.1847H829.16L828.596 68.8213H831.937L832.501 66.1847Z" fill="#FFFEFD"/>
</svg>
