<svg width="376" height="488" viewBox="0 0 376 488" fill="none" xmlns="http://www.w3.org/2000/svg">
<path d="M151.818 41.748C153.953 41.748 155.818 42.1711 157.415 43.0173C159.011 43.8636 160.242 45.056 161.107 46.5946C161.992 48.114 162.434 49.8738 162.434 51.874C162.434 53.855 161.992 55.6148 161.107 57.1534C160.242 58.692 159.001 59.8844 157.386 60.7306C155.789 61.5769 153.934 62 151.818 62H144.231V41.748H151.818ZM151.501 57.7303C153.366 57.7303 154.818 57.2207 155.857 56.2013C156.895 55.182 157.415 53.7396 157.415 51.874C157.415 50.0084 156.895 48.5564 155.857 47.5178C154.818 46.4792 153.366 45.9599 151.501 45.9599H149.164V57.7303H151.501Z" fill="#1C1C1C"/>
<path d="M212.733 58.4227H205.174L203.962 62H198.798L206.126 41.748H211.838L219.166 62H213.944L212.733 58.4227ZM211.463 54.6147L208.953 47.2005L206.472 54.6147H211.463Z" fill="#1C1C1C"/>
<path d="M264.56 45.7003V49.7969H271.166V53.6049H264.56V58.0477H272.032V62H259.627V41.748H272.032V45.7003H264.56Z" fill="#1C1C1C"/>
<path d="M41.0508 112.941H319.268C320.169 112.941 320.931 113.606 321.054 114.499L371.655 483.226C371.804 484.308 370.962 485.273 369.869 485.273H4.9707C3.90552 485.273 3.07208 484.355 3.17578 483.295L39.2568 114.568C39.3472 113.645 40.1231 112.941 41.0508 112.941Z" fill="#FFFEFD" stroke="#1C1C1C" stroke-width="5.40919"/>
<path d="M88.8009 98.0656L90.1532 74.175" stroke="#1C1C1C" stroke-width="8"/>
<path d="M268.037 111.5L302.013 485.292" stroke="#1C1C1C" stroke-width="2.7046"/>
<path d="M209.03 110.341L217.673 484.149" stroke="#1C1C1C" stroke-width="2.7046"/>
<path d="M86.5472 110.085L60.3374 483.322" stroke="#1C1C1C" stroke-width="8"/>
<path d="M148.075 109.995L134.448 484.443" stroke="#1C1C1C" stroke-width="2.7046"/>
<mask id="path-10-inside-1_28_783" fill="white">
<rect x="37.8643" y="70.5688" width="283.081" height="31.5536" rx="4.50766"/>
</mask>
<rect x="37.8643" y="70.5688" width="283.081" height="31.5536" rx="4.50766" stroke="#1C1C1C" stroke-width="10.8184" mask="url(#path-10-inside-1_28_783)"/>
<path d="M149.407 101.721L150.803 74.1264" stroke="#1C1C1C" stroke-width="2.7046"/>
<path d="M208.787 101.783L208.122 74.1617" stroke="#1C1C1C" stroke-width="2.7046"/>
<path d="M267.374 100.854L265.154 73.3143" stroke="#1C1C1C" stroke-width="2.7046"/>
<circle cx="90.0372" cy="30" r="30" fill="#1C1C1C"/>
</svg>
