<svg width="376" height="487" viewBox="0 0 376 487" fill="none" xmlns="http://www.w3.org/2000/svg">
<path d="M93.6656 47.1525C93.3002 46.4793 92.7713 45.9697 92.0789 45.6235C91.4058 45.2581 90.6076 45.0753 89.6845 45.0753C88.0882 45.0753 86.8092 45.6042 85.8475 46.662C84.8859 47.7006 84.4051 49.095 84.4051 50.8451C84.4051 52.7107 84.9051 54.1724 85.9052 55.2302C86.9246 56.2688 88.3189 56.788 90.0884 56.788C91.3 56.788 92.3193 56.4803 93.1463 55.8649C93.9926 55.2494 94.608 54.3647 94.9927 53.2108H88.7324V49.5758H99.4643V54.1628C99.0989 55.3937 98.4738 56.538 97.5891 57.5958C96.7236 58.6536 95.6177 59.5095 94.2715 60.1634C92.9252 60.8173 91.4058 61.1442 89.7133 61.1442C87.7131 61.1442 85.9245 60.7115 84.3474 59.846C82.7896 58.9613 81.5683 57.7401 80.6836 56.1822C79.8181 54.6244 79.3854 52.8453 79.3854 50.8451C79.3854 48.8449 79.8181 47.0659 80.6836 45.5081C81.5683 43.931 82.7896 42.7097 84.3474 41.8443C85.9052 40.9595 87.6843 40.5172 89.6845 40.5172C92.1078 40.5172 94.1464 41.1038 95.8005 42.277C97.4737 43.4502 98.5796 45.0753 99.1181 47.1525H93.6656Z" fill="#1C1C1C"/>
<path d="M151.818 40.748C153.953 40.748 155.818 41.1711 157.415 42.0173C159.011 42.8636 160.242 44.056 161.107 45.5946C161.992 47.114 162.434 48.8738 162.434 50.874C162.434 52.855 161.992 54.6148 161.107 56.1534C160.242 57.692 159.001 58.8844 157.386 59.7306C155.789 60.5769 153.934 61 151.818 61H144.231V40.748H151.818ZM151.501 56.7303C153.366 56.7303 154.818 56.2207 155.857 55.2013C156.895 54.182 157.415 52.7396 157.415 50.874C157.415 49.0084 156.895 47.5564 155.857 46.5178C154.818 45.4792 153.366 44.9599 151.501 44.9599H149.164V56.7303H151.501Z" fill="#1C1C1C"/>
<path d="M264.56 44.7003V48.7969H271.166V52.6049H264.56V57.0477H272.032V61H259.627V40.748H272.032V44.7003H264.56Z" fill="#1C1C1C"/>
<path d="M41.0508 111.941H319.268C320.169 111.941 320.931 112.606 321.054 113.499L371.655 482.226C371.804 483.308 370.962 484.273 369.869 484.273H4.9707C3.90552 484.273 3.07208 483.355 3.17578 482.295L39.2568 113.568C39.3472 112.645 40.1231 111.941 41.0508 111.941Z" fill="#FFFEFD" stroke="#1C1C1C" stroke-width="5.40919"/>
<path d="M88.8009 97.0656L90.1532 73.175" stroke="#1C1C1C" stroke-width="2.7046"/>
<path d="M269 111L302.013 484.292" stroke="#1C1C1C" stroke-width="2.7046"/>
<path d="M209.03 109.341L217.673 483.149" stroke="#1C1C1C" stroke-width="8"/>
<path d="M86.5473 109.085L60.3376 482.322" stroke="#1C1C1C" stroke-width="2.7046"/>
<path d="M148.075 108.995L134.448 483.443" stroke="#1C1C1C" stroke-width="2.7046"/>
<mask id="path-10-inside-1_28_762" fill="white">
<rect x="37.8644" y="69.5688" width="283.081" height="31.5536" rx="4.50766"/>
</mask>
<rect x="37.8644" y="69.5688" width="283.081" height="31.5536" rx="4.50766" stroke="#1C1C1C" stroke-width="10.8184" mask="url(#path-10-inside-1_28_762)"/>
<path d="M149.408 100.721L150.803 73.1264" stroke="#1C1C1C" stroke-width="2.7046"/>
<path d="M208.787 100.783L208.122 73.1617" stroke="#1C1C1C" stroke-width="8"/>
<path d="M267.374 99.8544L265.154 72.3143" stroke="#1C1C1C" stroke-width="2.7046"/>
<circle cx="209" cy="30" r="30" fill="#1C1C1C"/>
</svg>
