<svg width="1081" height="190" viewBox="0 0 1081 190" fill="none" xmlns="http://www.w3.org/2000/svg">
<path d="M0 18.7131L1080.5 18.7131" stroke="#1C1C1C" stroke-width="2.48223"/>
<path d="M0 50.9822L1080.5 50.9822" stroke="#1C1C1C" stroke-width="2.48223"/>
<path d="M0 83.2512L1080.5 83.2512" stroke="#1C1C1C" stroke-width="2.48223"/>
<path d="M0 115.52L1080.5 115.52" stroke="#1C1C1C" stroke-width="2.48223"/>
<path d="M0 147.789L1080.5 147.789" stroke="#1C1C1C" stroke-width="2.48223"/>
<path d="M26.375 129.172C28.7075 113.452 37.8938 86.7262 55.9794 105.591C78.5864 129.172 36.602 166.406 16.1481 141.584C-0.21509 121.726 28.9146 89.0006 41.4464 69.5988C53.9781 50.1971 63.8379 3.07503 41.4464 5.06081C19.0548 7.0466 44.6757 137.24 44.6757 170.75C44.6757 204.26 32.2952 178.817 33.9105 176.955" stroke="#1C1C1C" stroke-width="3.72335" stroke-linecap="round"/>
<path d="M152.992 184.424C141.648 184.424 132.62 176.558 132.62 167.048C132.62 157.538 141.648 149.672 152.992 149.672C164.336 149.672 173.364 157.538 173.364 167.048C173.364 176.558 164.336 184.424 152.992 184.424Z" fill="#1C1C1C" stroke="#1C1C1C" stroke-width="1.24112"/>
<path d="M170.508 168.289C170.508 169.317 171.341 170.151 172.37 170.151C173.398 170.151 174.231 169.317 174.231 168.289L172.37 168.289L170.508 168.289ZM172.37 168.289L174.231 168.289L174.231 69L172.37 69L170.508 69L170.508 168.289L172.37 168.289Z" fill="#1C1C1C"/>
<mask id="path-9-outside-1_24_268" maskUnits="userSpaceOnUse" x="145" y="156" width="19" height="21" fill="black">
<rect fill="white" x="145" y="156" width="19" height="21"/>
<path d="M153.067 157.575C154.904 157.575 156.509 157.939 157.883 158.667C159.256 159.395 160.315 160.421 161.06 161.745C161.821 163.052 162.202 164.566 162.202 166.287C162.202 167.992 161.821 169.506 161.06 170.83C160.315 172.154 159.248 173.18 157.858 173.908C156.484 174.636 154.888 175 153.067 175H146.539V157.575H153.067ZM152.794 171.326C154.399 171.326 155.649 170.888 156.542 170.011C157.436 169.134 157.883 167.893 157.883 166.287C157.883 164.682 157.436 163.433 156.542 162.539C155.649 161.646 154.399 161.199 152.794 161.199H150.784V171.326H152.794Z"/>
</mask>
<path d="M153.067 157.575C154.904 157.575 156.509 157.939 157.883 158.667C159.256 159.395 160.315 160.421 161.06 161.745C161.821 163.052 162.202 164.566 162.202 166.287C162.202 167.992 161.821 169.506 161.06 170.83C160.315 172.154 159.248 173.18 157.858 173.908C156.484 174.636 154.888 175 153.067 175H146.539V157.575H153.067ZM152.794 171.326C154.399 171.326 155.649 170.888 156.542 170.011C157.436 169.134 157.883 167.893 157.883 166.287C157.883 164.682 157.436 163.433 156.542 162.539C155.649 161.646 154.399 161.199 152.794 161.199H150.784V171.326H152.794Z" fill="#FFFEFD"/>
<path d="M157.883 158.667L158.464 157.57H158.464L157.883 158.667ZM161.06 161.745L159.978 162.353L159.983 162.361L159.987 162.369L161.06 161.745ZM161.06 170.83L159.984 170.211L159.978 170.221L161.06 170.83ZM157.858 173.908L157.282 172.808L157.277 172.811L157.858 173.908ZM146.539 175H145.298V176.241H146.539V175ZM146.539 157.575V156.334H145.298V157.575H146.539ZM150.784 161.199V159.958H149.542V161.199H150.784ZM150.784 171.326H149.542V172.567H150.784V171.326ZM153.067 157.575V158.816C154.738 158.816 156.137 159.146 157.301 159.763L157.883 158.667L158.464 157.57C156.882 156.731 155.07 156.334 153.067 156.334V157.575ZM157.883 158.667L157.301 159.763C158.47 160.383 159.353 161.242 159.978 162.353L161.06 161.745L162.142 161.136C161.278 159.6 160.043 158.407 158.464 157.57L157.883 158.667ZM161.06 161.745L159.987 162.369C160.624 163.462 160.961 164.755 160.961 166.287H162.202H163.443C163.443 164.378 163.019 162.642 162.133 161.12L161.06 161.745ZM162.202 166.287H160.961C160.961 167.8 160.625 169.097 159.984 170.211L161.06 170.83L162.136 171.449C163.018 169.915 163.443 168.183 163.443 166.287H162.202ZM161.06 170.83L159.978 170.221C159.355 171.329 158.467 172.188 157.282 172.808L157.858 173.908L158.434 175.007C160.029 174.172 161.275 172.978 162.142 171.438L161.06 170.83ZM157.858 173.908L157.277 172.811C156.111 173.429 154.72 173.759 153.067 173.759V175V176.241C155.056 176.241 156.858 175.842 158.439 175.004L157.858 173.908ZM153.067 175V173.759H146.539V175V176.241H153.067V175ZM146.539 175H147.78V157.575H146.539H145.298V175H146.539ZM146.539 157.575V158.816H153.067V157.575V156.334H146.539V157.575ZM152.794 171.326V172.567C154.629 172.567 156.226 172.061 157.412 170.896L156.542 170.011L155.673 169.125C155.072 169.715 154.17 170.085 152.794 170.085V171.326ZM156.542 170.011L157.412 170.896C158.605 169.725 159.124 168.127 159.124 166.287H157.883H156.642C156.642 167.658 156.267 168.542 155.673 169.125L156.542 170.011ZM157.883 166.287H159.124C159.124 164.446 158.605 162.847 157.42 161.662L156.542 162.539L155.665 163.417C156.267 164.019 156.642 164.918 156.642 166.287H157.883ZM156.542 162.539L157.42 161.662C156.235 160.477 154.635 159.958 152.794 159.958V161.199V162.44C154.164 162.44 155.063 162.815 155.665 163.417L156.542 162.539ZM152.794 161.199V159.958H150.784V161.199V162.44H152.794V161.199ZM150.784 161.199H149.542V171.326H150.784H152.025V161.199H150.784ZM150.784 171.326V172.567H152.794V171.326V170.085H150.784V171.326Z" fill="#1C1C1C" mask="url(#path-9-outside-1_24_268)"/>
<path d="M372.992 147.424C361.648 147.424 352.62 139.558 352.62 130.048C352.62 120.538 361.648 112.672 372.992 112.672C384.336 112.672 393.364 120.538 393.364 130.048C393.364 139.558 384.336 147.424 372.992 147.424Z" fill="#1C1C1C" stroke="#1C1C1C" stroke-width="1.24112"/>
<path d="M390.508 131.289C390.508 132.317 391.342 133.151 392.37 133.151C393.398 133.151 394.231 132.317 394.231 131.289L392.37 131.289L390.508 131.289ZM392.37 131.289L394.231 131.289L394.231 32L392.37 32L390.508 32L390.508 131.289L392.37 131.289Z" fill="#1C1C1C"/>
<path d="M369.511 122.871V125.629H363.755V128.607H368.062V131.284H363.755V137H360.313V122.871H369.511ZM384.462 128.185L383.899 130.821H386.314V133.921H383.235L382.57 137H379.35L380.014 133.921H376.673L376.009 137H372.789L373.453 133.921H370.475V130.821H374.117L374.681 128.185H371.763V125.085H375.325L375.969 122.107H379.189L378.545 125.085H381.886L382.53 122.107H385.75L385.106 125.085H387.602V128.185H384.462ZM381.242 128.185H377.901L377.338 130.821H380.679L381.242 128.185Z" fill="#FFFEFD"/>
<path d="M482.992 136.424C471.648 136.424 462.62 128.558 462.62 119.048C462.62 109.538 471.648 101.672 482.992 101.672C494.336 101.672 503.364 109.538 503.364 119.048C503.364 128.558 494.336 136.424 482.992 136.424Z" fill="#1C1C1C" stroke="#1C1C1C" stroke-width="1.24112"/>
<path d="M500.508 120.289C500.508 121.317 501.341 122.151 502.37 122.151C503.398 122.151 504.231 121.317 504.231 120.289L502.37 120.289L500.508 120.289ZM502.37 120.289L504.231 120.289L504.231 21L502.37 21L500.508 21L500.508 120.289L502.37 120.289Z" fill="#1C1C1C"/>
<path d="M485.626 116.339C485.371 115.87 485.002 115.514 484.519 115.273C484.05 115.018 483.493 114.89 482.849 114.89C481.735 114.89 480.843 115.259 480.172 115.997C479.501 116.722 479.166 117.695 479.166 118.916C479.166 120.217 479.515 121.237 480.212 121.975C480.924 122.699 481.896 123.062 483.131 123.062C483.976 123.062 484.687 122.847 485.264 122.418C485.854 121.988 486.284 121.371 486.552 120.566H482.185V118.03H489.672V121.23C489.417 122.089 488.981 122.887 488.364 123.625C487.76 124.363 486.988 124.96 486.049 125.416C485.11 125.873 484.05 126.101 482.869 126.101C481.474 126.101 480.226 125.799 479.126 125.195C478.039 124.578 477.187 123.726 476.57 122.639C475.966 121.552 475.664 120.311 475.664 118.916C475.664 117.52 475.966 116.279 476.57 115.192C477.187 114.092 478.039 113.24 479.126 112.636C480.212 112.019 481.454 111.71 482.849 111.71C484.54 111.71 485.962 112.12 487.116 112.938C488.283 113.757 489.055 114.89 489.43 116.339H485.626Z" fill="#FFFEFD"/>
<path d="M602.992 115.424C591.648 115.424 582.62 107.558 582.62 98.0482C582.62 88.5381 591.648 80.6722 602.992 80.6722C614.336 80.6723 623.364 88.5381 623.364 98.0482C623.364 107.558 614.336 115.424 602.992 115.424Z" fill="#1C1C1C" stroke="#1C1C1C" stroke-width="1.24112"/>
<path d="M620.508 99.2892C620.508 100.317 621.341 101.151 622.37 101.151C623.398 101.151 624.231 100.317 624.231 99.2892L622.37 99.2892L620.508 99.2892ZM622.37 99.2892L624.231 99.2892L624.231 -2.27944e-05L622.37 -1.52588e-05L620.508 -1.53526e-05L620.508 99.2892L622.37 99.2892Z" fill="#1C1C1C"/>
<mask id="path-19-outside-2_24_268" maskUnits="userSpaceOnUse" x="592" y="87" width="22" height="21" fill="black">
<rect fill="white" x="592" y="87" width="22" height="21"/>
<path d="M606.386 102.922H599.883L598.84 106H594.397L600.702 88.5747H605.617L611.922 106H607.429L606.386 102.922ZM605.294 99.6455L603.135 93.2662L601 99.6455H605.294Z"/>
</mask>
<path d="M606.386 102.922H599.883L598.84 106H594.397L600.702 88.5747H605.617L611.922 106H607.429L606.386 102.922ZM605.294 99.6455L603.135 93.2662L601 99.6455H605.294Z" fill="#FFFEFD"/>
<path d="M606.386 102.922L607.562 102.524L607.276 101.681H606.386V102.922ZM599.883 102.922V101.681H598.993L598.707 102.524L599.883 102.922ZM598.84 106V107.241H599.73L600.016 106.398L598.84 106ZM594.397 106L593.23 105.578L592.628 107.241H594.397V106ZM600.702 88.5747V87.3336H599.831L599.535 88.1525L600.702 88.5747ZM605.617 88.5747L606.784 88.1525L606.488 87.3336H605.617V88.5747ZM611.922 106V107.241H613.691L613.089 105.578L611.922 106ZM607.429 106L606.253 106.398L606.539 107.241H607.429V106ZM605.294 99.6455V100.887H607.025L606.47 99.2475L605.294 99.6455ZM603.135 93.2662L604.31 92.8682L603.128 89.3754L601.958 92.8723L603.135 93.2662ZM601 99.6455L599.823 99.2516L599.276 100.887H601V99.6455ZM606.386 102.922V101.681H599.883V102.922V104.163H606.386V102.922ZM599.883 102.922L598.707 102.524L597.665 105.602L598.84 106L600.016 106.398L601.058 103.32L599.883 102.922ZM598.84 106V104.759H594.397V106V107.241H598.84V106ZM594.397 106L595.564 106.422L601.869 88.997L600.702 88.5747L599.535 88.1525L593.23 105.578L594.397 106ZM600.702 88.5747V89.8158H605.617V88.5747V87.3336H600.702V88.5747ZM605.617 88.5747L604.45 88.997L610.755 106.422L611.922 106L613.089 105.578L606.784 88.1525L605.617 88.5747ZM611.922 106V104.759H607.429V106V107.241H611.922V106ZM607.429 106L608.604 105.602L607.562 102.524L606.386 102.922L605.211 103.32L606.253 106.398L607.429 106ZM605.294 99.6455L606.47 99.2475L604.31 92.8682L603.135 93.2662L601.959 93.6641L604.119 100.043L605.294 99.6455ZM603.135 93.2662L601.958 92.8723L599.823 99.2516L601 99.6455L602.177 100.039L604.312 93.66L603.135 93.2662ZM601 99.6455V100.887H605.294V99.6455V98.4044H601V99.6455Z" fill="#1C1C1C" mask="url(#path-19-outside-2_24_268)"/>
<path d="M932.992 32.6201C944.336 32.6201 953.364 40.4861 953.364 49.9961C953.364 59.5062 944.336 67.3721 932.992 67.3721C921.648 67.3721 912.62 59.5062 912.62 49.9961C912.62 40.4861 921.648 32.6201 932.992 32.6201Z" fill="#1C1C1C" stroke="#1C1C1C" stroke-width="1.24112"/>
<path d="M915.476 48.7551C915.476 47.7269 914.643 46.8934 913.615 46.8934C912.587 46.8934 911.753 47.7269 911.753 48.7551L913.615 48.7551L915.476 48.7551ZM913.615 48.7551L911.753 48.7551L911.753 148.044L913.615 148.044L915.476 148.044L915.476 48.7551L913.615 48.7551Z" fill="#1C1C1C"/>
<mask id="path-23-outside-3_24_268" maskUnits="userSpaceOnUse" x="924.995" y="40" width="19" height="21" fill="black">
<rect fill="white" x="924.995" y="40" width="19" height="21"/>
<path d="M933.062 41.5747C934.899 41.5747 936.504 41.9388 937.878 42.6669C939.251 43.395 940.31 44.421 941.055 45.7449C941.816 47.0522 942.197 48.5664 942.197 50.2874C942.197 51.9918 941.816 53.506 941.055 54.8299C940.31 56.1537 939.243 57.1797 937.853 57.9078C936.479 58.6359 934.882 59 933.062 59H926.534V41.5747H933.062ZM932.789 55.3263C934.394 55.3263 935.644 54.8878 936.537 54.0107C937.431 53.1337 937.878 51.8925 937.878 50.2874C937.878 48.6822 937.431 47.4328 936.537 46.5392C935.644 45.6456 934.394 45.1988 932.789 45.1988H930.778V55.3263H932.789Z"/>
</mask>
<path d="M933.062 41.5747C934.899 41.5747 936.504 41.9388 937.878 42.6669C939.251 43.395 940.31 44.421 941.055 45.7449C941.816 47.0522 942.197 48.5664 942.197 50.2874C942.197 51.9918 941.816 53.506 941.055 54.8299C940.31 56.1537 939.243 57.1797 937.853 57.9078C936.479 58.6359 934.882 59 933.062 59H926.534V41.5747H933.062ZM932.789 55.3263C934.394 55.3263 935.644 54.8878 936.537 54.0107C937.431 53.1337 937.878 51.8925 937.878 50.2874C937.878 48.6822 937.431 47.4328 936.537 46.5392C935.644 45.6456 934.394 45.1988 932.789 45.1988H930.778V55.3263H932.789Z" fill="#FFFEFD"/>
<path d="M937.878 42.6669L938.459 41.5704H938.459L937.878 42.6669ZM941.055 45.7449L939.973 46.3534L939.978 46.3614L939.982 46.3694L941.055 45.7449ZM941.055 54.8298L939.979 54.2112L939.973 54.2214L941.055 54.8298ZM937.853 57.9078L937.277 56.8084L937.271 56.8113L937.853 57.9078ZM926.534 59H925.293V60.2411H926.534V59ZM926.534 41.5747V40.3336H925.293V41.5747H926.534ZM930.778 45.1988V43.9577H929.537V45.1988H930.778ZM930.778 55.3263H929.537V56.5674H930.778V55.3263ZM933.062 41.5747V42.8158C934.733 42.8158 936.132 43.1461 937.296 43.7635L937.878 42.6669L938.459 41.5704C936.876 40.7315 935.065 40.3336 933.062 40.3336V41.5747ZM937.878 42.6669L937.296 43.7635C938.465 44.383 939.348 45.2419 939.973 46.3534L941.055 45.7449L942.137 45.1364C941.272 43.6002 940.037 42.4071 938.459 41.5704L937.878 42.6669ZM941.055 45.7449L939.982 46.3694C940.619 47.4622 940.956 48.755 940.956 50.2874H942.197H943.438C943.438 48.3777 943.013 46.6422 942.127 45.1204L941.055 45.7449ZM942.197 50.2874H940.956C940.956 51.8005 940.62 53.0967 939.979 54.2112L941.055 54.8298L942.131 55.4485C943.012 53.9153 943.438 52.1832 943.438 50.2874H942.197ZM941.055 54.8298L939.973 54.2214C939.35 55.3289 938.462 56.1877 937.277 56.8084L937.853 57.9078L938.429 59.0072C940.024 58.1717 941.27 56.9785 942.137 55.4383L941.055 54.8298ZM937.853 57.9078L937.271 56.8113C936.105 57.4294 934.714 57.7589 933.062 57.7589V59V60.2411C935.05 60.2411 936.853 59.8424 938.434 59.0044L937.853 57.9078ZM933.062 59V57.7589H926.534V59V60.2411H933.062V59ZM926.534 59H927.775V41.5747H926.534H925.293V59H926.534ZM926.534 41.5747V42.8158H933.062V41.5747V40.3336H926.534V41.5747ZM932.789 55.3263V56.5674C934.624 56.5674 936.22 56.0606 937.406 54.8965L936.537 54.0107L935.668 53.1249C935.067 53.715 934.165 54.0852 932.789 54.0852V55.3263ZM936.537 54.0107L937.406 54.8965C938.6 53.7249 939.119 52.127 939.119 50.2874H937.878H936.636C936.636 51.658 936.261 52.5424 935.668 53.1249L936.537 54.0107ZM937.878 50.2874H939.119C939.119 48.4465 938.6 46.8466 937.415 45.6616L936.537 46.5392L935.66 47.4168C936.262 48.019 936.636 48.9179 936.636 50.2874H937.878ZM936.537 46.5392L937.415 45.6616C936.23 44.4766 934.63 43.9577 932.789 43.9577V45.1988V46.4399C934.158 46.4399 935.057 46.8146 935.66 47.4168L936.537 46.5392ZM932.789 45.1988V43.9577H930.778V45.1988V46.4399H932.789V45.1988ZM930.778 45.1988H929.537V55.3263H930.778H932.019V45.1988H930.778ZM930.778 55.3263V56.5674H932.789V55.3263V54.0852H930.778V55.3263Z" fill="#1C1C1C" mask="url(#path-23-outside-3_24_268)"/>
<path d="M822.992 49.6201C834.336 49.6201 843.364 57.4861 843.364 66.9961C843.364 76.5062 834.336 84.3721 822.992 84.3721C811.648 84.3721 802.62 76.5062 802.62 66.9961C802.62 57.4861 811.648 49.6201 822.992 49.6201Z" fill="#1C1C1C" stroke="#1C1C1C" stroke-width="1.24112"/>
<path d="M805.476 65.7551C805.476 64.7269 804.643 63.8934 803.615 63.8934C802.587 63.8934 801.753 64.7269 801.753 65.7551L803.615 65.7551L805.476 65.7551ZM803.615 65.7551L801.753 65.7551L801.753 165.044L803.615 165.044L805.476 165.044L805.476 65.7551L803.615 65.7551Z" fill="#1C1C1C"/>
<path d="M806.664 67.9156C806.664 66.5202 806.966 65.279 807.57 64.1922C808.174 63.092 809.012 62.24 810.086 61.6362C811.172 61.019 812.4 60.7104 813.769 60.7104C815.446 60.7104 816.882 61.1532 818.076 62.0387C819.27 62.9243 820.068 64.1318 820.471 65.6614H816.687C816.405 65.0711 816.003 64.6216 815.479 64.313C814.97 64.0044 814.386 63.8501 813.728 63.8501C812.668 63.8501 811.81 64.2191 811.152 64.957C810.495 65.695 810.166 66.6812 810.166 67.9156C810.166 69.15 810.495 70.1362 811.152 70.8741C811.81 71.6121 812.668 71.9811 813.728 71.9811C814.386 71.9811 814.97 71.8268 815.479 71.5182C816.003 71.2096 816.405 70.7601 816.687 70.1697H820.471C820.068 71.6993 819.27 72.9069 818.076 73.7924C816.882 74.6646 815.446 75.1006 813.769 75.1006C812.4 75.1006 811.172 74.7987 810.086 74.195C809.012 73.5777 808.174 72.7257 807.57 71.6389C806.966 70.5521 806.664 69.311 806.664 67.9156ZM835.721 66.1847L835.157 68.8213H837.572V71.9207H834.493L833.829 75H830.609L831.273 71.9207H827.932L827.268 75H824.048L824.712 71.9207H821.733V68.8213H825.376L825.939 66.1847H823.021V63.0853H826.583L827.227 60.1066H830.448L829.804 63.0853H833.145L833.789 60.1066H837.009L836.365 63.0853H838.86V66.1847H835.721ZM832.501 66.1847H829.16L828.596 68.8213H831.937L832.501 66.1847Z" fill="#FFFEFD"/>
<path d="M712.992 64.6201C724.336 64.6201 733.364 72.4861 733.364 81.9961C733.364 91.5062 724.336 99.3721 712.992 99.3721C701.648 99.3721 692.62 91.5062 692.62 81.9961C692.62 72.4861 701.648 64.6201 712.992 64.6201Z" fill="#1C1C1C" stroke="#1C1C1C" stroke-width="1.24112"/>
<path d="M695.476 80.7551C695.476 79.7269 694.643 78.8934 693.615 78.8934C692.587 78.8934 691.753 79.7269 691.753 80.7551L693.615 80.7551L695.476 80.7551ZM693.615 80.7551L691.753 80.7551L691.753 180.044L693.615 180.044L695.476 180.044L695.476 80.7551L693.615 80.7551Z" fill="#1C1C1C"/>
<mask id="path-30-outside-4_24_268" maskUnits="userSpaceOnUse" x="704.995" y="72" width="17" height="21" fill="black">
<rect fill="white" x="704.995" y="72" width="17" height="21"/>
<path d="M717.083 82.064C718.093 82.2791 718.904 82.7838 719.516 83.5781C720.128 84.3559 720.434 85.2495 720.434 86.2589C720.434 87.7152 719.921 88.8736 718.895 89.7341C717.886 90.578 716.471 91 714.651 91H706.534V73.5747H714.378C716.148 73.5747 717.53 73.9802 718.523 74.791C719.532 75.6019 720.037 76.7023 720.037 78.0924C720.037 79.1184 719.764 79.9706 719.218 80.6491C718.688 81.3276 717.977 81.7992 717.083 82.064ZM710.778 80.6243H713.558C714.253 80.6243 714.783 80.4753 715.147 80.1775C715.528 79.8631 715.718 79.408 715.718 78.8122C715.718 78.2165 715.528 77.7614 715.147 77.447C714.783 77.1326 714.253 76.9754 713.558 76.9754H710.778V80.6243ZM713.906 87.5745C714.618 87.5745 715.164 87.4173 715.544 87.1029C715.941 86.7719 716.14 86.3003 716.14 85.688C716.14 85.0757 715.933 84.5958 715.519 84.2483C715.122 83.9008 714.568 83.7271 713.856 83.7271H710.778V87.5745H713.906Z"/>
</mask>
<path d="M717.083 82.064C718.093 82.2791 718.904 82.7838 719.516 83.5781C720.128 84.3559 720.434 85.2495 720.434 86.2589C720.434 87.7152 719.921 88.8736 718.895 89.7341C717.886 90.578 716.471 91 714.651 91H706.534V73.5747H714.378C716.148 73.5747 717.53 73.9802 718.523 74.791C719.532 75.6019 720.037 76.7023 720.037 78.0924C720.037 79.1184 719.764 79.9706 719.218 80.6491C718.688 81.3276 717.977 81.7992 717.083 82.064ZM710.778 80.6243H713.558C714.253 80.6243 714.783 80.4753 715.147 80.1775C715.528 79.8631 715.718 79.408 715.718 78.8122C715.718 78.2165 715.528 77.7614 715.147 77.447C714.783 77.1326 714.253 76.9754 713.558 76.9754H710.778V80.6243ZM713.906 87.5745C714.618 87.5745 715.164 87.4173 715.544 87.1029C715.941 86.7719 716.14 86.3003 716.14 85.688C716.14 85.0757 715.933 84.5958 715.519 84.2483C715.122 83.9008 714.568 83.7271 713.856 83.7271H710.778V87.5745H713.906Z" fill="#FFFEFD"/>
<path d="M717.083 82.064L716.731 80.874L716.825 83.2778L717.083 82.064ZM719.516 83.5781L718.533 84.3359L718.541 84.3458L719.516 83.5781ZM718.895 89.7341L719.691 90.6862L719.693 90.685L718.895 89.7341ZM706.534 91H705.293V92.2411H706.534V91ZM706.534 73.5747V72.3336H705.293V73.5747H706.534ZM718.523 74.791L717.738 75.7523L717.746 75.7586L718.523 74.791ZM719.218 80.6491L718.251 79.8709L718.245 79.8781L718.24 79.8855L719.218 80.6491ZM710.778 80.6243H709.537V81.8654H710.778V80.6243ZM715.147 80.1775L715.933 81.1381L715.938 81.1343L715.147 80.1775ZM715.147 77.447L714.336 78.3863L714.346 78.3952L714.357 78.4039L715.147 77.447ZM710.778 76.9754V75.7343H709.537V76.9754H710.778ZM715.544 87.1029L716.335 88.0598L716.339 88.0563L715.544 87.1029ZM715.519 84.2483L714.702 85.1824L714.712 85.1906L714.721 85.1987L715.519 84.2483ZM710.778 83.7271V82.4859H709.537V83.7271H710.778ZM710.778 87.5745H709.537V88.8156H710.778V87.5745ZM717.083 82.064L716.825 83.2778C717.555 83.4335 718.106 83.782 718.533 84.3358L719.516 83.5781L720.499 82.8204C719.701 81.7857 718.63 81.1246 717.342 80.8501L717.083 82.064ZM719.516 83.5781L718.541 84.3458C718.977 84.9001 719.193 85.522 719.193 86.2589H720.434H721.675C721.675 84.977 721.279 83.8117 720.491 82.8104L719.516 83.5781ZM720.434 86.2589H719.193C719.193 87.3847 718.816 88.1809 718.098 88.7831L718.895 89.7341L719.693 90.685C721.027 89.5662 721.675 88.0457 721.675 86.2589H720.434ZM718.895 89.7341L718.099 88.7819C717.385 89.3786 716.291 89.7589 714.651 89.7589V91V92.2411C716.651 92.2411 718.386 91.7774 719.691 90.6862L718.895 89.7341ZM714.651 91V89.7589H706.534V91V92.2411H714.651V91ZM706.534 91H707.775V73.5747H706.534H705.293V91H706.534ZM706.534 73.5747V74.8158H714.378V73.5747V72.3336H706.534V73.5747ZM714.378 73.5747V74.8158C715.97 74.8158 717.038 75.1807 717.738 75.7523L718.523 74.791L719.308 73.8297C718.022 72.7796 716.326 72.3336 714.378 72.3336V73.5747ZM718.523 74.791L717.746 75.7586C718.438 76.3147 718.796 77.0467 718.796 78.0924H720.037H721.278C721.278 76.3579 720.627 74.8891 719.3 73.8234L718.523 74.791ZM720.037 78.0924H718.796C718.796 78.8879 718.589 79.4507 718.251 79.8709L719.218 80.6491L720.185 81.4273C720.939 80.4905 721.278 79.3489 721.278 78.0924H720.037ZM719.218 80.6491L718.24 79.8855C717.882 80.343 717.398 80.6763 716.731 80.874L717.083 82.064L717.436 83.2539C718.556 82.9221 719.494 82.3121 720.196 81.4127L719.218 80.6491ZM710.778 80.6243V81.8654H713.558V80.6243V79.3832H710.778V80.6243ZM713.558 80.6243V81.8654C714.408 81.8654 715.263 81.6864 715.933 81.138L715.147 80.1775L714.361 79.2169C714.303 79.2643 714.099 79.3832 713.558 79.3832V80.6243ZM715.147 80.1775L715.938 81.1343C716.663 80.5352 716.959 79.6938 716.959 78.8122H715.718H714.477C714.477 79.1222 714.393 79.1909 714.357 79.2206L715.147 80.1775ZM715.718 78.8122H716.959C716.959 77.9307 716.663 77.0893 715.938 76.4902L715.147 77.447L714.357 78.4039C714.393 78.4336 714.477 78.5023 714.477 78.8122H715.718ZM715.147 77.447L715.958 76.5077C715.287 75.9277 714.421 75.7343 713.558 75.7343V76.9754V78.2165C714.086 78.2165 714.279 78.3375 714.336 78.3863L715.147 77.447ZM713.558 76.9754V75.7343H710.778V76.9754V78.2165H713.558V76.9754ZM710.778 76.9754H709.537V80.6243H710.778H712.019V76.9754H710.778ZM713.906 87.5745V88.8156C714.782 88.8156 715.652 88.624 716.335 88.0597L715.544 87.1029L714.754 86.146C714.676 86.2106 714.453 86.3334 713.906 86.3334V87.5745ZM715.544 87.1029L716.339 88.0563C717.072 87.4453 717.381 86.5934 717.381 85.688H716.14H714.899C714.899 86.0072 714.811 86.0985 714.75 86.1494L715.544 87.1029ZM716.14 85.688H717.381C717.381 84.7639 717.052 83.9144 716.318 83.298L715.519 84.2483L714.721 85.1987C714.815 85.2773 714.899 85.3876 714.899 85.688H716.14ZM715.519 84.2483L716.337 83.3143C715.645 82.7088 714.763 82.4859 713.856 82.4859V83.7271V84.9682C714.373 84.9682 714.6 85.0928 714.702 85.1824L715.519 84.2483ZM713.856 83.7271V82.4859H710.778V83.7271V84.9682H713.856V83.7271ZM710.778 83.7271H709.537V87.5745H710.778H712.019V83.7271H710.778ZM710.778 87.5745V88.8156H713.906V87.5745V86.3334H710.778V87.5745Z" fill="#1C1C1C" mask="url(#path-30-outside-4_24_268)"/>
</svg>
