<svg width="216" height="207" viewBox="0 0 216 207" fill="none" xmlns="http://www.w3.org/2000/svg">
<line x1="2.67029e-05" y1="35.714" x2="215.305" y2="35.714" stroke="#1C1C1C" stroke-width="2.48223"/>
<line x1="2.67029e-05" y1="67.983" x2="215.305" y2="67.983" stroke="#1C1C1C" stroke-width="2.48223"/>
<line x1="2.67029e-05" y1="100.252" x2="215.305" y2="100.252" stroke="#1C1C1C" stroke-width="2.48223"/>
<line x1="2.67029e-05" y1="132.521" x2="215.305" y2="132.521" stroke="#1C1C1C" stroke-width="2.48223"/>
<line x1="2.67029e-05" y1="164.79" x2="215.305" y2="164.79" stroke="#1C1C1C" stroke-width="2.48223"/>
<path d="M26.3752 146.173C28.7076 130.452 37.894 103.727 55.9796 122.592C78.5866 146.173 36.6021 183.407 16.1482 158.584C-0.214956 138.727 28.9147 106.001 41.4465 86.5996C53.9783 67.1979 63.838 20.0758 41.4465 22.0616C19.055 24.0474 44.6758 154.24 44.6758 187.751C44.6758 221.261 32.2954 195.818 33.9106 193.956" stroke="#1C1C1C" stroke-width="3.72335" stroke-linecap="round"/>
<path d="M129.584 31.016L127.808 39.32H134.144V44.12H126.8L124.88 53H119.648L121.568 44.12H112.16L110.24 53H105.008L106.928 44.12H99.488V39.32H107.936L109.712 31.016H102.32V26.216H110.72L112.592 17.48H117.824L115.952 26.216H125.36L127.232 17.48H132.464L130.592 26.216H136.976V31.016H129.584ZM124.352 31.016H114.944L113.168 39.32H122.576L124.352 31.016Z" fill="black"/>
<path d="M188.584 79.016L186.808 87.32H193.144V92.12H185.8L183.88 101H178.648L180.568 92.12H171.16L169.24 101H164.008L165.928 92.12H158.488V87.32H166.936L168.712 79.016H161.32V74.216H169.72L171.592 65.48H176.824L174.952 74.216H184.36L186.232 65.48H191.464L189.592 74.216H195.976V79.016H188.584ZM183.352 79.016H173.944L172.168 87.32H181.576L183.352 79.016Z" fill="black"/>
</svg>
