<svg width="211" height="134" viewBox="0 0 211 134" fill="none" xmlns="http://www.w3.org/2000/svg">
<path d="M96.456 100.304V90.872H132.528V100.304H96.456ZM109.344 113.192V77.984H119.568V113.192H109.344Z" fill="#1C1C1C"/>
<path d="M188.992 114.044C178.203 114.044 170 106.605 170 98.0482C170 89.4917 178.203 82.0522 188.992 82.0522C199.781 82.0522 207.984 89.4917 207.984 98.0482C207.984 106.605 199.781 114.044 188.992 114.044Z" fill="#1C1C1C" stroke="#1C1C1C" stroke-width="4"/>
<path d="M206.508 99.2893C206.508 100.317 207.341 101.151 208.37 101.151C209.398 101.151 210.231 100.317 210.231 99.2893L208.37 99.2893L206.508 99.2893ZM208.37 99.2893L210.231 99.2893L210.231 1.53526e-05L208.37 1.52588e-05L206.508 1.5165e-05L206.508 99.2893L208.37 99.2893Z" fill="#1C1C1C"/>
<path d="M178.698 90.4569C181.462 86.2357 184.539 83.8879 187.593 83.0601C190.604 82.2439 193.92 82.8159 197.405 85.0977C200.89 87.3795 202.74 90.1901 203.196 93.2761C203.658 96.4061 202.737 100.165 199.973 104.386C197.209 108.608 194.046 111.086 190.887 112.021C187.782 112.94 184.411 112.449 180.972 110.197C177.532 107.945 175.734 105.051 175.334 101.838C174.928 98.5693 175.934 94.6786 178.698 90.4569Z" fill="#FFFEFD" stroke="#1C1C1C" stroke-width="4"/>
<g clip-path="url(#clip0_28_420)">
<mask id="mask0_28_420" style="mask-type:luminance" maskUnits="userSpaceOnUse" x="-3" y="65" width="63" height="63">
<path d="M59.4784 65.554H-2.65063V127.683H59.4784V65.554Z" fill="white"/>
</mask>
<g mask="url(#mask0_28_420)">
<path fill-rule="evenodd" clip-rule="evenodd" d="M38.6383 95.3302C37.9371 92.9005 36.7793 90.3729 35.5563 88.5629C34.3496 86.7528 32.4091 85.2037 30.4849 84.3394C28.577 83.4915 26.0984 83.4425 24.2883 83.8665C22.4782 84.3068 20.4562 85.4646 19.2332 87.0627C18.0265 88.6607 17.1622 90.3729 16.885 92.6885C16.5915 95.0204 17.309 97.7599 18.0265 100.19C18.7277 102.636 19.6082 105.326 21.1248 107.43C22.6576 109.55 24.5329 110.642 26.4571 111.49C28.3813 112.355 30.5827 112.094 32.3928 111.653C34.2029 111.213 35.9477 110.381 37.1544 108.8C38.3774 107.202 39.6004 105.261 39.9102 102.929C40.2038 100.597 39.3558 97.7763 38.6383 95.3302ZM53.3308 106.631C51.0315 109.305 47.6234 111.539 43.4325 113.072C39.258 114.621 34.4475 115.437 29.5065 115.437C24.5655 115.437 19.6572 114.621 15.2869 113.072C10.9167 111.539 7.21505 109.305 4.57335 106.631C1.94795 103.957 0.447718 100.923 0.252036 97.8415C0.0563542 94.7432 1.16522 91.7101 3.48079 89.0358C5.78005 86.3615 9.18818 84.1274 13.379 82.5946C17.5536 81.0454 22.3641 80.2301 27.3051 80.2301C32.246 80.2301 37.1381 81.0454 41.5246 82.5946C45.8949 84.1274 49.5802 86.3615 52.2219 89.0358C54.8636 91.7101 56.3475 94.7432 56.5432 97.8252C56.7389 100.923 55.63 103.957 53.3308 106.631Z" fill="black" fill-opacity="0.898" stroke="white" stroke-opacity="0.898" stroke-width="0.460211" stroke-linejoin="round"/>
<path fill-rule="evenodd" clip-rule="evenodd" d="M38.6383 95.3302C37.9371 92.9005 36.7794 90.3729 35.5563 88.5629C34.3496 86.7528 32.4091 85.2037 30.4849 84.3394C28.577 83.4915 26.0984 83.4425 24.2883 83.8665C22.4783 84.3068 20.4562 85.4646 19.2332 87.0627C18.0265 88.6607 17.1622 90.3729 16.885 92.6885C16.5915 95.0204 17.309 97.7599 18.0265 100.19C18.7277 102.636 19.6083 105.326 21.1248 107.43C22.6576 109.55 24.5329 110.642 26.4571 111.49C28.3813 112.355 30.5828 112.094 32.3928 111.653C34.2029 111.213 35.9477 110.381 37.1544 108.8C38.3774 107.202 39.6004 105.261 39.9103 102.929C40.2038 100.597 39.3558 97.7762 38.6383 95.3302Z" stroke="black" stroke-width="0.460211" stroke-linejoin="round"/>
<path fill-rule="evenodd" clip-rule="evenodd" d="M53.3308 106.631C51.0315 109.305 47.6234 111.539 43.4325 113.072C39.258 114.621 34.4475 115.437 29.5065 115.437C24.5655 115.437 19.6572 114.621 15.2869 113.072C10.9167 111.539 7.21505 109.305 4.57335 106.631C1.94795 103.957 0.447718 100.923 0.252036 97.8415C0.0563542 94.7432 1.16522 91.7101 3.48079 89.0358C5.78005 86.3615 9.18818 84.1274 13.379 82.5946C17.5536 81.0454 22.3641 80.2301 27.3051 80.2301C32.246 80.2301 37.1381 81.0454 41.5246 82.5946C45.8949 84.1274 49.5802 86.3615 52.2219 89.0358C54.8636 91.7101 56.3475 94.7432 56.5432 97.8252C56.7389 100.923 55.63 103.957 53.3308 106.631Z" stroke="black" stroke-width="0.460211" stroke-linejoin="round"/>
</g>
</g>
<defs>
<clipPath id="clip0_28_420">
<rect width="56.7954" height="35.6667" fill="white" transform="translate(0 80)"/>
</clipPath>
</defs>
</svg>
