<svg width="60" height="60" viewBox="0 0 60 60" fill="none" xmlns="http://www.w3.org/2000/svg">
<circle cx="30" cy="30" r="30" fill="#1C1C1C"/>
<path d="M23.7571 21.0608V24.8851H15.7734V29.0165H21.7472V32.7292H15.7734V40.657H11V21.0608H23.7571Z" fill="#FFFEFD"/>
<path d="M44.4944 28.4303L43.7128 32.0871H47.0626V36.386H42.7916L41.8704 40.657H37.404L38.3252 36.386H33.6913L32.7701 40.657H28.3037L29.2249 36.386H25.0935V32.0871H30.1461L30.9277 28.4303H26.8801V24.1314H31.821L32.7143 20H37.1807L36.2874 24.1314H40.9213L41.8146 20H46.2809L45.3877 24.1314H48.8491V28.4303H44.4944ZM40.028 28.4303H35.3941L34.6125 32.0871H39.2464L40.028 28.4303Z" fill="#FFFEFD"/>
</svg>
