<svg width="60" height="60" viewBox="0 0 60 60" fill="none" xmlns="http://www.w3.org/2000/svg">
<circle cx="30" cy="30" r="30" fill="#1C1C1C"/>
<path d="M8 30.8065C8 28.8755 8.41778 27.1579 9.25333 25.6539C10.0889 24.1314 11.2494 22.9523 12.7348 22.1167C14.2388 21.2626 15.9378 20.8356 17.8317 20.8356C20.1527 20.8356 22.1395 21.4483 23.792 22.6738C25.4445 23.8993 26.5493 25.5704 27.1064 27.6871H21.8702C21.4803 26.8701 20.9233 26.2481 20.1991 25.821C19.4935 25.394 18.6858 25.1804 17.776 25.1804C16.3091 25.1804 15.1208 25.6911 14.211 26.7123C13.3011 27.7335 12.8462 29.0983 12.8462 30.8065C12.8462 32.5148 13.3011 33.8795 14.211 34.9007C15.1208 35.922 16.3091 36.4326 17.776 36.4326C18.6858 36.4326 19.4935 36.2191 20.1991 35.792C20.9233 35.3649 21.4803 34.7429 21.8702 33.9259H27.1064C26.5493 36.0427 25.4445 37.7138 23.792 38.9393C22.1395 40.1462 20.1527 40.7496 17.8317 40.7496C15.9378 40.7496 14.2388 40.3319 12.7348 39.4963C11.2494 38.6422 10.0889 37.4631 9.25333 35.9591C8.41778 34.4551 8 32.7376 8 30.8065Z" fill="#FFFEFD"/>
<path d="M48.2102 28.4113L47.4304 32.0599H50.7726V36.349H46.5113L45.5922 40.6104H41.1359L42.055 36.349H37.4316L36.5125 40.6104H32.0562L32.9753 36.349H28.8532V32.0599H33.8944L34.6742 28.4113H30.6357V24.1221H35.5655L36.4568 20H40.9131L40.0218 24.1221H44.6452L45.5365 20H49.9928L49.1015 24.1221H52.5551V28.4113H48.2102ZM43.7539 28.4113H39.1305L38.3507 32.0599H42.9741L43.7539 28.4113Z" fill="#FFFEFD"/>
</svg>
