<svg width="60" height="60" viewBox="0 0 60 60" fill="none" xmlns="http://www.w3.org/2000/svg">
<circle cx="30" cy="30" r="30" fill="#1C1C1C"/>
<path d="M34.6 29.944C35.9013 30.2213 36.9467 30.872 37.736 31.896C38.5253 32.8987 38.92 34.0507 38.92 35.352C38.92 37.2293 38.2587 38.7227 36.936 39.832C35.6347 40.92 33.8107 41.464 31.464 41.464H21V19H31.112C33.3947 19 35.176 19.5227 36.456 20.568C37.7573 21.6133 38.408 23.032 38.408 24.824C38.408 26.1467 38.056 27.2453 37.352 28.12C36.6693 28.9947 35.752 29.6027 34.6 29.944ZM26.472 28.088H30.056C30.952 28.088 31.6347 27.896 32.104 27.512C32.5947 27.1067 32.84 26.52 32.84 25.752C32.84 24.984 32.5947 24.3973 32.104 23.992C31.6347 23.5867 30.952 23.384 30.056 23.384H26.472V28.088ZM30.504 37.048C31.4213 37.048 32.1253 36.8453 32.616 36.44C33.128 36.0133 33.384 35.4053 33.384 34.616C33.384 33.8267 33.1173 33.208 32.584 32.76C32.072 32.312 31.3573 32.088 30.44 32.088H26.472V37.048H30.504Z" fill="#FFFEFD"/>
</svg>
