<svg width="60" height="60" viewBox="0 0 60 60" fill="none" xmlns="http://www.w3.org/2000/svg">
<circle cx="30" cy="30" r="30" fill="#1C1C1C"/>
<path d="M21.784 27.56C21.4293 26.9067 20.916 26.412 20.244 26.076C19.5907 25.7213 18.816 25.544 17.92 25.544C16.3707 25.544 15.1293 26.0573 14.196 27.084C13.2627 28.092 12.796 29.4453 12.796 31.144C12.796 32.9547 13.2813 34.3733 14.252 35.4C15.2413 36.408 16.5947 36.912 18.312 36.912C19.488 36.912 20.4773 36.6133 21.28 36.016C22.1013 35.4187 22.6987 34.56 23.072 33.44H16.996V29.912H27.412V34.364C27.0573 35.5587 26.4507 36.6693 25.592 37.696C24.752 38.7227 23.6787 39.5533 22.372 40.188C21.0653 40.8227 19.5907 41.14 17.948 41.14C16.0067 41.14 14.2707 40.72 12.74 39.88C11.228 39.0213 10.0427 37.836 9.184 36.324C8.344 34.812 7.924 33.0853 7.924 31.144C7.924 29.2027 8.344 27.476 9.184 25.964C10.0427 24.4333 11.228 23.248 12.74 22.408C14.252 21.5493 15.9787 21.12 17.92 21.12C20.272 21.12 22.2507 21.6893 23.856 22.828C25.48 23.9667 26.5533 25.544 27.076 27.56H21.784ZM48.3481 28.736L47.5641 32.404H50.9241V36.716H46.6401L45.7161 41H41.2361L42.1601 36.716H37.5121L36.5881 41H32.1081L33.0321 36.716H28.8881V32.404H33.9561L34.7401 28.736H30.6801V24.424H35.6361L36.5321 20.28H41.0121L40.1161 24.424H44.7641L45.6601 20.28H50.1401L49.2441 24.424H52.7161V28.736H48.3481ZM43.8681 28.736H39.2201L38.4361 32.404H43.0841L43.8681 28.736Z" fill="#FFFEFD"/>
</svg>
