<svg width="60" height="60" viewBox="0 0 60 60" fill="none" xmlns="http://www.w3.org/2000/svg">
<circle cx="30" cy="30" r="30" fill="#1C1C1C"/>
<path d="M29.416 19C31.784 19 33.8533 19.4693 35.624 20.408C37.3947 21.3467 38.76 22.6693 39.72 24.376C40.7013 26.0613 41.192 28.0133 41.192 30.232C41.192 32.4293 40.7013 34.3813 39.72 36.088C38.76 37.7947 37.384 39.1173 35.592 40.056C33.8213 40.9947 31.7627 41.464 29.416 41.464H21V19H29.416ZM29.064 36.728C31.1333 36.728 32.744 36.1627 33.896 35.032C35.048 33.9013 35.624 32.3013 35.624 30.232C35.624 28.1627 35.048 26.552 33.896 25.4C32.744 24.248 31.1333 23.672 29.064 23.672H26.472V36.728H29.064Z" fill="#FFFEFD"/>
</svg>
