<svg width="60" height="60" viewBox="0 0 60 60" fill="none" xmlns="http://www.w3.org/2000/svg">
<circle cx="30" cy="30" r="30" fill="#1C1C1C"/>
<path d="M19 30.456C19 28.2373 19.48 26.264 20.44 24.536C21.4 22.7867 22.7333 21.432 24.44 20.472C26.168 19.4907 28.12 19 30.296 19C32.9627 19 35.2453 19.704 37.144 21.112C39.0427 22.52 40.312 24.44 40.952 26.872H34.936C34.488 25.9333 33.848 25.2187 33.016 24.728C32.2053 24.2373 31.2773 23.992 30.232 23.992C28.5467 23.992 27.1813 24.5787 26.136 25.752C25.0907 26.9253 24.568 28.4933 24.568 30.456C24.568 32.4187 25.0907 33.9867 26.136 35.16C27.1813 36.3333 28.5467 36.92 30.232 36.92C31.2773 36.92 32.2053 36.6747 33.016 36.184C33.848 35.6933 34.488 34.9787 34.936 34.04H40.952C40.312 36.472 39.0427 38.392 37.144 39.8C35.2453 41.1867 32.9627 41.88 30.296 41.88C28.12 41.88 26.168 41.4 24.44 40.44C22.7333 39.4587 21.4 38.104 20.44 36.376C19.48 34.648 19 32.6747 19 30.456Z" fill="#FFFEFD"/>
</svg>
