<svg width="60" height="60" viewBox="0 0 60 60" fill="none" xmlns="http://www.w3.org/2000/svg">
<circle cx="30" cy="30" r="30" fill="#1C1C1C"/>
<path d="M34.84 26.36C34.4347 25.6133 33.848 25.048 33.08 24.664C32.3333 24.2587 31.448 24.056 30.424 24.056C28.6533 24.056 27.2347 24.6427 26.168 25.816C25.1013 26.968 24.568 28.5147 24.568 30.456C24.568 32.5253 25.1227 34.1467 26.232 35.32C27.3627 36.472 28.9093 37.048 30.872 37.048C32.216 37.048 33.3467 36.7067 34.264 36.024C35.2027 35.3413 35.8853 34.36 36.312 33.08H29.368V29.048H41.272V34.136C40.8667 35.5013 40.1733 36.7707 39.192 37.944C38.232 39.1173 37.0053 40.0667 35.512 40.792C34.0187 41.5173 32.3333 41.88 30.456 41.88C28.2373 41.88 26.2533 41.4 24.504 40.44C22.776 39.4587 21.4213 38.104 20.44 36.376C19.48 34.648 19 32.6747 19 30.456C19 28.2373 19.48 26.264 20.44 24.536C21.4213 22.7867 22.776 21.432 24.504 20.472C26.232 19.4907 28.2053 19 30.424 19C33.112 19 35.3733 19.6507 37.208 20.952C39.064 22.2533 40.2907 24.056 40.888 26.36H34.84Z" fill="#FFFEFD"/>
</svg>
