<svg width="145" height="34" viewBox="0 0 145 34" fill="none" xmlns="http://www.w3.org/2000/svg">
<path d="M57.0021 21.1544C56.4701 24.8052 56.3782 27.7551 55.7389 29.4866C55.2209 30.8895 53.5412 31.1634 52.0529 31.3101C49.762 31.5359 47.8044 31.6567 45.812 30.9062L43.5536 28.1958C43.318 18.6758 44.1368 15.925 44.5124 7.91438C44.3618 6.10744 45.8408 1.72169 53.1547 0.807323C60.3825 -0.0962665 70.164 2.44697 70.7724 5.32464C73.7779 11.0299 69.1297 19.3485 63.9963 17.5214C62.5666 17.0125 62.3478 15.1528 60.8342 15.2627C58.6979 15.4178 57.578 17.202 57.0021 21.1544Z" fill="#EF9651"/>
<path d="M56.3886 21.065C56.7976 21.1246 57.2066 21.1842 57.6156 21.2438C57.8679 19.6056 58.2069 17.8716 59.1322 16.7446C59.579 16.2138 60.1707 15.9276 60.8791 15.881C61.7068 15.6352 62.0728 17.4066 63.7885 18.1054C67.1231 19.3378 70.1642 16.5326 71.3179 13.8838C72.5881 11.1455 72.7749 7.80356 71.3209 5.03569L71.3789 5.19642C70.6065 3.0731 68.8286 2.61561 67.3766 1.93625C65.8549 1.33776 64.2848 0.92953 62.7066 0.623276C59.5447 0.0282397 56.3059 -0.193908 53.0778 0.192144C49.0978 0.597984 43.9312 2.93051 43.8946 7.96586L43.8931 7.88534C43.584 14.4777 42.6422 21.1649 42.9253 27.8512C42.928 27.9701 42.9308 28.0901 42.9338 28.2111L42.9391 28.4269L43.0773 28.5927C43.3647 28.9377 43.6522 29.2826 43.9397 29.6276C44.3285 30.0943 44.7173 30.5609 45.1062 31.0276C45.1827 31.1194 45.2592 31.2113 45.3357 31.3031L45.4404 31.4287L45.5935 31.4864C45.8391 31.5789 46.0889 31.6608 46.3414 31.7315C48.2838 32.2807 50.2653 32.1055 52.1137 31.9271C53.4791 31.762 55.5446 31.6288 56.3205 29.7014C56.7262 28.5564 56.8537 27.4437 56.9983 26.3442C57.2065 24.6232 57.3675 22.9269 57.6156 21.2438C57.2066 21.1842 56.7976 21.1246 56.3886 21.065C56.1358 22.7811 55.9721 24.5042 55.7677 26.192C55.6307 27.2621 55.4888 28.3494 55.1573 29.2719C54.8337 30.2713 53.372 30.5696 51.9921 30.6931C50.1545 30.8742 48.3395 31.0124 46.6761 30.5376C46.4579 30.4765 46.2427 30.4059 46.0306 30.326L46.2883 30.5093C46.2118 30.4175 46.1353 30.3257 46.0588 30.2339C45.6699 29.7672 45.2811 29.3005 44.8922 28.8339C44.6048 28.4889 44.3173 28.1439 44.0299 27.7989L44.1733 28.1805C44.1704 28.0604 44.1676 27.9414 44.1649 27.8235C43.8849 21.1954 44.8147 14.6479 45.1317 7.94342L45.1302 7.86289C45.0981 4.11339 49.4272 1.76923 53.2316 1.4225C59.0379 0.909344 66.8088 1.51359 70.1658 5.45287L70.2239 5.6136C72.7651 10.0463 69.4984 18.3932 64.2042 16.9373C63.7626 16.7893 63.408 16.3749 62.9786 15.8313C62.7592 15.5645 62.5132 15.2577 62.1356 14.9991C61.7629 14.7347 61.2337 14.6023 60.7893 14.6444C59.8334 14.6891 58.8047 15.1804 58.1899 15.9387C56.9315 17.523 56.675 19.3432 56.3886 21.065ZM57.6156 21.2438L56.3886 21.065L57.6156 21.2438V21.2438Z" fill="#EF9651"/>
<path d="M43.5537 28.1958C43.5537 29.0993 43.7344 31.3579 48.071 31.3579" stroke="#EF9651" stroke-width="1.23993"/>
<path d="M40.0814 19.4468C40.0814 26.4324 38.2745 29.8368 33.3054 31.192C28.8184 32.4157 26.0776 26.4324 26.0776 19.4468C26.0776 12.4612 29.3136 6.79822 33.3054 6.79822C37.2972 6.79822 40.0814 13.1225 40.0814 19.4468Z" fill="#EC5228"/>
<path d="M10.083 4.70618C17.3107 -0.714572 26.0474 -0.983654 32.1611 2.97571C33.0649 3.56105 33.9038 4.23499 34.6602 4.99133C34.7707 5.14776 34.876 5.30614 34.9766 5.46497C36.6254 7.27326 38.3349 9.83764 38.9941 12.9142C39.5883 15.687 38.2973 14.0627 36.5605 11.1359C36.4533 16.435 32.4594 22.1644 26.0771 26.6749C17.946 34.3544 6.62017 34.7184 1.9707 28.1398C-2.67868 21.561 1.24694 11.3333 10.083 4.70618ZM23.3613 10.298C21.7445 8.97779 18.8526 9.84402 16.9023 12.2325C14.9522 14.6209 14.6814 17.6271 16.2979 18.9474C17.9147 20.2676 20.8065 19.4013 22.7568 17.0128C24.707 14.6244 24.9779 11.6183 23.3613 10.298Z" fill="#EC5228"/>
<path d="M87.189 1.13623C93.5208 -0.311074 99.8132 1.32332 102.657 6.58447C104.908 12.3172 100.572 12.4578 98.8696 12.0669C97.6617 11.6294 96.1443 11.6309 94.6548 12.1753C91.8651 13.1951 90.228 15.7325 90.9985 17.8413C91.7696 19.9498 94.6561 20.8325 97.4458 19.813C97.9877 19.6149 98.4854 19.3584 98.9312 19.0601C104.469 16.3042 104.135 20.27 103.699 22.6616C102.385 25.3989 100.218 27.7963 97.1206 29.4204C89.5351 33.3972 80.7422 33.7201 76.0249 28.4263C74.5178 26.7347 73.8327 24.4807 73.5415 22.2339C72.8649 17.0129 73.7135 12.3064 76.8677 7.98975C79.3649 4.57239 83.0628 2.07942 87.189 1.13623Z" fill="#357D58"/>
<path d="M117.239 4.92932C125.942 -1.30954 137.924 -0.263799 142.533 5.74963C147.676 12.4611 144.248 24.3667 137.115 28.8717C128.532 34.2922 115.811 35.0328 111.015 28.3434C106.219 21.6534 108.535 11.1683 117.239 4.92932ZM132.198 10.4821C130.581 9.16232 127.69 10.0284 125.74 12.4166C123.79 14.805 123.519 17.8111 125.135 19.1315C126.752 20.4516 129.644 19.5862 131.594 17.1979C133.545 14.8094 133.815 11.8022 132.198 10.4821Z" fill="#3F39C2"/>
</svg>
