<svg width="33" height="30" viewBox="0 0 33 30" fill="none" xmlns="http://www.w3.org/2000/svg">
<path d="M7.95794 1.0946L1.43018 8.64209L2.31224 9.7203M7.95794 1.0946L12.0378 11.8767M7.95794 1.0946H16.3896M25.6373 1.0946L31.3491 8.64209M25.6373 1.0946H16.3896M25.6373 1.0946L21.2253 11.8767M31.3491 8.64209L17.3439 28.0946M31.3491 8.64209L21.2253 11.8767M17.3439 28.0946L2.31224 9.7203M17.3439 28.0946L12.0378 11.8767M17.3439 28.0946L21.2253 11.8767M2.31224 9.7203L12.0378 11.8767M12.0378 11.8767H21.2253M12.0378 11.8767L16.3896 1.0946M21.2253 11.8767L16.3896 1.0946" stroke="#1C1C1C" stroke-width="2.18919" stroke-linecap="round"/>
</svg>
