<svg width="87" height="87" viewBox="0 0 87 87" fill="none" xmlns="http://www.w3.org/2000/svg">
<path d="M44.3545 1C60.5748 1 73.71 14.0355 73.71 30.0977C73.71 46.1598 60.5748 59.1953 44.3545 59.1953C28.1344 59.1951 15 46.1597 15 30.0977C15 14.0356 28.1344 1.00021 44.3545 1Z" fill="#357D58"/>
<path d="M42.5468 54.6612L57.9708 47.8684C58.4761 47.646 59.069 47.8741 59.2948 48.378L71.9239 76.5701C72.3004 77.4107 71.4332 78.264 70.593 77.8797L63.1257 74.4651C61.4813 73.7131 59.5522 74.5609 59.0106 76.2742L56.5449 84.0772C56.2683 84.9522 55.0495 85.0171 54.6731 84.177L42.0404 55.9769C41.8147 55.4728 42.0414 54.8838 42.5468 54.6612Z" fill="#357D58"/>
<path d="M28.3772 48.7568L44.2885 54.3397C44.8097 54.5225 45.0816 55.0924 44.896 55.6126L34.517 84.6939C34.2075 85.5611 32.9877 85.5901 32.6441 84.7384L29.5876 77.1636C28.9154 75.4974 26.9293 74.7989 25.3488 75.6732L18.1421 79.6604C17.3348 80.1067 16.4064 79.3237 16.7155 78.4571L27.0975 49.3675C27.2832 48.8474 27.8561 48.574 28.3772 48.7568Z" fill="#357D58"/>
<path d="M44.3545 1C60.5748 1 73.71 14.0355 73.71 30.0977C73.71 46.1598 60.5748 59.1953 44.3545 59.1953C28.1344 59.1951 15 46.1597 15 30.0977C15 14.0356 28.1344 1.00021 44.3545 1Z" stroke="#357D58" stroke-width="2"/>
<path d="M42.5468 54.6612L57.9708 47.8684C58.4761 47.646 59.069 47.8741 59.2948 48.378L71.9239 76.5701C72.3004 77.4107 71.4332 78.264 70.593 77.8797L63.1257 74.4651C61.4813 73.7131 59.5522 74.5609 59.0106 76.2742L56.5449 84.0772C56.2683 84.9522 55.0495 85.0171 54.6731 84.177L42.0404 55.9769C41.8147 55.4728 42.0414 54.8838 42.5468 54.6612Z" stroke="#357D58" stroke-width="2"/>
<path d="M28.3772 48.7568L44.2885 54.3397C44.8097 54.5225 45.0816 55.0924 44.896 55.6126L34.517 84.6939C34.2075 85.5611 32.9877 85.5901 32.6441 84.7384L29.5876 77.1636C28.9154 75.4974 26.9293 74.7989 25.3488 75.6732L18.1421 79.6604C17.3348 80.1067 16.4064 79.3237 16.7155 78.4571L27.0975 49.3675C27.2832 48.8474 27.8561 48.574 28.3772 48.7568Z" stroke="#357D58" stroke-width="2"/>
<path d="M28.1777 25.5176V21.3188H35.2061V38H30.5281V25.5176H28.1777ZM40.0375 38.1826C39.2464 38.1826 38.6074 37.9696 38.1206 37.5436C37.649 37.1024 37.4132 36.5471 37.4132 35.8778C37.4132 35.2084 37.649 34.6531 38.1206 34.2119C38.6074 33.7708 39.2464 33.5502 40.0375 33.5502C40.8133 33.5502 41.4371 33.7708 41.9087 34.2119C42.3955 34.6531 42.6389 35.2084 42.6389 35.8778C42.6389 36.5319 42.3955 37.0796 41.9087 37.5208C41.4371 37.962 40.8133 38.1826 40.0375 38.1826ZM44.6192 35.2616V31.5649L51.6249 21.5698H56.5311V31.3823H58.2882V35.2616H56.5311V38H52.0128V35.2616H44.6192ZM52.3551 26.613L49.206 31.3823H52.3551V26.613Z" fill="#FFFEFD"/>
</svg>
