<svg width="87" height="87" viewBox="0 0 87 87" fill="none" xmlns="http://www.w3.org/2000/svg">
<path d="M43.3545 1C59.5748 1 72.71 14.0355 72.71 30.0977C72.71 46.1598 59.5748 59.1953 43.3545 59.1953C27.1344 59.1951 14 46.1597 14 30.0977C14 14.0356 27.1344 1.00021 43.3545 1Z" fill="#3F39C2"/>
<path d="M41.5468 54.6612L56.9708 47.8684C57.4761 47.646 58.069 47.8741 58.2948 48.378L70.9239 76.5701C71.3004 77.4107 70.4332 78.264 69.593 77.8797L62.1257 74.4651C60.4813 73.7131 58.5522 74.5609 58.0106 76.2742L55.5449 84.0772C55.2683 84.9522 54.0495 85.0171 53.6731 84.177L41.0404 55.9769C40.8147 55.4728 41.0414 54.8838 41.5468 54.6612Z" fill="#3F39C2"/>
<path d="M27.3772 48.7568L43.2885 54.3397C43.8097 54.5225 44.0816 55.0924 43.896 55.6126L33.517 84.6939C33.2075 85.5611 31.9877 85.5901 31.6441 84.7384L28.5876 77.1636C27.9154 75.4974 25.9293 74.7989 24.3488 75.6732L17.1421 79.6604C16.3348 80.1067 15.4064 79.3237 15.7155 78.4571L26.0975 49.3675C26.2832 48.8474 26.8561 48.574 27.3772 48.7568Z" fill="#3F39C2"/>
<path d="M43.3545 1C59.5748 1 72.71 14.0355 72.71 30.0977C72.71 46.1598 59.5748 59.1953 43.3545 59.1953C27.1344 59.1951 14 46.1597 14 30.0977C14 14.0356 27.1344 1.00021 43.3545 1Z" stroke="#3F39C2" stroke-width="2"/>
<path d="M41.5468 54.6612L56.9708 47.8684C57.4761 47.646 58.069 47.8741 58.2948 48.378L70.9239 76.5701C71.3004 77.4107 70.4332 78.264 69.593 77.8797L62.1257 74.4651C60.4813 73.7131 58.5522 74.5609 58.0106 76.2742L55.5449 84.0772C55.2683 84.9522 54.0495 85.0171 53.6731 84.177L41.0404 55.9769C40.8147 55.4728 41.0414 54.8838 41.5468 54.6612Z" stroke="#3F39C2" stroke-width="2"/>
<path d="M27.3772 48.7568L43.2885 54.3397C43.8097 54.5225 44.0816 55.0924 43.896 55.6126L33.517 84.6939C33.2075 85.5611 31.9877 85.5901 31.6441 84.7384L28.5876 77.1636C27.9154 75.4974 25.9293 74.7989 24.3488 75.6732L17.1421 79.6604C16.3348 80.1067 15.4064 79.3237 15.7155 78.4571L26.0975 49.3675C26.2832 48.8474 26.8561 48.574 27.3772 48.7568Z" stroke="#3F39C2" stroke-width="2"/>
<path d="M29.1025 25.5176V21.3188H36.1309V38H31.4529V25.5176H29.1025ZM40.9623 38.1826C40.1712 38.1826 39.5323 37.9696 39.0454 37.5436C38.5738 37.1024 38.338 36.5471 38.338 35.8778C38.338 35.2084 38.5738 34.6531 39.0454 34.2119C39.5323 33.7708 40.1712 33.5502 40.9623 33.5502C41.7382 33.5502 42.3619 33.7708 42.8335 34.2119C43.3203 34.6531 43.5637 35.2084 43.5637 35.8778C43.5637 36.5319 43.3203 37.0796 42.8335 37.5208C42.3619 37.962 41.7382 38.1826 40.9623 38.1826ZM45.4756 26.2935C45.5364 24.5744 46.0689 23.2585 47.073 22.3457C48.077 21.4177 49.4766 20.9537 51.2718 20.9537C52.4432 20.9537 53.4397 21.1591 54.2612 21.5698C55.0979 21.9654 55.7292 22.513 56.1552 23.2129C56.5812 23.8974 56.7942 24.6733 56.7942 25.5405C56.7942 26.5749 56.5431 27.4041 56.0411 28.0278C55.5391 28.6363 54.9686 29.0471 54.3296 29.2601V29.3513C56.1704 30.0359 57.0908 31.3443 57.0908 33.2763C57.0908 34.2348 56.8702 35.0791 56.429 35.8093C55.9879 36.5395 55.3489 37.11 54.5122 37.5208C53.6755 37.9315 52.679 38.1369 51.5228 38.1369C49.6212 38.1369 48.1151 37.6805 47.0045 36.7677C45.9092 35.8397 45.3387 34.4249 45.293 32.5233H49.6516C49.6212 33.1318 49.7505 33.6034 50.0395 33.9381C50.3286 34.2728 50.7622 34.4401 51.3403 34.4401C51.7814 34.4401 52.1237 34.3032 52.3671 34.0294C52.6258 33.7555 52.7551 33.3904 52.7551 32.934C52.7551 32.3559 52.5649 31.93 52.1846 31.6561C51.8195 31.3823 51.2185 31.2454 50.3818 31.2454H49.5831V27.617H50.359C50.9371 27.6323 51.4239 27.541 51.8195 27.3432C52.2302 27.1302 52.4356 26.7119 52.4356 26.0881C52.4356 25.6165 52.3215 25.2666 52.0933 25.0384C51.8651 24.795 51.5532 24.6733 51.1577 24.6733C50.7165 24.6733 50.3894 24.833 50.1765 25.1525C49.9787 25.4568 49.8646 25.8371 49.8342 26.2935H45.4756Z" fill="#FFFEFD"/>
</svg>
