<svg width="87" height="87" viewBox="0 0 87 87" fill="none" xmlns="http://www.w3.org/2000/svg">
<path d="M43.3545 1C59.5748 1 72.71 14.0355 72.71 30.0977C72.71 46.1598 59.5748 59.1953 43.3545 59.1953C27.1344 59.1951 14 46.1597 14 30.0977C14 14.0356 27.1344 1.00021 43.3545 1Z" fill="#EC5228"/>
<path d="M41.5468 54.6612L56.9708 47.8684C57.4761 47.646 58.069 47.8741 58.2948 48.378L70.9239 76.5701C71.3004 77.4107 70.4332 78.264 69.593 77.8797L62.1257 74.4651C60.4813 73.7131 58.5522 74.5609 58.0106 76.2742L55.5449 84.0772C55.2683 84.9522 54.0495 85.0171 53.6731 84.177L41.0404 55.9769C40.8147 55.4728 41.0414 54.8838 41.5468 54.6612Z" fill="#EC5228"/>
<path d="M27.3772 48.7568L43.2885 54.3397C43.8097 54.5225 44.0816 55.0924 43.896 55.6126L33.517 84.6939C33.2075 85.5611 31.9877 85.5901 31.6441 84.7384L28.5876 77.1636C27.9154 75.4974 25.9293 74.7989 24.3488 75.6732L17.1421 79.6604C16.3348 80.1067 15.4064 79.3237 15.7155 78.4571L26.0975 49.3675C26.2832 48.8474 26.8561 48.574 27.3772 48.7568Z" fill="#EC5228"/>
<path d="M43.3545 1C59.5748 1 72.71 14.0355 72.71 30.0977C72.71 46.1598 59.5748 59.1953 43.3545 59.1953C27.1344 59.1951 14 46.1597 14 30.0977C14 14.0356 27.1344 1.00021 43.3545 1Z" stroke="#EC5228" stroke-width="2"/>
<path d="M41.5468 54.6612L56.9708 47.8684C57.4761 47.646 58.069 47.8741 58.2948 48.378L70.9239 76.5701C71.3004 77.4107 70.4332 78.264 69.593 77.8797L62.1257 74.4651C60.4813 73.7131 58.5522 74.5609 58.0106 76.2742L55.5449 84.0772C55.2683 84.9522 54.0495 85.0171 53.6731 84.177L41.0404 55.9769C40.8147 55.4728 41.0414 54.8838 41.5468 54.6612Z" stroke="#EC5228" stroke-width="2"/>
<path d="M27.3772 48.7568L43.2885 54.3397C43.8097 54.5225 44.0816 55.0924 43.896 55.6126L33.517 84.6939C33.2075 85.5611 31.9877 85.5901 31.6441 84.7384L28.5876 77.1636C27.9154 75.4974 25.9293 74.7989 24.3488 75.6732L17.1421 79.6604C16.3348 80.1067 15.4064 79.3237 15.7155 78.4571L26.0975 49.3675C26.2832 48.8474 26.8561 48.574 27.3772 48.7568Z" stroke="#EC5228" stroke-width="2"/>
<path d="M29.7871 26.2935C29.8479 24.5744 30.3804 23.2585 31.3844 22.3457C32.3885 21.4177 33.7881 20.9537 35.5833 20.9537C36.7547 20.9537 37.7511 21.1591 38.5726 21.5698C39.4094 21.9654 40.0407 22.513 40.4667 23.2129C40.8926 23.8974 41.1056 24.6733 41.1056 25.5405C41.1056 26.5749 40.8546 27.4041 40.3526 28.0278C39.8505 28.6363 39.2801 29.0471 38.6411 29.2601V29.3513C40.4819 30.0359 41.4023 31.3443 41.4023 33.2763C41.4023 34.2348 41.1817 35.0791 40.7405 35.8093C40.2993 36.5395 39.6604 37.11 38.8237 37.5208C37.9869 37.9315 36.9905 38.1369 35.8343 38.1369C33.9326 38.1369 32.4265 37.6805 31.316 36.7677C30.2206 35.8397 29.6502 34.4249 29.6045 32.5233H33.9631C33.9326 33.1318 34.062 33.6034 34.351 33.9381C34.6401 34.2728 35.0736 34.4401 35.6517 34.4401C36.0929 34.4401 36.4352 34.3032 36.6786 34.0294C36.9372 33.7555 37.0665 33.3904 37.0665 32.934C37.0665 32.3559 36.8764 31.93 36.4961 31.6561C36.1309 31.3823 35.53 31.2454 34.6933 31.2454H33.8946V27.617H34.6705C35.2486 27.6323 35.7354 27.541 36.1309 27.3432C36.5417 27.1302 36.7471 26.7119 36.7471 26.0881C36.7471 25.6165 36.633 25.2666 36.4048 25.0384C36.1766 24.795 35.8647 24.6733 35.4692 24.6733C35.028 24.6733 34.7009 24.833 34.4879 25.1525C34.2902 25.4568 34.1761 25.8371 34.1456 26.2935H29.7871ZM46.0655 38.1826C45.2744 38.1826 44.6355 37.9696 44.1487 37.5436C43.6771 37.1024 43.4413 36.5471 43.4413 35.8778C43.4413 35.2084 43.6771 34.6531 44.1487 34.2119C44.6355 33.7708 45.2744 33.5502 46.0655 33.5502C46.8414 33.5502 47.4651 33.7708 47.9367 34.2119C48.4236 34.6531 48.667 35.2084 48.667 35.8778C48.667 36.5319 48.4236 37.0796 47.9367 37.5208C47.4651 37.962 46.8414 38.1826 46.0655 38.1826ZM49.8942 25.5176V21.3188H56.9227V38H52.2447V25.5176H49.8942Z" fill="#FFFEFD"/>
</svg>
