<svg width="87" height="87" viewBox="0 0 87 87" fill="none" xmlns="http://www.w3.org/2000/svg">
<path d="M44.3545 1C60.5748 1 73.71 14.0355 73.71 30.0977C73.71 46.1598 60.5748 59.1953 44.3545 59.1953C28.1344 59.1951 15 46.1597 15 30.0977C15 14.0356 28.1344 1.00021 44.3545 1Z" fill="#3F39C2"/>
<path d="M42.5468 54.6612L57.9708 47.8684C58.4761 47.646 59.069 47.8741 59.2948 48.378L71.9239 76.5701C72.3004 77.4107 71.4332 78.264 70.593 77.8797L63.1257 74.4651C61.4813 73.7131 59.5522 74.5609 59.0106 76.2742L56.5449 84.0772C56.2683 84.9522 55.0495 85.0171 54.6731 84.177L42.0404 55.9769C41.8147 55.4728 42.0414 54.8838 42.5468 54.6612Z" fill="#3F39C2"/>
<path d="M28.3772 48.7568L44.2885 54.3397C44.8097 54.5225 45.0816 55.0924 44.896 55.6126L34.517 84.6939C34.2075 85.5611 32.9877 85.5901 32.6441 84.7384L29.5876 77.1636C28.9154 75.4974 26.9293 74.7989 25.3488 75.6732L18.1421 79.6604C17.3348 80.1067 16.4064 79.3237 16.7155 78.4571L27.0975 49.3675C27.2832 48.8474 27.8561 48.574 28.3772 48.7568Z" fill="#3F39C2"/>
<path d="M44.3545 1C60.5748 1 73.71 14.0355 73.71 30.0977C73.71 46.1598 60.5748 59.1953 44.3545 59.1953C28.1344 59.1951 15 46.1597 15 30.0977C15 14.0356 28.1344 1.00021 44.3545 1Z" stroke="#3F39C2" stroke-width="2"/>
<path d="M42.5468 54.6612L57.9708 47.8684C58.4761 47.646 59.069 47.8741 59.2948 48.378L71.9239 76.5701C72.3004 77.4107 71.4332 78.264 70.593 77.8797L63.1257 74.4651C61.4813 73.7131 59.5522 74.5609 59.0106 76.2742L56.5449 84.0772C56.2683 84.9522 55.0495 85.0171 54.6731 84.177L42.0404 55.9769C41.8147 55.4728 42.0414 54.8838 42.5468 54.6612Z" stroke="#3F39C2" stroke-width="2"/>
<path d="M28.3772 48.7568L44.2885 54.3397C44.8097 54.5225 45.0816 55.0924 44.896 55.6126L34.517 84.6939C34.2075 85.5611 32.9877 85.5901 32.6441 84.7384L29.5876 77.1636C28.9154 75.4974 26.9293 74.7989 25.3488 75.6732L18.1421 79.6604C17.3348 80.1067 16.4064 79.3237 16.7155 78.4571L27.0975 49.3675C27.2832 48.8474 27.8561 48.574 28.3772 48.7568Z" stroke="#3F39C2" stroke-width="2"/>
<path d="M27.2355 26.2935C27.2963 24.5744 27.8288 23.2585 28.8328 22.3457C29.8369 21.4177 31.2365 20.9537 33.0317 20.9537C34.2031 20.9537 35.1995 21.1591 36.021 21.5698C36.8578 21.9654 37.4891 22.513 37.9151 23.2129C38.341 23.8974 38.554 24.6733 38.554 25.5405C38.554 26.5749 38.303 27.4041 37.801 28.0278C37.2989 28.6363 36.7284 29.0471 36.0895 29.2601V29.3513C37.9303 30.0359 38.8507 31.3443 38.8507 33.2763C38.8507 34.2348 38.6301 35.0791 38.1889 35.8093C37.7477 36.5395 37.1088 37.11 36.272 37.5208C35.4353 37.9315 34.4389 38.1369 33.2827 38.1369C31.381 38.1369 29.8749 37.6805 28.7644 36.7677C27.669 35.8397 27.0985 34.4249 27.0529 32.5233H31.4115C31.381 33.1318 31.5103 33.6034 31.7994 33.9381C32.0884 34.2728 32.522 34.4401 33.1001 34.4401C33.5413 34.4401 33.8836 34.3032 34.127 34.0294C34.3856 33.7555 34.5149 33.3904 34.5149 32.934C34.5149 32.3559 34.3248 31.93 33.9444 31.6561C33.5793 31.3823 32.9784 31.2454 32.1417 31.2454H31.343V27.617H32.1189C32.697 27.6323 33.1838 27.541 33.5793 27.3432C33.9901 27.1302 34.1955 26.7119 34.1955 26.0881C34.1955 25.6165 34.0814 25.2666 33.8532 25.0384C33.625 24.795 33.3131 24.6733 32.9176 24.6733C32.4764 24.6733 32.1493 24.833 31.9363 25.1525C31.7385 25.4568 31.6244 25.8371 31.594 26.2935H27.2355ZM43.5139 38.1826C42.7228 38.1826 42.0839 37.9696 41.5971 37.5436C41.1254 37.1024 40.8896 36.5471 40.8896 35.8778C40.8896 35.2084 41.1254 34.6531 41.5971 34.2119C42.0839 33.7708 42.7228 33.5502 43.5139 33.5502C44.2898 33.5502 44.9135 33.7708 45.3851 34.2119C45.8719 34.6531 46.1153 35.2084 46.1153 35.8778C46.1153 36.5319 45.8719 37.0796 45.3851 37.5208C44.9135 37.962 44.2898 38.1826 43.5139 38.1826ZM48.0272 26.2935C48.0881 24.5744 48.6205 23.2585 49.6246 22.3457C50.6287 21.4177 52.0283 20.9537 53.8234 20.9537C54.9948 20.9537 55.9913 21.1591 56.8128 21.5698C57.6495 21.9654 58.2809 22.513 58.7068 23.2129C59.1328 23.8974 59.3458 24.6733 59.3458 25.5405C59.3458 26.5749 59.0948 27.4041 58.5927 28.0278C58.0907 28.6363 57.5202 29.0471 56.8812 29.2601V29.3513C58.722 30.0359 59.6424 31.3443 59.6424 33.2763C59.6424 34.2348 59.4218 35.0791 58.9807 35.8093C58.5395 36.5395 57.9005 37.11 57.0638 37.5208C56.2271 37.9315 55.2306 38.1369 54.0744 38.1369C52.1728 38.1369 50.6667 37.6805 49.5561 36.7677C48.4608 35.8397 47.8903 34.4249 47.8447 32.5233H52.2032C52.1728 33.1318 52.3021 33.6034 52.5911 33.9381C52.8802 34.2728 53.3138 34.4401 53.8919 34.4401C54.333 34.4401 54.6753 34.3032 54.9188 34.0294C55.1774 33.7555 55.3067 33.3904 55.3067 32.934C55.3067 32.3559 55.1165 31.93 54.7362 31.6561C54.3711 31.3823 53.7702 31.2454 52.9334 31.2454H52.1348V27.617H52.9106C53.4887 27.6323 53.9755 27.541 54.3711 27.3432C54.7818 27.1302 54.9872 26.7119 54.9872 26.0881C54.9872 25.6165 54.8731 25.2666 54.6449 25.0384C54.4167 24.795 54.1049 24.6733 53.7093 24.6733C53.2681 24.6733 52.941 24.833 52.7281 25.1525C52.5303 25.4568 52.4162 25.8371 52.3858 26.2935H48.0272Z" fill="#FFFEFD"/>
</svg>
