<svg width="87" height="87" viewBox="0 0 87 87" fill="none" xmlns="http://www.w3.org/2000/svg">
<path d="M43.3545 1C59.5748 1 72.71 14.0355 72.71 30.0977C72.71 46.1598 59.5748 59.1953 43.3545 59.1953C27.1344 59.1951 14 46.1597 14 30.0977C14 14.0356 27.1344 1.00021 43.3545 1Z" fill="#EF9651"/>
<path d="M41.5468 54.6612L56.9708 47.8684C57.4761 47.646 58.069 47.8741 58.2948 48.378L70.9239 76.5701C71.3004 77.4107 70.4332 78.264 69.593 77.8797L62.1257 74.4651C60.4813 73.7131 58.5522 74.5609 58.0106 76.2742L55.5449 84.0772C55.2683 84.9522 54.0495 85.0171 53.6731 84.177L41.0404 55.9769C40.8147 55.4728 41.0414 54.8838 41.5468 54.6612Z" fill="#EF9651"/>
<path d="M27.3772 48.7568L43.2885 54.3397C43.8097 54.5225 44.0816 55.0924 43.896 55.6126L33.517 84.6939C33.2075 85.5611 31.9877 85.5901 31.6441 84.7384L28.5876 77.1636C27.9154 75.4974 25.9293 74.7989 24.3488 75.6732L17.1421 79.6604C16.3348 80.1067 15.4064 79.3237 15.7155 78.4571L26.0975 49.3675C26.2832 48.8474 26.8561 48.574 27.3772 48.7568Z" fill="#EF9651"/>
<path d="M43.3545 1C59.5748 1 72.71 14.0355 72.71 30.0977C72.71 46.1598 59.5748 59.1953 43.3545 59.1953C27.1344 59.1951 14 46.1597 14 30.0977C14 14.0356 27.1344 1.00021 43.3545 1Z" stroke="#EF9651" stroke-width="2"/>
<path d="M41.5468 54.6612L56.9708 47.8684C57.4761 47.646 58.069 47.8741 58.2948 48.378L70.9239 76.5701C71.3004 77.4107 70.4332 78.264 69.593 77.8797L62.1257 74.4651C60.4813 73.7131 58.5522 74.5609 58.0106 76.2742L55.5449 84.0772C55.2683 84.9522 54.0495 85.0171 53.6731 84.177L41.0404 55.9769C40.8147 55.4728 41.0414 54.8838 41.5468 54.6612Z" stroke="#EF9651" stroke-width="2"/>
<path d="M27.3772 48.7568L43.2885 54.3397C43.8097 54.5225 44.0816 55.0924 43.896 55.6126L33.517 84.6939C33.2075 85.5611 31.9877 85.5901 31.6441 84.7384L28.5876 77.1636C27.9154 75.4974 25.9293 74.7989 24.3488 75.6732L17.1421 79.6604C16.3348 80.1067 15.4064 79.3237 15.7155 78.4571L26.0975 49.3675C26.2832 48.8474 26.8561 48.574 27.3772 48.7568Z" stroke="#EF9651" stroke-width="2"/>
<path d="M27.8291 34.4173C29.3048 33.2611 30.5142 32.2647 31.4575 31.4279C32.4007 30.5912 33.1917 29.7317 33.8307 28.8493C34.4696 27.9517 34.7891 27.0998 34.7891 26.2935C34.7891 25.8067 34.675 25.4264 34.4468 25.1525C34.2338 24.8787 33.9144 24.7418 33.4884 24.7418C33.0472 24.7418 32.7049 24.9319 32.4615 25.3123C32.2181 25.6774 32.104 26.2174 32.1192 26.9325H27.7835C27.8291 25.5785 28.1258 24.4603 28.6735 23.578C29.2211 22.6804 29.9361 22.0262 30.8185 21.6155C31.7009 21.1895 32.6821 20.9765 33.7622 20.9765C35.6335 20.9765 37.0255 21.4405 37.9382 22.3685C38.851 23.2965 39.3074 24.4984 39.3074 25.974C39.3074 27.5562 38.775 29.0395 37.71 30.4239C36.6603 31.8083 35.3444 33.0481 33.7622 34.1435H39.4672V37.7718H27.8291V34.4173ZM43.5139 38.1826C42.7228 38.1826 42.0839 37.9696 41.5971 37.5436C41.1254 37.1024 40.8896 36.5471 40.8896 35.8778C40.8896 35.2084 41.1254 34.6531 41.5971 34.2119C42.0839 33.7708 42.7228 33.5502 43.5139 33.5502C44.2898 33.5502 44.9135 33.7708 45.3851 34.2119C45.8719 34.6531 46.1153 35.2084 46.1153 35.8778C46.1153 36.5319 45.8719 37.0796 45.3851 37.5208C44.9135 37.962 44.2898 38.1826 43.5139 38.1826ZM47.6849 34.4173C49.1606 33.2611 50.37 32.2647 51.3132 31.4279C52.2565 30.5912 53.0475 29.7317 53.6865 28.8493C54.3254 27.9517 54.6449 27.0998 54.6449 26.2935C54.6449 25.8067 54.5308 25.4264 54.3026 25.1525C54.0896 24.8787 53.7702 24.7418 53.3442 24.7418C52.903 24.7418 52.5607 24.9319 52.3173 25.3123C52.0739 25.6774 51.9598 26.2174 51.975 26.9325H47.6393C47.6849 25.5785 47.9816 24.4603 48.5292 23.578C49.0769 22.6804 49.7919 22.0262 50.6743 21.6155C51.5567 21.1895 52.5379 20.9765 53.618 20.9765C55.4892 20.9765 56.8812 21.4405 57.794 22.3685C58.7068 23.2965 59.1632 24.4984 59.1632 25.974C59.1632 27.5562 58.6308 29.0395 57.5658 30.4239C56.5161 31.8083 55.2002 33.0481 53.618 34.1435H59.3229V37.7718H47.6849V34.4173Z" fill="#FFFEFD"/>
</svg>
