<svg width="87" height="87" viewBox="0 0 87 87" fill="none" xmlns="http://www.w3.org/2000/svg">
<path d="M43.3545 1C59.5748 1 72.71 14.0355 72.71 30.0977C72.71 46.1598 59.5748 59.1953 43.3545 59.1953C27.1344 59.1951 14 46.1597 14 30.0977C14 14.0356 27.1344 1.00021 43.3545 1Z" fill="#EF9651"/>
<path d="M41.5468 54.6612L56.9708 47.8684C57.4761 47.646 58.069 47.8741 58.2948 48.378L70.9239 76.5701C71.3004 77.4107 70.4332 78.264 69.593 77.8797L62.1257 74.4651C60.4813 73.7131 58.5522 74.5609 58.0106 76.2742L55.5449 84.0772C55.2683 84.9522 54.0495 85.0171 53.6731 84.177L41.0404 55.9769C40.8147 55.4728 41.0414 54.8838 41.5468 54.6612Z" fill="#EF9651"/>
<path d="M27.3772 48.7568L43.2885 54.3397C43.8097 54.5225 44.0816 55.0924 43.896 55.6126L33.517 84.6939C33.2075 85.5611 31.9877 85.5901 31.6441 84.7384L28.5876 77.1636C27.9154 75.4974 25.9293 74.7989 24.3488 75.6732L17.1421 79.6604C16.3348 80.1067 15.4064 79.3237 15.7155 78.4571L26.0975 49.3675C26.2832 48.8474 26.8561 48.574 27.3772 48.7568Z" fill="#EF9651"/>
<path d="M43.3545 1C59.5748 1 72.71 14.0355 72.71 30.0977C72.71 46.1598 59.5748 59.1953 43.3545 59.1953C27.1344 59.1951 14 46.1597 14 30.0977C14 14.0356 27.1344 1.00021 43.3545 1Z" stroke="#EF9651" stroke-width="2"/>
<path d="M41.5468 54.6612L56.9708 47.8684C57.4761 47.646 58.069 47.8741 58.2948 48.378L70.9239 76.5701C71.3004 77.4107 70.4332 78.264 69.593 77.8797L62.1257 74.4651C60.4813 73.7131 58.5522 74.5609 58.0106 76.2742L55.5449 84.0772C55.2683 84.9522 54.0495 85.0171 53.6731 84.177L41.0404 55.9769C40.8147 55.4728 41.0414 54.8838 41.5468 54.6612Z" stroke="#EF9651" stroke-width="2"/>
<path d="M27.3772 48.7568L43.2885 54.3397C43.8097 54.5225 44.0816 55.0924 43.896 55.6126L33.517 84.6939C33.2075 85.5611 31.9877 85.5901 31.6441 84.7384L28.5876 77.1636C27.9154 75.4974 25.9293 74.7989 24.3488 75.6732L17.1421 79.6604C16.3348 80.1067 15.4064 79.3237 15.7155 78.4571L26.0975 49.3675C26.2832 48.8474 26.8561 48.574 27.3772 48.7568Z" stroke="#EF9651" stroke-width="2"/>
<path d="M29.5705 25.5176V21.3188H36.5989V38H31.9209V25.5176H29.5705ZM41.4303 38.1826C40.6392 38.1826 40.0002 37.9696 39.5134 37.5436C39.0418 37.1024 38.806 36.5471 38.806 35.8778C38.806 35.2084 39.0418 34.6531 39.5134 34.2119C40.0002 33.7708 40.6392 33.5502 41.4303 33.5502C42.2061 33.5502 42.8299 33.7708 43.3015 34.2119C43.7883 34.6531 44.0317 35.2084 44.0317 35.8778C44.0317 36.5319 43.7883 37.0796 43.3015 37.5208C42.8299 37.962 42.2061 38.1826 41.4303 38.1826ZM45.6013 34.4173C47.077 33.2611 48.2864 32.2647 49.2296 31.4279C50.1728 30.5912 50.9639 29.7317 51.6029 28.8493C52.2418 27.9517 52.5613 27.0998 52.5613 26.2935C52.5613 25.8067 52.4472 25.4264 52.219 25.1525C52.006 24.8787 51.6865 24.7418 51.2606 24.7418C50.8194 24.7418 50.4771 24.9319 50.2337 25.3123C49.9903 25.6774 49.8762 26.2174 49.8914 26.9325H45.5556C45.6013 25.5785 45.8979 24.4603 46.4456 23.578C46.9933 22.6804 47.7083 22.0262 48.5907 21.6155C49.473 21.1895 50.4543 20.9765 51.5344 20.9765C53.4056 20.9765 54.7976 21.4405 55.7104 22.3685C56.6232 23.2965 57.0796 24.4984 57.0796 25.974C57.0796 27.5562 56.5471 29.0395 55.4822 30.4239C54.4325 31.8083 53.1166 33.0481 51.5344 34.1435H57.2393V37.7718H45.6013V34.4173Z" fill="#FFFEFD"/>
</svg>
