<svg width="87" height="87" viewBox="0 0 87 87" fill="none" xmlns="http://www.w3.org/2000/svg">
<path d="M43.3545 1C59.5748 1 72.71 14.0355 72.71 30.0977C72.71 46.1598 59.5748 59.1953 43.3545 59.1953C27.1344 59.1951 14 46.1597 14 30.0977C14 14.0356 27.1344 1.00021 43.3545 1Z" fill="#357D58"/>
<path d="M41.5468 54.6612L56.9708 47.8684C57.4761 47.646 58.069 47.8741 58.2948 48.378L70.9239 76.5701C71.3004 77.4107 70.4332 78.264 69.593 77.8797L62.1257 74.4651C60.4813 73.7131 58.5522 74.5609 58.0106 76.2742L55.5449 84.0772C55.2683 84.9522 54.0495 85.0171 53.6731 84.177L41.0404 55.9769C40.8147 55.4728 41.0414 54.8838 41.5468 54.6612Z" fill="#357D58"/>
<path d="M27.3772 48.7568L43.2885 54.3397C43.8097 54.5225 44.0816 55.0924 43.896 55.6126L33.517 84.6939C33.2075 85.5611 31.9877 85.5901 31.6441 84.7384L28.5876 77.1636C27.9154 75.4974 25.9293 74.7989 24.3488 75.6732L17.1421 79.6604C16.3348 80.1067 15.4064 79.3237 15.7155 78.4571L26.0975 49.3675C26.2832 48.8474 26.8561 48.574 27.3772 48.7568Z" fill="#357D58"/>
<path d="M43.3545 1C59.5748 1 72.71 14.0355 72.71 30.0977C72.71 46.1598 59.5748 59.1953 43.3545 59.1953C27.1344 59.1951 14 46.1597 14 30.0977C14 14.0356 27.1344 1.00021 43.3545 1Z" stroke="#357D58" stroke-width="2"/>
<path d="M41.5468 54.6612L56.9708 47.8684C57.4761 47.646 58.069 47.8741 58.2948 48.378L70.9239 76.5701C71.3004 77.4107 70.4332 78.264 69.593 77.8797L62.1257 74.4651C60.4813 73.7131 58.5522 74.5609 58.0106 76.2742L55.5449 84.0772C55.2683 84.9522 54.0495 85.0171 53.6731 84.177L41.0404 55.9769C40.8147 55.4728 41.0414 54.8838 41.5468 54.6612Z" stroke="#357D58" stroke-width="2"/>
<path d="M27.3772 48.7568L43.2885 54.3397C43.8097 54.5225 44.0816 55.0924 43.896 55.6126L33.517 84.6939C33.2075 85.5611 31.9877 85.5901 31.6441 84.7384L28.5876 77.1636C27.9154 75.4974 25.9293 74.7989 24.3488 75.6732L17.1421 79.6604C16.3348 80.1067 15.4064 79.3237 15.7155 78.4571L26.0975 49.3675C26.2832 48.8474 26.8561 48.574 27.3772 48.7568Z" stroke="#357D58" stroke-width="2"/>
<path d="M27.7034 26.2935C27.7643 24.5744 28.2967 23.2585 29.3008 22.3457C30.3049 21.4177 31.7045 20.9537 33.4996 20.9537C34.671 20.9537 35.6675 21.1591 36.489 21.5698C37.3257 21.9654 37.9571 22.513 38.383 23.2129C38.809 23.8974 39.022 24.6733 39.022 25.5405C39.022 26.5749 38.771 27.4041 38.2689 28.0278C37.7669 28.6363 37.1964 29.0471 36.5575 29.2601V29.3513C38.3983 30.0359 39.3187 31.3443 39.3187 33.2763C39.3187 34.2348 39.0981 35.0791 38.6569 35.8093C38.2157 36.5395 37.5768 37.11 36.74 37.5208C35.9033 37.9315 34.9068 38.1369 33.7507 38.1369C31.849 38.1369 30.3429 37.6805 29.2324 36.7677C28.137 35.8397 27.5665 34.4249 27.5209 32.5233H31.8794C31.849 33.1318 31.9783 33.6034 32.2674 33.9381C32.5564 34.2728 32.99 34.4401 33.5681 34.4401C34.0093 34.4401 34.3516 34.3032 34.595 34.0294C34.8536 33.7555 34.9829 33.3904 34.9829 32.934C34.9829 32.3559 34.7927 31.93 34.4124 31.6561C34.0473 31.3823 33.4464 31.2454 32.6097 31.2454H31.811V27.617H32.5868C33.1649 27.6323 33.6518 27.541 34.0473 27.3432C34.4581 27.1302 34.6634 26.7119 34.6634 26.0881C34.6634 25.6165 34.5493 25.2666 34.3211 25.0384C34.0929 24.795 33.7811 24.6733 33.3855 24.6733C32.9444 24.6733 32.6173 24.833 32.4043 25.1525C32.2065 25.4568 32.0924 25.8371 32.062 26.2935H27.7034ZM43.9819 38.1826C43.1908 38.1826 42.5519 37.9696 42.065 37.5436C41.5934 37.1024 41.3576 36.5471 41.3576 35.8778C41.3576 35.2084 41.5934 34.6531 42.065 34.2119C42.5519 33.7708 43.1908 33.5502 43.9819 33.5502C44.7578 33.5502 45.3815 33.7708 45.8531 34.2119C46.3399 34.6531 46.5833 35.2084 46.5833 35.8778C46.5833 36.5319 46.3399 37.0796 45.8531 37.5208C45.3815 37.962 44.7578 38.1826 43.9819 38.1826ZM48.1529 34.4173C49.6286 33.2611 50.838 32.2647 51.7812 31.4279C52.7244 30.5912 53.5155 29.7317 54.1545 28.8493C54.7934 27.9517 55.1129 27.0998 55.1129 26.2935C55.1129 25.8067 54.9988 25.4264 54.7706 25.1525C54.5576 24.8787 54.2381 24.7418 53.8122 24.7418C53.371 24.7418 53.0287 24.9319 52.7853 25.3123C52.5419 25.6774 52.4278 26.2174 52.443 26.9325H48.1073C48.1529 25.5785 48.4496 24.4603 48.9972 23.578C49.5449 22.6804 50.2599 22.0262 51.1423 21.6155C52.0246 21.1895 53.0059 20.9765 54.086 20.9765C55.9572 20.9765 57.3492 21.4405 58.262 22.3685C59.1748 23.2965 59.6312 24.4984 59.6312 25.974C59.6312 27.5562 59.0987 29.0395 58.0338 30.4239C56.9841 31.8083 55.6682 33.0481 54.086 34.1435H59.7909V37.7718H48.1529V34.4173Z" fill="#FFFEFD"/>
</svg>
