<svg width="72" height="98" viewBox="0 0 72 98" fill="none" xmlns="http://www.w3.org/2000/svg">
<g filter="url(#filter0_d_560_1365)">
<ellipse cx="35.8547" cy="31.7663" rx="30.3547" ry="30.2663" stroke="#EF9651" stroke-width="3" stroke-dasharray="7 7"/>
<path d="M34.3359 62.0326L45.2617 86.5624C46.0115 88.246 48.4482 88.1098 49.0003 86.3535L51.4662 78.508C51.8271 77.36 53.1156 76.7901 54.2113 77.294L61.4049 80.6022C63.1142 81.3883 64.8642 79.6012 64.0386 77.9127L53.5606 56.4838" stroke="#EF9651" stroke-width="3" stroke-dasharray="7 7"/>
<path d="M16.3306 53.9619L7.42419 79.6071C6.82182 81.3416 8.68068 82.8992 10.2866 82.0057L17.5361 77.9722C18.5896 77.386 19.9176 77.8554 20.3657 78.9722L23.2787 86.233C23.9812 87.9839 26.4992 87.8736 27.0505 86.0678L34.5424 61.5285" stroke="#EF9651" stroke-width="3" stroke-dasharray="7 7"/>
</g>
<defs>
<filter id="filter0_d_560_1365" x="0" y="0" width="71.7095" height="97.25" filterUnits="userSpaceOnUse" color-interpolation-filters="sRGB">
<feFlood flood-opacity="0" result="BackgroundImageFix"/>
<feColorMatrix in="SourceAlpha" type="matrix" values="0 0 0 0 0 0 0 0 0 0 0 0 0 0 0 0 0 0 127 0" result="hardAlpha"/>
<feOffset dy="4"/>
<feGaussianBlur stdDeviation="2"/>
<feComposite in2="hardAlpha" operator="out"/>
<feColorMatrix type="matrix" values="0 0 0 0 0 0 0 0 0 0 0 0 0 0 0 0 0 0 0.25 0"/>
<feBlend mode="normal" in2="BackgroundImageFix" result="effect1_dropShadow_560_1365"/>
<feBlend mode="normal" in="SourceGraphic" in2="effect1_dropShadow_560_1365" result="shape"/>
</filter>
</defs>
</svg>
