<svg width="27" height="27" viewBox="0 0 27 27" fill="none" xmlns="http://www.w3.org/2000/svg">
<path d="M13.8447 20.8634C14.363 20.8695 14.7798 21.2923 14.7744 21.8068L14.7285 26.0802C14.7231 26.5945 14.2984 27.007 13.7803 27.0011C13.2623 26.9948 12.8462 26.5729 12.8516 26.0587L12.8975 21.7843C12.9032 21.2703 13.3269 20.8576 13.8447 20.8634ZM18.9043 18.462C19.2335 18.0643 19.8229 18.0088 20.2207 18.338L23.5283 21.0753C23.9257 21.4047 23.9814 21.9941 23.6523 22.3917C23.3233 22.7891 22.7347 22.8444 22.3369 22.5157L19.0283 19.7775C18.6309 19.4482 18.5755 18.8597 18.9043 18.462ZM6.74316 18.0177C7.16854 17.7234 7.75142 17.8275 8.04492 18.2511C8.33812 18.6746 8.23149 19.2565 7.80664 19.5509L4.27246 21.9952C3.84731 22.2891 3.26526 22.1848 2.97168 21.7618C2.67827 21.3382 2.78469 20.7554 3.20996 20.4611L6.74316 18.0177ZM13.5518 6.49622C17.4215 6.49643 20.5595 9.60979 20.5596 13.4503L20.5498 13.8087C20.3619 17.4828 17.3005 20.4042 13.5518 20.4044C9.68198 20.4042 6.54497 17.2909 6.54492 13.4503C6.54502 9.60977 9.68202 6.4964 13.5518 6.49622ZM13.5518 8.36633C10.7014 8.36652 8.41514 10.6559 8.41504 13.4503C8.41508 16.2448 10.7013 18.5351 13.5518 18.5353C16.4021 18.5351 18.6894 16.2448 18.6895 13.4503C18.6894 10.6559 16.4021 8.36655 13.5518 8.36633ZM5.24707 12.3185C5.7651 12.3203 6.18452 12.7388 6.18359 13.2531C6.18236 13.7673 5.76125 14.1823 5.24316 14.1808L0.936523 14.1691C0.41845 14.1674 -0.00079992 13.7488 0 13.2345C0.000921936 12.72 0.422152 12.3033 0.94043 12.3048L5.24707 12.3185ZM26.0664 12.0665C26.5842 12.0686 27.0028 12.487 27.002 13.0011C27.0008 13.5154 26.5797 13.9313 26.0615 13.9298L21.7549 13.9171C21.2368 13.9154 20.8174 13.4969 20.8184 12.9825C20.8193 12.4681 21.2405 12.0523 21.7588 12.0538L26.0664 12.0665ZM23.2168 4.68958C23.6421 4.39539 24.225 4.49964 24.5186 4.92297C24.8119 5.34652 24.7052 5.92835 24.2803 6.22278L20.7471 8.66711C20.3218 8.96131 19.7389 8.85709 19.4453 8.43372C19.1519 8.01007 19.2584 7.42729 19.6836 7.13293L23.2168 4.68958ZM3.32715 4.09875C3.6921 3.73329 4.28412 3.73258 4.64941 4.0968L7.6875 7.12805C8.05196 7.49251 8.0519 8.08388 7.6875 8.44934C7.32249 8.81475 6.73047 8.81563 6.36523 8.45129L3.32812 5.42102C2.96303 5.05655 2.96236 4.46439 3.32715 4.09875ZM13.8379 0.00012207C14.356 0.00618806 14.7729 0.42916 14.7676 0.943481L14.7217 5.21692C14.7162 5.73136 14.2907 6.14388 13.7725 6.13782C13.2547 6.13129 12.8394 5.70949 12.8447 5.19543L12.8896 0.921021C12.8954 0.406961 13.32 -0.00576 13.8379 0.00012207Z" fill="#1C1C1C"/>
</svg>
