<svg width="196" height="90" viewBox="0 0 196 90" fill="none" xmlns="http://www.w3.org/2000/svg">
<g clip-path="url(#clip0_28_479)">
<mask id="mask0_28_479" style="mask-type:luminance" maskUnits="userSpaceOnUse" x="-9" y="8" width="88" height="88">
<path d="M78.913 8.48999H-8.28491V95.6879H78.913V8.48999Z" fill="white"/>
</mask>
<g mask="url(#mask0_28_479)">
<path fill-rule="evenodd" clip-rule="evenodd" d="M34.7648 24.6478C38.4724 24.7165 38.3809 24.808 38.3809 24.808L20.4149 84.0843H16.7988L30.8969 37.7618C30.8969 37.7618 29.7755 38.8146 29.1347 39.2495C27.8988 40.1192 26.5485 40.8515 25.1753 41.4695C23.7792 42.0874 22.3374 42.6138 20.8497 42.9571C19.0875 43.3691 17.2794 43.6208 15.4714 43.6666C13.8007 43.7124 12.1071 43.6666 10.4592 43.3004C8.81139 43.0029 7.14067 42.7511 4.55448 41.1033C3.43304 40.3938 2.01407 38.8146 1.30459 37.327C0.457784 35.4503 0.160258 33.2761 0.343351 31.2392C0.480671 29.8431 0.961289 28.447 1.73943 27.2798C2.54046 26.0897 3.66191 25.0598 4.92067 24.3732C6.065 23.7324 7.39242 23.4119 8.69696 23.3204C9.63531 23.2517 10.5965 23.4348 11.512 23.6637C12.6106 23.9383 13.5031 24.3961 14.4415 25.0369C15.0137 25.4489 15.6774 25.9066 16.0893 26.4788C16.5699 27.1425 17.0048 27.8519 17.3252 28.6072C17.6227 29.2709 17.8287 29.9804 17.9431 30.7128C18.0805 31.5825 18.0118 32.475 17.9431 33.3676C17.8745 34.1915 17.5998 34.9926 17.2565 35.7478C16.8446 36.6175 16.3182 37.2583 15.6545 37.9449C15.0594 38.5858 13.8007 39.7987 13.8007 39.7987L15.4027 40.3709L18.973 39.9132L22.7035 38.7231L26.2052 37.0752L30.073 34.1686L32.1786 31.7198L34.4215 26.4101L34.7648 24.6478Z" fill="black"/>
<path fill-rule="evenodd" clip-rule="evenodd" d="M34.7648 24.6478C38.4724 24.7165 38.3809 24.808 38.3809 24.808L20.4149 84.0843H16.7988L30.8969 37.7618C30.8969 37.7618 29.7755 38.8146 29.1347 39.2495C27.8988 40.1192 26.5485 40.8515 25.1753 41.4695C23.7792 42.0874 22.3374 42.6138 20.8497 42.9571C19.0875 43.3691 17.2794 43.6208 15.4714 43.6666C13.8007 43.7124 12.1071 43.6666 10.4592 43.3004C8.81139 43.0029 7.14067 42.7511 4.55448 41.1033C3.43304 40.3938 2.01407 38.8146 1.30459 37.327C0.457784 35.4503 0.160258 33.2761 0.343351 31.2392C0.480671 29.8431 0.961289 28.447 1.73943 27.2798C2.54046 26.0897 3.66191 25.0598 4.92067 24.3732C6.065 23.7324 7.39242 23.4119 8.69696 23.3204C9.63531 23.2517 10.5965 23.4348 11.512 23.6637C12.6106 23.9383 13.5031 24.3961 14.4415 25.0369C15.0137 25.4489 15.6774 25.9066 16.0893 26.4788C16.5699 27.1425 17.0048 27.8519 17.3252 28.6072C17.6227 29.2709 17.8287 29.9804 17.9431 30.7128C18.0805 31.5825 18.0118 32.475 17.9431 33.3676C17.8745 34.1915 17.5998 34.9926 17.2565 35.7478C16.8446 36.6175 16.3182 37.2583 15.6545 37.9449C15.0594 38.5858 13.8007 39.7987 13.8007 39.7987L15.4027 40.3709L18.973 39.9132L22.7035 38.7231L26.2052 37.0752L30.073 34.1686L32.1786 31.7198L34.4215 26.4101L34.7648 24.6478Z" stroke="black" stroke-width="0.572165" stroke-linejoin="round"/>
</g>
</g>
<g clip-path="url(#clip1_28_479)">
<mask id="mask1_28_479" style="mask-type:luminance" maskUnits="userSpaceOnUse" x="148" y="8" width="88" height="88">
<path d="M235.913 8.48999H148.715V95.6879H235.913V8.48999Z" fill="white"/>
</mask>
<g mask="url(#mask1_28_479)">
<path fill-rule="evenodd" clip-rule="evenodd" d="M191.765 24.6478C195.472 24.7165 195.381 24.808 195.381 24.808L177.415 84.0843H173.799L187.897 37.7618C187.897 37.7618 186.776 38.8146 186.135 39.2495C184.899 40.1192 183.548 40.8515 182.175 41.4695C180.779 42.0874 179.337 42.6138 177.85 42.9571C176.087 43.3691 174.279 43.6208 172.471 43.6666C170.801 43.7124 169.107 43.6666 167.459 43.3004C165.811 43.0029 164.141 42.7511 161.554 41.1033C160.433 40.3938 159.014 38.8146 158.305 37.327C157.458 35.4503 157.16 33.2761 157.343 31.2392C157.481 29.8431 157.961 28.447 158.739 27.2798C159.54 26.0897 160.662 25.0598 161.921 24.3732C163.065 23.7324 164.392 23.4119 165.697 23.3204C166.635 23.2517 167.597 23.4348 168.512 23.6637C169.611 23.9383 170.503 24.3961 171.441 25.0369C172.014 25.4489 172.677 25.9066 173.089 26.4788C173.57 27.1425 174.005 27.8519 174.325 28.6072C174.623 29.2709 174.829 29.9804 174.943 30.7128C175.08 31.5825 175.012 32.475 174.943 33.3676C174.874 34.1915 174.6 34.9926 174.257 35.7478C173.845 36.6175 173.318 37.2583 172.654 37.9449C172.059 38.5858 170.801 39.7987 170.801 39.7987L172.403 40.3709L175.973 39.9132L179.704 38.7231L183.205 37.0752L187.073 34.1686L189.179 31.7198L191.421 26.4101L191.765 24.6478Z" fill="black"/>
<path fill-rule="evenodd" clip-rule="evenodd" d="M191.765 24.6478C195.472 24.7165 195.381 24.808 195.381 24.808L177.415 84.0843H173.799L187.897 37.7618C187.897 37.7618 186.776 38.8146 186.135 39.2495C184.899 40.1192 183.548 40.8515 182.175 41.4695C180.779 42.0874 179.337 42.6138 177.85 42.9571C176.087 43.3691 174.279 43.6208 172.471 43.6666C170.801 43.7124 169.107 43.6666 167.459 43.3004C165.811 43.0029 164.141 42.7511 161.554 41.1033C160.433 40.3938 159.014 38.8146 158.305 37.327C157.458 35.4503 157.16 33.2761 157.343 31.2392C157.481 29.8431 157.961 28.447 158.739 27.2798C159.54 26.0897 160.662 25.0598 161.921 24.3732C163.065 23.7324 164.392 23.4119 165.697 23.3204C166.635 23.2517 167.597 23.4348 168.512 23.6637C169.611 23.9383 170.503 24.3961 171.441 25.0369C172.014 25.4489 172.677 25.9066 173.089 26.4788C173.57 27.1425 174.005 27.8519 174.325 28.6072C174.623 29.2709 174.829 29.9804 174.943 30.7128C175.08 31.5825 175.012 32.475 174.943 33.3676C174.874 34.1915 174.6 34.9926 174.257 35.7478C173.845 36.6175 173.318 37.2583 172.654 37.9449C172.059 38.5858 170.801 39.7987 170.801 39.7987L172.403 40.3709L175.973 39.9132L179.704 38.7231L183.205 37.0752L187.073 34.1686L189.179 31.7198L191.421 26.4101L191.765 24.6478Z" stroke="black" stroke-width="0.572165" stroke-linejoin="round"/>
</g>
</g>
<path d="M77.456 56.304V46.872H113.528V56.304H77.456ZM90.344 69.192V33.984H100.568V69.192H90.344Z" fill="#1C1C1C"/>
<defs>
<clipPath id="clip0_28_479">
<rect width="38.7012" height="61.4047" fill="white" transform="translate(0 23)"/>
</clipPath>
<clipPath id="clip1_28_479">
<rect width="38.7012" height="61.4047" fill="white" transform="translate(157 23)"/>
</clipPath>
</defs>
</svg>
