<svg width="376" height="488" viewBox="0 0 376 488" fill="none" xmlns="http://www.w3.org/2000/svg">
<path d="M151.818 41.748C153.953 41.748 155.818 42.1711 157.415 43.0173C159.011 43.8636 160.242 45.056 161.107 46.5946C161.992 48.114 162.434 49.8738 162.434 51.874C162.434 53.855 161.992 55.6148 161.107 57.1534C160.242 58.692 159.001 59.8844 157.386 60.7306C155.789 61.5769 153.934 62 151.818 62H144.231V41.748H151.818ZM151.501 57.7303C153.366 57.7303 154.818 57.2207 155.857 56.2013C156.895 55.182 157.415 53.7396 157.415 51.874C157.415 50.0084 156.895 48.5564 155.857 47.5178C154.818 46.4792 153.366 45.9599 151.501 45.9599H149.164V57.7303H151.501Z" fill="#1C1C1C"/>
<path d="M212.733 58.4227H205.174L203.963 62H198.799L206.126 41.748H211.838L219.166 62H213.944L212.733 58.4227ZM211.463 54.6147L208.953 47.2005L206.472 54.6147H211.463Z" fill="#1C1C1C"/>
<path d="M264.56 45.7003V49.7969H271.166V53.6049H264.56V58.0477H272.032V62H259.627V41.748H272.032V45.7003H264.56Z" fill="#1C1C1C"/>
<path d="M41.0508 112.941H319.268C320.169 112.941 320.931 113.606 321.054 114.499L371.655 483.226C371.804 484.308 370.962 485.273 369.869 485.273H4.9707C3.90552 485.273 3.07208 484.355 3.17578 483.295L39.2568 114.568C39.3472 113.645 40.1231 112.941 41.0508 112.941Z" fill="#FFFEFD" stroke="#1C1C1C" stroke-width="5.40919"/>
<path d="M88.8009 98.0656L90.1532 74.175" stroke="#1C1C1C" stroke-width="8"/>
<path d="M268.037 111.5L302.013 485.292" stroke="#1C1C1C" stroke-width="2.7046"/>
<path d="M209.03 110.341L217.673 484.149" stroke="#1C1C1C" stroke-width="2.7046"/>
<path d="M86.5472 110.085L60.3375 483.322" stroke="#1C1C1C" stroke-width="8"/>
<path d="M148.075 109.995L134.448 484.443" stroke="#1C1C1C" stroke-width="2.7046"/>
<mask id="path-10-inside-1_28_761" fill="white">
<rect x="37.8643" y="70.569" width="283.081" height="31.5536" rx="4.50766"/>
</mask>
<rect x="37.8643" y="70.569" width="283.081" height="31.5536" rx="4.50766" stroke="#1C1C1C" stroke-width="10.8184" mask="url(#path-10-inside-1_28_761)"/>
<path d="M149.407 101.72L150.803 74.1263" stroke="#1C1C1C" stroke-width="2.7046"/>
<path d="M208.787 101.783L208.122 74.1617" stroke="#1C1C1C" stroke-width="2.7046"/>
<path d="M267.374 100.854L265.154 73.3142" stroke="#1C1C1C" stroke-width="2.7046"/>
<circle cx="90.0372" cy="30" r="30" fill="#1C1C1C"/>
<path d="M94.8772 26.36C94.4719 25.6133 93.8852 25.048 93.1172 24.664C92.3705 24.2587 91.4852 24.056 90.4612 24.056C88.6905 24.056 87.2719 24.6427 86.2052 25.816C85.1385 26.968 84.6052 28.5147 84.6052 30.456C84.6052 32.5253 85.1599 34.1467 86.2692 35.32C87.3999 36.472 88.9465 37.048 90.9092 37.048C92.2532 37.048 93.3839 36.7067 94.3012 36.024C95.2399 35.3413 95.9225 34.36 96.3492 33.08H89.4052V29.048H101.309V34.136C100.904 35.5013 100.211 36.7707 99.2292 37.944C98.2692 39.1173 97.0425 40.0667 95.5492 40.792C94.0559 41.5173 92.3705 41.88 90.4932 41.88C88.2745 41.88 86.2905 41.4 84.5412 40.44C82.8132 39.4587 81.4585 38.104 80.4772 36.376C79.5172 34.648 79.0372 32.6747 79.0372 30.456C79.0372 28.2373 79.5172 26.264 80.4772 24.536C81.4585 22.7867 82.8132 21.432 84.5412 20.472C86.2692 19.4907 88.2425 19 90.4612 19C93.1492 19 95.4105 19.6507 97.2452 20.952C99.1012 22.2533 100.328 24.056 100.925 26.36H94.8772Z" fill="#FFFEFD"/>
</svg>
