<svg width="216" height="187" viewBox="0 0 216 187" fill="none" xmlns="http://www.w3.org/2000/svg">
<line x1="3.05176e-05" y1="15.5748" x2="215.305" y2="15.5748" stroke="#1C1C1C" stroke-width="2.48223"/>
<line x1="3.05176e-05" y1="47.8438" x2="215.305" y2="47.8438" stroke="#1C1C1C" stroke-width="2.48223"/>
<line x1="3.05176e-05" y1="80.1128" x2="215.305" y2="80.1128" stroke="#1C1C1C" stroke-width="2.48223"/>
<line x1="3.05176e-05" y1="112.382" x2="215.305" y2="112.382" stroke="#1C1C1C" stroke-width="2.48223"/>
<line x1="3.05176e-05" y1="144.651" x2="215.305" y2="144.651" stroke="#1C1C1C" stroke-width="2.48223"/>
<path d="M26.3752 126.034C28.7076 110.313 37.894 83.5879 55.9796 102.453C78.5865 126.034 36.6021 163.268 16.1482 138.445C-0.214968 118.587 28.9147 85.8622 41.4465 66.4605C53.9782 47.0587 63.838 -0.0633379 41.4465 1.92245C19.0549 3.90823 44.6758 134.101 44.6758 167.611C44.6758 201.122 32.2954 175.679 33.9106 173.817" stroke="#1C1C1C" stroke-width="3.72335" stroke-linecap="round"/>
<path d="M136.18 63.3573C147.524 63.3573 156.552 71.2232 156.552 80.7333C156.552 90.2434 147.524 98.1093 136.18 98.1093C124.836 98.1092 115.808 90.2433 115.808 80.7333C115.808 71.2232 124.836 63.3573 136.18 63.3573Z" fill="#1C1C1C" stroke="#1C1C1C" stroke-width="1.24112"/>
<path d="M118.665 79.4922C118.665 78.464 117.831 77.6305 116.803 77.6305C115.775 77.6305 114.941 78.464 114.941 79.4922L116.803 79.4922L118.665 79.4922ZM116.803 79.4922L114.941 79.4922L114.941 178.781L116.803 178.781L118.664 178.781L118.665 79.4922L116.803 79.4922Z" fill="#1C1C1C"/>
</svg>
