<svg width="412" height="458" viewBox="0 0 412 458" fill="none" xmlns="http://www.w3.org/2000/svg">
<path d="M130.628 18.1525C130.263 17.4793 129.734 16.9697 129.042 16.6235C128.368 16.2581 127.57 16.0753 126.647 16.0753C125.051 16.0753 123.772 16.6042 122.81 17.662C121.849 18.7006 121.368 20.095 121.368 21.8451C121.368 23.7107 121.868 25.1724 122.868 26.2302C123.887 27.2688 125.282 27.788 127.051 27.788C128.263 27.788 129.282 27.4803 130.109 26.8649C130.955 26.2494 131.571 25.3647 131.955 24.2108H125.695V20.5758H136.427V25.1628C136.062 26.3937 135.437 27.538 134.552 28.5958C133.686 29.6536 132.58 30.5095 131.234 31.1634C129.888 31.8173 128.368 32.1442 126.676 32.1442C124.676 32.1442 122.887 31.7115 121.31 30.846C119.752 29.9613 118.531 28.7401 117.646 27.1822C116.781 25.6244 116.348 23.8453 116.348 21.8451C116.348 19.8449 116.781 18.0659 117.646 16.5081C118.531 14.931 119.752 13.7097 121.31 12.8443C122.868 11.9595 124.647 11.5172 126.647 11.5172C129.07 11.5172 131.109 12.1038 132.763 13.277C134.436 14.4502 135.542 16.0753 136.081 18.1525H130.628Z" fill="#1C1C1C"/>
<path d="M188.781 11.748C190.916 11.748 192.781 12.1711 194.377 13.0173C195.974 13.8636 197.205 15.056 198.07 16.5946C198.955 18.114 199.397 19.8738 199.397 21.874C199.397 23.855 198.955 25.6148 198.07 27.1534C197.205 28.692 195.964 29.8844 194.349 30.7306C192.752 31.5769 190.896 32 188.781 32H181.193V11.748H188.781ZM188.463 27.7303C190.329 27.7303 191.781 27.2207 192.82 26.2013C193.858 25.182 194.377 23.7396 194.377 21.874C194.377 20.0084 193.858 18.5564 192.82 17.5178C191.781 16.4792 190.329 15.9599 188.463 15.9599H186.127V27.7303H188.463Z" fill="#1C1C1C"/>
<path d="M249.695 28.4227H242.137L240.925 32H235.761L243.089 11.748H248.801L256.129 32H250.907L249.695 28.4227ZM248.426 24.6147L245.916 17.2005L243.435 24.6147H248.426Z" fill="#1C1C1C"/>
<path d="M301.523 15.7003V19.7969H308.129V23.6049H301.523V28.0477H308.995V32H296.59V11.748H308.995V15.7003H301.523Z" fill="#1C1C1C"/>
<path d="M27.8249 149.856V145.269H35.8161V166.328H30.6809V149.856H27.8249Z" fill="#1C1C1C"/>
<path d="M1.4713 363.071C1.54823 361.013 2.22137 359.427 3.49073 358.311C4.76009 357.196 6.48141 356.638 8.65471 356.638C10.0972 356.638 11.328 356.888 12.3474 357.388C13.3859 357.888 14.1649 358.571 14.6841 359.436C15.2227 360.302 15.4919 361.273 15.4919 362.35C15.4919 363.619 15.1746 364.658 14.5399 365.466C13.9052 366.254 13.1648 366.793 12.3185 367.081V367.197C13.4148 367.562 14.2803 368.168 14.9149 369.014C15.5496 369.86 15.867 370.947 15.867 372.274C15.867 373.467 15.5881 374.524 15.0303 375.448C14.4918 376.352 13.6937 377.063 12.6359 377.582C11.5973 378.102 10.3568 378.361 8.91435 378.361C6.60643 378.361 4.76009 377.794 3.37534 376.659C2.00981 375.525 1.28859 373.813 1.21166 371.524H6.0006C6.01983 372.37 6.26024 373.043 6.72182 373.544C7.18341 374.024 7.85655 374.265 8.74125 374.265C9.49133 374.265 10.0683 374.053 10.4722 373.63C10.8953 373.188 11.1069 372.611 11.1069 371.899C11.1069 370.976 10.8088 370.312 10.2126 369.909C9.63557 369.485 8.70279 369.274 7.4142 369.274H6.49103V365.264H7.4142C8.39506 365.264 9.1836 365.1 9.77982 364.773C10.3953 364.427 10.703 363.821 10.703 362.956C10.703 362.264 10.5107 361.725 10.126 361.34C9.74135 360.956 9.21245 360.763 8.53931 360.763C7.80847 360.763 7.26034 360.985 6.89492 361.427C6.54873 361.869 6.34678 362.417 6.28909 363.071H1.4713Z" fill="#1C1C1C"/>
<path d="M8.33736 308.424C8.99127 307.905 9.28938 307.664 9.23168 307.703C11.1165 306.145 12.5974 304.866 13.6744 303.866C14.7707 302.866 15.6939 301.818 16.4439 300.721C17.194 299.625 17.569 298.558 17.569 297.519C17.569 296.731 17.3863 296.115 17.0209 295.673C16.6555 295.231 16.1074 295.009 15.3765 295.009C14.6457 295.009 14.0687 295.288 13.6456 295.846C13.2417 296.384 13.0398 297.154 13.0398 298.154H8.27966C8.31813 296.519 8.66432 295.154 9.31823 294.057C9.99137 292.961 10.8665 292.153 11.9435 291.634C13.0398 291.115 14.2514 290.855 15.5785 290.855C17.8672 290.855 19.5885 291.442 20.7424 292.615C21.9156 293.788 22.5022 295.317 22.5022 297.202C22.5022 299.26 21.8002 301.173 20.3963 302.943C18.9923 304.693 17.2036 306.405 15.0303 308.078H22.8196V312.088H8.33736V308.424Z" fill="#1C1C1C"/>
<path d="M78.0136 82.9414H356.23C357.131 82.9414 357.894 83.6063 358.017 84.499L408.618 453.226C408.767 454.308 407.925 455.273 406.832 455.273H41.9335C40.8683 455.273 40.0349 454.355 40.1386 453.295L76.2196 84.5684C76.31 83.6451 77.0859 82.9415 78.0136 82.9414Z" fill="#FFFEFD" stroke="#1C1C1C" stroke-width="5.40919"/>
<path d="M125.764 68.0656L127.116 44.175" stroke="#1C1C1C" stroke-width="2.7046"/>
<path d="M305.619 79.3538L338.976 455.292" stroke="#1C1C1C" stroke-width="2.7046"/>
<path d="M245.993 80.3411L254.636 454.149" stroke="#1C1C1C" stroke-width="2.7046"/>
<path d="M123.51 80.0846L97.3003 453.322" stroke="#1C1C1C" stroke-width="2.7046"/>
<path d="M185.037 79.9955L171.411 454.443" stroke="#1C1C1C" stroke-width="2.7046"/>
<mask id="path-14-inside-1_28_601" fill="white">
<rect x="74.8271" y="40.5688" width="283.081" height="31.5536" rx="4.50766"/>
</mask>
<rect x="74.8271" y="40.5688" width="283.081" height="31.5536" rx="4.50766" stroke="#1C1C1C" stroke-width="10.8184" mask="url(#path-14-inside-1_28_601)"/>
<path d="M186.37 71.7206L187.766 44.1264" stroke="#1C1C1C" stroke-width="2.7046"/>
<path d="M245.75 71.7831L245.085 44.1617" stroke="#1C1C1C" stroke-width="2.7046"/>
<path d="M304.337 70.8544L302.117 43.3143" stroke="#1C1C1C" stroke-width="2.7046"/>
<path d="M71.221 155.965L364.219 156.868" stroke="#357D58" stroke-width="9.01532" stroke-linecap="round"/>
<path d="M56.7965 307.422L385.856 307.422" stroke="#3F39C2" stroke-width="9.01532" stroke-linecap="round"/>
<path d="M49.5842 373.234L394.871 373.234" stroke="#EF9651" stroke-width="9.01532" stroke-linecap="round"/>
<circle cx="251" cy="310" r="30" fill="#1C1C1C"/>
</svg>
