<svg width="188" height="125" viewBox="0 0 188 125" fill="none" xmlns="http://www.w3.org/2000/svg">
<path d="M20.9922 115.424C9.64818 115.424 0.620172 107.558 0.620117 98.0482C0.620117 88.5381 9.64814 80.6722 20.9922 80.6722C32.3362 80.6723 41.3643 88.5381 41.3643 98.0482C41.3642 107.558 32.3362 115.424 20.9922 115.424Z" fill="#1C1C1C" stroke="#1C1C1C" stroke-width="1.24112"/>
<path d="M38.508 99.2892C38.508 100.317 39.3415 101.151 40.3696 101.151C41.3978 101.151 42.2313 100.317 42.2313 99.2892L40.3696 99.2892L38.508 99.2892ZM40.3696 99.2892L42.2313 99.2892L42.2313 -2.27944e-05L40.3696 -1.52588e-05L38.508 -1.53526e-05L38.508 99.2892L40.3696 99.2892Z" fill="#1C1C1C"/>
<path d="M78.456 91.304V81.872H114.528V91.304H78.456ZM91.344 104.192V68.984H101.568V104.192H91.344Z" fill="#1C1C1C"/>
<path d="M165.427 114.044C154.638 114.044 146.435 106.605 146.435 98.0482C146.435 89.4916 154.638 82.0521 165.427 82.0521C176.216 82.0521 184.419 89.4916 184.419 98.0482C184.419 106.605 176.216 114.044 165.427 114.044Z" fill="#1C1C1C" stroke="#1C1C1C" stroke-width="4"/>
<path d="M182.943 99.2892C182.943 100.317 183.776 101.151 184.804 101.151C185.833 101.151 186.666 100.317 186.666 99.2892L184.804 99.2892L182.943 99.2892ZM184.804 99.2892L186.666 99.2892L186.666 -1.5165e-05L184.804 -1.52588e-05L182.943 -1.53526e-05L182.943 99.2892L184.804 99.2892Z" fill="#1C1C1C"/>
<path d="M155.133 90.4569C157.897 86.2357 160.974 83.8879 164.027 83.0601C167.038 82.2439 170.354 82.8159 173.839 85.0977C177.324 87.3795 179.175 90.1901 179.631 93.2761C180.093 96.4061 179.172 100.165 176.408 104.386C173.644 108.608 170.48 111.086 167.322 112.021C164.217 112.94 160.846 112.449 157.406 110.197C153.967 107.945 152.169 105.051 151.769 101.838C151.363 98.5693 152.369 94.6786 155.133 90.4569Z" fill="#FFFEFD" stroke="#1C1C1C" stroke-width="4"/>
</svg>
