<svg width="198" height="112" viewBox="0 0 198 112" fill="none" xmlns="http://www.w3.org/2000/svg">
<path fill-rule="evenodd" clip-rule="evenodd" d="M35.8211 28.8313C35.8211 35.8207 21.8422 46.3049 21.8422 60.2842C21.8422 65.5263 32.3264 81.2526 39.3158 89.9898C35.821 88.2424 32.3264 86.495 27.0843 86.495C16.6001 86.495 13.1053 95.2319 13.1053 100.474C13.1053 103.969 16.6001 107.463 18.3474 110.958C7.86324 103.969 0.873779 96.9792 0.873779 89.9898C0.873779 72.5161 12.8085 78.6317 21.5453 75.137C12.8085 66.4001 4.36851 53.2947 4.36851 48.0526C4.36851 44.5579 14.8527 32.3263 18.3474 23.5895V18.3474C18.3474 13.1053 14.8527 6.11587 13.1053 0.873779C20.0948 9.6106 35.8211 25.3366 35.8211 28.8313Z" fill="url(#paint0_linear_28_462)" stroke="black" stroke-width="1.74736" stroke-linecap="round" stroke-linejoin="round"/>
<path fill-rule="evenodd" clip-rule="evenodd" d="M192.821 28.8313C192.821 35.8207 178.842 46.3049 178.842 60.2842C178.842 65.5263 189.326 81.2526 196.316 89.9898C192.821 88.2424 189.326 86.495 184.084 86.495C173.6 86.495 170.105 95.2319 170.105 100.474C170.105 103.969 173.6 107.463 175.347 110.958C164.863 103.969 157.874 96.9792 157.874 89.9898C157.874 72.5161 169.808 78.6317 178.545 75.137C169.808 66.4001 161.369 53.2947 161.369 48.0526C161.369 44.5579 171.853 32.3263 175.347 23.5895V18.3474C175.347 13.1053 171.853 6.11587 170.105 0.873779C177.095 9.6106 192.821 25.3366 192.821 28.8313Z" fill="url(#paint1_linear_28_462)" stroke="black" stroke-width="1.74736" stroke-linecap="round" stroke-linejoin="round"/>
<path d="M80.3298 67.1778V57.7458H116.402V67.1778H80.3298ZM93.2178 80.0658V44.8578H103.442V80.0658H93.2178Z" fill="#1C1C1C"/>
<defs>
<linearGradient id="paint0_linear_28_462" x1="26.6607" y1="26.2676" x2="1.83671" y2="88.8336" gradientUnits="userSpaceOnUse">
<stop stop-opacity="0.82639"/>
<stop offset="1"/>
</linearGradient>
<linearGradient id="paint1_linear_28_462" x1="183.661" y1="26.2676" x2="158.837" y2="88.8336" gradientUnits="userSpaceOnUse">
<stop stop-opacity="0.82639"/>
<stop offset="1"/>
</linearGradient>
</defs>
</svg>
