<svg width="20" height="20" viewBox="0 0 20 20" fill="none" xmlns="http://www.w3.org/2000/svg">
<circle cx="10" cy="10" r="9" fill="#FFFEFD" stroke="#1C1C1C" stroke-width="2"/>
<path d="M6.04709 6.99679C5.74677 6.99679 5.49514 6.90344 5.29221 6.71675C5.0974 6.52194 5 6.28249 5 5.99839C5 5.7143 5.0974 5.4789 5.29221 5.29221C5.49514 5.0974 5.74677 5 6.04709 5C6.34742 5 6.59499 5.0974 6.7898 5.29221C6.99273 5.4789 7.09419 5.7143 7.09419 5.99839C7.09419 6.28249 6.99273 6.52194 6.7898 6.71675C6.59499 6.90344 6.34742 6.99679 6.04709 6.99679ZM6.88721 7.80037V14.5456H5.18263V7.80037H6.88721Z" fill="black"/>
<path d="M12.3092 7.70296C13.1128 7.70296 13.7622 7.95865 14.2573 8.47002C14.7524 8.97328 15 9.67946 15 10.5886V14.5456H13.2954V10.8199C13.2954 10.2842 13.1615 9.87427 12.8936 9.59017C12.6258 9.29796 12.2605 9.15185 11.7978 9.15185C11.3271 9.15185 10.9537 9.29796 10.6777 9.59017C10.4098 9.87427 10.2759 10.2842 10.2759 10.8199V14.5456H8.57133V7.80037H10.2759V8.64048C10.5032 8.34827 10.7913 8.12099 11.1404 7.95865C11.4975 7.78819 11.8871 7.70296 12.3092 7.70296Z" fill="black"/>
</svg>
