<svg width="170" height="148" viewBox="0 0 170 148" fill="none" xmlns="http://www.w3.org/2000/svg">
<path d="M83.075 1.11138C83.9306 -0.370466 86.0694 -0.370457 86.925 1.11139L169.699 144.48C170.554 145.962 169.485 147.814 167.774 147.814H2.22608C0.514988 147.814 -0.554432 145.962 0.301112 144.48L83.075 1.11138Z" fill="#EC5228"/>
<path d="M93.9689 55.5692L92.1085 100.126H78.6205L76.7601 55.5692H93.9689ZM85.597 123.939C82.8064 123.939 80.5119 123.133 78.7135 121.521C76.9771 119.846 76.1089 117.8 76.1089 115.381C76.1089 112.901 76.9771 110.823 78.7135 109.149C80.5119 107.475 82.8064 106.638 85.597 106.638C88.3256 106.638 90.5581 107.475 92.2945 109.149C94.0929 110.823 94.9921 112.901 94.9921 115.381C94.9921 117.8 94.0929 119.846 92.2945 121.521C90.5581 123.133 88.3256 123.939 85.597 123.939Z" fill="#FFFEFD"/>
</svg>
