<svg width="76" height="76" viewBox="0 0 76 76" fill="none" xmlns="http://www.w3.org/2000/svg">
<path d="M3 24.5386L3 3.00011" stroke="#FFFEFD" stroke-width="6" stroke-linecap="square"/>
<path d="M73 72.1025V51.4615" stroke="#FFFEFD" stroke-width="6" stroke-linecap="square"/>
<path d="M51.462 3H72.1029" stroke="#FFFEFD" stroke-width="6" stroke-linecap="square"/>
<path d="M8.38477 3H24.5386" stroke="#FFFEFD" stroke-width="6" stroke-linecap="square"/>
<path d="M24.6689 72.8662H3.14221" stroke="#FFFEFD" stroke-width="6" stroke-linecap="square"/>
<path d="M3.10742 67.5127L3.10742 51.3676" stroke="#FFFEFD" stroke-width="6" stroke-linecap="square"/>
<path d="M73 73H51.4615" stroke="#FFFEFD" stroke-width="6" stroke-linecap="square"/>
<path d="M73 24.5386V3.00008" stroke="#FFFEFD" stroke-width="6" stroke-linecap="square"/>
<rect x="17" y="18" width="16" height="16" stroke="#FFFEFD" stroke-width="4"/>
<rect x="17" y="43" width="16" height="16" stroke="#FFFEFD" stroke-width="4"/>
<rect x="42" y="42" width="2" height="2" fill="#FFFEFD" stroke="#FFFEFD" stroke-width="2"/>
<rect x="50" y="44" width="2" height="2" fill="#FFFEFD" stroke="#FFFEFD" stroke-width="2"/>
<rect x="50" y="46" width="2" height="2" fill="#FFFEFD" stroke="#FFFEFD" stroke-width="2"/>
<rect x="46" y="50" width="2" height="2" fill="#FFFEFD" stroke="#FFFEFD" stroke-width="2"/>
<rect x="50" y="50" width="2" height="2" fill="#FFFEFD" stroke="#FFFEFD" stroke-width="2"/>
<rect x="54" y="42" width="2" height="2" fill="#FFFEFD" stroke="#FFFEFD" stroke-width="2"/>
<rect x="54" y="54" width="2" height="2" fill="#FFFEFD" stroke="#FFFEFD" stroke-width="2"/>
<rect x="54" y="50" width="2" height="2" fill="#FFFEFD" stroke="#FFFEFD" stroke-width="2"/>
<rect x="42" y="54" width="2" height="2" fill="#FFFEFD" stroke="#FFFEFD" stroke-width="2"/>
<rect x="42" y="18" width="16" height="16" stroke="#FFFEFD" stroke-width="4"/>
</svg>
