<svg width="376" height="486" viewBox="0 0 376 486" fill="none" xmlns="http://www.w3.org/2000/svg">
<path d="M93.6656 46.1525C93.3002 45.4793 92.7713 44.9697 92.0789 44.6235C91.4058 44.2581 90.6076 44.0753 89.6845 44.0753C88.0882 44.0753 86.8092 44.6042 85.8475 45.662C84.8859 46.7006 84.4051 48.095 84.4051 49.8451C84.4051 51.7107 84.9051 53.1724 85.9052 54.2302C86.9246 55.2688 88.3189 55.788 90.0884 55.788C91.3 55.788 92.3193 55.4803 93.1463 54.8649C93.9926 54.2494 94.608 53.3647 94.9927 52.2108H88.7324V48.5758H99.4643V53.1628C99.0989 54.3937 98.4738 55.538 97.5891 56.5958C96.7236 57.6536 95.6177 58.5095 94.2715 59.1634C92.9252 59.8173 91.4058 60.1442 89.7133 60.1442C87.7131 60.1442 85.9245 59.7115 84.3474 58.846C82.7896 57.9613 81.5683 56.7401 80.6836 55.1822C79.8181 53.6244 79.3854 51.8453 79.3854 49.8451C79.3854 47.8449 79.8181 46.0659 80.6836 44.5081C81.5683 42.931 82.7896 41.7097 84.3474 40.8443C85.9052 39.9595 87.6843 39.5172 89.6845 39.5172C92.1078 39.5172 94.1464 40.1038 95.8005 41.277C97.4737 42.4502 98.5796 44.0753 99.1181 46.1525H93.6656Z" fill="#1C1C1C"/>
<path d="M212.733 56.4227H205.174L203.963 60H198.799L206.126 39.748H211.838L219.166 60H213.944L212.733 56.4227ZM211.463 52.6147L208.953 45.2005L206.472 52.6147H211.463Z" fill="#1C1C1C"/>
<path d="M264.56 43.7003V47.7969H271.166V51.6049H264.56V56.0477H272.032V60H259.627V39.748H272.032V43.7003H264.56Z" fill="#1C1C1C"/>
<path d="M41.0508 110.941H319.268C320.169 110.941 320.931 111.606 321.054 112.499L371.655 481.226C371.804 482.308 370.962 483.273 369.869 483.273H4.9707C3.90552 483.273 3.07208 482.355 3.17578 481.295L39.2568 112.568C39.3472 111.645 40.1231 110.941 41.0508 110.941Z" fill="#FFFEFD" stroke="#1C1C1C" stroke-width="5.40919"/>
<path d="M88.8009 96.0656L90.1532 72.175" stroke="#1C1C1C" stroke-width="2.7046"/>
<path d="M268.656 109.061L302.013 485" stroke="#1C1C1C" stroke-width="2.7046"/>
<path d="M209.03 108.341L217.673 482.149" stroke="#1C1C1C" stroke-width="2.7046"/>
<path d="M86.5472 108.085L60.3375 481.322" stroke="#1C1C1C" stroke-width="2.7046"/>
<path d="M148.075 107.995L134.448 482.443" stroke="#1C1C1C" stroke-width="8"/>
<mask id="path-10-inside-1_28_760" fill="white">
<rect x="37.8644" y="68.569" width="283.081" height="31.5536" rx="4.50766"/>
</mask>
<rect x="37.8644" y="68.569" width="283.081" height="31.5536" rx="4.50766" stroke="#1C1C1C" stroke-width="10.8184" mask="url(#path-10-inside-1_28_760)"/>
<path d="M149.408 99.7204L150.803 72.1263" stroke="#1C1C1C" stroke-width="8"/>
<path d="M208.787 99.7831L208.122 72.1617" stroke="#1C1C1C" stroke-width="2.7046"/>
<path d="M267.374 98.8542L265.154 71.3142" stroke="#1C1C1C" stroke-width="2.7046"/>
<circle cx="152.037" cy="30" r="30" fill="#1C1C1C"/>
<path d="M151.453 19C153.821 19 155.891 19.4693 157.661 20.408C159.432 21.3467 160.797 22.6693 161.757 24.376C162.739 26.0613 163.229 28.0133 163.229 30.232C163.229 32.4293 162.739 34.3813 161.757 36.088C160.797 37.7947 159.421 39.1173 157.629 40.056C155.859 40.9947 153.8 41.464 151.453 41.464H143.037V19H151.453ZM151.101 36.728C153.171 36.728 154.781 36.1627 155.933 35.032C157.085 33.9013 157.661 32.3013 157.661 30.232C157.661 28.1627 157.085 26.552 155.933 25.4C154.781 24.248 153.171 23.672 151.101 23.672H148.509V36.728H151.101Z" fill="#FFFEFD"/>
</svg>
