<svg width="376" height="485" viewBox="0 0 376 485" fill="none" xmlns="http://www.w3.org/2000/svg">
<path d="M93.6656 45.1525C93.3002 44.4793 92.7713 43.9697 92.0789 43.6235C91.4058 43.2581 90.6076 43.0753 89.6845 43.0753C88.0882 43.0753 86.8092 43.6042 85.8475 44.662C84.8859 45.7006 84.4051 47.095 84.4051 48.8451C84.4051 50.7107 84.9051 52.1724 85.9052 53.2302C86.9246 54.2688 88.3189 54.788 90.0884 54.788C91.3 54.788 92.3193 54.4803 93.1463 53.8649C93.9926 53.2494 94.608 52.3647 94.9927 51.2108H88.7324V47.5758H99.4643V52.1628C99.0989 53.3937 98.4738 54.538 97.5891 55.5958C96.7236 56.6536 95.6177 57.5095 94.2715 58.1634C92.9252 58.8173 91.4058 59.1442 89.7133 59.1442C87.7131 59.1442 85.9245 58.7115 84.3474 57.846C82.7896 56.9613 81.5683 55.7401 80.6836 54.1822C79.8181 52.6244 79.3854 50.8453 79.3854 48.8451C79.3854 46.8449 79.8181 45.0659 80.6836 43.5081C81.5683 41.931 82.7896 40.7097 84.3474 39.8443C85.9052 38.9595 87.6843 38.5172 89.6845 38.5172C92.1078 38.5172 94.1464 39.1038 95.8005 40.277C97.4737 41.4502 98.5796 43.0753 99.1181 45.1525H93.6656Z" fill="#1C1C1C"/>
<path d="M151.818 38.748C153.953 38.748 155.818 39.1711 157.415 40.0173C159.011 40.8636 160.242 42.056 161.107 43.5946C161.992 45.114 162.434 46.8738 162.434 48.874C162.434 50.855 161.992 52.6148 161.107 54.1534C160.242 55.692 159.001 56.8844 157.386 57.7306C155.789 58.5769 153.934 59 151.818 59H144.231V38.748H151.818ZM151.501 54.7303C153.366 54.7303 154.818 54.2207 155.857 53.2013C156.895 52.182 157.415 50.7396 157.415 48.874C157.415 47.0084 156.895 45.5564 155.857 44.5178C154.818 43.4792 153.366 42.9599 151.501 42.9599H149.164V54.7303H151.501Z" fill="#1C1C1C"/>
<path d="M212.733 55.4227H205.174L203.962 59H198.798L206.126 38.748H211.838L219.166 59H213.944L212.733 55.4227ZM211.463 51.6147L208.953 44.2005L206.472 51.6147H211.463Z" fill="#1C1C1C"/>
<path d="M41.0508 109.941H319.268C320.169 109.941 320.931 110.606 321.054 111.499L371.655 480.226C371.804 481.308 370.962 482.273 369.869 482.273H4.9707C3.90552 482.273 3.07208 481.355 3.17578 480.295L39.2568 111.568C39.3472 110.645 40.1231 109.941 41.0508 109.941Z" fill="#FFFEFD" stroke="#1C1C1C" stroke-width="5.40919"/>
<path d="M88.8009 95.0656L90.1532 71.175" stroke="#1C1C1C" stroke-width="2.7046"/>
<path d="M269 109L302.013 482.292" stroke="#1C1C1C" stroke-width="8"/>
<path d="M209.03 107.341L217.673 481.149" stroke="#1C1C1C" stroke-width="2.7046"/>
<path d="M86.5473 107.085L60.3376 480.322" stroke="#1C1C1C" stroke-width="2.7046"/>
<path d="M148.075 106.995L134.448 481.443" stroke="#1C1C1C" stroke-width="2.7046"/>
<mask id="path-10-inside-1_28_758" fill="white">
<rect x="37.8644" y="67.569" width="283.081" height="31.5536" rx="4.50766"/>
</mask>
<rect x="37.8644" y="67.569" width="283.081" height="31.5536" rx="4.50766" stroke="#1C1C1C" stroke-width="10.8184" mask="url(#path-10-inside-1_28_758)"/>
<path d="M149.408 98.7204L150.803 71.1263" stroke="#1C1C1C" stroke-width="2.7046"/>
<path d="M208.787 98.7831L208.122 71.1617" stroke="#1C1C1C" stroke-width="2.7046"/>
<path d="M267.374 97.8542L265.154 70.3142" stroke="#1C1C1C" stroke-width="8"/>
<circle cx="266" cy="30" r="30" fill="#1C1C1C"/>
<path d="M264.472 23.384V27.928H271.8V32.152H264.472V37.08H272.76V41.464H259V19H272.76V23.384H264.472Z" fill="#FFFEFD"/>
</svg>
