<svg width="216" height="191" viewBox="0 0 216 191" fill="none" xmlns="http://www.w3.org/2000/svg">
<line y1="19.7132" x2="215.305" y2="19.7132" stroke="#1C1C1C" stroke-width="2.48223"/>
<line y1="51.9823" x2="215.305" y2="51.9823" stroke="#1C1C1C" stroke-width="2.48223"/>
<line y1="84.2512" x2="215.305" y2="84.2512" stroke="#1C1C1C" stroke-width="2.48223"/>
<line y1="116.52" x2="215.305" y2="116.52" stroke="#1C1C1C" stroke-width="2.48223"/>
<line y1="148.789" x2="215.305" y2="148.789" stroke="#1C1C1C" stroke-width="2.48223"/>
<path d="M26.3752 130.172C28.7076 114.452 37.894 87.7263 55.9796 106.591C78.5865 130.172 36.6021 167.406 16.1482 142.584C-0.214968 122.726 28.9147 90.0007 41.4465 70.5989C53.9782 51.1972 63.838 4.07511 41.4465 6.06089C19.0549 8.04668 44.6758 138.24 44.6758 171.75C44.6758 205.26 32.2954 179.817 33.9106 177.955" stroke="#1C1C1C" stroke-width="3.72335" stroke-linecap="round"/>
<path d="M131.992 0.620132C143.336 0.620132 152.364 8.48607 152.364 17.9961C152.364 27.5062 143.336 35.3721 131.992 35.3721C120.648 35.3721 111.62 27.5062 111.62 17.9961C111.62 8.48608 120.648 0.620141 131.992 0.620132Z" fill="#1C1C1C" stroke="#1C1C1C" stroke-width="1.24112"/>
<path d="M114.476 16.7551C114.476 15.7269 113.643 14.8934 112.615 14.8934C111.587 14.8934 110.753 15.7269 110.753 16.7551L112.615 16.7551L114.476 16.7551ZM112.615 16.7551L110.753 16.7551L110.753 116.044L112.615 116.044L114.476 116.044L114.476 16.7551L112.615 16.7551Z" fill="#1C1C1C"/>
</svg>
