<svg width="216" height="187" viewBox="0 0 216 187" fill="none" xmlns="http://www.w3.org/2000/svg">
<line y1="15.5748" x2="215.305" y2="15.5748" stroke="#1C1C1C" stroke-width="2.48223"/>
<line y1="47.8438" x2="215.305" y2="47.8438" stroke="#1C1C1C" stroke-width="2.48223"/>
<line y1="80.1128" x2="215.305" y2="80.1128" stroke="#1C1C1C" stroke-width="2.48223"/>
<line y1="112.382" x2="215.305" y2="112.382" stroke="#1C1C1C" stroke-width="2.48223"/>
<line y1="144.651" x2="215.305" y2="144.651" stroke="#1C1C1C" stroke-width="2.48223"/>
<path d="M26.3752 126.034C28.7076 110.313 37.894 83.5879 55.9796 102.453C78.5865 126.034 36.6021 163.268 16.1482 138.445C-0.214968 118.587 28.9147 85.8622 41.4465 66.4605C53.9782 47.0587 63.838 -0.0633403 41.4465 1.92245C19.0549 3.90823 44.6758 134.101 44.6758 167.611C44.6758 201.122 32.2954 175.679 33.9106 173.817" stroke="#1C1C1C" stroke-width="3.72335" stroke-linecap="round"/>
<path d="M132.992 30.4817C144.336 30.4817 153.364 38.3476 153.364 47.8577C153.364 57.3677 144.336 65.2336 132.992 65.2336C121.648 65.2336 112.62 57.3677 112.62 47.8577C112.62 38.3476 121.648 30.4817 132.992 30.4817Z" fill="#1C1C1C" stroke="#1C1C1C" stroke-width="1.24112"/>
<path d="M115.476 46.6166C115.476 45.5885 114.643 44.755 113.615 44.755C112.587 44.755 111.753 45.5885 111.753 46.6166L113.615 46.6166L115.476 46.6166ZM113.615 46.6166L111.753 46.6166L111.753 145.906L113.615 145.906L115.476 145.906L115.476 46.6166L113.615 46.6166Z" fill="#1C1C1C"/>
<mask id="path-9-outside-1_1_150" maskUnits="userSpaceOnUse" x="124.995" y="37.8616" width="19" height="21" fill="black">
<rect fill="white" x="124.995" y="37.8616" width="19" height="21"/>
<path d="M133.062 39.4363C134.899 39.4363 136.504 39.8004 137.878 40.5285C139.251 41.2566 140.31 42.2826 141.055 43.6064C141.816 44.9138 142.197 46.4279 142.197 48.1489C142.197 49.8534 141.816 51.3676 141.055 52.6914C140.31 54.0153 139.243 55.0413 137.853 55.7694C136.479 56.4975 134.882 56.8616 133.062 56.8616H126.534V39.4363H133.062ZM132.789 53.1879C134.394 53.1879 135.644 52.7493 136.537 51.8723C137.431 50.9952 137.878 49.7541 137.878 48.1489C137.878 46.5438 137.431 45.2944 136.537 44.4008C135.644 43.5072 134.394 43.0604 132.789 43.0604H130.778V53.1879H132.789Z"/>
</mask>
<path d="M133.062 39.4363C134.899 39.4363 136.504 39.8004 137.878 40.5285C139.251 41.2566 140.31 42.2826 141.055 43.6064C141.816 44.9138 142.197 46.4279 142.197 48.1489C142.197 49.8534 141.816 51.3676 141.055 52.6914C140.31 54.0153 139.243 55.0413 137.853 55.7694C136.479 56.4975 134.882 56.8616 133.062 56.8616H126.534V39.4363H133.062ZM132.789 53.1879C134.394 53.1879 135.644 52.7493 136.537 51.8723C137.431 50.9952 137.878 49.7541 137.878 48.1489C137.878 46.5438 137.431 45.2944 136.537 44.4008C135.644 43.5072 134.394 43.0604 132.789 43.0604H130.778V53.1879H132.789Z" fill="#FFFEFD"/>
<path d="M137.878 40.5285L138.459 39.4319L138.459 39.4319L137.878 40.5285ZM141.055 43.6064L139.973 44.2149L139.978 44.223L139.982 44.231L141.055 43.6064ZM141.055 52.6914L139.979 52.0727L139.973 52.0829L141.055 52.6914ZM137.853 55.7694L137.277 54.6699L137.271 54.6728L137.853 55.7694ZM126.534 56.8616H125.293V58.1027H126.534V56.8616ZM126.534 39.4363V38.1952H125.293V39.4363H126.534ZM130.778 43.0604V41.8192H129.537V43.0604H130.778ZM130.778 53.1879H129.537V54.429H130.778V53.1879ZM133.062 39.4363V40.6774C134.733 40.6774 136.132 41.0077 137.296 41.625L137.878 40.5285L138.459 39.4319C136.876 38.593 135.065 38.1952 133.062 38.1952V39.4363ZM137.878 40.5285L137.296 41.625C138.465 42.2445 139.348 43.1034 139.973 44.2149L141.055 43.6064L142.137 42.998C141.272 41.4617 140.037 40.2687 138.459 39.4319L137.878 40.5285ZM141.055 43.6064L139.982 44.231C140.619 45.3237 140.956 46.6166 140.956 48.1489H142.197H143.438C143.438 46.2392 143.013 44.5038 142.127 42.9819L141.055 43.6064ZM142.197 48.1489H140.956C140.956 49.6621 140.62 50.9583 139.979 52.0728L141.055 52.6914L142.131 53.3101C143.012 51.7768 143.438 50.0447 143.438 48.1489H142.197ZM141.055 52.6914L139.973 52.0829C139.35 53.1905 138.462 54.0493 137.277 54.67L137.853 55.7694L138.429 56.8688C140.024 56.0333 141.27 54.84 142.137 53.2999L141.055 52.6914ZM137.853 55.7694L137.271 54.6728C136.105 55.291 134.714 55.6204 133.062 55.6204V56.8616V58.1027C135.05 58.1027 136.853 57.704 138.434 56.8659L137.853 55.7694ZM133.062 56.8616V55.6204H126.534V56.8616V58.1027H133.062V56.8616ZM126.534 56.8616H127.775V39.4363H126.534H125.293V56.8616H126.534ZM126.534 39.4363V40.6774H133.062V39.4363V38.1952H126.534V39.4363ZM132.789 53.1879V54.429C134.624 54.429 136.22 53.9221 137.406 52.758L136.537 51.8723L135.668 50.9865C135.067 51.5765 134.165 51.9467 132.789 51.9467V53.1879ZM136.537 51.8723L137.406 52.758C138.6 51.5865 139.119 49.9886 139.119 48.1489H137.878H136.636C136.636 49.5196 136.261 50.4039 135.668 50.9865L136.537 51.8723ZM137.878 48.1489H139.119C139.119 46.308 138.6 44.7082 137.415 43.5232L136.537 44.4008L135.66 45.2784C136.262 45.8806 136.636 46.7795 136.636 48.1489H137.878ZM136.537 44.4008L137.415 43.5232C136.23 42.3381 134.63 41.8192 132.789 41.8192V43.0604V44.3015C134.158 44.3015 135.057 44.6762 135.66 45.2784L136.537 44.4008ZM132.789 43.0604V41.8192H130.778V43.0604V44.3015H132.789V43.0604ZM130.778 43.0604H129.537V53.1879H130.778H132.019V43.0604H130.778ZM130.778 53.1879V54.429H132.789V53.1879V51.9467H130.778V53.1879Z" fill="#1C1C1C" mask="url(#path-9-outside-1_1_150)"/>
</svg>
