<svg width="42" height="42" viewBox="0 0 42 42" fill="none" xmlns="http://www.w3.org/2000/svg">
<rect x="25.5017" y="11.2734" width="10.024" height="7.38732" rx="0.588597" transform="rotate(-45 25.5017 11.2734)" fill="white" stroke="white" stroke-width="0.677779"/>
<path d="M23.3029 19.3036C22.9632 19.3144 22.6851 19.0363 22.6959 18.6966L22.9701 10.0919C22.9868 9.577 23.6104 9.33048 23.9748 9.69482L32.3047 18.0247C32.6691 18.3891 32.4225 19.0128 31.9076 19.0295L23.3029 19.3036Z" fill="white" stroke="white" stroke-width="0.677779"/>
<rect x="16.5598" y="30.7246" width="10.024" height="7.38732" rx="0.588597" transform="rotate(135 16.5598 30.7246)" fill="white" stroke="white" stroke-width="0.677779"/>
<path d="M18.6346 22.6944C18.9743 22.6836 19.2524 22.9618 19.2416 23.3014L18.9674 31.9062C18.9507 32.421 18.3271 32.6676 17.9627 32.3032L9.63281 23.9733C9.26845 23.609 9.51495 22.9853 10.0299 22.9686L18.6346 22.6944Z" fill="white" stroke="white" stroke-width="0.677779"/>
</svg>
