<svg width="216" height="208" viewBox="0 0 216 208" fill="none" xmlns="http://www.w3.org/2000/svg">
<line x1="2.67029e-05" y1="36.714" x2="215.305" y2="36.714" stroke="#1C1C1C" stroke-width="2.48223"/>
<line x1="2.67029e-05" y1="68.983" x2="215.305" y2="68.983" stroke="#1C1C1C" stroke-width="2.48223"/>
<line x1="2.67029e-05" y1="101.252" x2="215.305" y2="101.252" stroke="#1C1C1C" stroke-width="2.48223"/>
<line x1="2.67029e-05" y1="133.521" x2="215.305" y2="133.521" stroke="#1C1C1C" stroke-width="2.48223"/>
<line x1="2.67029e-05" y1="165.79" x2="215.305" y2="165.79" stroke="#1C1C1C" stroke-width="2.48223"/>
<path d="M26.3752 147.173C28.7076 131.452 37.894 104.727 55.9796 123.592C78.5866 147.173 36.6021 184.407 16.1482 159.584C-0.214956 139.727 28.9147 107.001 41.4465 87.5996C53.9783 68.1979 63.838 21.0758 41.4465 23.0616C19.055 25.0474 44.6758 155.24 44.6758 188.751C44.6758 222.261 32.2954 196.818 33.9106 194.956" stroke="#1C1C1C" stroke-width="3.72335" stroke-linecap="round"/>
<path d="M119.584 31.016L117.808 39.32H124.144V44.12H116.8L114.88 53H109.648L111.568 44.12H102.16L100.24 53H95.008L96.928 44.12H89.488V39.32H97.936L99.712 31.016H92.32V26.216H100.72L102.592 17.48H107.824L105.952 26.216H115.36L117.232 17.48H122.464L120.592 26.216H126.976V31.016H119.584ZM114.352 31.016H104.944L103.168 39.32H112.576L114.352 31.016Z" fill="black"/>
</svg>
