<svg width="216" height="223" viewBox="0 0 216 223" fill="none" xmlns="http://www.w3.org/2000/svg">
<line x1="3.05176e-05" y1="51.714" x2="215.305" y2="51.714" stroke="#1C1C1C" stroke-width="2.48223"/>
<line x1="3.05176e-05" y1="83.983" x2="215.305" y2="83.983" stroke="#1C1C1C" stroke-width="2.48223"/>
<line x1="3.05176e-05" y1="116.252" x2="215.305" y2="116.252" stroke="#1C1C1C" stroke-width="2.48223"/>
<line x1="3.05176e-05" y1="148.521" x2="215.305" y2="148.521" stroke="#1C1C1C" stroke-width="2.48223"/>
<line x1="3.05176e-05" y1="180.79" x2="215.305" y2="180.79" stroke="#1C1C1C" stroke-width="2.48223"/>
<path d="M26.3752 162.173C28.7076 146.452 37.894 119.727 55.9796 138.592C78.5865 162.173 36.6021 199.407 16.1482 174.584C-0.214968 154.727 28.9147 122.001 41.4465 102.6C53.9782 83.1979 63.838 36.0758 41.4465 38.0616C19.0549 40.0474 44.6758 170.24 44.6758 203.751C44.6758 237.261 32.2954 211.818 33.9106 209.956" stroke="#1C1C1C" stroke-width="3.72335" stroke-linecap="round"/>
<path d="M109.584 48.016L107.808 56.32H114.144V61.12H106.8L104.88 70H99.648L101.568 61.12H92.16L90.24 70H85.008L86.928 61.12H79.488V56.32H87.936L89.712 48.016H82.32V43.216H90.72L92.592 34.48H97.824L95.952 43.216H105.36L107.232 34.48H112.464L110.592 43.216H116.976V48.016H109.584ZM104.352 48.016H94.944L93.168 56.32H102.576L104.352 48.016Z" fill="black"/>
<path d="M156.584 95.016L154.808 103.32H161.144V108.12H153.8L151.88 117H146.648L148.568 108.12H139.16L137.24 117H132.008L133.928 108.12H126.488V103.32H134.936L136.712 95.016H129.32V90.216H137.72L139.592 81.48H144.824L142.952 90.216H152.36L154.232 81.48H159.464L157.592 90.216H163.976V95.016H156.584ZM151.352 95.016H141.944L140.168 103.32H149.576L151.352 95.016Z" fill="black"/>
<path d="M199.584 31.016L197.808 39.32H204.144V44.12H196.8L194.88 53H189.648L191.568 44.12H182.16L180.24 53H175.008L176.928 44.12H169.488V39.32H177.936L179.712 31.016H172.32V26.216H180.72L182.592 17.48H187.824L185.952 26.216H195.36L197.232 17.48H202.464L200.592 26.216H206.976V31.016H199.584ZM194.352 31.016H184.944L183.168 39.32H192.576L194.352 31.016Z" fill="black"/>
</svg>
