<svg width="48" height="58" viewBox="0 0 48 58" fill="none" xmlns="http://www.w3.org/2000/svg">
<g filter="url(#filter0_d_29_739)">
<path d="M13.4977 47.8271H12.6066C10.3974 47.8271 8.60656 46.0363 8.60656 43.8271V26.5769C8.60656 25.3061 7.57637 24.2759 6.30557 24.2759C4.34373 24.2759 3.28177 21.9783 4.55295 20.484L20.7804 1.40856C22.3777 -0.469002 25.2766 -0.469004 26.8738 1.40855L43.1013 20.484C44.3725 21.9783 43.3106 24.2759 41.3487 24.2759C40.0779 24.2759 39.0477 25.3061 39.0477 26.5769V43.8271C39.0477 46.0363 37.2569 47.8271 35.0477 47.8271H33.5822C31.201 47.8271 29.4285 45.7378 29.1662 43.3711C28.5253 37.5889 25.0327 36.4433 24.4889 36.388C19.6904 35.9001 18.1394 39.5397 17.8174 43.4589C17.6251 45.8008 15.8474 47.8271 13.4977 47.8271Z" fill="#FFFEFD"/>
</g>
<defs>
<filter id="filter0_d_29_739" x="0" y="0" width="47.6543" height="57.8271" filterUnits="userSpaceOnUse" color-interpolation-filters="sRGB">
<feFlood flood-opacity="0" result="BackgroundImageFix"/>
<feColorMatrix in="SourceAlpha" type="matrix" values="0 0 0 0 0 0 0 0 0 0 0 0 0 0 0 0 0 0 127 0" result="hardAlpha"/>
<feOffset dy="6"/>
<feGaussianBlur stdDeviation="2"/>
<feComposite in2="hardAlpha" operator="out"/>
<feColorMatrix type="matrix" values="0 0 0 0 0 0 0 0 0 0 0 0 0 0 0 0 0 0 0.25 0"/>
<feBlend mode="normal" in2="BackgroundImageFix" result="effect1_dropShadow_29_739"/>
<feBlend mode="normal" in="SourceGraphic" in2="effect1_dropShadow_29_739" result="shape"/>
</filter>
</defs>
</svg>
