<svg width="190" height="502" viewBox="0 0 190 502" fill="none" xmlns="http://www.w3.org/2000/svg">
<g clip-path="url(#clip0_31_881)">
<path fill-rule="evenodd" clip-rule="evenodd" d="M8.91005 353.961L5.74205 359.829C8.11805 361.881 9.45005 364.581 9.88205 368.073C10.2421 371.529 9.55805 373.221 8.11805 380.637C6.46205 388.269 2.32205 402.273 1.13405 413.073C-0.0899477 424.017 -0.773948 434.997 1.60205 445.042C3.90605 455.05 8.04605 464.734 15.4261 472.546C22.8781 480.537 36.5581 487.413 45.7741 491.913C54.7381 496.413 62.3701 498.249 69.6421 499.221C76.9501 500.265 83.2861 499.798 89.1901 497.962C90.9181 500.194 93.0061 501.31 95.8501 501.31C98.6211 501.382 101.862 500.266 105.715 498.106C112.41 499.078 120.293 497.854 130.051 494.29C139.807 490.69 154.17 484.606 163.422 477.154C172.457 469.882 180.055 460.81 184.41 450.766C188.621 440.794 189.846 428.194 189.342 417.538C188.731 406.954 184.051 395.83 181.529 387.478C179.009 379.27 175.338 373.726 174.545 367.93C173.682 362.17 174.365 357.238 176.598 352.99L173.285 347.734C171.377 349.678 169.146 350.686 166.445 350.758C163.601 350.974 160.326 350.83 157.05 348.238C153.7 345.646 149.814 341.542 147.04 335.35C144.196 329.194 141.894 318.286 140.704 311.662C139.481 305.182 139.589 300.574 140.2 296.722C140.634 293.05 141.065 290.962 144.016 289.09C146.969 287.254 151.684 285.994 158.164 285.454L161.512 278.902C159.459 276.67 158.02 274.042 157.049 271.018C156.004 268.138 155.393 266.086 155.787 260.83C156.291 255.61 158.955 247.367 159.603 239.554C159.999 231.779 160.324 222.058 158.632 214.57C156.724 207.154 154.06 201.25 149.128 195.347C144.087 189.622 137.644 183.898 129.399 180.263C121.227 176.734 111.614 174.538 100.419 173.818L91.9951 58.0779C91.3831 54.1189 90.8071 49.978 90.4111 45.515C89.9071 41.085 89.5831 36.3699 89.2951 31.3669C90.1951 31.1499 90.7711 30.359 90.8791 28.847C90.9871 27.406 90.6271 25.39 89.9431 22.654C92.4991 23.23 94.1191 22.7989 95.1981 21.3589C96.1361 19.9179 96.6751 15.9209 95.9911 14.2299C95.2351 12.6459 93.5791 11.89 90.8791 11.818C90.8791 9.40596 90.4111 7.71394 89.6191 6.74194C88.6831 5.80594 87.6391 5.69896 85.9471 6.27496C87.1351 3.89796 86.9191 2.20694 85.1551 1.19894C83.3551 0.190944 77.3431 -0.602048 75.4711 0.225952C73.5271 1.16195 72.9871 3.28694 73.7071 6.74194C71.7631 6.70694 70.5751 7.13795 69.7471 8.18295C68.9191 9.26295 68.7031 10.847 68.9551 12.935C66.4711 12.683 64.8511 13.1149 63.6991 14.2299C62.5111 15.4549 62.0431 18.0819 62.2951 19.6299C62.5111 21.2489 63.9151 22.943 65.1391 23.589C66.2191 24.275 67.7311 24.382 69.2791 23.771C68.7031 25.75 68.5951 27.334 69.0991 28.666C69.4951 30.035 70.503 31.1499 71.979 31.8709C71.475 31.4019 71.1511 34.211 71.0071 40.295C70.8271 46.486 70.8271 55.6659 71.0071 68.4099L71.5471 175.58C66.7591 175.148 61.3231 176.014 54.8431 178.461C48.2551 180.908 39.1831 184.797 33.0631 190.125C26.9431 195.598 21.7231 203.229 18.7711 210.5C15.7471 217.701 14.9551 225.225 15.2791 233.361C15.5311 241.785 19.0231 253.125 20.3551 259.748C21.5791 266.192 22.8391 268.388 22.5871 272.168C22.1191 276.128 20.6791 279.836 17.9791 283.292L21.9391 289.484C25.5751 287.648 28.7071 287.252 31.6231 288.44C34.4311 289.7 37.3471 291.716 38.9671 296.576C40.5151 301.544 41.1991 310.148 40.8751 317.384C40.4071 324.728 38.9671 333.692 36.2671 339.956C33.3871 346.328 28.7071 352.376 24.1711 354.752C19.5351 357.122 14.4951 356.902 8.87905 353.992L8.91005 353.961Z" fill="black" stroke="black" stroke-width="0.036" stroke-miterlimit="10"/>
<path fill-rule="evenodd" clip-rule="evenodd" d="M71.55 179.251C68.31 178.999 64.386 179.575 59.634 180.835C54.738 182.204 48.942 183.105 43.074 187.028C37.062 191.059 28.926 197.864 24.642 204.524C20.466 211.327 18.558 220.147 17.802 227.096C16.974 234.188 18.45 240.092 19.71 246.319C20.862 252.728 23.85 259.243 24.642 264.464C25.218 269.684 24.642 273.968 24.03 277.172C23.382 280.448 22.518 282.572 21.15 283.688L22.266 286.064C25.182 284.912 27.702 284.588 30.222 284.948C32.598 285.344 34.866 285.92 36.882 288.62C38.934 291.572 41.49 295.748 42.462 302.12C43.29 308.672 43.362 318.932 42.138 326.924C40.806 334.952 38.034 344.096 34.65 349.496C31.158 354.86 25.614 357.812 21.618 359.036C17.586 360.404 13.986 359.72 10.674 357.272L9.23402 359.18C11.502 359.324 12.618 361.952 12.582 367.46C12.438 373.04 10.242 384.02 8.76602 391.94C7.21802 399.788 4.41002 406.844 3.65402 414.656C2.79002 422.715 2.07002 430.886 3.83402 439.455C5.52602 448.095 8.91002 456.843 13.986 465.987C18.702 459.903 24.858 454.971 32.454 451.047C40.05 447.231 49.194 442.443 59.31 442.803C69.39 443.199 80.082 446.799 92.214 453.459C88.83 447.771 85.878 441.255 82.818 433.083C79.686 425.091 75.402 411.807 74.25 405.435C73.062 399.279 74.07 397.191 76.302 395.283C78.498 393.483 82.674 394.167 87.282 393.843C91.782 393.483 98.551 393.267 103.158 393.195C107.551 393.267 112.265 392.151 113.994 394.167C115.65 396.327 114.605 399.459 113.49 405.903C112.265 412.563 108.666 423.435 107.154 433.083C105.533 442.803 104.31 454.683 104.453 463.287C104.635 471.891 107.514 478.839 108.09 484.131C108.449 489.423 108.27 493.131 107.154 495.111C109.853 496.587 114.677 496.119 121.769 493.995C128.826 491.871 141.066 487.299 149.597 482.223C158.058 477.219 166.337 471.819 172.493 463.935C178.54 456.051 183.688 444.711 185.848 435.171C187.791 425.775 186.317 416.559 184.733 407.523C183.04 398.523 178.432 387.795 176.309 381.603C174.112 375.591 172.672 375.159 171.844 371.415C170.981 367.743 171.016 362.667 171.375 359.643C171.629 356.799 172.42 354.999 173.607 354.243L171.988 351.723C170.728 353.775 168.82 354.783 166.119 354.747C163.24 354.855 159.603 354.819 155.787 351.723C151.9 348.771 147.004 344.199 143.871 336.459C140.703 328.611 137.969 313.311 137.176 305.283C136.276 297.399 135.699 293.043 138.94 289.155C142.217 285.375 147.868 283.251 156.436 282.639L158.489 280.119C155.428 277.707 153.665 274.395 152.909 269.787C152.188 265.215 153.413 259.455 154.204 252.939C154.925 246.566 156.798 238.359 157.05 231.627C157.193 225.074 157.337 219.531 155.142 213.195C152.765 206.822 149.13 199.334 143.406 193.646C137.467 188.066 127.746 182.955 120.654 180.111C113.634 177.34 107.369 176.619 101.574 177.41L111.762 290.92C108.953 289.912 105.498 289.408 101.25 289.012C96.857 288.724 91.566 288.544 86.49 289.012C81.486 289.588 76.446 290.596 71.37 292.18C71.406 254.57 71.478 216.91 71.55 179.26V179.251Z" fill="white" stroke="black" stroke-width="0.036" stroke-miterlimit="10"/>
<path fill-rule="evenodd" clip-rule="evenodd" d="M75.2581 351.071C74.6461 349.631 74.3221 348.083 74.4301 346.571C74.3941 345.095 73.8541 342.935 75.7261 341.891C77.6341 340.919 81.5941 340.883 85.3741 340.523C88.9741 340.163 92.8981 339.803 97.5781 339.875C102.293 340.091 110.933 340.199 113.201 341.711C115.219 343.331 114.139 345.815 109.961 349.307L105.857 349.127C106.181 348.155 105.966 347.471 104.921 346.931C103.769 346.571 102.978 346.355 99.7731 346.283C96.4601 346.139 88.4341 345.995 85.8061 346.283C83.1781 346.751 82.8181 347.615 84.4381 348.875C82.4581 349.127 80.7661 349.379 79.2181 349.775C77.5991 350.175 76.4111 350.615 75.2591 351.075L75.2581 351.071Z" fill="black" stroke="black" stroke-width="0.036" stroke-miterlimit="10"/>
<path fill-rule="evenodd" clip-rule="evenodd" d="M139.73 374.691L142.214 371.487C140.737 369.255 140.378 367.527 141.134 365.907C141.78 364.395 144.878 362.163 146.532 362.271C148.153 362.523 150.745 364.791 150.997 366.843C151.142 368.931 149.63 372.747 147.433 374.547C145.093 376.491 140.738 379.191 137.425 377.931C133.861 376.671 129.65 372.279 127.31 366.843C124.97 361.407 124.537 352.119 123.925 345.639C123.349 339.231 123.89 333.147 123.601 328.755C123.169 324.543 122.449 321.951 121.441 320.151C120.433 318.387 119.066 317.595 117.482 317.919L115.826 320.151C116.185 322.347 116.006 323.859 115.142 324.687C114.169 325.623 111.613 326.343 110.677 325.443C109.634 324.507 108.697 321.699 109.525 319.647C110.318 317.739 112.982 314.715 115.718 314.175C118.452 313.743 122.989 314.499 125.581 316.983C127.956 319.611 129.612 324.327 130.55 329.331C131.306 334.443 130.693 340.995 131.054 347.043C131.341 353.235 131.7 360.795 133.105 365.439C134.535 370.109 136.695 373.059 139.715 374.679L139.73 374.691Z" fill="black" stroke="black" stroke-width="0.036" stroke-miterlimit="10"/>
<path fill-rule="evenodd" clip-rule="evenodd" d="M44.262 376.531L41.778 373.327C43.182 371.095 43.542 369.367 42.858 367.747C42.102 366.235 39.006 364.003 37.458 364.111C35.73 364.363 33.174 366.631 32.994 368.683C32.742 370.771 34.254 374.587 36.558 376.387C38.79 378.331 43.146 381.031 46.566 379.771C50.022 378.511 54.27 374.119 56.682 368.683C58.914 363.247 59.346 353.959 60.066 347.479C60.534 341.071 59.994 334.987 60.39 330.595C60.75 326.383 61.47 323.791 62.55 321.991C63.522 320.227 64.854 319.435 66.546 319.759L68.202 321.991C67.734 324.187 67.95 325.699 68.85 326.527C69.714 327.463 72.306 328.183 73.314 327.283C74.286 326.347 75.186 323.539 74.466 321.487C73.566 319.579 70.902 316.555 68.274 316.015C65.466 315.583 60.93 316.339 58.41 318.823C55.926 321.451 54.27 326.167 53.442 331.171C52.614 336.283 53.19 342.835 52.938 348.883C52.542 355.075 52.182 362.635 50.886 367.279C49.41 371.949 47.25 374.899 44.262 376.519V376.531Z" fill="black" stroke="black" stroke-width="0.036" stroke-miterlimit="10"/>
<path fill-rule="evenodd" clip-rule="evenodd" d="M80.7301 402.664L76.0501 342.94L74.0701 61.4599L76.3021 61.6769L77.7781 342.947L82.2061 402.671H80.7301V402.664Z" fill="black" stroke="black" stroke-width="0.036" stroke-miterlimit="10"/>
<path fill-rule="evenodd" clip-rule="evenodd" d="M80.9461 402.124L76.4821 343.66L76.2661 303.232L74.4301 62.0319L75.9061 62.1039L76.1581 136.264L77.4181 343.584L81.8461 402.336L80.9461 402.127V402.124Z" fill="white" stroke="black" stroke-width="0.036" stroke-miterlimit="10"/>
<path fill-rule="evenodd" clip-rule="evenodd" d="M110.79 403.095L111.87 343.119L89.659 61.3789L87.967 61.5239L110.144 343.264L109.64 403.024L110.79 403.098V403.095Z" fill="black" stroke="black" stroke-width="0.036" stroke-miterlimit="10"/>
<path fill-rule="evenodd" clip-rule="evenodd" d="M110.47 402.772L111.513 343.876L108.345 303.556L89.3751 61.776L88.3311 61.921L94.4871 137.159L110.579 343.869L110.003 402.549L110.483 402.77L110.47 402.772Z" fill="white" stroke="black" stroke-width="0.036" stroke-miterlimit="10"/>
<path fill-rule="evenodd" clip-rule="evenodd" d="M99.486 402.124L100.566 342.148L85.374 62.468L83.718 62.54L98.838 342.3L98.334 402.06L99.482 402.123L99.486 402.124Z" fill="black" stroke="black" stroke-width="0.036" stroke-miterlimit="10"/>
<path fill-rule="evenodd" clip-rule="evenodd" d="M99.125 401.764L100.205 342.868L85.086 62.8979L84.15 63.0428L99.239 342.903L98.663 401.583L99.13 401.766L99.125 401.764Z" fill="white" stroke="black" stroke-width="0.036" stroke-miterlimit="10"/>
<path fill-rule="evenodd" clip-rule="evenodd" d="M90.4141 401.655L89.7301 341.895L80.5861 62.3949L79.0021 62.3599L88.0381 342.04L89.2981 401.692L90.4141 401.655Z" fill="black" stroke="black" stroke-width="0.036" stroke-miterlimit="10"/>
<path fill-rule="evenodd" clip-rule="evenodd" d="M90.1621 401.332L89.3701 342.652L80.1901 62.8219H79.326L88.4341 342.652L89.5141 401.296L90.1621 401.337V401.332Z" fill="white" stroke="black" stroke-width="0.036" stroke-miterlimit="10"/>
<path fill-rule="evenodd" clip-rule="evenodd" d="M79.362 398.451C79.398 399.027 79.398 399.747 79.506 400.611C79.614 401.547 79.686 402.627 79.866 403.851C79.47 404.319 79.326 404.823 79.434 405.219C79.506 405.687 79.902 406.119 80.334 406.371C80.694 406.659 81.09 407.235 81.666 406.983C82.134 406.875 82.674 406.407 83.286 405.579C83.25 406.047 82.926 406.587 82.602 406.911C82.098 407.379 81.558 407.955 80.982 407.955C80.334 408.063 79.614 407.343 79.218 406.911C78.714 406.479 78.642 406.011 78.606 405.363C78.534 404.859 78.894 404.139 79.29 403.491C79.29 401.836 79.326 400.141 79.362 398.451Z" fill="white" stroke="black" stroke-width="0.036" stroke-miterlimit="10"/>
<path fill-rule="evenodd" clip-rule="evenodd" d="M87.7141 398.311C87.7141 398.887 87.8221 399.607 87.8941 400.471C88.0021 401.407 88.0741 402.487 88.2541 403.711C87.8221 404.215 87.7141 404.611 87.7861 405.043C87.8941 405.475 88.1461 406.015 88.6861 406.231C89.0461 406.519 89.4421 407.095 90.0181 406.843C90.4861 406.735 91.0261 406.267 91.6381 405.439C91.5661 405.907 91.3501 406.447 90.9901 406.771C90.5941 407.239 89.8741 407.851 89.3701 407.779C88.7581 407.851 87.9301 407.239 87.5701 406.771C87.1381 406.375 86.9941 405.799 86.9941 405.187C86.9581 404.647 87.1741 404.035 87.6421 403.351C87.6421 401.692 87.6781 400.001 87.7141 398.311Z" fill="white" stroke="black" stroke-width="0.036" stroke-miterlimit="10"/>
<path fill-rule="evenodd" clip-rule="evenodd" d="M97.146 398.961C97.074 399.465 97.109 400.221 97.109 401.085C97.109 402.021 97.146 403.065 97.218 404.361C96.784 404.829 96.605 405.261 96.677 405.657C96.714 406.161 97.073 406.629 97.47 406.917C97.757 407.241 98.226 407.853 98.73 407.637C99.234 407.565 99.773 407.133 100.494 406.341C100.314 406.845 100.098 407.277 99.701 407.637C99.162 408.069 98.551 408.645 98.01 408.537C97.326 408.537 96.715 407.817 96.319 407.349C95.995 406.953 95.707 406.377 95.85 405.765C95.957 405.225 96.102 404.577 96.678 403.965C96.826 402.307 96.971 400.655 97.15 398.965L97.146 398.961Z" fill="white" stroke="black" stroke-width="0.036" stroke-miterlimit="10"/>
<path fill-rule="evenodd" clip-rule="evenodd" d="M108.88 399.711C108.698 400.215 108.735 400.971 108.591 401.835C108.446 402.771 108.339 403.815 108.267 405.111C107.728 405.543 107.619 405.903 107.548 406.335C107.511 406.803 107.763 407.343 108.159 407.667C108.411 408.027 108.807 408.639 109.347 408.531C109.816 408.459 110.499 408.243 111.255 407.487C111.075 407.955 110.716 408.387 110.319 408.639C109.743 408.999 109.094 409.503 108.518 409.323C107.87 409.215 107.258 408.531 106.971 407.955C106.719 407.523 106.502 406.875 106.719 406.299C106.899 405.831 107.114 405.147 107.762 404.643C108.122 403.024 108.492 401.367 108.882 399.711H108.88Z" fill="white" stroke="black" stroke-width="0.036" stroke-miterlimit="10"/>
<path fill-rule="evenodd" clip-rule="evenodd" d="M71.9101 68.911L59.5621 69.02C59.1301 69.739 58.6621 69.918 58.3021 69.956C57.9421 69.884 57.5461 69.667 57.2581 68.911C56.3221 68.696 55.7101 68.983 55.2781 69.38C54.7741 69.956 55.1701 70.964 54.6661 71.827C54.0901 72.835 53.1181 74.132 51.8941 74.6C50.5261 75.176 48.6181 75.463 46.7461 74.491C44.7301 73.483 41.7061 70.747 40.5901 68.659C39.4021 66.68 39.4381 64.88 40.1221 62.864C40.8421 61.028 42.6781 58.471 44.6581 57.284C46.4221 56.204 49.3741 55.52 51.1741 56.204C52.9381 57.067 54.3061 60.884 55.2781 61.819C56.1061 62.719 56.5741 62.719 56.5381 61.676C56.7181 61.424 57.0781 61.315 57.4741 61.352C57.8341 61.459 58.3381 61.676 58.9861 62.143L71.0821 62.036C71.3341 64.276 71.6221 66.576 71.9101 68.886V68.911Z" fill="black" stroke="black" stroke-width="0.036" stroke-miterlimit="10"/>
<path fill-rule="evenodd" clip-rule="evenodd" d="M71.3341 49.8309H57.1141C56.4661 49.2199 55.8901 48.9679 55.3861 49.2199C54.8101 49.5089 54.3061 50.2999 53.8741 51.4519C52.3981 50.4069 50.7061 49.7609 48.5101 49.3639C46.3501 49.0749 42.3541 49.8679 40.9501 49.3639C39.3301 48.9319 39.4741 47.7079 39.4381 46.6629C39.2581 45.7269 39.3661 44.2509 40.5901 43.7469C41.8501 43.5319 44.4061 44.6119 46.7461 44.3599C48.9421 44.0709 51.3181 43.2079 53.8741 41.7679C54.1981 42.4139 54.6301 42.8109 55.0261 42.9559C55.4221 43.1009 55.8901 43.0629 56.4301 42.7039H71.0821L71.6581 49.0029L71.3341 49.8329V49.8309Z" fill="black" stroke="black" stroke-width="0.036" stroke-miterlimit="10"/>
<path fill-rule="evenodd" clip-rule="evenodd" d="M90.162 59.0109H104.383C104.994 58.3629 105.571 58.2179 106.11 58.4349C106.651 58.7589 107.155 59.4429 107.622 60.6299C109.063 59.5849 110.755 58.9389 112.987 58.5419C115.038 58.2549 119.034 59.0459 120.546 58.5419C122.06 58.2179 121.915 56.7779 122.06 55.8779C122.132 54.9419 122.023 53.4659 120.908 52.9619C119.539 52.6379 116.984 53.8979 114.752 53.5379C112.52 53.2489 110.145 52.3499 107.623 50.9809C107.264 51.5939 106.832 52.0259 106.473 52.1329C106.039 52.3129 105.573 52.2399 105.069 51.9159H90.423L89.811 58.1819L90.171 59.0219L90.162 59.0109Z" fill="black" stroke="black" stroke-width="0.036" stroke-miterlimit="10"/>
<path fill-rule="evenodd" clip-rule="evenodd" d="M88.218 43.4209L100.567 43.5278C100.962 44.2468 101.43 44.4279 101.827 44.4639C102.223 44.3919 102.583 44.1769 102.907 43.4209C103.807 43.2039 104.419 43.4908 104.887 43.8878C105.319 44.4638 104.815 45.4718 105.461 46.3368C105.93 47.3448 106.902 48.6398 108.234 49.1078C109.494 49.6838 111.437 49.9709 113.382 48.9989C115.288 47.9909 118.314 45.2569 119.536 43.1669C120.653 41.1879 120.581 39.3878 120.005 37.3718C119.177 35.4638 117.341 32.9439 115.47 31.7569C113.597 30.6049 110.681 30.0638 108.952 30.7118C107.153 31.4678 105.749 35.4639 104.886 36.2919C103.948 37.2649 103.517 37.2279 103.589 36.1849C103.372 35.8609 103.013 35.7888 102.653 35.8238C102.221 35.8958 101.717 36.2198 101.141 36.6518L89.044 36.5448C88.815 38.8048 88.527 41.1148 88.239 43.4148L88.218 43.4209Z" fill="black" stroke="black" stroke-width="0.036" stroke-miterlimit="10"/>
<rect x="137.398" y="20.2651" width="38" height="22" transform="rotate(-28.2147 137.398 20.2651)" fill="#EC5228"/>
<path d="M125.956 39.1273L133.935 10.0685L154.581 48.5476L125.956 39.1273Z" fill="#EC5228"/>
</g>
<defs>
<clipPath id="clip0_31_881">
<rect width="501.321" height="189.395" fill="white" transform="matrix(0 -1 1 0 0 501.321)"/>
</clipPath>
</defs>
</svg>
