<svg width="215" height="543" viewBox="0 0 215 543" fill="none" xmlns="http://www.w3.org/2000/svg">
<path fill-rule="evenodd" clip-rule="evenodd" d="M33.9102 354.099L30.7422 359.967C33.1182 362.019 34.4502 364.719 34.8822 368.211C35.2422 371.667 34.5582 373.359 33.1182 380.775C31.4622 388.407 27.3222 402.411 26.1342 413.211C24.9102 424.155 24.2262 435.135 26.6022 445.18C28.9062 455.188 33.0462 464.872 40.4262 472.684C47.8782 480.675 61.5582 487.551 70.7742 492.051C79.7382 496.551 87.3702 498.387 94.6422 499.359C101.95 500.403 108.286 499.936 114.19 498.1C115.918 500.332 118.006 501.448 120.85 501.448C123.621 501.52 126.862 500.404 130.715 498.244C137.41 499.216 145.293 497.992 155.051 494.428C164.807 490.828 179.17 484.744 188.422 477.292C197.457 470.02 205.055 460.948 209.41 450.904C213.621 440.932 214.846 428.332 214.342 417.676C213.731 407.092 209.051 395.968 206.529 387.616C204.009 379.408 200.338 373.864 199.545 368.068C198.682 362.308 199.365 357.376 201.598 353.128L198.285 347.872C196.377 349.816 194.146 350.824 191.445 350.896C188.601 351.112 185.326 350.968 182.05 348.376C178.7 345.784 174.814 341.68 172.04 335.488C169.196 329.332 166.894 318.424 165.704 311.8C164.481 305.32 164.589 300.712 165.2 296.86C165.634 293.188 166.065 291.1 169.016 289.228C171.969 287.392 176.684 286.132 183.164 285.592L186.512 279.04C184.459 276.808 183.02 274.18 182.049 271.156C181.004 268.276 180.393 266.224 180.787 260.968C181.291 255.748 183.955 247.505 184.603 239.692C184.999 231.917 185.324 222.196 183.632 214.708C181.724 207.292 179.06 201.388 174.128 195.485C169.087 189.76 162.644 184.036 154.399 180.401C146.227 176.872 136.614 174.676 125.419 173.956L116.995 58.2156C116.383 54.2566 115.807 50.1156 115.411 45.6526C114.907 41.2226 114.583 36.5076 114.295 31.5046C115.195 31.2876 115.771 30.4966 115.879 28.9846C115.987 27.5436 115.627 25.5277 114.943 22.7917C117.499 23.3677 119.119 22.9366 120.198 21.4966C121.136 20.0556 121.675 16.0586 120.991 14.3676C120.235 12.7836 118.579 12.0277 115.879 11.9557C115.879 9.54366 115.411 7.85164 114.619 6.87964C113.683 5.94364 112.639 5.83666 110.947 6.41266C112.135 4.03566 111.919 2.34464 110.155 1.33664C108.355 0.328639 102.343 -0.464353 100.471 0.363647C98.5272 1.29965 97.9872 3.42464 98.7072 6.87964C96.7632 6.84464 95.5752 7.27565 94.7472 8.32065C93.9192 9.40065 93.7032 10.9847 93.9552 13.0727C91.4712 12.8207 89.8512 13.2526 88.6992 14.3676C87.5112 15.5926 87.0432 18.2196 87.2952 19.7676C87.5112 21.3866 88.9152 23.0807 90.1392 23.7267C91.2192 24.4127 92.7312 24.5197 94.2792 23.9087C93.7032 25.8877 93.5952 27.4716 94.0992 28.8036C94.4952 30.1726 95.5032 31.2876 96.9792 32.0086C96.4752 31.5396 96.1512 34.3486 96.0072 40.4326C95.8272 46.6236 95.8272 55.8036 96.0072 68.5476L96.5472 175.718C91.7592 175.286 86.3232 176.152 79.8432 178.599C73.2552 181.046 64.1832 184.935 58.0632 190.263C51.9432 195.736 46.7232 203.367 43.7712 210.638C40.7472 217.839 39.9552 225.363 40.2792 233.499C40.5312 241.923 44.0232 253.263 45.3552 259.886C46.5792 266.33 47.8392 268.526 47.5872 272.306C47.1192 276.266 45.6792 279.974 42.9792 283.43L46.9392 289.622C50.5752 287.786 53.7072 287.39 56.6232 288.578C59.4312 289.838 62.3472 291.854 63.9672 296.714C65.5152 301.682 66.1992 310.286 65.8752 317.522C65.4072 324.866 63.9672 333.83 61.2672 340.094C58.3872 346.466 53.7072 352.514 49.1712 354.89C44.5352 357.26 39.4952 357.04 33.8792 354.13L33.9102 354.099Z" fill="black" stroke="black" stroke-width="0.036" stroke-miterlimit="10"/>
<path fill-rule="evenodd" clip-rule="evenodd" d="M96.5503 179.389C93.3103 179.137 89.3863 179.713 84.6343 180.973C79.7383 182.342 73.9423 183.243 68.0743 187.166C62.0623 191.197 53.9263 198.002 49.6423 204.662C45.4663 211.465 43.5583 220.285 42.8023 227.234C41.9743 234.326 43.4503 240.23 44.7103 246.457C45.8623 252.866 48.8503 259.381 49.6423 264.602C50.2183 269.822 49.6423 274.106 49.0303 277.31C48.3823 280.586 47.5183 282.71 46.1503 283.826L47.2663 286.202C50.1823 285.05 52.7023 284.726 55.2223 285.086C57.5983 285.482 59.8663 286.058 61.8823 288.758C63.9343 291.71 66.4903 295.886 67.4623 302.258C68.2903 308.81 68.3623 319.07 67.1383 327.062C65.8063 335.09 63.0343 344.234 59.6503 349.634C56.1583 354.998 50.6143 357.95 46.6183 359.174C42.5863 360.542 38.9863 359.858 35.6743 357.41L34.2343 359.318C36.5023 359.462 37.6183 362.09 37.5823 367.598C37.4383 373.178 35.2423 384.158 33.7663 392.078C32.2183 399.926 29.4103 406.982 28.6543 414.794C27.7903 422.853 27.0703 431.024 28.8343 439.593C30.5263 448.233 33.9103 456.981 38.9863 466.125C43.7023 460.041 49.8583 455.109 57.4543 451.185C65.0503 447.369 74.1943 442.581 84.3103 442.941C94.3903 443.337 105.082 446.937 117.214 453.597C113.83 447.909 110.878 441.393 107.818 433.221C104.686 425.229 100.402 411.945 99.2503 405.573C98.0623 399.417 99.0703 397.329 101.302 395.421C103.498 393.621 107.674 394.305 112.282 393.981C116.782 393.621 123.551 393.405 128.158 393.333C132.551 393.405 137.265 392.289 138.994 394.305C140.65 396.465 139.605 399.597 138.49 406.041C137.265 412.701 133.666 423.573 132.154 433.221C130.533 442.941 129.31 454.821 129.453 463.425C129.635 472.029 132.514 478.977 133.09 484.269C133.449 489.561 133.27 493.269 132.154 495.249C134.853 496.725 139.677 496.257 146.769 494.133C153.826 492.009 166.066 487.437 174.597 482.361C183.058 477.357 191.337 471.957 197.493 464.073C203.54 456.189 208.688 444.849 210.848 435.309C212.791 425.913 211.317 416.697 209.733 407.661C208.04 398.661 203.432 387.933 201.309 381.741C199.112 375.729 197.672 375.297 196.844 371.553C195.981 367.881 196.016 362.805 196.375 359.781C196.629 356.937 197.42 355.137 198.607 354.381L196.988 351.861C195.728 353.913 193.82 354.921 191.119 354.885C188.24 354.993 184.603 354.957 180.787 351.861C176.9 348.909 172.004 344.337 168.871 336.597C165.703 328.749 162.969 313.449 162.176 305.421C161.276 297.537 160.699 293.181 163.94 289.293C167.217 285.513 172.868 283.389 181.436 282.777L183.489 280.257C180.428 277.845 178.665 274.533 177.909 269.925C177.188 265.353 178.413 259.593 179.204 253.077C179.925 246.704 181.798 238.497 182.05 231.765C182.193 225.212 182.337 219.669 180.142 213.333C177.765 206.96 174.13 199.472 168.406 193.784C162.467 188.204 152.746 183.093 145.654 180.249C138.634 177.478 132.369 176.757 126.574 177.548L136.762 291.058C133.953 290.05 130.498 289.546 126.25 289.15C121.857 288.862 116.566 288.682 111.49 289.15C106.486 289.726 101.446 290.734 96.3703 292.318C96.4063 254.708 96.4783 217.048 96.5503 179.398V179.389Z" fill="white" stroke="black" stroke-width="0.036" stroke-miterlimit="10"/>
<path fill-rule="evenodd" clip-rule="evenodd" d="M100.258 351.209C99.6462 349.769 99.3222 348.221 99.4302 346.709C99.3942 345.233 98.8542 343.073 100.726 342.029C102.634 341.057 106.594 341.021 110.374 340.661C113.974 340.301 117.898 339.941 122.578 340.013C127.293 340.229 135.933 340.337 138.201 341.849C140.219 343.469 139.139 345.953 134.961 349.445L130.857 349.265C131.181 348.293 130.966 347.609 129.921 347.069C128.769 346.709 127.978 346.493 124.773 346.421C121.46 346.277 113.434 346.133 110.806 346.421C108.178 346.889 107.818 347.753 109.438 349.013C107.458 349.265 105.766 349.517 104.218 349.913C102.599 350.313 101.411 350.753 100.259 351.213L100.258 351.209Z" fill="black" stroke="black" stroke-width="0.036" stroke-miterlimit="10"/>
<path fill-rule="evenodd" clip-rule="evenodd" d="M164.73 374.829L167.214 371.625C165.737 369.393 165.378 367.665 166.134 366.045C166.78 364.533 169.878 362.301 171.532 362.409C173.153 362.661 175.745 364.929 175.997 366.981C176.142 369.069 174.63 372.885 172.433 374.685C170.093 376.629 165.738 379.329 162.425 378.069C158.861 376.809 154.65 372.417 152.31 366.981C149.97 361.545 149.537 352.257 148.925 345.777C148.349 339.369 148.89 333.285 148.601 328.893C148.169 324.681 147.449 322.089 146.441 320.289C145.433 318.525 144.066 317.733 142.482 318.057L140.826 320.289C141.185 322.485 141.006 323.997 140.142 324.825C139.169 325.761 136.613 326.481 135.677 325.581C134.634 324.645 133.697 321.837 134.525 319.785C135.318 317.877 137.982 314.853 140.718 314.313C143.452 313.881 147.989 314.637 150.581 317.121C152.956 319.749 154.612 324.465 155.55 329.469C156.306 334.581 155.693 341.133 156.054 347.181C156.341 353.373 156.7 360.933 158.105 365.577C159.535 370.247 161.695 373.197 164.715 374.817L164.73 374.829Z" fill="black" stroke="black" stroke-width="0.036" stroke-miterlimit="10"/>
<path fill-rule="evenodd" clip-rule="evenodd" d="M69.2622 376.669L66.7782 373.465C68.1822 371.233 68.5422 369.505 67.8582 367.885C67.1022 366.373 64.0062 364.141 62.4582 364.249C60.7302 364.501 58.1742 366.769 57.9942 368.821C57.7422 370.909 59.2542 374.725 61.5582 376.525C63.7902 378.469 68.1462 381.169 71.5662 379.909C75.0222 378.649 79.2702 374.257 81.6822 368.821C83.9142 363.385 84.3462 354.097 85.0662 347.617C85.5342 341.209 84.9942 335.125 85.3902 330.733C85.7502 326.521 86.4702 323.929 87.5502 322.129C88.5222 320.365 89.8542 319.573 91.5462 319.897L93.2022 322.129C92.7342 324.325 92.9502 325.837 93.8502 326.665C94.7142 327.601 97.3062 328.321 98.3142 327.421C99.2862 326.485 100.186 323.677 99.4662 321.625C98.5662 319.717 95.9022 316.693 93.2742 316.153C90.4662 315.721 85.9302 316.477 83.4102 318.961C80.9262 321.589 79.2702 326.305 78.4422 331.309C77.6142 336.421 78.1902 342.973 77.9382 349.021C77.5422 355.213 77.1822 362.773 75.8862 367.417C74.4102 372.087 72.2502 375.037 69.2622 376.657V376.669Z" fill="black" stroke="black" stroke-width="0.036" stroke-miterlimit="10"/>
<path fill-rule="evenodd" clip-rule="evenodd" d="M105.73 402.802L101.05 343.078L99.0703 61.5976L101.302 61.8146L102.778 343.085L107.206 402.809H105.73V402.802Z" fill="black" stroke="black" stroke-width="0.036" stroke-miterlimit="10"/>
<path fill-rule="evenodd" clip-rule="evenodd" d="M105.946 402.262L101.482 343.798L101.266 303.37L99.4302 62.1696L100.906 62.2416L101.158 136.402L102.418 343.722L106.846 402.474L105.946 402.265V402.262Z" fill="white" stroke="black" stroke-width="0.036" stroke-miterlimit="10"/>
<path fill-rule="evenodd" clip-rule="evenodd" d="M135.79 403.233L136.87 343.257L114.659 61.5166L112.967 61.6616L135.144 343.402L134.64 403.162L135.79 403.236V403.233Z" fill="black" stroke="black" stroke-width="0.036" stroke-miterlimit="10"/>
<path fill-rule="evenodd" clip-rule="evenodd" d="M135.47 402.91L136.513 344.014L133.345 303.694L114.375 61.9137L113.331 62.0587L119.487 137.297L135.579 344.007L135.003 402.687L135.483 402.908L135.47 402.91Z" fill="white" stroke="black" stroke-width="0.036" stroke-miterlimit="10"/>
<path fill-rule="evenodd" clip-rule="evenodd" d="M124.486 402.262L125.566 342.286L110.374 62.6057L108.718 62.6777L123.838 342.438L123.334 402.198L124.482 402.261L124.486 402.262Z" fill="black" stroke="black" stroke-width="0.036" stroke-miterlimit="10"/>
<path fill-rule="evenodd" clip-rule="evenodd" d="M124.125 401.902L125.205 343.006L110.086 63.0356L109.15 63.1805L124.239 343.041L123.663 401.721L124.13 401.904L124.125 401.902Z" fill="white" stroke="black" stroke-width="0.036" stroke-miterlimit="10"/>
<path fill-rule="evenodd" clip-rule="evenodd" d="M115.414 401.793L114.73 342.033L105.586 62.5326L104.002 62.4976L113.038 342.178L114.298 401.83L115.414 401.793Z" fill="black" stroke="black" stroke-width="0.036" stroke-miterlimit="10"/>
<path fill-rule="evenodd" clip-rule="evenodd" d="M115.162 401.47L114.37 342.79L105.19 62.9596H104.326L113.434 342.79L114.514 401.434L115.162 401.475V401.47Z" fill="white" stroke="black" stroke-width="0.036" stroke-miterlimit="10"/>
<path fill-rule="evenodd" clip-rule="evenodd" d="M104.362 398.589C104.398 399.165 104.398 399.885 104.506 400.749C104.614 401.685 104.686 402.765 104.866 403.989C104.47 404.457 104.326 404.961 104.434 405.357C104.506 405.825 104.902 406.257 105.334 406.509C105.694 406.797 106.09 407.373 106.666 407.121C107.134 407.013 107.674 406.545 108.286 405.717C108.25 406.185 107.926 406.725 107.602 407.049C107.098 407.517 106.558 408.093 105.982 408.093C105.334 408.201 104.614 407.481 104.218 407.049C103.714 406.617 103.642 406.149 103.606 405.501C103.534 404.997 103.894 404.277 104.29 403.629C104.29 401.974 104.326 400.279 104.362 398.589Z" fill="white" stroke="black" stroke-width="0.036" stroke-miterlimit="10"/>
<path fill-rule="evenodd" clip-rule="evenodd" d="M112.714 398.449C112.714 399.025 112.822 399.745 112.894 400.609C113.002 401.545 113.074 402.625 113.254 403.849C112.822 404.353 112.714 404.749 112.786 405.181C112.894 405.613 113.146 406.153 113.686 406.369C114.046 406.657 114.442 407.233 115.018 406.981C115.486 406.873 116.026 406.405 116.638 405.577C116.566 406.045 116.35 406.585 115.99 406.909C115.594 407.377 114.874 407.989 114.37 407.917C113.758 407.989 112.93 407.377 112.57 406.909C112.138 406.513 111.994 405.937 111.994 405.325C111.958 404.785 112.174 404.173 112.642 403.489C112.642 401.83 112.678 400.139 112.714 398.449Z" fill="white" stroke="black" stroke-width="0.036" stroke-miterlimit="10"/>
<path fill-rule="evenodd" clip-rule="evenodd" d="M122.146 399.099C122.074 399.603 122.109 400.359 122.109 401.223C122.109 402.159 122.146 403.203 122.218 404.499C121.784 404.967 121.605 405.399 121.677 405.795C121.714 406.299 122.073 406.767 122.47 407.055C122.757 407.379 123.226 407.991 123.73 407.775C124.234 407.703 124.773 407.271 125.494 406.479C125.314 406.983 125.098 407.415 124.701 407.775C124.162 408.207 123.551 408.783 123.01 408.675C122.326 408.675 121.715 407.955 121.319 407.487C120.995 407.091 120.707 406.515 120.85 405.903C120.957 405.363 121.102 404.715 121.678 404.103C121.826 402.445 121.971 400.793 122.15 399.103L122.146 399.099Z" fill="white" stroke="black" stroke-width="0.036" stroke-miterlimit="10"/>
<path fill-rule="evenodd" clip-rule="evenodd" d="M133.88 399.849C133.698 400.353 133.735 401.109 133.591 401.973C133.446 402.909 133.339 403.953 133.267 405.249C132.728 405.681 132.619 406.041 132.548 406.473C132.511 406.941 132.763 407.481 133.159 407.805C133.411 408.165 133.807 408.777 134.347 408.669C134.816 408.597 135.499 408.381 136.255 407.625C136.075 408.093 135.716 408.525 135.319 408.777C134.743 409.137 134.094 409.641 133.518 409.461C132.87 409.353 132.258 408.669 131.971 408.093C131.719 407.661 131.502 407.013 131.719 406.437C131.899 405.969 132.114 405.285 132.762 404.781C133.122 403.162 133.492 401.505 133.882 399.849H133.88Z" fill="white" stroke="black" stroke-width="0.036" stroke-miterlimit="10"/>
<path fill-rule="evenodd" clip-rule="evenodd" d="M96.9102 69.0487L84.5622 69.1577C84.1302 69.8767 83.6622 70.0557 83.3022 70.0937C82.9422 70.0217 82.5462 69.8047 82.2582 69.0487C81.3222 68.8337 80.7102 69.1207 80.2782 69.5177C79.7742 70.0937 80.1702 71.1017 79.6662 71.9647C79.0902 72.9727 78.1182 74.2697 76.8942 74.7377C75.5262 75.3137 73.6182 75.6007 71.7462 74.6287C69.7302 73.6207 66.7062 70.8847 65.5902 68.7967C64.4022 66.8177 64.4382 65.0177 65.1222 63.0017C65.8422 61.1657 67.6782 58.6087 69.6582 57.4217C71.4222 56.3417 74.3742 55.6577 76.1742 56.3417C77.9382 57.2047 79.3062 61.0217 80.2782 61.9567C81.1062 62.8567 81.5742 62.8567 81.5382 61.8137C81.7182 61.5617 82.0782 61.4527 82.4742 61.4897C82.8342 61.5967 83.3382 61.8137 83.9862 62.2807L96.0822 62.1737C96.3342 64.4137 96.6222 66.7137 96.9102 69.0237V69.0487Z" fill="black" stroke="black" stroke-width="0.036" stroke-miterlimit="10"/>
<path fill-rule="evenodd" clip-rule="evenodd" d="M96.3343 49.9686H82.1143C81.4663 49.3576 80.8903 49.1056 80.3863 49.3576C79.8103 49.6466 79.3063 50.4376 78.8743 51.5896C77.3983 50.5446 75.7063 49.8986 73.5103 49.5016C71.3503 49.2126 67.3543 50.0056 65.9503 49.5016C64.3303 49.0696 64.4743 47.8456 64.4383 46.8006C64.2583 45.8646 64.3663 44.3886 65.5903 43.8846C66.8503 43.6696 69.4063 44.7496 71.7463 44.4976C73.9423 44.2086 76.3183 43.3456 78.8743 41.9056C79.1983 42.5516 79.6303 42.9486 80.0263 43.0936C80.4223 43.2386 80.8903 43.2006 81.4303 42.8416H96.0823L96.6583 49.1406L96.3343 49.9706V49.9686Z" fill="black" stroke="black" stroke-width="0.036" stroke-miterlimit="10"/>
<path fill-rule="evenodd" clip-rule="evenodd" d="M115.162 59.1486H129.383C129.994 58.5006 130.571 58.3556 131.11 58.5726C131.651 58.8966 132.155 59.5806 132.622 60.7676C134.063 59.7226 135.755 59.0766 137.987 58.6796C140.038 58.3926 144.034 59.1836 145.546 58.6796C147.06 58.3556 146.915 56.9156 147.06 56.0156C147.132 55.0796 147.023 53.6036 145.908 53.0996C144.539 52.7756 141.984 54.0356 139.752 53.6756C137.52 53.3866 135.145 52.4876 132.623 51.1186C132.264 51.7316 131.832 52.1636 131.473 52.2706C131.039 52.4506 130.573 52.3776 130.069 52.0536H115.423L114.811 58.3196L115.171 59.1596L115.162 59.1486Z" fill="black" stroke="black" stroke-width="0.036" stroke-miterlimit="10"/>
<path fill-rule="evenodd" clip-rule="evenodd" d="M113.218 43.5585L125.567 43.6655C125.962 44.3845 126.43 44.5655 126.827 44.6015C127.223 44.5295 127.583 44.3145 127.907 43.5585C128.807 43.3415 129.419 43.6285 129.887 44.0255C130.319 44.6015 129.815 45.6095 130.461 46.4745C130.93 47.4825 131.902 48.7775 133.234 49.2455C134.494 49.8215 136.437 50.1086 138.382 49.1366C140.288 48.1286 143.314 45.3946 144.536 43.3046C145.653 41.3256 145.581 39.5255 145.005 37.5095C144.177 35.6015 142.341 33.0815 140.47 31.8945C138.597 30.7425 135.681 30.2015 133.952 30.8495C132.153 31.6055 130.749 35.6016 129.886 36.4296C128.948 37.4026 128.517 37.3656 128.589 36.3226C128.372 35.9986 128.013 35.9265 127.653 35.9615C127.221 36.0335 126.717 36.3575 126.141 36.7895L114.044 36.6825C113.815 38.9425 113.527 41.2525 113.239 43.5525L113.218 43.5585Z" fill="black" stroke="black" stroke-width="0.036" stroke-miterlimit="10"/>
<rect x="51.9275" y="509.928" width="38" height="22" transform="rotate(145.631 51.9275 509.928)" fill="#EC5228"/>
<path d="M61.2815 489.948L56.4635 519.694L31.8125 483.65L61.2815 489.948Z" fill="#EC5228"/>
</svg>
