<svg width="31" height="31" viewBox="0 0 31 31" fill="none" xmlns="http://www.w3.org/2000/svg">
<path d="M15.5093 3.50928C22.1367 3.50928 27.5093 8.88186 27.5093 15.5093C27.5093 22.1367 22.1367 27.5093 15.5093 27.5093C8.88186 27.5093 3.50928 22.1367 3.50928 15.5093C3.50928 8.88186 8.88186 3.50928 15.5093 3.50928ZM16.2505 6.84619C16.0637 6.27139 15.2507 6.27139 15.064 6.84619L13.4097 11.939C13.3261 12.196 13.0862 12.3706 12.8159 12.3706H7.46045C6.85623 12.3706 6.60483 13.1432 7.09326 13.4985L11.4263 16.647C11.6449 16.8059 11.7363 17.0872 11.6528 17.3442L9.99756 22.438C9.81127 23.0126 10.4697 23.4904 10.9585 23.1353L15.2905 19.9878C15.5092 19.8289 15.8053 19.8289 16.0239 19.9878L20.3569 23.1353C20.8458 23.4904 21.5034 23.0127 21.3169 22.438L19.6616 17.3442C19.5782 17.0872 19.6705 16.8058 19.8892 16.647L24.2212 13.4985C24.7101 13.1433 24.4592 12.3709 23.855 12.3706H18.4995C18.2292 12.3706 17.9893 12.196 17.9058 11.939L16.2505 6.84619Z" fill="#FFFEFD"/>
<circle cx="15.5" cy="15.5" r="14.5642" stroke="#FFFEFD" stroke-width="1.8717"/>
</svg>
