<svg width="87" height="87" viewBox="0 0 87 87" fill="none" xmlns="http://www.w3.org/2000/svg">
<path d="M43.3545 1C59.5748 1 72.71 14.0355 72.71 30.0977C72.71 46.1598 59.5748 59.1953 43.3545 59.1953C27.1344 59.1951 14 46.1597 14 30.0977C14 14.0356 27.1344 1.00021 43.3545 1Z" fill="#1C1C1C"/>
<path d="M41.5468 54.6612L56.9708 47.8684C57.4761 47.646 58.069 47.8741 58.2948 48.378L70.9239 76.5701C71.3004 77.4107 70.4332 78.264 69.593 77.8797L62.1257 74.4651C60.4813 73.7131 58.5522 74.5609 58.0106 76.2742L55.5449 84.0772C55.2683 84.9522 54.0495 85.0171 53.6731 84.177L41.0404 55.9769C40.8147 55.4728 41.0414 54.8838 41.5468 54.6612Z" fill="#1C1C1C"/>
<path d="M27.3772 48.7568L43.2885 54.3397C43.8097 54.5225 44.0816 55.0924 43.896 55.6126L33.517 84.6939C33.2075 85.5611 31.9877 85.5901 31.6441 84.7384L28.5876 77.1636C27.9154 75.4974 25.9293 74.7989 24.3488 75.6732L17.1421 79.6604C16.3348 80.1067 15.4064 79.3237 15.7155 78.4571L26.0975 49.3675C26.2832 48.8474 26.8561 48.574 27.3772 48.7568Z" fill="#1C1C1C"/>
<path d="M43.3545 1C59.5748 1 72.71 14.0355 72.71 30.0977C72.71 46.1598 59.5748 59.1953 43.3545 59.1953C27.1344 59.1951 14 46.1597 14 30.0977C14 14.0356 27.1344 1.00021 43.3545 1Z" stroke="#1C1C1C" stroke-width="2"/>
<path d="M41.5468 54.6612L56.9708 47.8684C57.4761 47.646 58.069 47.8741 58.2948 48.378L70.9239 76.5701C71.3004 77.4107 70.4332 78.264 69.593 77.8797L62.1257 74.4651C60.4813 73.7131 58.5522 74.5609 58.0106 76.2742L55.5449 84.0772C55.2683 84.9522 54.0495 85.0171 53.6731 84.177L41.0404 55.9769C40.8147 55.4728 41.0414 54.8838 41.5468 54.6612Z" stroke="#1C1C1C" stroke-width="2"/>
<path d="M27.3772 48.7568L43.2885 54.3397C43.8097 54.5225 44.0816 55.0924 43.896 55.6126L33.517 84.6939C33.2075 85.5611 31.9877 85.5901 31.6441 84.7384L28.5876 77.1636C27.9154 75.4974 25.9293 74.7989 24.3488 75.6732L17.1421 79.6604C16.3348 80.1067 15.4064 79.3237 15.7155 78.4571L26.0975 49.3675C26.2832 48.8474 26.8561 48.574 27.3772 48.7568Z" stroke="#1C1C1C" stroke-width="2"/>
<path d="M26.7229 26.2935C26.7838 24.5744 27.3162 23.2585 28.3203 22.3457C29.3243 21.4177 30.724 20.9537 32.5191 20.9537C33.6905 20.9537 34.687 21.1591 35.5085 21.5698C36.3452 21.9654 36.9765 22.513 37.4025 23.2129C37.8285 23.8974 38.0415 24.6733 38.0415 25.5405C38.0415 26.5749 37.7904 27.4041 37.2884 28.0278C36.7864 28.6363 36.2159 29.0471 35.5769 29.2601V29.3513C37.4177 30.0359 38.3381 31.3443 38.3381 33.2763C38.3381 34.2348 38.1175 35.0791 37.6763 35.8093C37.2352 36.5395 36.5962 37.11 35.7595 37.5208C34.9228 37.9315 33.9263 38.1369 32.7701 38.1369C30.8685 38.1369 29.3624 37.6805 28.2518 36.7677C27.1565 35.8397 26.586 34.4249 26.5403 32.5233H30.8989C30.8685 33.1318 30.9978 33.6034 31.2868 33.9381C31.5759 34.2728 32.0095 34.4401 32.5876 34.4401C33.0287 34.4401 33.371 34.3032 33.6144 34.0294C33.8731 33.7555 34.0024 33.3904 34.0024 32.934C34.0024 32.3559 33.8122 31.93 33.4319 31.6561C33.0668 31.3823 32.4659 31.2454 31.6291 31.2454H30.8304V27.617H31.6063C32.1844 27.6323 32.6712 27.541 33.0668 27.3432C33.4775 27.1302 33.6829 26.7119 33.6829 26.0881C33.6829 25.6165 33.5688 25.2666 33.3406 25.0384C33.1124 24.795 32.8005 24.6733 32.405 24.6733C31.9638 24.6733 31.6367 24.833 31.4238 25.1525C31.226 25.4568 31.1119 25.8371 31.0815 26.2935H26.7229ZM43.0014 38.1826C42.2103 38.1826 41.5713 37.9696 41.0845 37.5436C40.6129 37.1024 40.3771 36.5471 40.3771 35.8778C40.3771 35.2084 40.6129 34.6531 41.0845 34.2119C41.5713 33.7708 42.2103 33.5502 43.0014 33.5502C43.7772 33.5502 44.401 33.7708 44.8726 34.2119C45.3594 34.6531 45.6028 35.2084 45.6028 35.8778C45.6028 36.5319 45.3594 37.0796 44.8726 37.5208C44.401 37.962 43.7772 38.1826 43.0014 38.1826ZM59.4493 25.2666H52.6034V27.7996C52.8925 27.4953 53.288 27.2519 53.7901 27.0694C54.2921 26.8868 54.8474 26.7955 55.4559 26.7955C56.5512 26.7955 57.464 27.0466 58.1943 27.5486C58.9397 28.0506 59.4874 28.7124 59.8373 29.5339C60.1872 30.3554 60.3621 31.253 60.3621 32.2266C60.3621 34.0218 59.8525 35.4366 58.8332 36.4711C57.8139 37.4904 56.3991 38 54.5888 38C53.3261 38 52.2307 37.787 51.3027 37.361C50.3899 36.9199 49.6901 36.3113 49.2033 35.5355C48.7165 34.7596 48.4655 33.8696 48.4503 32.8656H52.8088C52.8545 33.2155 53.0066 33.5197 53.2652 33.7784C53.5238 34.037 53.9042 34.1663 54.4062 34.1663C54.9387 34.1663 55.3418 33.9837 55.6156 33.6186C55.8895 33.2535 56.0264 32.7667 56.0264 32.1582C56.0264 31.5649 55.8819 31.1161 55.5928 30.8118C55.3038 30.4923 54.8854 30.3326 54.3377 30.3326C53.927 30.3326 53.5923 30.4391 53.3337 30.6521C53.0903 30.8498 52.9457 31.1009 52.9001 31.4051H48.5415V21.3188H59.4493V25.2666Z" fill="#FFFEFD"/>
</svg>
