<svg width="87" height="87" viewBox="0 0 87 87" fill="none" xmlns="http://www.w3.org/2000/svg">
<path d="M43.3545 1C59.5748 1 72.71 14.0355 72.71 30.0977C72.71 46.1598 59.5748 59.1953 43.3545 59.1953C27.1344 59.1951 14 46.1597 14 30.0977C14 14.0356 27.1344 1.00021 43.3545 1Z" fill="#EC5228"/>
<path d="M41.5468 54.6612L56.9708 47.8684C57.4761 47.646 58.069 47.8741 58.2948 48.378L70.9239 76.5701C71.3004 77.4107 70.4332 78.264 69.593 77.8797L62.1257 74.4651C60.4813 73.7131 58.5522 74.5609 58.0106 76.2742L55.5449 84.0772C55.2683 84.9522 54.0495 85.0171 53.6731 84.177L41.0404 55.9769C40.8147 55.4728 41.0414 54.8838 41.5468 54.6612Z" fill="#EC5228"/>
<path d="M27.3772 48.7568L43.2885 54.3397C43.8097 54.5225 44.0816 55.0924 43.896 55.6126L33.517 84.6939C33.2075 85.5611 31.9877 85.5901 31.6441 84.7384L28.5876 77.1636C27.9154 75.4974 25.9293 74.7989 24.3488 75.6732L17.1421 79.6604C16.3348 80.1067 15.4064 79.3237 15.7155 78.4571L26.0975 49.3675C26.2832 48.8474 26.8561 48.574 27.3772 48.7568Z" fill="#EC5228"/>
<path d="M43.3545 1C59.5748 1 72.71 14.0355 72.71 30.0977C72.71 46.1598 59.5748 59.1953 43.3545 59.1953C27.1344 59.1951 14 46.1597 14 30.0977C14 14.0356 27.1344 1.00021 43.3545 1Z" stroke="#EC5228" stroke-width="2"/>
<path d="M41.5468 54.6612L56.9708 47.8684C57.4761 47.646 58.069 47.8741 58.2948 48.378L70.9239 76.5701C71.3004 77.4107 70.4332 78.264 69.593 77.8797L62.1257 74.4651C60.4813 73.7131 58.5522 74.5609 58.0106 76.2742L55.5449 84.0772C55.2683 84.9522 54.0495 85.0171 53.6731 84.177L41.0404 55.9769C40.8147 55.4728 41.0414 54.8838 41.5468 54.6612Z" stroke="#EC5228" stroke-width="2"/>
<path d="M27.3772 48.7568L43.2885 54.3397C43.8097 54.5225 44.0816 55.0924 43.896 55.6126L33.517 84.6939C33.2075 85.5611 31.9877 85.5901 31.6441 84.7384L28.5876 77.1636C27.9154 75.4974 25.9293 74.7989 24.3488 75.6732L17.1421 79.6604C16.3348 80.1067 15.4064 79.3237 15.7155 78.4571L26.0975 49.3675C26.2832 48.8474 26.8561 48.574 27.3772 48.7568Z" stroke="#EC5228" stroke-width="2"/>
<path d="M26.3106 26.2935C26.3715 24.5744 26.9039 23.2585 27.908 22.3457C28.9121 21.4177 30.3117 20.9537 32.1068 20.9537C33.2782 20.9537 34.2747 21.1591 35.0962 21.5698C35.9329 21.9654 36.5643 22.513 36.9902 23.2129C37.4162 23.8974 37.6292 24.6733 37.6292 25.5405C37.6292 26.5749 37.3782 27.4041 36.8761 28.0278C36.3741 28.6363 35.8036 29.0471 35.1647 29.2601V29.3513C37.0055 30.0359 37.9258 31.3443 37.9258 33.2763C37.9258 34.2348 37.7053 35.0791 37.2641 35.8093C36.8229 36.5395 36.1839 37.11 35.3472 37.5208C34.5105 37.9315 33.514 38.1369 32.3578 38.1369C30.4562 38.1369 28.9501 37.6805 27.8396 36.7677C26.7442 35.8397 26.1737 34.4249 26.1281 32.5233H30.4866C30.4562 33.1318 30.5855 33.6034 30.8746 33.9381C31.1636 34.2728 31.5972 34.4401 32.1753 34.4401C32.6165 34.4401 32.9588 34.3032 33.2022 34.0294C33.4608 33.7555 33.5901 33.3904 33.5901 32.934C33.5901 32.3559 33.3999 31.93 33.0196 31.6561C32.6545 31.3823 32.0536 31.2454 31.2169 31.2454H30.4182V27.617H31.194C31.7721 27.6323 32.259 27.541 32.6545 27.3432C33.0653 27.1302 33.2706 26.7119 33.2706 26.0881C33.2706 25.6165 33.1565 25.2666 32.9283 25.0384C32.7001 24.795 32.3883 24.6733 31.9927 24.6733C31.5516 24.6733 31.2245 24.833 31.0115 25.1525C30.8137 25.4568 30.6996 25.8371 30.6692 26.2935H26.3106ZM42.5891 38.1826C41.798 38.1826 41.1591 37.9696 40.6722 37.5436C40.2006 37.1024 39.9648 36.5471 39.9648 35.8778C39.9648 35.2084 40.2006 34.6531 40.6722 34.2119C41.1591 33.7708 41.798 33.5502 42.5891 33.5502C43.365 33.5502 43.9887 33.7708 44.4603 34.2119C44.9471 34.6531 45.1905 35.2084 45.1905 35.8778C45.1905 36.5319 44.9471 37.0796 44.4603 37.5208C43.9887 37.962 43.365 38.1826 42.5891 38.1826ZM47.1708 35.2616V31.5649L54.1765 21.5698H59.0827V31.3823H60.8398V35.2616H59.0827V38H54.5644V35.2616H47.1708ZM54.9067 26.613L51.7576 31.3823H54.9067V26.613Z" fill="#FFFEFD"/>
</svg>
