<svg width="87" height="87" viewBox="0 0 87 87" fill="none" xmlns="http://www.w3.org/2000/svg">
<path d="M43.3545 1C59.5748 1 72.71 14.0355 72.71 30.0977C72.71 46.1598 59.5748 59.1953 43.3545 59.1953C27.1344 59.1951 14 46.1597 14 30.0977C14 14.0356 27.1344 1.00021 43.3545 1Z" fill="#1C1C1C"/>
<path d="M41.5468 54.6612L56.9708 47.8684C57.4761 47.646 58.069 47.8741 58.2948 48.378L70.9239 76.5701C71.3004 77.4107 70.4332 78.264 69.593 77.8797L62.1257 74.4651C60.4813 73.7131 58.5522 74.5609 58.0106 76.2742L55.5449 84.0772C55.2683 84.9522 54.0495 85.0171 53.6731 84.177L41.0404 55.9769C40.8147 55.4728 41.0414 54.8838 41.5468 54.6612Z" fill="#1C1C1C"/>
<path d="M27.3772 48.7568L43.2885 54.3397C43.8097 54.5225 44.0816 55.0924 43.896 55.6126L33.517 84.6939C33.2075 85.5611 31.9877 85.5901 31.6441 84.7384L28.5876 77.1636C27.9154 75.4974 25.9293 74.7989 24.3488 75.6732L17.1421 79.6604C16.3348 80.1067 15.4064 79.3237 15.7155 78.4571L26.0975 49.3675C26.2832 48.8474 26.8561 48.574 27.3772 48.7568Z" fill="#1C1C1C"/>
<path d="M43.3545 1C59.5748 1 72.71 14.0355 72.71 30.0977C72.71 46.1598 59.5748 59.1953 43.3545 59.1953C27.1344 59.1951 14 46.1597 14 30.0977C14 14.0356 27.1344 1.00021 43.3545 1Z" stroke="#1C1C1C" stroke-width="2"/>
<path d="M41.5468 54.6612L56.9708 47.8684C57.4761 47.646 58.069 47.8741 58.2948 48.378L70.9239 76.5701C71.3004 77.4107 70.4332 78.264 69.593 77.8797L62.1257 74.4651C60.4813 73.7131 58.5522 74.5609 58.0106 76.2742L55.5449 84.0772C55.2683 84.9522 54.0495 85.0171 53.6731 84.177L41.0404 55.9769C40.8147 55.4728 41.0414 54.8838 41.5468 54.6612Z" stroke="#1C1C1C" stroke-width="2"/>
<path d="M27.3772 48.7568L43.2885 54.3397C43.8097 54.5225 44.0816 55.0924 43.896 55.6126L33.517 84.6939C33.2075 85.5611 31.9877 85.5901 31.6441 84.7384L28.5876 77.1636C27.9154 75.4974 25.9293 74.7989 24.3488 75.6732L17.1421 79.6604C16.3348 80.1067 15.4064 79.3237 15.7155 78.4571L26.0975 49.3675C26.2832 48.8474 26.8561 48.574 27.3772 48.7568Z" stroke="#1C1C1C" stroke-width="2"/>
<path d="M28.5899 25.5176V21.3188H35.6184V38H30.9404V25.5176H28.5899ZM40.4497 38.1826C39.6587 38.1826 39.0197 37.9696 38.5329 37.5436C38.0613 37.1024 37.8255 36.5471 37.8255 35.8778C37.8255 35.2084 38.0613 34.6531 38.5329 34.2119C39.0197 33.7708 39.6587 33.5502 40.4497 33.5502C41.2256 33.5502 41.8493 33.7708 42.321 34.2119C42.8078 34.6531 43.0512 35.2084 43.0512 35.8778C43.0512 36.5319 42.8078 37.0796 42.321 37.5208C41.8493 37.962 41.2256 38.1826 40.4497 38.1826ZM56.8977 25.2666H50.0518V27.7996C50.3409 27.4953 50.7364 27.2519 51.2385 27.0694C51.7405 26.8868 52.2958 26.7955 52.9043 26.7955C53.9996 26.7955 54.9124 27.0466 55.6427 27.5486C56.3881 28.0506 56.9358 28.7124 57.2857 29.5339C57.6356 30.3554 57.8105 31.253 57.8105 32.2266C57.8105 34.0218 57.3009 35.4366 56.2816 36.4711C55.2623 37.4904 53.8475 38 52.0371 38C50.7745 38 49.6791 37.787 48.7511 37.361C47.8383 36.9199 47.1385 36.3113 46.6517 35.5355C46.1649 34.7596 45.9139 33.8696 45.8986 32.8656H50.2572C50.3028 33.2155 50.455 33.5197 50.7136 33.7784C50.9722 34.037 51.3526 34.1663 51.8546 34.1663C52.387 34.1663 52.7902 33.9837 53.064 33.6186C53.3379 33.2535 53.4748 32.7667 53.4748 32.1582C53.4748 31.5649 53.3303 31.1161 53.0412 30.8118C52.7522 30.4923 52.3338 30.3326 51.7861 30.3326C51.3754 30.3326 51.0407 30.4391 50.7821 30.6521C50.5386 30.8498 50.3941 31.1009 50.3485 31.4051H45.9899V21.3188H56.8977V25.2666Z" fill="#FFFEFD"/>
</svg>
