<svg width="87" height="87" viewBox="0 0 87 87" fill="none" xmlns="http://www.w3.org/2000/svg">
<path d="M43.3545 1C59.5748 1 72.71 14.0355 72.71 30.0977C72.71 46.1598 59.5748 59.1953 43.3545 59.1953C27.1344 59.1951 14 46.1597 14 30.0977C14 14.0356 27.1344 1.00021 43.3545 1Z" fill="#357D58"/>
<path d="M41.5468 54.6612L56.9708 47.8684C57.4761 47.646 58.069 47.8741 58.2948 48.378L70.9239 76.5701C71.3004 77.4107 70.4332 78.264 69.593 77.8797L62.1257 74.4651C60.4813 73.7131 58.5522 74.5609 58.0106 76.2742L55.5449 84.0772C55.2683 84.9522 54.0495 85.0171 53.6731 84.177L41.0404 55.9769C40.8147 55.4728 41.0414 54.8838 41.5468 54.6612Z" fill="#357D58"/>
<path d="M27.3772 48.7568L43.2885 54.3397C43.8097 54.5225 44.0816 55.0924 43.896 55.6126L33.517 84.6939C33.2075 85.5611 31.9877 85.5901 31.6441 84.7384L28.5876 77.1636C27.9154 75.4974 25.9293 74.7989 24.3488 75.6732L17.1421 79.6604C16.3348 80.1067 15.4064 79.3237 15.7155 78.4571L26.0975 49.3675C26.2832 48.8474 26.8561 48.574 27.3772 48.7568Z" fill="#357D58"/>
<path d="M43.3545 1C59.5748 1 72.71 14.0355 72.71 30.0977C72.71 46.1598 59.5748 59.1953 43.3545 59.1953C27.1344 59.1951 14 46.1597 14 30.0977C14 14.0356 27.1344 1.00021 43.3545 1Z" stroke="#357D58" stroke-width="2"/>
<path d="M41.5468 54.6612L56.9708 47.8684C57.4761 47.646 58.069 47.8741 58.2948 48.378L70.9239 76.5701C71.3004 77.4107 70.4332 78.264 69.593 77.8797L62.1257 74.4651C60.4813 73.7131 58.5522 74.5609 58.0106 76.2742L55.5449 84.0772C55.2683 84.9522 54.0495 85.0171 53.6731 84.177L41.0404 55.9769C40.8147 55.4728 41.0414 54.8838 41.5468 54.6612Z" stroke="#357D58" stroke-width="2"/>
<path d="M27.3772 48.7568L43.2885 54.3397C43.8097 54.5225 44.0816 55.0924 43.896 55.6126L33.517 84.6939C33.2075 85.5611 31.9877 85.5901 31.6441 84.7384L28.5876 77.1636C27.9154 75.4974 25.9293 74.7989 24.3488 75.6732L17.1421 79.6604C16.3348 80.1067 15.4064 79.3237 15.7155 78.4571L26.0975 49.3675C26.2832 48.8474 26.8561 48.574 27.3772 48.7568Z" stroke="#357D58" stroke-width="2"/>
<path d="M26.4363 34.4173C27.912 33.2611 29.1214 32.2647 30.0646 31.4279C31.0079 30.5912 31.7989 29.7317 32.4379 28.8493C33.0768 27.9517 33.3963 27.0998 33.3963 26.2935C33.3963 25.8067 33.2822 25.4264 33.054 25.1525C32.841 24.8787 32.5216 24.7418 32.0956 24.7418C31.6544 24.7418 31.3121 24.9319 31.0687 25.3123C30.8253 25.6774 30.7112 26.2174 30.7264 26.9325H26.3907C26.4363 25.5785 26.733 24.4603 27.2806 23.578C27.8283 22.6804 28.5433 22.0262 29.4257 21.6155C30.3081 21.1895 31.2893 20.9765 32.3694 20.9765C34.2406 20.9765 35.6326 21.4405 36.5454 22.3685C37.4582 23.2965 37.9146 24.4984 37.9146 25.974C37.9146 27.5562 37.3822 29.0395 36.3172 30.4239C35.2675 31.8083 33.9516 33.0481 32.3694 34.1435H38.0744V37.7718H26.4363V34.4173ZM42.1211 38.1826C41.33 38.1826 40.6911 37.9696 40.2042 37.5436C39.7326 37.1024 39.4968 36.5471 39.4968 35.8778C39.4968 35.2084 39.7326 34.6531 40.2042 34.2119C40.6911 33.7708 41.33 33.5502 42.1211 33.5502C42.897 33.5502 43.5207 33.7708 43.9923 34.2119C44.4791 34.6531 44.7225 35.2084 44.7225 35.8778C44.7225 36.5319 44.4791 37.0796 43.9923 37.5208C43.5207 37.962 42.897 38.1826 42.1211 38.1826ZM46.7029 35.2616V31.5649L53.7085 21.5698H58.6147V31.3823H60.3719V35.2616H58.6147V38H54.0964V35.2616H46.7029ZM54.4387 26.613L51.2896 31.3823H54.4387V26.613Z" fill="#FFFEFD"/>
</svg>
