<svg width="87" height="87" viewBox="0 0 87 87" fill="none" xmlns="http://www.w3.org/2000/svg">
<path d="M43.3545 1C59.5748 1 72.71 14.0355 72.71 30.0977C72.71 46.1598 59.5748 59.1953 43.3545 59.1953C27.1344 59.1951 14 46.1597 14 30.0977C14 14.0356 27.1344 1.00021 43.3545 1Z" fill="#EC5228"/>
<path d="M41.5468 54.6612L56.9708 47.8684C57.4761 47.646 58.069 47.8741 58.2948 48.378L70.9239 76.5701C71.3004 77.4107 70.4332 78.264 69.593 77.8797L62.1257 74.4651C60.4813 73.7131 58.5522 74.5609 58.0106 76.2742L55.5449 84.0772C55.2683 84.9522 54.0495 85.0171 53.6731 84.177L41.0404 55.9769C40.8147 55.4728 41.0414 54.8838 41.5468 54.6612Z" fill="#EC5228"/>
<path d="M27.3772 48.7568L43.2885 54.3397C43.8097 54.5225 44.0816 55.0924 43.896 55.6126L33.517 84.6939C33.2075 85.5611 31.9877 85.5901 31.6441 84.7384L28.5876 77.1636C27.9154 75.4974 25.9293 74.7989 24.3488 75.6732L17.1421 79.6604C16.3348 80.1067 15.4064 79.3237 15.7155 78.4571L26.0975 49.3675C26.2832 48.8474 26.8561 48.574 27.3772 48.7568Z" fill="#EC5228"/>
<path d="M43.3545 1C59.5748 1 72.71 14.0355 72.71 30.0977C72.71 46.1598 59.5748 59.1953 43.3545 59.1953C27.1344 59.1951 14 46.1597 14 30.0977C14 14.0356 27.1344 1.00021 43.3545 1Z" stroke="#EC5228" stroke-width="2"/>
<path d="M41.5468 54.6612L56.9708 47.8684C57.4761 47.646 58.069 47.8741 58.2948 48.378L70.9239 76.5701C71.3004 77.4107 70.4332 78.264 69.593 77.8797L62.1257 74.4651C60.4813 73.7131 58.5522 74.5609 58.0106 76.2742L55.5449 84.0772C55.2683 84.9522 54.0495 85.0171 53.6731 84.177L41.0404 55.9769C40.8147 55.4728 41.0414 54.8838 41.5468 54.6612Z" stroke="#EC5228" stroke-width="2"/>
<path d="M27.3772 48.7568L43.2885 54.3397C43.8097 54.5225 44.0816 55.0924 43.896 55.6126L33.517 84.6939C33.2075 85.5611 31.9877 85.5901 31.6441 84.7384L28.5876 77.1636C27.9154 75.4974 25.9293 74.7989 24.3488 75.6732L17.1421 79.6604C16.3348 80.1067 15.4064 79.3237 15.7155 78.4571L26.0975 49.3675C26.2832 48.8474 26.8561 48.574 27.3772 48.7568Z" stroke="#EC5228" stroke-width="2"/>
<path d="M29.9128 34.4173C31.3884 33.2611 32.5979 32.2647 33.5411 31.4279C34.4843 30.5912 35.2754 29.7317 35.9143 28.8493C36.5533 27.9517 36.8728 27.0998 36.8728 26.2935C36.8728 25.8067 36.7587 25.4264 36.5305 25.1525C36.3175 24.8787 35.998 24.7418 35.572 24.7418C35.1309 24.7418 34.7886 24.9319 34.5451 25.3123C34.3017 25.6774 34.1876 26.2174 34.2029 26.9325H29.8671C29.9128 25.5785 30.2094 24.4603 30.7571 23.578C31.3048 22.6804 32.0198 22.0262 32.9021 21.6155C33.7845 21.1895 34.7657 20.9765 35.8459 20.9765C37.7171 20.9765 39.1091 21.4405 40.0219 22.3685C40.9347 23.2965 41.3911 24.4984 41.3911 25.974C41.3911 27.5562 40.8586 29.0395 39.7937 30.4239C38.744 31.8083 37.428 33.0481 35.8459 34.1435H41.5508V37.7718H29.9128V34.4173ZM45.5975 38.1826C44.8065 38.1826 44.1675 37.9696 43.6807 37.5436C43.2091 37.1024 42.9733 36.5471 42.9733 35.8778C42.9733 35.2084 43.2091 34.6531 43.6807 34.2119C44.1675 33.7708 44.8065 33.5502 45.5975 33.5502C46.3734 33.5502 46.9971 33.7708 47.4688 34.2119C47.9556 34.6531 48.199 35.2084 48.199 35.8778C48.199 36.5319 47.9556 37.0796 47.4688 37.5208C46.9971 37.962 46.3734 38.1826 45.5975 38.1826ZM49.4262 25.5176V21.3188H56.4547V38H51.7767V25.5176H49.4262Z" fill="#FFFEFD"/>
</svg>
