<svg width="87" height="87" viewBox="0 0 87 87" fill="none" xmlns="http://www.w3.org/2000/svg">
<path d="M43.3545 1C59.5748 1 72.71 14.0355 72.71 30.0977C72.71 46.1598 59.5748 59.1953 43.3545 59.1953C27.1344 59.1951 14 46.1597 14 30.0977C14 14.0356 27.1344 1.00021 43.3545 1Z" fill="#3F39C2"/>
<path d="M41.5468 54.6612L56.9708 47.8684C57.4761 47.646 58.069 47.8741 58.2948 48.378L70.9239 76.5701C71.3004 77.4107 70.4332 78.264 69.593 77.8797L62.1257 74.4651C60.4813 73.7131 58.5522 74.5609 58.0106 76.2742L55.5449 84.0772C55.2683 84.9522 54.0495 85.0171 53.6731 84.177L41.0404 55.9769C40.8147 55.4728 41.0414 54.8838 41.5468 54.6612Z" fill="#3F39C2"/>
<path d="M27.3772 48.7568L43.2885 54.3397C43.8097 54.5225 44.0816 55.0924 43.896 55.6126L33.517 84.6939C33.2075 85.5611 31.9877 85.5901 31.6441 84.7384L28.5876 77.1636C27.9154 75.4974 25.9293 74.7989 24.3488 75.6732L17.1421 79.6604C16.3348 80.1067 15.4064 79.3237 15.7155 78.4571L26.0975 49.3675C26.2832 48.8474 26.8561 48.574 27.3772 48.7568Z" fill="#3F39C2"/>
<path d="M43.3545 1C59.5748 1 72.71 14.0355 72.71 30.0977C72.71 46.1598 59.5748 59.1953 43.3545 59.1953C27.1344 59.1951 14 46.1597 14 30.0977C14 14.0356 27.1344 1.00021 43.3545 1Z" stroke="#3F39C2" stroke-width="2"/>
<path d="M41.5468 54.6612L56.9708 47.8684C57.4761 47.646 58.069 47.8741 58.2948 48.378L70.9239 76.5701C71.3004 77.4107 70.4332 78.264 69.593 77.8797L62.1257 74.4651C60.4813 73.7131 58.5522 74.5609 58.0106 76.2742L55.5449 84.0772C55.2683 84.9522 54.0495 85.0171 53.6731 84.177L41.0404 55.9769C40.8147 55.4728 41.0414 54.8838 41.5468 54.6612Z" stroke="#3F39C2" stroke-width="2"/>
<path d="M27.3772 48.7568L43.2885 54.3397C43.8097 54.5225 44.0816 55.0924 43.896 55.6126L33.517 84.6939C33.2075 85.5611 31.9877 85.5901 31.6441 84.7384L28.5876 77.1636C27.9154 75.4974 25.9293 74.7989 24.3488 75.6732L17.1421 79.6604C16.3348 80.1067 15.4064 79.3237 15.7155 78.4571L26.0975 49.3675C26.2832 48.8474 26.8561 48.574 27.3772 48.7568Z" stroke="#3F39C2" stroke-width="2"/>
<path d="M27.3611 34.4173C28.8368 33.2611 30.0463 32.2647 30.9895 31.4279C31.9327 30.5912 32.7238 29.7317 33.3627 28.8493C34.0017 27.9517 34.3211 27.0998 34.3211 26.2935C34.3211 25.8067 34.207 25.4264 33.9788 25.1525C33.7659 24.8787 33.4464 24.7418 33.0204 24.7418C32.5792 24.7418 32.2369 24.9319 31.9935 25.3123C31.7501 25.6774 31.636 26.2174 31.6512 26.9325H27.3155C27.3611 25.5785 27.6578 24.4603 28.2055 23.578C28.7531 22.6804 29.4682 22.0262 30.3505 21.6155C31.2329 21.1895 32.2141 20.9765 33.2943 20.9765C35.1655 20.9765 36.5575 21.4405 37.4703 22.3685C38.383 23.2965 38.8394 24.4984 38.8394 25.974C38.8394 27.5562 38.307 29.0395 37.2421 30.4239C36.1924 31.8083 34.8764 33.0481 33.2943 34.1435H38.9992V37.7718H27.3611V34.4173ZM43.0459 38.1826C42.2548 38.1826 41.6159 37.9696 41.1291 37.5436C40.6575 37.1024 40.4217 36.5471 40.4217 35.8778C40.4217 35.2084 40.6575 34.6531 41.1291 34.2119C41.6159 33.7708 42.2548 33.5502 43.0459 33.5502C43.8218 33.5502 44.4455 33.7708 44.9171 34.2119C45.404 34.6531 45.6474 35.2084 45.6474 35.8778C45.6474 36.5319 45.404 37.0796 44.9171 37.5208C44.4455 37.962 43.8218 38.1826 43.0459 38.1826ZM47.5592 26.2935C47.6201 24.5744 48.1525 23.2585 49.1566 22.3457C50.1607 21.4177 51.5603 20.9537 53.3554 20.9537C54.5268 20.9537 55.5233 21.1591 56.3448 21.5698C57.1815 21.9654 57.8129 22.513 58.2388 23.2129C58.6648 23.8974 58.8778 24.6733 58.8778 25.5405C58.8778 26.5749 58.6268 27.4041 58.1247 28.0278C57.6227 28.6363 57.0522 29.0471 56.4133 29.2601V29.3513C58.254 30.0359 59.1744 31.3443 59.1744 33.2763C59.1744 34.2348 58.9539 35.0791 58.5127 35.8093C58.0715 36.5395 57.4325 37.11 56.5958 37.5208C55.7591 37.9315 54.7626 38.1369 53.6064 38.1369C51.7048 38.1369 50.1987 37.6805 49.0881 36.7677C47.9928 35.8397 47.4223 34.4249 47.3767 32.5233H51.7352C51.7048 33.1318 51.8341 33.6034 52.1232 33.9381C52.4122 34.2728 52.8458 34.4401 53.4239 34.4401C53.8651 34.4401 54.2074 34.3032 54.4508 34.0294C54.7094 33.7555 54.8387 33.3904 54.8387 32.934C54.8387 32.3559 54.6485 31.93 54.2682 31.6561C53.9031 31.3823 53.3022 31.2454 52.4655 31.2454H51.6668V27.617H52.4426C53.0207 27.6323 53.5076 27.541 53.9031 27.3432C54.3139 27.1302 54.5192 26.7119 54.5192 26.0881C54.5192 25.6165 54.4051 25.2666 54.1769 25.0384C53.9487 24.795 53.6369 24.6733 53.2413 24.6733C52.8001 24.6733 52.4731 24.833 52.2601 25.1525C52.0623 25.4568 51.9482 25.8371 51.9178 26.2935H47.5592Z" fill="#FFFEFD"/>
</svg>
