<svg width="216" height="228" viewBox="0 0 216 228" fill="none" xmlns="http://www.w3.org/2000/svg">
<line x1="3.05176e-05" y1="15.5748" x2="215.305" y2="15.5748" stroke="#1C1C1C" stroke-width="2.48223"/>
<line x1="3.05176e-05" y1="47.8438" x2="215.305" y2="47.8438" stroke="#1C1C1C" stroke-width="2.48223"/>
<line x1="3.05176e-05" y1="80.1128" x2="215.305" y2="80.1128" stroke="#1C1C1C" stroke-width="2.48223"/>
<line x1="3.05176e-05" y1="112.382" x2="215.305" y2="112.382" stroke="#1C1C1C" stroke-width="2.48223"/>
<line x1="3.05176e-05" y1="144.651" x2="215.305" y2="144.651" stroke="#1C1C1C" stroke-width="2.48223"/>
<path d="M26.3752 126.034C28.7076 110.313 37.894 83.5879 55.9796 102.453C78.5865 126.034 36.6021 163.268 16.1482 138.445C-0.214968 118.587 28.9147 85.8622 41.4465 66.4605C53.9782 47.0587 63.838 -0.0633379 41.4465 1.92245C19.0549 3.90823 44.6758 134.101 44.6758 167.611C44.6758 201.122 32.2954 175.679 33.9106 173.817" stroke="#1C1C1C" stroke-width="3.72335" stroke-linecap="round"/>
<line x1="108" y1="176.62" x2="164" y2="176.62" stroke="#1C1C1C" stroke-width="2.48223"/>
<line x1="108" y1="208.62" x2="164" y2="208.62" stroke="#1C1C1C" stroke-width="2.48223"/>
<path d="M135.992 227.286C124.648 227.286 115.62 219.42 115.62 209.91C115.62 200.4 124.648 192.534 135.992 192.534C147.336 192.534 156.364 200.4 156.364 209.91C156.364 219.42 147.336 227.286 135.992 227.286Z" fill="#1C1C1C" stroke="#1C1C1C" stroke-width="1.24112"/>
<path d="M153.508 211.151C153.508 212.179 154.341 213.012 155.37 213.012C156.398 213.012 157.231 212.179 157.231 211.151L155.37 211.151L153.508 211.151ZM155.37 211.151L157.231 211.151L157.231 111.862L155.37 111.862L153.508 111.862L153.508 211.151L155.37 211.151Z" fill="#1C1C1C"/>
<mask id="path-11-outside-1_1_312" maskUnits="userSpaceOnUse" x="125" y="198.862" width="22" height="21" fill="black">
<rect fill="white" x="125" y="198.862" width="22" height="21"/>
<path d="M139.386 214.784H132.883L131.84 217.862H127.397L133.702 200.436H138.617L144.922 217.862H140.429L139.386 214.784ZM138.294 211.507L136.135 205.128L134 211.507H138.294Z"/>
</mask>
<path d="M139.386 214.784H132.883L131.84 217.862H127.397L133.702 200.436H138.617L144.922 217.862H140.429L139.386 214.784ZM138.294 211.507L136.135 205.128L134 211.507H138.294Z" fill="#FFFEFD"/>
<path d="M139.386 214.784L140.562 214.385L140.276 213.542H139.386V214.784ZM132.883 214.784V213.542H131.993L131.707 214.385L132.883 214.784ZM131.84 217.862V219.103H132.73L133.016 218.26L131.84 217.862ZM127.397 217.862L126.23 217.439L125.628 219.103H127.397V217.862ZM133.702 200.436V199.195H132.831L132.535 200.014L133.702 200.436ZM138.617 200.436L139.784 200.014L139.488 199.195H138.617V200.436ZM144.922 217.862V219.103H146.691L146.089 217.439L144.922 217.862ZM140.429 217.862L139.253 218.26L139.539 219.103H140.429V217.862ZM138.294 211.507V212.748H140.025L139.47 211.109L138.294 211.507ZM136.135 205.128L137.31 204.73L136.128 201.237L134.958 204.734L136.135 205.128ZM134 211.507L132.823 211.113L132.276 212.748H134V211.507ZM139.386 214.784V213.542H132.883V214.784V216.025H139.386V214.784ZM132.883 214.784L131.707 214.385L130.665 217.463L131.84 217.862L133.016 218.26L134.058 215.182L132.883 214.784ZM131.84 217.862V216.62H127.397V217.862V219.103H131.84V217.862ZM127.397 217.862L128.564 218.284L134.869 200.859L133.702 200.436L132.535 200.014L126.23 217.439L127.397 217.862ZM133.702 200.436V201.677H138.617V200.436V199.195H133.702V200.436ZM138.617 200.436L137.45 200.859L143.755 218.284L144.922 217.862L146.089 217.439L139.784 200.014L138.617 200.436ZM144.922 217.862V216.62H140.429V217.862V219.103H144.922V217.862ZM140.429 217.862L141.604 217.463L140.562 214.385L139.386 214.784L138.211 215.182L139.253 218.26L140.429 217.862ZM138.294 211.507L139.47 211.109L137.31 204.73L136.135 205.128L134.959 205.526L137.119 211.905L138.294 211.507ZM136.135 205.128L134.958 204.734L132.823 211.113L134 211.507L135.177 211.901L137.312 205.522L136.135 205.128ZM134 211.507V212.748H138.294V211.507V210.266H134V211.507Z" fill="#1C1C1C" mask="url(#path-11-outside-1_1_312)"/>
</svg>
