<svg width="216" height="189" viewBox="0 0 216 189" fill="none" xmlns="http://www.w3.org/2000/svg">
<line x1="2.67029e-05" y1="17.7128" x2="215.305" y2="17.7128" stroke="#1C1C1C" stroke-width="2.48223"/>
<line x1="2.67029e-05" y1="49.9819" x2="215.305" y2="49.9819" stroke="#1C1C1C" stroke-width="2.48223"/>
<line x1="2.67029e-05" y1="82.2509" x2="215.305" y2="82.2509" stroke="#1C1C1C" stroke-width="2.48223"/>
<line x1="2.67029e-05" y1="114.52" x2="215.305" y2="114.52" stroke="#1C1C1C" stroke-width="2.48223"/>
<line x1="2.67029e-05" y1="146.789" x2="215.305" y2="146.789" stroke="#1C1C1C" stroke-width="2.48223"/>
<path d="M26.3752 128.172C28.7076 112.451 37.894 85.726 55.9796 104.591C78.5866 128.172 36.6021 165.406 16.1482 140.583C-0.214957 120.725 28.9147 88.0003 41.4465 68.5986C53.9783 49.1968 63.838 2.07475 41.4465 4.06054C19.055 6.04633 44.6758 136.239 44.6758 169.75C44.6758 203.26 32.2954 177.817 33.9106 175.955" stroke="#1C1C1C" stroke-width="3.72335" stroke-linecap="round"/>
<path d="M127.992 115.424C116.648 115.424 107.62 107.558 107.62 98.0482C107.62 88.5382 116.648 80.6723 127.992 80.6723C139.336 80.6723 148.364 88.5382 148.364 98.0482C148.364 107.558 139.336 115.424 127.992 115.424Z" fill="#1C1C1C" stroke="#1C1C1C" stroke-width="1.24112"/>
<path d="M145.508 99.2893C145.508 100.317 146.341 101.151 147.37 101.151C148.398 101.151 149.231 100.317 149.231 99.2893L147.37 99.2893L145.508 99.2893ZM147.37 99.2893L149.231 99.2893L149.231 9.3818e-08L147.37 7.62939e-06L145.508 7.53558e-06L145.508 99.2893L147.37 99.2893Z" fill="#1C1C1C"/>
<mask id="path-9-outside-1_1_147" maskUnits="userSpaceOnUse" x="117" y="87" width="22" height="21" fill="black">
<rect fill="white" x="117" y="87" width="22" height="21"/>
<path d="M131.386 102.922H124.883L123.84 106H119.397L125.702 88.5747H130.617L136.922 106H132.429L131.386 102.922ZM130.294 99.6455L128.135 93.2662L126 99.6455H130.294Z"/>
</mask>
<path d="M131.386 102.922H124.883L123.84 106H119.397L125.702 88.5747H130.617L136.922 106H132.429L131.386 102.922ZM130.294 99.6455L128.135 93.2662L126 99.6455H130.294Z" fill="#FFFEFD"/>
<path d="M131.386 102.922L132.562 102.524L132.276 101.681H131.386V102.922ZM124.883 102.922V101.681H123.993L123.707 102.524L124.883 102.922ZM123.84 106V107.241H124.73L125.016 106.398L123.84 106ZM119.397 106L118.23 105.578L117.628 107.241H119.397V106ZM125.702 88.5747V87.3336H124.831L124.535 88.1525L125.702 88.5747ZM130.617 88.5747L131.784 88.1525L131.488 87.3336H130.617V88.5747ZM136.922 106V107.241H138.691L138.089 105.578L136.922 106ZM132.429 106L131.253 106.398L131.539 107.241H132.429V106ZM130.294 99.6455V100.887H132.025L131.47 99.2475L130.294 99.6455ZM128.135 93.2662L129.31 92.8682L128.128 89.3754L126.958 92.8723L128.135 93.2662ZM126 99.6455L124.823 99.2516L124.276 100.887H126V99.6455ZM131.386 102.922V101.681H124.883V102.922V104.163H131.386V102.922ZM124.883 102.922L123.707 102.524L122.665 105.602L123.84 106L125.016 106.398L126.058 103.32L124.883 102.922ZM123.84 106V104.759H119.397V106V107.241H123.84V106ZM119.397 106L120.564 106.422L126.869 88.997L125.702 88.5747L124.535 88.1525L118.23 105.578L119.397 106ZM125.702 88.5747V89.8158H130.617V88.5747V87.3336H125.702V88.5747ZM130.617 88.5747L129.45 88.997L135.755 106.422L136.922 106L138.089 105.578L131.784 88.1525L130.617 88.5747ZM136.922 106V104.759H132.429V106V107.241H136.922V106ZM132.429 106L133.604 105.602L132.562 102.524L131.386 102.922L130.211 103.32L131.253 106.398L132.429 106ZM130.294 99.6455L131.47 99.2475L129.31 92.8682L128.135 93.2662L126.959 93.6641L129.119 100.043L130.294 99.6455ZM128.135 93.2662L126.958 92.8723L124.823 99.2516L126 99.6455L127.177 100.039L129.312 93.66L128.135 93.2662ZM126 99.6455V100.887H130.294V99.6455V98.4044H126V99.6455Z" fill="#1C1C1C" mask="url(#path-9-outside-1_1_147)"/>
</svg>
