<svg width="216" height="221" viewBox="0 0 216 221" fill="none" xmlns="http://www.w3.org/2000/svg">
<line x1="103" y1="19.7589" x2="159" y2="19.7589" stroke="#1C1C1C" stroke-width="2.48223"/>
<line y1="49.7132" x2="215.305" y2="49.7132" stroke="#1C1C1C" stroke-width="2.48223"/>
<line y1="81.9822" x2="215.305" y2="81.9822" stroke="#1C1C1C" stroke-width="2.48223"/>
<line y1="114.251" x2="215.305" y2="114.251" stroke="#1C1C1C" stroke-width="2.48223"/>
<line y1="146.52" x2="215.305" y2="146.52" stroke="#1C1C1C" stroke-width="2.48223"/>
<line y1="178.789" x2="215.305" y2="178.789" stroke="#1C1C1C" stroke-width="2.48223"/>
<path d="M26.3752 160.172C28.7076 144.452 37.894 117.726 55.9796 136.591C78.5865 160.172 36.6021 197.406 16.1482 172.584C-0.214968 152.726 28.9147 120.001 41.4465 100.599C53.9782 81.1971 63.838 34.0751 41.4465 36.0609C19.0549 38.0467 44.6758 168.24 44.6758 201.75C44.6758 235.26 32.2954 209.817 33.9106 207.955" stroke="#1C1C1C" stroke-width="3.72335" stroke-linecap="round"/>
<path d="M130.992 1.62012C142.336 1.62012 151.364 9.48606 151.364 18.9961C151.364 28.5062 142.336 36.3721 130.992 36.3721C119.648 36.3721 110.62 28.5062 110.62 18.9961C110.62 9.48606 119.648 1.62013 130.992 1.62012Z" fill="#1C1C1C" stroke="#1C1C1C" stroke-width="1.24112"/>
<path d="M113.476 17.7551C113.476 16.7269 112.643 15.8934 111.615 15.8934C110.587 15.8934 109.753 16.7269 109.753 17.7551L111.615 17.7551L113.476 17.7551ZM111.615 17.7551L109.753 17.7551L109.753 117.044L111.615 117.044L113.476 117.044L113.476 17.7551L111.615 17.7551Z" fill="#1C1C1C"/>
<mask id="path-10-outside-1_1_322" maskUnits="userSpaceOnUse" x="119.995" y="8" width="22" height="21" fill="black">
<rect fill="white" x="119.995" y="8" width="22" height="21"/>
<path d="M134.381 23.922H127.878L126.835 27H122.392L128.697 9.57473H133.612L139.916 27H135.424L134.381 23.922ZM133.289 20.6455L131.129 14.2662L128.995 20.6455H133.289Z"/>
</mask>
<path d="M134.381 23.922H127.878L126.835 27H122.392L128.697 9.57473H133.612L139.916 27H135.424L134.381 23.922ZM133.289 20.6455L131.129 14.2662L128.995 20.6455H133.289Z" fill="#FFFEFD"/>
<path d="M134.381 23.922L135.557 23.5239L135.271 22.6809H134.381V23.922ZM127.878 23.922V22.6809H126.988L126.702 23.5239L127.878 23.922ZM126.835 27V28.2411H127.725L128.011 27.3982L126.835 27ZM122.392 27L121.225 26.5777L120.623 28.2411H122.392V27ZM128.697 9.57473V8.33362H127.826L127.53 9.15246L128.697 9.57473ZM133.612 9.57473L134.779 9.15246L134.482 8.33362H133.612V9.57473ZM139.916 27V28.2411H141.685L141.084 26.5777L139.916 27ZM135.424 27L134.248 27.3982L134.534 28.2411H135.424V27ZM133.289 20.6455V21.8866H135.019L134.464 20.2475L133.289 20.6455ZM131.129 14.2662L132.305 13.8682L131.123 10.3754L129.952 13.8723L131.129 14.2662ZM128.995 20.6455L127.818 20.2516L127.271 21.8866H128.995V20.6455ZM134.381 23.922V22.6809H127.878V23.922V25.1631H134.381V23.922ZM127.878 23.922L126.702 23.5239L125.66 26.6018L126.835 27L128.011 27.3982L129.053 24.3202L127.878 23.922ZM126.835 27V25.7589H122.392V27V28.2411H126.835V27ZM122.392 27L123.559 27.4223L129.864 9.997L128.697 9.57473L127.53 9.15246L121.225 26.5777L122.392 27ZM128.697 9.57473V10.8158H133.612V9.57473V8.33362H128.697V9.57473ZM133.612 9.57473L132.445 9.997L138.749 27.4223L139.916 27L141.084 26.5777L134.779 9.15246L133.612 9.57473ZM139.916 27V25.7589H135.424V27V28.2411H139.916V27ZM135.424 27L136.599 26.6018L135.557 23.5239L134.381 23.922L133.206 24.3202L134.248 27.3982L135.424 27ZM133.289 20.6455L134.464 20.2475L132.305 13.8682L131.129 14.2662L129.954 14.6641L132.113 21.0434L133.289 20.6455ZM131.129 14.2662L129.952 13.8723L127.818 20.2516L128.995 20.6455L130.172 21.0393L132.306 14.66L131.129 14.2662ZM128.995 20.6455V21.8866H133.289V20.6455V19.4044H128.995V20.6455Z" fill="#1C1C1C" mask="url(#path-10-outside-1_1_322)"/>
</svg>
