<svg width="216" height="213" viewBox="0 0 216 213" fill="none" xmlns="http://www.w3.org/2000/svg">
<line y1="15.5748" x2="215.305" y2="15.5748" stroke="#1C1C1C" stroke-width="2.48223"/>
<line y1="47.8438" x2="215.305" y2="47.8438" stroke="#1C1C1C" stroke-width="2.48223"/>
<line y1="80.1128" x2="215.305" y2="80.1128" stroke="#1C1C1C" stroke-width="2.48223"/>
<line y1="112.382" x2="215.305" y2="112.382" stroke="#1C1C1C" stroke-width="2.48223"/>
<line y1="144.651" x2="215.305" y2="144.651" stroke="#1C1C1C" stroke-width="2.48223"/>
<path d="M26.3752 126.034C28.7076 110.313 37.894 83.5879 55.9796 102.453C78.5865 126.034 36.6021 163.268 16.1482 138.445C-0.214968 118.587 28.9147 85.8622 41.4465 66.4605C53.9782 47.0587 63.838 -0.0633379 41.4465 1.92245C19.0549 3.90823 44.6758 134.101 44.6758 167.611C44.6758 201.122 32.2954 175.679 33.9106 173.817" stroke="#1C1C1C" stroke-width="3.72335" stroke-linecap="round"/>
<line x1="102" y1="176.62" x2="158" y2="176.62" stroke="#1C1C1C" stroke-width="2.48223"/>
<path d="M129.992 212.286C118.648 212.286 109.62 204.42 109.62 194.91C109.62 185.4 118.648 177.534 129.992 177.534C141.336 177.534 150.364 185.4 150.364 194.91C150.364 204.42 141.336 212.286 129.992 212.286Z" fill="#1C1C1C" stroke="#1C1C1C" stroke-width="1.24112"/>
<path d="M147.508 196.151C147.508 197.179 148.342 198.012 149.37 198.012C150.398 198.012 151.231 197.179 151.231 196.151L149.37 196.151L147.508 196.151ZM149.37 196.151L151.231 196.151L151.231 96.8615L149.37 96.8616L147.508 96.8616L147.508 196.151L149.37 196.151Z" fill="#1C1C1C"/>
<mask id="path-10-outside-1_1_311" maskUnits="userSpaceOnUse" x="122" y="183.862" width="17" height="21" fill="black">
<rect fill="white" x="122" y="183.862" width="17" height="21"/>
<path d="M134.088 193.926C135.098 194.141 135.909 194.645 136.521 195.44C137.133 196.217 137.439 197.111 137.439 198.121C137.439 199.577 136.926 200.735 135.9 201.596C134.891 202.44 133.476 202.862 131.656 202.862H123.539V185.436H131.383C133.153 185.436 134.535 185.842 135.528 186.653C136.538 187.463 137.042 188.564 137.042 189.954C137.042 190.98 136.769 191.832 136.223 192.511C135.694 193.189 134.982 193.661 134.088 193.926ZM127.784 192.486H130.564C131.259 192.486 131.788 192.337 132.152 192.039C132.533 191.725 132.723 191.27 132.723 190.674C132.723 190.078 132.533 189.623 132.152 189.309C131.788 188.994 131.259 188.837 130.564 188.837H127.784V192.486ZM130.911 199.436C131.623 199.436 132.169 199.279 132.549 198.964C132.947 198.634 133.145 198.162 133.145 197.55C133.145 196.937 132.938 196.457 132.525 196.11C132.128 195.762 131.573 195.589 130.862 195.589H127.784V199.436H130.911Z"/>
</mask>
<path d="M134.088 193.926C135.098 194.141 135.909 194.645 136.521 195.44C137.133 196.217 137.439 197.111 137.439 198.121C137.439 199.577 136.926 200.735 135.9 201.596C134.891 202.44 133.476 202.862 131.656 202.862H123.539V185.436H131.383C133.153 185.436 134.535 185.842 135.528 186.653C136.538 187.463 137.042 188.564 137.042 189.954C137.042 190.98 136.769 191.832 136.223 192.511C135.694 193.189 134.982 193.661 134.088 193.926ZM127.784 192.486H130.564C131.259 192.486 131.788 192.337 132.152 192.039C132.533 191.725 132.723 191.27 132.723 190.674C132.723 190.078 132.533 189.623 132.152 189.309C131.788 188.994 131.259 188.837 130.564 188.837H127.784V192.486ZM130.911 199.436C131.623 199.436 132.169 199.279 132.549 198.964C132.947 198.634 133.145 198.162 133.145 197.55C133.145 196.937 132.938 196.457 132.525 196.11C132.128 195.762 131.573 195.589 130.862 195.589H127.784V199.436H130.911Z" fill="#FFFEFD"/>
<path d="M134.088 193.926L133.736 192.736L133.83 195.139L134.088 193.926ZM136.521 195.44L135.538 196.197L135.546 196.207L136.521 195.44ZM135.9 201.596L136.697 202.548L136.698 202.547L135.9 201.596ZM123.539 202.862H122.298V204.103H123.539V202.862ZM123.539 185.436V184.195H122.298V185.436H123.539ZM135.528 186.653L134.743 187.614L134.751 187.62L135.528 186.653ZM136.223 192.511L135.256 191.732L135.251 191.74L135.245 191.747L136.223 192.511ZM127.784 192.486H126.542V193.727H127.784V192.486ZM132.152 192.039L132.938 193L132.943 192.996L132.152 192.039ZM132.152 189.309L131.341 190.248L131.351 190.257L131.362 190.265L132.152 189.309ZM127.784 188.837V187.596H126.542V188.837H127.784ZM132.549 198.964L133.34 199.921L133.344 199.918L132.549 198.964ZM132.525 196.11L131.707 197.044L131.717 197.052L131.726 197.06L132.525 196.11ZM127.784 195.589V194.348H126.542V195.589H127.784ZM127.784 199.436H126.542V200.677H127.784V199.436ZM134.088 193.926L133.83 195.139C134.56 195.295 135.111 195.644 135.538 196.197L136.521 195.44L137.504 194.682C136.706 193.647 135.635 192.986 134.347 192.712L134.088 193.926ZM136.521 195.44L135.546 196.207C135.982 196.762 136.198 197.384 136.198 198.121H137.439H138.681C138.681 196.839 138.284 195.673 137.496 194.672L136.521 195.44ZM137.439 198.121H136.198C136.198 199.246 135.821 200.042 135.103 200.645L135.9 201.596L136.698 202.547C138.032 201.428 138.681 199.907 138.681 198.121H137.439ZM135.9 201.596L135.104 200.643C134.391 201.24 133.296 201.62 131.656 201.62V202.862V204.103C133.656 204.103 135.391 203.639 136.697 202.548L135.9 201.596ZM131.656 202.862V201.62H123.539V202.862V204.103H131.656V202.862ZM123.539 202.862H124.78V185.436H123.539H122.298V202.862H123.539ZM123.539 185.436V186.677H131.383V185.436V184.195H123.539V185.436ZM131.383 185.436V186.677C132.975 186.677 134.043 187.042 134.743 187.614L135.528 186.653L136.313 185.691C135.027 184.641 133.332 184.195 131.383 184.195V185.436ZM135.528 186.653L134.751 187.62C135.443 188.176 135.801 188.908 135.801 189.954H137.042H138.283C138.283 188.22 137.632 186.751 136.305 185.685L135.528 186.653ZM137.042 189.954H135.801C135.801 190.749 135.595 191.312 135.256 191.732L136.223 192.511L137.19 193.289C137.944 192.352 138.283 191.21 138.283 189.954H137.042ZM136.223 192.511L135.245 191.747C134.888 192.205 134.403 192.538 133.736 192.736L134.088 193.926L134.441 195.116C135.561 194.784 136.5 194.174 137.202 193.274L136.223 192.511ZM127.784 192.486V193.727H130.564V192.486V191.245H127.784V192.486ZM130.564 192.486V193.727C131.413 193.727 132.268 193.548 132.938 193L132.152 192.039L131.366 191.078C131.308 191.126 131.104 191.245 130.564 191.245V192.486ZM132.152 192.039L132.943 192.996C133.668 192.397 133.964 191.555 133.964 190.674H132.723H131.482C131.482 190.984 131.398 191.052 131.362 191.082L132.152 192.039ZM132.723 190.674H133.964C133.964 189.792 133.668 188.951 132.943 188.352L132.152 189.309L131.362 190.265C131.398 190.295 131.482 190.364 131.482 190.674H132.723ZM132.152 189.309L132.964 188.369C132.292 187.789 131.426 187.596 130.564 187.596V188.837V190.078C131.091 190.078 131.285 190.199 131.341 190.248L132.152 189.309ZM130.564 188.837V187.596H127.784V188.837V190.078H130.564V188.837ZM127.784 188.837H126.542V192.486H127.784H129.025V188.837H127.784ZM130.911 199.436V200.677C131.787 200.677 132.657 200.486 133.34 199.921L132.549 198.964L131.759 198.008C131.681 198.072 131.459 198.195 130.911 198.195V199.436ZM132.549 198.964L133.344 199.918C134.077 199.307 134.386 198.455 134.386 197.55H133.145H131.904C131.904 197.869 131.816 197.96 131.755 198.011L132.549 198.964ZM133.145 197.55H134.386C134.386 196.625 134.057 195.776 133.323 195.16L132.525 196.11L131.726 197.06C131.82 197.139 131.904 197.249 131.904 197.55H133.145ZM132.525 196.11L133.342 195.176C132.65 194.57 131.768 194.348 130.862 194.348V195.589V196.83C131.378 196.83 131.605 196.954 131.707 197.044L132.525 196.11ZM130.862 195.589V194.348H127.784V195.589V196.83H130.862V195.589ZM127.784 195.589H126.542V199.436H127.784H129.025V195.589H127.784ZM127.784 199.436V200.677H130.911V199.436V198.195H127.784V199.436Z" fill="#1C1C1C" mask="url(#path-10-outside-1_1_311)"/>
</svg>
