<svg width="216" height="187" viewBox="0 0 216 187" fill="none" xmlns="http://www.w3.org/2000/svg">
<line x1="3.05176e-05" y1="15.5748" x2="215.305" y2="15.5748" stroke="#1C1C1C" stroke-width="2.48223"/>
<line x1="3.05176e-05" y1="47.8438" x2="215.305" y2="47.8438" stroke="#1C1C1C" stroke-width="2.48223"/>
<line x1="3.05176e-05" y1="80.1128" x2="215.305" y2="80.1128" stroke="#1C1C1C" stroke-width="2.48223"/>
<line x1="3.05176e-05" y1="112.382" x2="215.305" y2="112.382" stroke="#1C1C1C" stroke-width="2.48223"/>
<line x1="3.05176e-05" y1="144.651" x2="215.305" y2="144.651" stroke="#1C1C1C" stroke-width="2.48223"/>
<path d="M26.3752 126.034C28.7076 110.313 37.894 83.5879 55.9796 102.453C78.5865 126.034 36.6021 163.268 16.1482 138.445C-0.214968 118.587 28.9147 85.8622 41.4465 66.4605C53.9782 47.0587 63.838 -0.0633403 41.4465 1.92245C19.0549 3.90823 44.6758 134.101 44.6758 167.611C44.6758 201.122 32.2954 175.679 33.9106 173.817" stroke="#1C1C1C" stroke-width="3.72335" stroke-linecap="round"/>
<path d="M136.18 63.3573C147.524 63.3573 156.552 71.2232 156.552 80.7333C156.552 90.2433 147.524 98.1092 136.18 98.1092C124.836 98.1092 115.808 90.2433 115.808 80.7333C115.808 71.2232 124.836 63.3573 136.18 63.3573Z" fill="#1C1C1C" stroke="#1C1C1C" stroke-width="1.24112"/>
<path d="M118.665 79.4922C118.665 78.464 117.831 77.6305 116.803 77.6305C115.775 77.6305 114.941 78.464 114.941 79.4922L116.803 79.4922L118.665 79.4922ZM116.803 79.4922L114.941 79.4922L114.941 178.781L116.803 178.781L118.664 178.781L118.665 79.4922L116.803 79.4922Z" fill="#1C1C1C"/>
<mask id="path-9-outside-1_1_11" maskUnits="userSpaceOnUse" x="128.183" y="70.7372" width="17" height="21" fill="black">
<rect fill="white" x="128.183" y="70.7372" width="17" height="21"/>
<path d="M140.271 80.8011C141.281 81.0162 142.092 81.521 142.704 82.3153C143.316 83.093 143.622 83.9867 143.622 84.9961C143.622 86.4523 143.109 87.6107 142.083 88.4712C141.074 89.3152 139.659 89.7372 137.839 89.7372H129.722V72.3119H137.566C139.336 72.3119 140.718 72.7173 141.711 73.5282C142.72 74.339 143.225 75.4395 143.225 76.8296C143.225 77.8555 142.952 78.7078 142.406 79.3862C141.876 80.0647 141.165 80.5364 140.271 80.8011ZM133.966 79.3614H136.746C137.441 79.3614 137.971 79.2125 138.335 78.9146C138.716 78.6002 138.906 78.1451 138.906 77.5494C138.906 76.9537 138.716 76.4986 138.335 76.1842C137.971 75.8698 137.441 75.7125 136.746 75.7125H133.966V79.3614ZM137.094 86.3117C137.806 86.3117 138.352 86.1545 138.732 85.8401C139.129 85.5091 139.328 85.0375 139.328 84.4252C139.328 83.8129 139.121 83.333 138.707 82.9855C138.31 82.638 137.756 82.4642 137.044 82.4642H133.966V86.3117H137.094Z"/>
</mask>
<path d="M140.271 80.8011C141.281 81.0162 142.092 81.521 142.704 82.3153C143.316 83.093 143.622 83.9867 143.622 84.9961C143.622 86.4523 143.109 87.6107 142.083 88.4712C141.074 89.3152 139.659 89.7372 137.839 89.7372H129.722V72.3119H137.566C139.336 72.3119 140.718 72.7173 141.711 73.5282C142.72 74.339 143.225 75.4395 143.225 76.8296C143.225 77.8555 142.952 78.7078 142.406 79.3862C141.876 80.0647 141.165 80.5364 140.271 80.8011ZM133.966 79.3614H136.746C137.441 79.3614 137.971 79.2125 138.335 78.9146C138.716 78.6002 138.906 78.1451 138.906 77.5494C138.906 76.9537 138.716 76.4986 138.335 76.1842C137.971 75.8698 137.441 75.7125 136.746 75.7125H133.966V79.3614ZM137.094 86.3117C137.806 86.3117 138.352 86.1545 138.732 85.8401C139.129 85.5091 139.328 85.0375 139.328 84.4252C139.328 83.8129 139.121 83.333 138.707 82.9855C138.31 82.638 137.756 82.4642 137.044 82.4642H133.966V86.3117H137.094Z" fill="#FFFEFD"/>
<path d="M140.271 80.8011L139.919 79.6111L140.013 82.015L140.271 80.8011ZM142.704 82.3153L141.721 83.073L141.729 83.083L142.704 82.3153ZM142.083 88.4712L142.879 89.4234L142.881 89.4222L142.083 88.4712ZM129.722 89.7372H128.481V90.9783H129.722V89.7372ZM129.722 72.3119V71.0708H128.481V72.3119H129.722ZM141.711 73.5282L140.926 74.4895L140.934 74.4958L141.711 73.5282ZM142.406 79.3862L141.439 78.6081L141.433 78.6153L141.428 78.6226L142.406 79.3862ZM133.966 79.3614H132.725V80.6025H133.966V79.3614ZM138.335 78.9146L139.121 79.8752L139.126 79.8715L138.335 78.9146ZM138.335 76.1842L137.524 77.1235L137.534 77.1324L137.545 77.141L138.335 76.1842ZM133.966 75.7125V74.4714H132.725V75.7125H133.966ZM138.732 85.8401L139.523 86.7969L139.527 86.7935L138.732 85.8401ZM138.707 82.9855L137.89 83.9195L137.9 83.9278L137.909 83.9358L138.707 82.9855ZM133.966 82.4642V81.2231H132.725V82.4642H133.966ZM133.966 86.3117H132.725V87.5528H133.966V86.3117ZM140.271 80.8011L140.013 82.015C140.743 82.1707 141.294 82.5191 141.721 83.073L142.704 82.3153L143.687 81.5576C142.889 80.5228 141.818 79.8618 140.53 79.5873L140.271 80.8011ZM142.704 82.3153L141.729 83.083C142.165 83.6373 142.381 84.2592 142.381 84.9961H143.622H144.863C144.863 83.7141 144.467 82.5488 143.679 81.5476L142.704 82.3153ZM143.622 84.9961H142.381C142.381 86.1218 142.004 86.9181 141.286 87.5203L142.083 88.4712L142.881 89.4222C144.215 88.3034 144.863 86.7829 144.863 84.9961H143.622ZM142.083 88.4712L141.287 87.519C140.573 88.1158 139.479 88.496 137.839 88.496V89.7372V90.9783C139.839 90.9783 141.574 90.5146 142.879 89.4234L142.083 88.4712ZM137.839 89.7372V88.496H129.722V89.7372V90.9783H137.839V89.7372ZM129.722 89.7372H130.963V72.3119H129.722H128.481V89.7372H129.722ZM129.722 72.3119V73.553H137.566V72.3119V71.0708H129.722V72.3119ZM137.566 72.3119V73.553C139.158 73.553 140.226 73.9178 140.926 74.4895L141.711 73.5282L142.496 72.5669C141.21 71.5168 139.514 71.0708 137.566 71.0708V72.3119ZM141.711 73.5282L140.934 74.4958C141.626 75.0519 141.984 75.7839 141.984 76.8296H143.225H144.466C144.466 75.0951 143.815 73.6262 142.488 72.5606L141.711 73.5282ZM143.225 76.8296H141.984C141.984 77.625 141.777 78.1879 141.439 78.6081L142.406 79.3862L143.373 80.1644C144.127 79.2277 144.466 78.086 144.466 76.8296H143.225ZM142.406 79.3862L141.428 78.6226C141.07 79.0802 140.586 79.4134 139.919 79.6111L140.271 80.8011L140.624 81.9911C141.744 81.6593 142.682 81.0493 143.384 80.1499L142.406 79.3862ZM133.966 79.3614V80.6025H136.746V79.3614V78.1203H133.966V79.3614ZM136.746 79.3614V80.6025C137.596 80.6025 138.451 80.4235 139.121 79.8752L138.335 78.9146L137.549 77.9541C137.491 78.0015 137.287 78.1203 136.746 78.1203V79.3614ZM138.335 78.9146L139.126 79.8715C139.851 79.2723 140.147 78.4309 140.147 77.5494H138.906H137.665C137.665 77.8593 137.581 77.9281 137.545 77.9578L138.335 78.9146ZM138.906 77.5494H140.147C140.147 76.6679 139.851 75.8265 139.126 75.2273L138.335 76.1842L137.545 77.141C137.581 77.1707 137.665 77.2395 137.665 77.5494H138.906ZM138.335 76.1842L139.146 75.2449C138.475 74.6649 137.609 74.4714 136.746 74.4714V75.7125V76.9537C137.274 76.9537 137.467 77.0746 137.524 77.1235L138.335 76.1842ZM136.746 75.7125V74.4714H133.966V75.7125V76.9537H136.746V75.7125ZM133.966 75.7125H132.725V79.3614H133.966H135.207V75.7125H133.966ZM137.094 86.3117V87.5528C137.97 87.5528 138.84 87.3612 139.523 86.7969L138.732 85.8401L137.942 84.8832C137.864 84.9478 137.641 85.0706 137.094 85.0706V86.3117ZM138.732 85.8401L139.527 86.7935C140.26 86.1825 140.569 85.3306 140.569 84.4252H139.328H138.087C138.087 84.7443 137.999 84.8357 137.938 84.8866L138.732 85.8401ZM139.328 84.4252H140.569C140.569 83.501 140.24 82.6516 139.506 82.0352L138.707 82.9855L137.909 83.9358C138.003 84.0144 138.087 84.1248 138.087 84.4252H139.328ZM138.707 82.9855L139.525 82.0515C138.833 81.446 137.951 81.2231 137.044 81.2231V82.4642V83.7053C137.561 83.7053 137.788 83.83 137.89 83.9195L138.707 82.9855ZM137.044 82.4642V81.2231H133.966V82.4642V83.7053H137.044V82.4642ZM133.966 82.4642H132.725V86.3117H133.966H135.207V82.4642H133.966ZM133.966 86.3117V87.5528H137.094V86.3117V85.0706H133.966V86.3117Z" fill="#1C1C1C" mask="url(#path-9-outside-1_1_11)"/>
</svg>
