<svg width="216" height="187" viewBox="0 0 216 187" fill="none" xmlns="http://www.w3.org/2000/svg">
<line x1="2.67029e-05" y1="15.5747" x2="215.305" y2="15.5747" stroke="#1C1C1C" stroke-width="2.48223"/>
<line x1="2.67029e-05" y1="47.8438" x2="215.305" y2="47.8438" stroke="#1C1C1C" stroke-width="2.48223"/>
<line x1="2.67029e-05" y1="80.1128" x2="215.305" y2="80.1128" stroke="#1C1C1C" stroke-width="2.48223"/>
<line x1="2.67029e-05" y1="112.382" x2="215.305" y2="112.382" stroke="#1C1C1C" stroke-width="2.48223"/>
<line x1="2.67029e-05" y1="144.651" x2="215.305" y2="144.651" stroke="#1C1C1C" stroke-width="2.48223"/>
<path d="M26.3752 126.034C28.7076 110.313 37.894 83.5879 55.9796 102.453C78.5866 126.034 36.6021 163.268 16.1482 138.445C-0.214957 118.587 28.9147 85.8622 41.4465 66.4605C53.9783 47.0587 63.838 -0.0633379 41.4465 1.92245C19.055 3.90823 44.6758 134.101 44.6758 167.611C44.6758 201.122 32.2954 175.679 33.9106 173.817" stroke="#1C1C1C" stroke-width="3.72335" stroke-linecap="round"/>
</svg>
