<svg width="216" height="187" viewBox="0 0 216 187" fill="none" xmlns="http://www.w3.org/2000/svg">
<line y1="15.5748" x2="215.305" y2="15.5748" stroke="#1C1C1C" stroke-width="2.48223"/>
<line y1="47.8438" x2="215.305" y2="47.8438" stroke="#1C1C1C" stroke-width="2.48223"/>
<line y1="80.1128" x2="215.305" y2="80.1128" stroke="#1C1C1C" stroke-width="2.48223"/>
<line y1="112.382" x2="215.305" y2="112.382" stroke="#1C1C1C" stroke-width="2.48223"/>
<line y1="144.651" x2="215.305" y2="144.651" stroke="#1C1C1C" stroke-width="2.48223"/>
<path d="M26.3752 126.034C28.7076 110.313 37.894 83.5879 55.9796 102.453C78.5865 126.034 36.6021 163.268 16.1482 138.445C-0.214968 118.587 28.9147 85.8622 41.4465 66.4605C53.9782 47.0587 63.838 -0.0633403 41.4465 1.92245C19.0549 3.90823 44.6758 134.101 44.6758 167.611C44.6758 201.122 32.2954 175.679 33.9106 173.817" stroke="#1C1C1C" stroke-width="3.72335" stroke-linecap="round"/>
<path d="M131.992 46.4817C143.336 46.4817 152.364 54.3476 152.364 63.8577C152.364 73.3677 143.336 81.2336 131.992 81.2336C120.648 81.2336 111.62 73.3677 111.62 63.8577C111.62 54.3476 120.648 46.4817 131.992 46.4817Z" fill="#1C1C1C" stroke="#1C1C1C" stroke-width="1.24112"/>
<path d="M114.476 62.6166C114.476 61.5885 113.643 60.755 112.615 60.755C111.587 60.755 110.753 61.5885 110.753 62.6166L112.615 62.6166L114.476 62.6166ZM112.615 62.6166L110.753 62.6166L110.753 161.906L112.615 161.906L114.476 161.906L114.476 62.6166L112.615 62.6166Z" fill="#1C1C1C"/>
<path d="M115.664 63.7771C115.664 62.3817 115.966 61.1406 116.57 60.0538C117.174 58.9536 118.012 58.1015 119.086 57.4978C120.172 56.8806 121.4 56.5719 122.769 56.5719C124.446 56.5719 125.882 57.0147 127.076 57.9003C128.27 58.7858 129.068 59.9934 129.471 61.523H125.687C125.405 60.9326 125.003 60.4831 124.479 60.1745C123.97 59.8659 123.386 59.7116 122.728 59.7116C121.668 59.7116 120.81 60.0806 120.152 60.8186C119.495 61.5565 119.166 62.5427 119.166 63.7771C119.166 65.0115 119.495 65.9977 120.152 66.7357C120.81 67.4736 121.668 67.8426 122.728 67.8426C123.386 67.8426 123.97 67.6883 124.479 67.3797C125.003 67.0711 125.405 66.6216 125.687 66.0313H129.471C129.068 67.5609 128.27 68.7684 127.076 69.654C125.882 70.5261 124.446 70.9622 122.769 70.9622C121.4 70.9622 120.172 70.6603 119.086 70.0565C118.012 69.4393 117.174 68.5873 116.57 67.5005C115.966 66.4137 115.664 65.1725 115.664 63.7771ZM144.721 62.0463L144.157 64.6828H146.572V67.7822H143.493L142.829 70.8616H139.609L140.273 67.7822H136.932L136.268 70.8616H133.048L133.712 67.7822H130.733V64.6828H134.376L134.939 62.0463H132.021V58.9468H135.583L136.227 55.9682H139.448L138.804 58.9468H142.145L142.789 55.9682H146.009L145.365 58.9468H147.86V62.0463H144.721ZM141.501 62.0463H138.16L137.596 64.6828H140.937L141.501 62.0463Z" fill="#FFFEFD"/>
</svg>
