<svg width="216" height="196" viewBox="0 0 216 196" fill="none" xmlns="http://www.w3.org/2000/svg">
<line y1="15.5748" x2="215.305" y2="15.5748" stroke="#1C1C1C" stroke-width="2.48223"/>
<line y1="47.8438" x2="215.305" y2="47.8438" stroke="#1C1C1C" stroke-width="2.48223"/>
<line y1="80.1128" x2="215.305" y2="80.1128" stroke="#1C1C1C" stroke-width="2.48223"/>
<line y1="112.382" x2="215.305" y2="112.382" stroke="#1C1C1C" stroke-width="2.48223"/>
<line y1="144.651" x2="215.305" y2="144.651" stroke="#1C1C1C" stroke-width="2.48223"/>
<path d="M26.3752 126.034C28.7076 110.313 37.894 83.5879 55.9796 102.453C78.5865 126.034 36.6021 163.268 16.1482 138.445C-0.214968 118.587 28.9147 85.8622 41.4465 66.4605C53.9782 47.0587 63.838 -0.0633379 41.4465 1.92245C19.0549 3.90823 44.6758 134.101 44.6758 167.611C44.6758 201.122 32.2954 175.679 33.9106 173.817" stroke="#1C1C1C" stroke-width="3.72335" stroke-linecap="round"/>
<line x1="102" y1="176.62" x2="158" y2="176.62" stroke="#1C1C1C" stroke-width="2.48223"/>
<path d="M129.992 195.286C118.648 195.286 109.62 187.42 109.62 177.91C109.62 168.4 118.648 160.534 129.992 160.534C141.336 160.534 150.364 168.4 150.364 177.91C150.364 187.42 141.336 195.286 129.992 195.286Z" fill="#1C1C1C" stroke="#1C1C1C" stroke-width="1.24112"/>
<path d="M147.508 179.151C147.508 180.179 148.341 181.012 149.37 181.012C150.398 181.012 151.231 180.179 151.231 179.151L149.37 179.151L147.508 179.151ZM149.37 179.151L151.231 179.151L151.231 79.8615L149.37 79.8616L147.508 79.8616L147.508 179.151L149.37 179.151Z" fill="#1C1C1C"/>
<mask id="path-10-outside-1_1_310" maskUnits="userSpaceOnUse" x="120" y="166.862" width="21" height="21" fill="black">
<rect fill="white" x="120" y="166.862" width="21" height="21"/>
<path d="M121.819 177.124C121.819 175.403 122.191 173.872 122.936 172.532C123.681 171.175 124.715 170.124 126.039 169.38C127.379 168.618 128.893 168.238 130.581 168.238C132.65 168.238 134.421 168.784 135.893 169.876C137.366 170.968 138.351 172.458 138.847 174.344H134.181C133.833 173.616 133.337 173.062 132.691 172.681C132.062 172.3 131.343 172.11 130.532 172.11C129.224 172.11 128.165 172.565 127.355 173.475C126.544 174.385 126.138 175.602 126.138 177.124C126.138 178.647 126.544 179.863 127.355 180.773C128.165 181.683 129.224 182.138 130.532 182.138C131.343 182.138 132.062 181.948 132.691 181.567C133.337 181.187 133.833 180.632 134.181 179.904H138.847C138.351 181.791 137.366 183.28 135.893 184.372C134.421 185.448 132.65 185.986 130.581 185.986C128.893 185.986 127.379 185.613 126.039 184.869C124.715 184.107 123.681 183.057 122.936 181.716C122.191 180.376 121.819 178.845 121.819 177.124Z"/>
</mask>
<path d="M121.819 177.124C121.819 175.403 122.191 173.872 122.936 172.532C123.681 171.175 124.715 170.124 126.039 169.38C127.379 168.618 128.893 168.238 130.581 168.238C132.65 168.238 134.421 168.784 135.893 169.876C137.366 170.968 138.351 172.458 138.847 174.344H134.181C133.833 173.616 133.337 173.062 132.691 172.681C132.062 172.3 131.343 172.11 130.532 172.11C129.224 172.11 128.165 172.565 127.355 173.475C126.544 174.385 126.138 175.602 126.138 177.124C126.138 178.647 126.544 179.863 127.355 180.773C128.165 181.683 129.224 182.138 130.532 182.138C131.343 182.138 132.062 181.948 132.691 181.567C133.337 181.187 133.833 180.632 134.181 179.904H138.847C138.351 181.791 137.366 183.28 135.893 184.372C134.421 185.448 132.65 185.986 130.581 185.986C128.893 185.986 127.379 185.613 126.039 184.869C124.715 184.107 123.681 183.057 122.936 181.716C122.191 180.376 121.819 178.845 121.819 177.124Z" fill="#FFFEFD"/>
<path d="M122.936 172.532L124.021 173.135L124.024 173.129L122.936 172.532ZM126.039 169.38L126.647 170.461L126.652 170.459L126.039 169.38ZM135.893 169.876L136.633 168.879V168.879L135.893 169.876ZM138.847 174.344V175.585H140.457L140.048 174.028L138.847 174.344ZM134.181 174.344L133.061 174.879L133.398 175.585H134.181V174.344ZM132.691 172.681L132.049 173.743L132.055 173.746L132.061 173.75L132.691 172.681ZM127.355 173.475L128.281 174.301H128.281L127.355 173.475ZM127.355 180.773L126.428 181.599L127.355 180.773ZM132.691 181.567L132.061 180.498L132.055 180.502L132.049 180.506L132.691 181.567ZM134.181 179.904V178.663H133.398L133.061 179.37L134.181 179.904ZM138.847 179.904L140.048 180.22L140.457 178.663H138.847V179.904ZM135.893 184.372L136.625 185.375L136.633 185.369L135.893 184.372ZM126.039 184.869L125.42 185.945L125.428 185.949L125.436 185.954L126.039 184.869ZM122.936 181.716L124.021 181.114V181.114L122.936 181.716ZM121.819 177.124H123.06C123.06 175.588 123.391 174.269 124.021 173.135L122.936 172.532L121.851 171.929C120.992 173.476 120.578 175.218 120.578 177.124H121.819ZM122.936 172.532L124.024 173.129C124.66 171.971 125.53 171.09 126.647 170.461L126.039 169.38L125.43 168.298C123.901 169.158 122.702 170.379 121.848 171.935L122.936 172.532ZM126.039 169.38L126.652 170.459C127.788 169.814 129.087 169.479 130.581 169.479V168.238V166.997C128.7 166.997 126.971 167.423 125.426 168.3L126.039 169.38ZM130.581 168.238V169.479C132.419 169.479 133.922 169.959 135.154 170.873L135.893 169.876L136.633 168.879C134.919 167.608 132.88 166.997 130.581 166.997V168.238ZM135.893 169.876L135.154 170.873C136.385 171.786 137.217 173.027 137.647 174.66L138.847 174.344L140.048 174.028C139.484 171.888 138.347 170.15 136.633 168.879L135.893 169.876ZM138.847 174.344V173.103H134.181V174.344V175.585H138.847V174.344ZM134.181 174.344L135.301 173.809C134.855 172.876 134.196 172.128 133.322 171.612L132.691 172.681L132.061 173.75C132.477 173.995 132.811 174.355 133.061 174.879L134.181 174.344ZM132.691 172.681L133.334 171.619C132.492 171.109 131.545 170.869 130.532 170.869V172.11V173.351C131.14 173.351 131.633 173.491 132.049 173.743L132.691 172.681ZM130.532 172.11V170.869C128.899 170.869 127.493 171.454 126.428 172.65L127.355 173.475L128.281 174.301C128.838 173.676 129.55 173.351 130.532 173.351V172.11ZM127.355 173.475L126.428 172.65C125.368 173.84 124.897 175.376 124.897 177.124H126.138H127.379C127.379 175.827 127.72 174.931 128.281 174.301L127.355 173.475ZM126.138 177.124H124.897C124.897 178.872 125.368 180.409 126.428 181.599L127.355 180.773L128.281 179.947C127.72 179.317 127.379 178.421 127.379 177.124H126.138ZM127.355 180.773L126.428 181.599C127.493 182.794 128.899 183.379 130.532 183.379V182.138V180.897C129.55 180.897 128.838 180.572 128.281 179.947L127.355 180.773ZM130.532 182.138V183.379C131.545 183.379 132.492 183.139 133.334 182.629L132.691 181.567L132.049 180.506C131.633 180.757 131.14 180.897 130.532 180.897V182.138ZM132.691 181.567L133.322 182.636C134.196 182.121 134.855 181.372 135.301 180.439L134.181 179.904L133.061 179.37C132.811 179.893 132.477 180.253 132.061 180.498L132.691 181.567ZM134.181 179.904V181.145H138.847V179.904V178.663H134.181V179.904ZM138.847 179.904L137.647 179.588C137.217 181.221 136.385 182.462 135.154 183.375L135.893 184.372L136.633 185.369C138.347 184.098 139.484 182.361 140.048 180.22L138.847 179.904ZM135.893 184.372L135.161 183.37C133.929 184.27 132.424 184.745 130.581 184.745V185.986V187.227C132.876 187.227 134.912 186.626 136.625 185.375L135.893 184.372ZM130.581 185.986V184.745C129.083 184.745 127.78 184.416 126.642 183.784L126.039 184.869L125.436 185.954C126.979 186.811 128.704 187.227 130.581 187.227V185.986ZM126.039 184.869L126.658 183.793C125.53 183.144 124.657 182.258 124.021 181.114L122.936 181.716L121.851 182.319C122.705 183.856 123.9 185.07 125.42 185.945L126.039 184.869ZM122.936 181.716L124.021 181.114C123.391 179.979 123.06 178.66 123.06 177.124H121.819H120.578C120.578 179.03 120.992 180.773 121.851 182.319L122.936 181.716Z" fill="#1C1C1C" mask="url(#path-10-outside-1_1_310)"/>
</svg>
