<svg width="216" height="187" viewBox="0 0 216 187" fill="none" xmlns="http://www.w3.org/2000/svg">
<line x1="2.67029e-05" y1="15.5748" x2="215.305" y2="15.5748" stroke="#1C1C1C" stroke-width="2.48223"/>
<line x1="2.67029e-05" y1="47.8438" x2="215.305" y2="47.8438" stroke="#1C1C1C" stroke-width="2.48223"/>
<line x1="2.67029e-05" y1="80.1128" x2="215.305" y2="80.1128" stroke="#1C1C1C" stroke-width="2.48223"/>
<line x1="2.67029e-05" y1="112.382" x2="215.305" y2="112.382" stroke="#1C1C1C" stroke-width="2.48223"/>
<line x1="2.67029e-05" y1="144.651" x2="215.305" y2="144.651" stroke="#1C1C1C" stroke-width="2.48223"/>
<path d="M26.3752 126.034C28.7076 110.313 37.894 83.5879 55.9796 102.453C78.5866 126.034 36.6021 163.268 16.1482 138.445C-0.214957 118.587 28.9147 85.8622 41.4465 66.4605C53.9783 47.0587 63.838 -0.0633379 41.4465 1.92245C19.055 3.90823 44.6758 134.101 44.6758 167.611C44.6758 201.122 32.2954 175.679 33.9106 173.817" stroke="#1C1C1C" stroke-width="3.72335" stroke-linecap="round"/>
<path d="M127.992 179.286C116.648 179.286 107.62 171.42 107.62 161.91C107.62 152.4 116.648 144.534 127.992 144.534C139.336 144.534 148.364 152.4 148.364 161.91C148.364 171.42 139.336 179.286 127.992 179.286Z" fill="#1C1C1C" stroke="#1C1C1C" stroke-width="1.24112"/>
<path d="M145.508 163.151C145.508 164.179 146.341 165.013 147.37 165.013C148.398 165.013 149.231 164.179 149.231 163.151L147.37 163.151L145.508 163.151ZM147.37 163.151L149.231 163.151L149.231 63.8616L147.37 63.8616L145.508 63.8616L145.508 163.151L147.37 163.151Z" fill="#1C1C1C"/>
<mask id="path-9-outside-1_1_317" maskUnits="userSpaceOnUse" x="120" y="150.862" width="19" height="21" fill="black">
<rect fill="white" x="120" y="150.862" width="19" height="21"/>
<path d="M128.067 152.436C129.904 152.436 131.509 152.8 132.883 153.528C134.256 154.257 135.315 155.283 136.06 156.606C136.821 157.914 137.202 159.428 137.202 161.149C137.202 162.853 136.821 164.368 136.06 165.691C135.315 167.015 134.248 168.041 132.858 168.769C131.484 169.498 129.888 169.862 128.067 169.862H121.539V152.436H128.067ZM127.794 166.188C129.399 166.188 130.649 165.749 131.542 164.872C132.436 163.995 132.883 162.754 132.883 161.149C132.883 159.544 132.436 158.294 131.542 157.401C130.649 156.507 129.399 156.06 127.794 156.06H125.784V166.188H127.794Z"/>
</mask>
<path d="M128.067 152.436C129.904 152.436 131.509 152.8 132.883 153.528C134.256 154.257 135.315 155.283 136.06 156.606C136.821 157.914 137.202 159.428 137.202 161.149C137.202 162.853 136.821 164.368 136.06 165.691C135.315 167.015 134.248 168.041 132.858 168.769C131.484 169.498 129.888 169.862 128.067 169.862H121.539V152.436H128.067ZM127.794 166.188C129.399 166.188 130.649 165.749 131.542 164.872C132.436 163.995 132.883 162.754 132.883 161.149C132.883 159.544 132.436 158.294 131.542 157.401C130.649 156.507 129.399 156.06 127.794 156.06H125.784V166.188H127.794Z" fill="#FFFEFD"/>
<path d="M132.883 153.528L133.464 152.432L133.464 152.432L132.883 153.528ZM136.06 156.606L134.978 157.215L134.983 157.223L134.987 157.231L136.06 156.606ZM136.06 165.691L134.984 165.073L134.978 165.083L136.06 165.691ZM132.858 168.769L132.282 167.67L132.277 167.673L132.858 168.769ZM121.539 169.862H120.298V171.103H121.539V169.862ZM121.539 152.436V151.195H120.298V152.436H121.539ZM125.784 156.06V154.819H124.542V156.06H125.784ZM125.784 166.188H124.542V167.429H125.784V166.188ZM128.067 152.436V153.677C129.738 153.677 131.137 154.008 132.301 154.625L132.883 153.528L133.464 152.432C131.882 151.593 130.07 151.195 128.067 151.195V152.436ZM132.883 153.528L132.301 154.625C133.47 155.245 134.353 156.103 134.978 157.215L136.06 156.606L137.142 155.998C136.278 154.462 135.043 153.269 133.464 152.432L132.883 153.528ZM136.06 156.606L134.987 157.231C135.624 158.324 135.961 159.617 135.961 161.149H137.202H138.443C138.443 159.239 138.019 157.504 137.133 155.982L136.06 156.606ZM137.202 161.149H135.961C135.961 162.662 135.625 163.958 134.984 165.073L136.06 165.691L137.136 166.31C138.018 164.777 138.443 163.045 138.443 161.149H137.202ZM136.06 165.691L134.978 165.083C134.355 166.191 133.467 167.049 132.282 167.67L132.858 168.769L133.434 169.869C135.029 169.033 136.275 167.84 137.142 166.3L136.06 165.691ZM132.858 168.769L132.277 167.673C131.111 168.291 129.72 168.62 128.067 168.62V169.862V171.103C130.056 171.103 131.858 170.704 133.439 169.866L132.858 168.769ZM128.067 169.862V168.62H121.539V169.862V171.103H128.067V169.862ZM121.539 169.862H122.78V152.436H121.539H120.298V169.862H121.539ZM121.539 152.436V153.677H128.067V152.436V151.195H121.539V152.436ZM127.794 166.188V167.429C129.629 167.429 131.226 166.922 132.412 165.758L131.542 164.872L130.673 163.987C130.072 164.577 129.17 164.947 127.794 164.947V166.188ZM131.542 164.872L132.412 165.758C133.605 164.587 134.124 162.989 134.124 161.149H132.883H131.642C131.642 162.52 131.267 163.404 130.673 163.987L131.542 164.872ZM132.883 161.149H134.124C134.124 159.308 133.605 157.708 132.42 156.523L131.542 157.401L130.665 158.278C131.267 158.881 131.642 159.779 131.642 161.149H132.883ZM131.542 157.401L132.42 156.523C131.235 155.338 129.635 154.819 127.794 154.819V156.06V157.301C129.164 157.301 130.063 157.676 130.665 158.278L131.542 157.401ZM127.794 156.06V154.819H125.784V156.06V157.301H127.794V156.06ZM125.784 156.06H124.542V166.188H125.784H127.025V156.06H125.784ZM125.784 166.188V167.429H127.794V166.188V164.947H125.784V166.188Z" fill="#1C1C1C" mask="url(#path-9-outside-1_1_317)"/>
</svg>
