<svg width="216" height="187" viewBox="0 0 216 187" fill="none" xmlns="http://www.w3.org/2000/svg">
<line x1="3.05176e-05" y1="15.5748" x2="215.305" y2="15.5748" stroke="#1C1C1C" stroke-width="2.48223"/>
<line x1="3.05176e-05" y1="47.8438" x2="215.305" y2="47.8438" stroke="#1C1C1C" stroke-width="2.48223"/>
<line x1="3.05176e-05" y1="80.1128" x2="215.305" y2="80.1128" stroke="#1C1C1C" stroke-width="2.48223"/>
<line x1="3.05176e-05" y1="112.382" x2="215.305" y2="112.382" stroke="#1C1C1C" stroke-width="2.48223"/>
<line x1="3.05176e-05" y1="144.651" x2="215.305" y2="144.651" stroke="#1C1C1C" stroke-width="2.48223"/>
<path d="M26.3752 126.034C28.7076 110.313 37.894 83.5879 55.9796 102.453C78.5865 126.034 36.6021 163.268 16.1482 138.445C-0.214968 118.587 28.9147 85.8622 41.4465 66.4605C53.9782 47.0587 63.838 -0.0633379 41.4465 1.92245C19.0549 3.90823 44.6758 134.101 44.6758 167.611C44.6758 201.122 32.2954 175.679 33.9106 173.817" stroke="#1C1C1C" stroke-width="3.72335" stroke-linecap="round"/>
<path d="M134.992 162.286C123.648 162.286 114.62 154.42 114.62 144.91C114.62 135.4 123.648 127.534 134.992 127.534C146.336 127.534 155.364 135.4 155.364 144.91C155.364 154.42 146.336 162.286 134.992 162.286Z" fill="#1C1C1C" stroke="#1C1C1C" stroke-width="1.24112"/>
<path d="M152.508 146.151C152.508 147.179 153.341 148.013 154.37 148.013C155.398 148.013 156.231 147.179 156.231 146.151L154.37 146.151L152.508 146.151ZM154.37 146.151L156.231 146.151L156.231 46.8616L154.37 46.8616L152.508 46.8616L152.508 146.151L154.37 146.151Z" fill="#1C1C1C"/>
<mask id="path-9-outside-1_1_316" maskUnits="userSpaceOnUse" x="129" y="133.862" width="14" height="21" fill="black">
<rect fill="white" x="129" y="133.862" width="14" height="21"/>
<path d="M134.784 138.837V142.362H140.468V145.638H134.784V149.461H141.213V152.862H130.539V135.436H141.213V138.837H134.784Z"/>
</mask>
<path d="M134.784 138.837V142.362H140.468V145.638H134.784V149.461H141.213V152.862H130.539V135.436H141.213V138.837H134.784Z" fill="#FFFEFD"/>
<path d="M134.784 138.837V137.596H133.542V138.837H134.784ZM134.784 142.362H133.542V143.603H134.784V142.362ZM140.468 142.362H141.709V141.121H140.468V142.362ZM140.468 145.638V146.879H141.709V145.638H140.468ZM134.784 145.638V144.397H133.542V145.638H134.784ZM134.784 149.461H133.542V150.702H134.784V149.461ZM141.213 149.461H142.454V148.22H141.213V149.461ZM141.213 152.862V154.103H142.454V152.862H141.213ZM130.539 152.862H129.298V154.103H130.539V152.862ZM130.539 135.436V134.195H129.298V135.436H130.539ZM141.213 135.436H142.454V134.195H141.213V135.436ZM141.213 138.837V140.078H142.454V138.837H141.213ZM134.784 138.837H133.542V142.362H134.784H136.025V138.837H134.784ZM134.784 142.362V143.603H140.468V142.362V141.121H134.784V142.362ZM140.468 142.362H139.227V145.638H140.468H141.709V142.362H140.468ZM140.468 145.638V144.397H134.784V145.638V146.879H140.468V145.638ZM134.784 145.638H133.542V149.461H134.784H136.025V145.638H134.784ZM134.784 149.461V150.702H141.213V149.461V148.22H134.784V149.461ZM141.213 149.461H139.971V152.862H141.213H142.454V149.461H141.213ZM141.213 152.862V151.62H130.539V152.862V154.103H141.213V152.862ZM130.539 152.862H131.78V135.436H130.539H129.298V152.862H130.539ZM130.539 135.436V136.677H141.213V135.436V134.195H130.539V135.436ZM141.213 135.436H139.971V138.837H141.213H142.454V135.436H141.213ZM141.213 138.837V137.596H134.784V138.837V140.078H141.213V138.837Z" fill="#1C1C1C" mask="url(#path-9-outside-1_1_316)"/>
</svg>
