<svg width="216" height="187" viewBox="0 0 216 187" fill="none" xmlns="http://www.w3.org/2000/svg">
<line x1="2.67029e-05" y1="15.5748" x2="215.305" y2="15.5748" stroke="#1C1C1C" stroke-width="2.48223"/>
<line x1="2.67029e-05" y1="47.8438" x2="215.305" y2="47.8438" stroke="#1C1C1C" stroke-width="2.48223"/>
<line x1="2.67029e-05" y1="80.1128" x2="215.305" y2="80.1128" stroke="#1C1C1C" stroke-width="2.48223"/>
<line x1="2.67029e-05" y1="112.382" x2="215.305" y2="112.382" stroke="#1C1C1C" stroke-width="2.48223"/>
<line x1="2.67029e-05" y1="144.651" x2="215.305" y2="144.651" stroke="#1C1C1C" stroke-width="2.48223"/>
<path d="M26.3752 126.034C28.7076 110.313 37.894 83.5879 55.9796 102.453C78.5866 126.034 36.6021 163.268 16.1482 138.445C-0.214957 118.587 28.9147 85.8622 41.4465 66.4605C53.9783 47.0587 63.838 -0.0633379 41.4465 1.92245C19.055 3.90823 44.6758 134.101 44.6758 167.611C44.6758 201.122 32.2954 175.679 33.9106 173.817" stroke="#1C1C1C" stroke-width="3.72335" stroke-linecap="round"/>
<path d="M133.992 13.4821C145.336 13.4821 154.364 21.348 154.364 30.858C154.364 40.3681 145.336 48.234 133.992 48.234C122.648 48.234 113.62 40.3681 113.62 30.858C113.62 21.348 122.648 13.4821 133.992 13.4821Z" fill="#1C1C1C" stroke="#1C1C1C" stroke-width="1.24112"/>
<path d="M116.476 29.617C116.476 28.5888 115.643 27.7553 114.615 27.7553C113.587 27.7553 112.753 28.5888 112.753 29.617L114.615 29.617L116.476 29.617ZM114.615 29.617L112.753 29.617L112.753 128.906L114.615 128.906L116.476 128.906L116.476 29.617L114.615 29.617Z" fill="#1C1C1C"/>
<mask id="path-9-outside-1_1_319" maskUnits="userSpaceOnUse" x="126.995" y="20.8619" width="14" height="21" fill="black">
<rect fill="white" x="126.995" y="20.8619" width="14" height="21"/>
<path d="M132.778 25.8373V29.3621H138.463V32.6386H132.778V36.4613H139.207V39.8619H128.534V22.4367H139.207V25.8373H132.778Z"/>
</mask>
<path d="M132.778 25.8373V29.3621H138.463V32.6386H132.778V36.4613H139.207V39.8619H128.534V22.4367H139.207V25.8373H132.778Z" fill="#FFFEFD"/>
<path d="M132.778 25.8373V24.5962H131.537V25.8373H132.778ZM132.778 29.3621H131.537V30.6032H132.778V29.3621ZM138.463 29.3621H139.704V28.121H138.463V29.3621ZM138.463 32.6386V33.8798H139.704V32.6386H138.463ZM132.778 32.6386V31.3975H131.537V32.6386H132.778ZM132.778 36.4613H131.537V37.7024H132.778V36.4613ZM139.207 36.4613H140.448V35.2202H139.207V36.4613ZM139.207 39.8619V41.1031H140.448V39.8619H139.207ZM128.534 39.8619H127.293V41.1031H128.534V39.8619ZM128.534 22.4367V21.1956H127.293V22.4367H128.534ZM139.207 22.4367H140.448V21.1956H139.207V22.4367ZM139.207 25.8373V27.0784H140.448V25.8373H139.207ZM132.778 25.8373H131.537V29.3621H132.778H134.019V25.8373H132.778ZM132.778 29.3621V30.6032H138.463V29.3621V28.121H132.778V29.3621ZM138.463 29.3621H137.222V32.6386H138.463H139.704V29.3621H138.463ZM138.463 32.6386V31.3975H132.778V32.6386V33.8798H138.463V32.6386ZM132.778 32.6386H131.537V36.4613H132.778H134.019V32.6386H132.778ZM132.778 36.4613V37.7024H139.207V36.4613V35.2202H132.778V36.4613ZM139.207 36.4613H137.966V39.8619H139.207H140.448V36.4613H139.207ZM139.207 39.8619V38.6208H128.534V39.8619V41.1031H139.207V39.8619ZM128.534 39.8619H129.775V22.4367H128.534H127.293V39.8619H128.534ZM128.534 22.4367V23.6778H139.207V22.4367V21.1956H128.534V22.4367ZM139.207 22.4367H137.966V25.8373H139.207H140.448V22.4367H139.207ZM139.207 25.8373V24.5962H132.778V25.8373V27.0784H139.207V25.8373Z" fill="#1C1C1C" mask="url(#path-9-outside-1_1_319)"/>
</svg>
