<svg width="216" height="189" viewBox="0 0 216 189" fill="none" xmlns="http://www.w3.org/2000/svg">
<line x1="3.05176e-05" y1="17.7132" x2="215.305" y2="17.7132" stroke="#1C1C1C" stroke-width="2.48223"/>
<line x1="3.05176e-05" y1="49.9822" x2="215.305" y2="49.9822" stroke="#1C1C1C" stroke-width="2.48223"/>
<line x1="3.05176e-05" y1="82.2512" x2="215.305" y2="82.2512" stroke="#1C1C1C" stroke-width="2.48223"/>
<line x1="3.05176e-05" y1="114.52" x2="215.305" y2="114.52" stroke="#1C1C1C" stroke-width="2.48223"/>
<line x1="3.05176e-05" y1="146.789" x2="215.305" y2="146.789" stroke="#1C1C1C" stroke-width="2.48223"/>
<path d="M26.3752 128.172C28.7076 112.452 37.894 85.7263 55.9796 104.591C78.5865 128.172 36.6021 165.406 16.1482 140.584C-0.214968 120.726 28.9147 88.0007 41.4465 68.5989C53.9782 49.1971 63.838 2.07509 41.4465 4.06088C19.0549 6.04666 44.6758 136.24 44.6758 169.75C44.6758 203.26 32.2954 177.817 33.9106 175.955" stroke="#1C1C1C" stroke-width="3.72335" stroke-linecap="round"/>
<path d="M131.992 0.620116C143.336 0.620116 152.364 8.48605 152.364 17.9961C152.364 27.5062 143.336 35.3721 131.992 35.3721C120.648 35.3721 111.62 27.5062 111.62 17.9961C111.62 8.48606 120.648 0.620126 131.992 0.620116Z" fill="#1C1C1C" stroke="#1C1C1C" stroke-width="1.24112"/>
<path d="M114.476 16.7551C114.476 15.7269 113.643 14.8934 112.615 14.8934C111.587 14.8934 110.753 15.7269 110.753 16.7551L112.615 16.7551L114.476 16.7551ZM112.615 16.7551L110.753 16.7551L110.753 116.044L112.615 116.044L114.476 116.044L114.476 16.7551L112.615 16.7551Z" fill="#1C1C1C"/>
<path d="M127.446 10.9157V13.673H121.689V16.6517H125.996V19.3284H121.689V25.0443H118.248V10.9157H127.446ZM142.397 16.229L141.833 18.8655H144.248V21.965H141.169L140.505 25.0443H137.285L137.949 21.965H134.608L133.944 25.0443H130.724L131.388 21.965H128.409V18.8655H132.052L132.615 16.229H129.697V13.1296H133.259L133.903 10.1509H137.124L136.48 13.1296H139.821L140.465 10.1509H143.685L143.041 13.1296H145.536V16.229H142.397ZM139.177 16.229H135.836L135.272 18.8655H138.613L139.177 16.229Z" fill="#FFFEFD"/>
</svg>
