<svg width="216" height="187" viewBox="0 0 216 187" fill="none" xmlns="http://www.w3.org/2000/svg">
<line y1="15.5748" x2="215.305" y2="15.5748" stroke="#1C1C1C" stroke-width="2.48223"/>
<line y1="47.8438" x2="215.305" y2="47.8438" stroke="#1C1C1C" stroke-width="2.48223"/>
<line y1="80.1128" x2="215.305" y2="80.1128" stroke="#1C1C1C" stroke-width="2.48223"/>
<line y1="112.382" x2="215.305" y2="112.382" stroke="#1C1C1C" stroke-width="2.48223"/>
<line y1="144.651" x2="215.305" y2="144.651" stroke="#1C1C1C" stroke-width="2.48223"/>
<path d="M26.3752 126.034C28.7076 110.313 37.894 83.5879 55.9796 102.453C78.5865 126.034 36.6021 163.268 16.1482 138.445C-0.214968 118.587 28.9147 85.8622 41.4465 66.4605C53.9782 47.0587 63.838 -0.0633379 41.4465 1.92245C19.0549 3.90823 44.6758 134.101 44.6758 167.611C44.6758 201.122 32.2954 175.679 33.9106 173.817" stroke="#1C1C1C" stroke-width="3.72335" stroke-linecap="round"/>
<path d="M129.927 146.286C118.583 146.286 109.555 138.42 109.555 128.91C109.555 119.4 118.583 111.534 129.927 111.534C141.271 111.534 150.299 119.4 150.299 128.91C150.299 138.42 141.271 146.286 129.927 146.286Z" fill="#1C1C1C" stroke="#1C1C1C" stroke-width="1.24112"/>
<path d="M147.443 130.151C147.443 131.179 148.276 132.012 149.304 132.012C150.332 132.012 151.166 131.179 151.166 130.151L149.304 130.151L147.443 130.151ZM149.304 130.151L151.166 130.151L151.166 30.8615L149.304 30.8615L147.443 30.8615L147.443 130.151L149.304 130.151Z" fill="#1C1C1C"/>
<path d="M126.446 121.733V124.49H120.689V127.469H124.996V130.146H120.689V135.862H117.248V121.733H126.446ZM141.397 127.046L140.833 129.683H143.248V132.782H140.169L139.505 135.862H136.285L136.949 132.782H133.608L132.944 135.862H129.724L130.388 132.782H127.409V129.683H131.052L131.615 127.046H128.697V123.947H132.259L132.903 120.968H136.124L135.48 123.947H138.821L139.465 120.968H142.685L142.041 123.947H144.536V127.046H141.397ZM138.177 127.046H134.836L134.272 129.683H137.613L138.177 127.046Z" fill="#FFFEFD"/>
</svg>
