<svg width="216" height="206" viewBox="0 0 216 206" fill="none" xmlns="http://www.w3.org/2000/svg">
<line y1="34.7132" x2="215.305" y2="34.7132" stroke="#1C1C1C" stroke-width="2.48223"/>
<line y1="66.9822" x2="215.305" y2="66.9822" stroke="#1C1C1C" stroke-width="2.48223"/>
<line y1="99.2512" x2="215.305" y2="99.2512" stroke="#1C1C1C" stroke-width="2.48223"/>
<line y1="131.52" x2="215.305" y2="131.52" stroke="#1C1C1C" stroke-width="2.48223"/>
<line y1="163.789" x2="215.305" y2="163.789" stroke="#1C1C1C" stroke-width="2.48223"/>
<path d="M26.3752 145.172C28.7076 129.452 37.894 102.726 55.9796 121.591C78.5865 145.172 36.6021 182.406 16.1482 157.584C-0.214968 137.726 28.9147 105.001 41.4465 85.5989C53.9782 66.1971 63.838 19.0751 41.4465 21.0609C19.0549 23.0467 44.6758 153.24 44.6758 186.75C44.6758 220.26 32.2954 194.817 33.9106 192.955" stroke="#1C1C1C" stroke-width="3.72335" stroke-linecap="round"/>
<path d="M133.992 0.620117C145.336 0.620117 154.364 8.48606 154.364 17.9961C154.364 27.5062 145.336 35.3721 133.992 35.3721C122.648 35.3721 113.62 27.5062 113.62 17.9961C113.62 8.48606 122.648 0.620126 133.992 0.620117Z" fill="#1C1C1C" stroke="#1C1C1C" stroke-width="1.24112"/>
<path d="M116.476 16.7551C116.476 15.7269 115.643 14.8934 114.615 14.8934C113.587 14.8934 112.753 15.7269 112.753 16.7551L114.615 16.7551L116.476 16.7551ZM114.615 16.7551L112.753 16.7551L112.753 116.044L114.615 116.044L116.476 116.044L116.476 16.7551L114.615 16.7551Z" fill="#1C1C1C"/>
<path d="M127.972 14.9345C127.733 14.4938 127.387 14.1601 126.933 13.9335C126.493 13.6942 125.97 13.5746 125.366 13.5746C124.321 13.5746 123.483 13.9209 122.854 14.6134C122.224 15.2933 121.91 16.2062 121.91 17.3519C121.91 18.5733 122.237 19.5302 122.892 20.2227C123.559 20.9026 124.472 21.2426 125.63 21.2426C126.423 21.2426 127.091 21.0411 127.632 20.6382C128.186 20.2353 128.589 19.6561 128.841 18.9006H124.742V16.5209H131.768V19.5239C131.529 20.3297 131.12 21.0789 130.541 21.7714C129.974 22.4639 129.25 23.0242 128.369 23.4523C127.487 23.8804 126.493 24.0944 125.385 24.0944C124.075 24.0944 122.904 23.8111 121.872 23.2445C120.852 22.6654 120.052 21.8658 119.473 20.8459C118.907 19.8261 118.623 18.6614 118.623 17.3519C118.623 16.0425 118.907 14.8778 119.473 13.8579C120.052 12.8255 120.852 12.0259 121.872 11.4593C122.892 10.8801 124.056 10.5906 125.366 10.5906C126.952 10.5906 128.287 10.9746 129.37 11.7426C130.465 12.5107 131.189 13.5746 131.542 14.9345H127.972ZM145.89 15.7277L145.361 18.2018H147.628V21.1104H144.738L144.115 24H141.093L141.716 21.1104H138.581L137.958 24H134.936L135.559 21.1104H132.764V18.2018H136.182L136.711 15.7277H133.973V12.8192H137.316L137.92 10.024H140.942L140.337 12.8192H143.473L144.077 10.024H147.099L146.494 12.8192H148.836V15.7277H145.89ZM142.868 15.7277H139.733L139.204 18.2018H142.339L142.868 15.7277Z" fill="#FFFEFD"/>
</svg>
