<svg width="216" height="243" viewBox="0 0 216 243" fill="none" xmlns="http://www.w3.org/2000/svg">
<line y1="15.5747" x2="215.305" y2="15.5747" stroke="#1C1C1C" stroke-width="2.48223"/>
<line y1="47.8438" x2="215.305" y2="47.8438" stroke="#1C1C1C" stroke-width="2.48223"/>
<line y1="80.1128" x2="215.305" y2="80.1128" stroke="#1C1C1C" stroke-width="2.48223"/>
<line y1="112.382" x2="215.305" y2="112.382" stroke="#1C1C1C" stroke-width="2.48223"/>
<line y1="144.651" x2="215.305" y2="144.651" stroke="#1C1C1C" stroke-width="2.48223"/>
<path d="M26.3751 126.034C28.7076 110.313 37.8939 83.5879 55.9795 102.453C78.5865 126.034 36.6021 163.268 16.1482 138.445C-0.214983 118.587 28.9147 85.8622 41.4465 66.4605C53.9782 47.0587 63.838 -0.0633379 41.4465 1.92245C19.0549 3.90823 44.6758 134.101 44.6758 167.611C44.6758 201.122 32.2953 175.679 33.9106 173.817" stroke="#1C1C1C" stroke-width="3.72335" stroke-linecap="round"/>
<line x1="96" y1="176.62" x2="152" y2="176.62" stroke="#1C1C1C" stroke-width="2.48223"/>
<line x1="96" y1="208.62" x2="152" y2="208.62" stroke="#1C1C1C" stroke-width="2.48223"/>
<path d="M122.992 242.286C111.648 242.286 102.62 234.42 102.62 224.91C102.62 215.4 111.648 207.534 122.992 207.534C134.336 207.534 143.364 215.4 143.364 224.91C143.364 234.42 134.336 242.286 122.992 242.286Z" fill="#1C1C1C" stroke="#1C1C1C" stroke-width="1.24112"/>
<path d="M140.508 226.151C140.508 227.179 141.341 228.012 142.37 228.012C143.398 228.012 144.231 227.179 144.231 226.151L142.37 226.151L140.508 226.151ZM142.37 226.151L144.231 226.151L144.231 126.861L142.37 126.861L140.508 126.861L140.508 226.151L142.37 226.151Z" fill="#1C1C1C"/>
<mask id="path-11-outside-1_1_313" maskUnits="userSpaceOnUse" x="113" y="213.862" width="21" height="21" fill="black">
<rect fill="white" x="113" y="213.862" width="21" height="21"/>
<path d="M127.106 220.947C126.792 220.368 126.337 219.929 125.741 219.631C125.162 219.317 124.475 219.16 123.681 219.16C122.307 219.16 121.207 219.615 120.379 220.525C119.552 221.418 119.138 222.618 119.138 224.124C119.138 225.729 119.568 226.987 120.429 227.897C121.306 228.791 122.506 229.237 124.028 229.237C125.071 229.237 125.948 228.973 126.659 228.443C127.387 227.914 127.917 227.152 128.248 226.159H122.862V223.032H132.095V226.979C131.781 228.038 131.243 229.022 130.482 229.932C129.737 230.843 128.786 231.579 127.627 232.142C126.469 232.704 125.162 232.986 123.706 232.986C121.984 232.986 120.446 232.613 119.089 231.869C117.748 231.107 116.697 230.057 115.936 228.716C115.191 227.376 114.819 225.845 114.819 224.124C114.819 222.403 115.191 220.872 115.936 219.532C116.697 218.175 117.748 217.124 119.089 216.379C120.429 215.618 121.96 215.238 123.681 215.238C125.766 215.238 127.52 215.742 128.943 216.752C130.383 217.761 131.334 219.16 131.798 220.947H127.106Z"/>
</mask>
<path d="M127.106 220.947C126.792 220.368 126.337 219.929 125.741 219.631C125.162 219.317 124.475 219.16 123.681 219.16C122.307 219.16 121.207 219.615 120.379 220.525C119.552 221.418 119.138 222.618 119.138 224.124C119.138 225.729 119.568 226.987 120.429 227.897C121.306 228.791 122.506 229.237 124.028 229.237C125.071 229.237 125.948 228.973 126.659 228.443C127.387 227.914 127.917 227.152 128.248 226.159H122.862V223.032H132.095V226.979C131.781 228.038 131.243 229.022 130.482 229.932C129.737 230.843 128.786 231.579 127.627 232.142C126.469 232.704 125.162 232.986 123.706 232.986C121.984 232.986 120.446 232.613 119.089 231.869C117.748 231.107 116.697 230.057 115.936 228.716C115.191 227.376 114.819 225.845 114.819 224.124C114.819 222.403 115.191 220.872 115.936 219.532C116.697 218.175 117.748 217.124 119.089 216.379C120.429 215.618 121.96 215.238 123.681 215.238C125.766 215.238 127.52 215.742 128.943 216.752C130.383 217.761 131.334 219.16 131.798 220.947H127.106Z" fill="#FFFEFD"/>
<path d="M127.106 220.947L126.015 221.539L126.368 222.188H127.106V220.947ZM125.741 219.631L125.149 220.722L125.167 220.732L125.186 220.741L125.741 219.631ZM120.379 220.525L121.29 221.368L121.298 221.36L120.379 220.525ZM120.429 227.897L119.527 228.75L119.535 228.758L119.543 228.766L120.429 227.897ZM126.659 228.443L125.929 227.439L125.918 227.447L126.659 228.443ZM128.248 226.159L129.425 226.552L129.97 224.918H128.248V226.159ZM122.862 226.159H121.62V227.401H122.862V226.159ZM122.862 223.032V221.791H121.62V223.032H122.862ZM132.095 223.032H133.337V221.791H132.095V223.032ZM132.095 226.979L133.285 227.332L133.337 227.159V226.979H132.095ZM130.482 229.932L129.53 229.136L129.521 229.147L130.482 229.932ZM127.627 232.142L127.085 231.025L127.627 232.142ZM119.089 231.869L118.476 232.948L118.484 232.952L118.491 232.957L119.089 231.869ZM115.936 228.716L114.851 229.319L114.857 229.329L115.936 228.716ZM115.936 219.532L114.854 218.925L114.851 218.929L115.936 219.532ZM119.089 216.379L119.691 217.464L119.701 217.459L119.089 216.379ZM128.943 216.752L128.225 217.764L128.23 217.768L128.943 216.752ZM131.798 220.947V222.188H133.401L132.999 220.635L131.798 220.947ZM127.106 220.947L128.197 220.355C127.76 219.549 127.117 218.931 126.296 218.521L125.741 219.631L125.186 220.741C125.557 220.927 125.824 221.186 126.015 221.539L127.106 220.947ZM125.741 219.631L126.333 218.54C125.538 218.109 124.64 217.918 123.681 217.918V219.16V220.401C124.31 220.401 124.785 220.525 125.149 220.722L125.741 219.631ZM123.681 219.16V217.918C122.003 217.918 120.552 218.489 119.461 219.69L120.379 220.525L121.298 221.36C121.861 220.74 122.612 220.401 123.681 220.401V219.16ZM120.379 220.525L119.469 219.682C118.381 220.856 117.897 222.383 117.897 224.124H119.138H120.379C120.379 222.853 120.722 221.981 121.29 221.368L120.379 220.525ZM119.138 224.124H117.897C117.897 225.954 118.392 227.55 119.527 228.75L120.429 227.897L121.331 227.044C120.744 226.424 120.379 225.505 120.379 224.124H119.138ZM120.429 227.897L119.543 228.766C120.702 229.948 122.249 230.479 124.028 230.479V229.237V227.996C122.762 227.996 121.91 227.634 121.315 227.028L120.429 227.897ZM124.028 229.237V230.479C125.289 230.479 126.439 230.154 127.4 229.439L126.659 228.443L125.918 227.447C125.457 227.791 124.852 227.996 124.028 227.996V229.237ZM126.659 228.443L127.389 229.447C128.359 228.742 129.026 227.749 129.425 226.552L128.248 226.159L127.071 225.767C126.808 226.556 126.416 227.086 125.929 227.439L126.659 228.443ZM128.248 226.159V224.918H122.862V226.159V227.401H128.248V226.159ZM122.862 226.159H124.103V223.032H122.862H121.62V226.159H122.862ZM122.862 223.032V224.273H132.095V223.032V221.791H122.862V223.032ZM132.095 223.032H130.854V226.979H132.095H133.337V223.032H132.095ZM132.095 226.979L130.906 226.625C130.643 227.51 130.191 228.346 129.53 229.136L130.482 229.932L131.434 230.729C132.296 229.698 132.919 228.565 133.285 227.332L132.095 226.979ZM130.482 229.932L129.521 229.147C128.901 229.905 128.097 230.534 127.085 231.025L127.627 232.142L128.17 233.258C129.474 232.624 130.574 231.78 131.443 230.718L130.482 229.932ZM127.627 232.142L127.085 231.025C126.117 231.496 124.999 231.745 123.706 231.745V232.986V234.227C125.325 234.227 126.821 233.913 128.17 233.258L127.627 232.142ZM123.706 232.986V231.745C122.169 231.745 120.84 231.414 119.686 230.781L119.089 231.869L118.491 232.957C120.051 233.813 121.8 234.227 123.706 234.227V232.986ZM119.089 231.869L119.701 230.789C118.556 230.139 117.666 229.249 117.015 228.103L115.936 228.716L114.857 229.329C115.729 230.864 116.941 232.076 118.476 232.948L119.089 231.869ZM115.936 228.716L117.021 228.113C116.391 226.979 116.06 225.66 116.06 224.124H114.819H113.578C113.578 226.03 113.992 227.772 114.851 229.319L115.936 228.716ZM114.819 224.124H116.06C116.06 222.588 116.391 221.269 117.021 220.135L115.936 219.532L114.851 218.929C113.992 220.476 113.578 222.218 113.578 224.124H114.819ZM115.936 219.532L117.019 220.139C117.669 218.98 118.555 218.096 119.691 217.464L119.089 216.379L118.486 215.295C116.941 216.153 115.726 217.37 114.854 218.925L115.936 219.532ZM119.089 216.379L119.701 217.459C120.834 216.816 122.149 216.479 123.681 216.479V215.238V213.997C121.77 213.997 120.024 214.421 118.476 215.3L119.089 216.379ZM123.681 215.238V216.479C125.56 216.479 127.05 216.931 128.225 217.764L128.943 216.752L129.661 215.74C127.99 214.554 125.972 213.997 123.681 213.997V215.238ZM128.943 216.752L128.23 217.768C129.416 218.599 130.203 219.741 130.596 221.258L131.798 220.947L132.999 220.635C132.466 218.578 131.35 216.923 129.656 215.736L128.943 216.752ZM131.798 220.947V219.706H127.106V220.947V222.188H131.798V220.947Z" fill="#1C1C1C" mask="url(#path-11-outside-1_1_313)"/>
</svg>
