<svg width="216" height="187" viewBox="0 0 216 187" fill="none" xmlns="http://www.w3.org/2000/svg">
<line y1="15.5748" x2="215.305" y2="15.5748" stroke="#1C1C1C" stroke-width="2.48223"/>
<line y1="47.8438" x2="215.305" y2="47.8438" stroke="#1C1C1C" stroke-width="2.48223"/>
<line y1="80.1128" x2="215.305" y2="80.1128" stroke="#1C1C1C" stroke-width="2.48223"/>
<line y1="112.382" x2="215.305" y2="112.382" stroke="#1C1C1C" stroke-width="2.48223"/>
<line y1="144.651" x2="215.305" y2="144.651" stroke="#1C1C1C" stroke-width="2.48223"/>
<path d="M26.3752 126.034C28.7076 110.313 37.894 83.5879 55.9796 102.453C78.5865 126.034 36.6021 163.268 16.1482 138.445C-0.214968 118.587 28.9147 85.8622 41.4465 66.4605C53.9782 47.0587 63.838 -0.0633379 41.4465 1.92245C19.0549 3.90823 44.6758 134.101 44.6758 167.611C44.6758 201.122 32.2954 175.679 33.9106 173.817" stroke="#1C1C1C" stroke-width="3.72335" stroke-linecap="round"/>
<path d="M130.992 129.286C119.648 129.286 110.62 121.42 110.62 111.91C110.62 102.4 119.648 94.5338 130.992 94.5338C142.336 94.5339 151.364 102.4 151.364 111.91C151.364 121.42 142.336 129.286 130.992 129.286Z" fill="#1C1C1C" stroke="#1C1C1C" stroke-width="1.24112"/>
<path d="M148.508 113.151C148.508 114.179 149.341 115.013 150.37 115.013C151.398 115.013 152.231 114.179 152.231 113.151L150.37 113.151L148.508 113.151ZM150.37 113.151L152.231 113.151L152.231 13.8616L150.37 13.8616L148.508 13.8616L148.508 113.151L150.37 113.151Z" fill="#1C1C1C"/>
<path d="M133.626 109.201C133.371 108.731 133.002 108.376 132.519 108.134C132.05 107.879 131.493 107.752 130.849 107.752C129.735 107.752 128.843 108.121 128.172 108.859C127.501 109.583 127.166 110.556 127.166 111.777C127.166 113.079 127.515 114.098 128.212 114.836C128.924 115.561 129.896 115.923 131.131 115.923C131.976 115.923 132.687 115.708 133.264 115.279C133.854 114.85 134.284 114.233 134.552 113.428H130.185V110.892H137.672V114.092C137.417 114.95 136.981 115.749 136.364 116.487C135.76 117.225 134.988 117.822 134.049 118.278C133.11 118.734 132.05 118.962 130.869 118.962C129.474 118.962 128.226 118.66 127.126 118.057C126.039 117.439 125.187 116.587 124.57 115.501C123.966 114.414 123.664 113.173 123.664 111.777C123.664 110.382 123.966 109.141 124.57 108.054C125.187 106.954 126.039 106.102 127.126 105.498C128.212 104.881 129.454 104.572 130.849 104.572C132.54 104.572 133.962 104.981 135.116 105.8C136.283 106.618 137.055 107.752 137.43 109.201H133.626Z" fill="#FFFEFD"/>
</svg>
