<svg width="412" height="458" viewBox="0 0 412 458" fill="none" xmlns="http://www.w3.org/2000/svg">
<path d="M130.628 18.1525C130.263 17.4793 129.734 16.9697 129.042 16.6235C128.368 16.2581 127.57 16.0753 126.647 16.0753C125.051 16.0753 123.772 16.6042 122.81 17.662C121.849 18.7006 121.368 20.095 121.368 21.8451C121.368 23.7107 121.868 25.1724 122.868 26.2302C123.887 27.2688 125.282 27.788 127.051 27.788C128.263 27.788 129.282 27.4803 130.109 26.8649C130.955 26.2494 131.571 25.3647 131.955 24.2108H125.695V20.5758H136.427V25.1628C136.062 26.3937 135.437 27.538 134.552 28.5958C133.686 29.6536 132.58 30.5095 131.234 31.1634C129.888 31.8173 128.368 32.1442 126.676 32.1442C124.676 32.1442 122.887 31.7115 121.31 30.846C119.752 29.9613 118.531 28.7401 117.646 27.1822C116.781 25.6244 116.348 23.8453 116.348 21.8451C116.348 19.8449 116.781 18.0659 117.646 16.5081C118.531 14.931 119.752 13.7097 121.31 12.8443C122.868 11.9595 124.647 11.5172 126.647 11.5172C129.07 11.5172 131.109 12.1038 132.763 13.277C134.436 14.4502 135.542 16.0753 136.081 18.1525H130.628Z" fill="#1C1C1C"/>
<path d="M188.781 11.748C190.916 11.748 192.781 12.1711 194.377 13.0173C195.974 13.8636 197.205 15.056 198.07 16.5946C198.955 18.114 199.397 19.8738 199.397 21.874C199.397 23.855 198.955 25.6148 198.07 27.1534C197.205 28.692 195.964 29.8844 194.349 30.7306C192.752 31.5769 190.896 32 188.781 32H181.193V11.748H188.781ZM188.463 27.7303C190.329 27.7303 191.781 27.2207 192.82 26.2013C193.858 25.182 194.377 23.7396 194.377 21.874C194.377 20.0084 193.858 18.5564 192.82 17.5178C191.781 16.4792 190.329 15.9599 188.463 15.9599H186.127V27.7303H188.463Z" fill="#1C1C1C"/>
<path d="M249.695 28.4227H242.137L240.925 32H235.761L243.089 11.748H248.801L256.129 32H250.907L249.695 28.4227ZM248.426 24.6147L245.916 17.2005L243.435 24.6147H248.426Z" fill="#1C1C1C"/>
<path d="M301.523 15.7003V19.7969H308.129V23.6049H301.523V28.0477H308.995V32H296.59V11.748H308.995V15.7003H301.523Z" fill="#1C1C1C"/>
<path d="M27.8249 149.855V145.268H35.8161V166.328H30.6809V149.855H27.8249Z" fill="#1C1C1C"/>
<path d="M1.4713 363.071C1.54823 361.013 2.22137 359.427 3.49073 358.311C4.76009 357.196 6.48141 356.638 8.65471 356.638C10.0972 356.638 11.328 356.888 12.3474 357.388C13.3859 357.888 14.1649 358.571 14.6841 359.436C15.2227 360.302 15.4919 361.273 15.4919 362.35C15.4919 363.619 15.1746 364.658 14.5399 365.466C13.9052 366.254 13.1648 366.793 12.3185 367.081V367.197C13.4148 367.562 14.2803 368.168 14.9149 369.014C15.5496 369.86 15.867 370.947 15.867 372.274C15.867 373.467 15.5881 374.524 15.0303 375.448C14.4918 376.352 13.6937 377.063 12.6359 377.582C11.5973 378.102 10.3568 378.361 8.91435 378.361C6.60643 378.361 4.76009 377.794 3.37534 376.659C2.00981 375.525 1.28859 373.813 1.21166 371.524H6.0006C6.01983 372.37 6.26024 373.043 6.72182 373.544C7.18341 374.024 7.85655 374.265 8.74125 374.265C9.49133 374.265 10.0683 374.053 10.4722 373.63C10.8953 373.188 11.1069 372.611 11.1069 371.899C11.1069 370.976 10.8088 370.312 10.2126 369.909C9.63557 369.485 8.70279 369.274 7.4142 369.274H6.49103V365.264H7.4142C8.39506 365.264 9.1836 365.1 9.77982 364.773C10.3953 364.427 10.703 363.821 10.703 362.956C10.703 362.264 10.5107 361.725 10.126 361.34C9.74135 360.956 9.21245 360.763 8.53931 360.763C7.80847 360.763 7.26034 360.985 6.89492 361.427C6.54873 361.869 6.34678 362.417 6.28909 363.071H1.4713Z" fill="#1C1C1C"/>
<path d="M8.33736 308.424C8.99127 307.905 9.28938 307.664 9.23168 307.703C11.1165 306.145 12.5974 304.866 13.6744 303.866C14.7707 302.866 15.6939 301.818 16.4439 300.721C17.194 299.625 17.569 298.558 17.569 297.519C17.569 296.731 17.3863 296.115 17.0209 295.673C16.6555 295.23 16.1074 295.009 15.3765 295.009C14.6457 295.009 14.0687 295.288 13.6456 295.846C13.2417 296.384 13.0398 297.154 13.0398 298.154H8.27966C8.31813 296.519 8.66432 295.154 9.31823 294.057C9.99137 292.961 10.8665 292.153 11.9435 291.634C13.0398 291.115 14.2514 290.855 15.5785 290.855C17.8672 290.855 19.5885 291.442 20.7424 292.615C21.9156 293.788 22.5022 295.317 22.5022 297.202C22.5022 299.26 21.8002 301.173 20.3963 302.943C18.9923 304.693 17.2036 306.405 15.0303 308.078H22.8196V312.088H8.33736V308.424Z" fill="#1C1C1C"/>
<path d="M78.0136 82.9414H356.23C357.131 82.9414 357.894 83.6064 358.017 84.499L408.618 453.226C408.767 454.308 407.925 455.273 406.832 455.273H41.9335C40.8683 455.273 40.0349 454.355 40.1386 453.295L76.2196 84.5684C76.31 83.6451 77.0859 82.9415 78.0136 82.9414Z" fill="#FFFEFD" stroke="#1C1C1C" stroke-width="5.40919"/>
<path d="M125.764 68.0656L127.116 44.175" stroke="#1C1C1C" stroke-width="2.7046"/>
<path d="M306 81.5L338.976 455.292" stroke="#1C1C1C" stroke-width="2.7046"/>
<path d="M245.993 80.3411L254.636 454.149" stroke="#1C1C1C" stroke-width="2.7046"/>
<path d="M123.51 80.0847L97.3003 453.322" stroke="#1C1C1C" stroke-width="2.7046"/>
<path d="M185.037 79.9954L171.411 454.443" stroke="#1C1C1C" stroke-width="2.7046"/>
<mask id="path-14-inside-1_44_64" fill="white">
<rect x="74.8271" y="40.569" width="283.081" height="31.5536" rx="4.50766"/>
</mask>
<rect x="74.8271" y="40.569" width="283.081" height="31.5536" rx="4.50766" stroke="#1C1C1C" stroke-width="10.8184" mask="url(#path-14-inside-1_44_64)"/>
<path d="M186.37 71.7204L187.766 44.1263" stroke="#1C1C1C" stroke-width="2.7046"/>
<path d="M245.75 71.7831L245.085 44.1617" stroke="#1C1C1C" stroke-width="2.7046"/>
<path d="M304.337 70.8542L302.117 43.3142" stroke="#1C1C1C" stroke-width="2.7046"/>
<path d="M71.221 155.965L364.219 156.868" stroke="#357D58" stroke-width="9.01532" stroke-linecap="round"/>
<path d="M56.7965 307.422L385.856 307.422" stroke="#3F39C2" stroke-width="9.01532" stroke-linecap="round"/>
<path d="M49.5842 373.234L394.871 373.234" stroke="#B30000" stroke-width="9.01532" stroke-linecap="round"/>
<circle cx="116.603" cy="156.603" r="22.6027" fill="#357D58"/>
<path d="M119.96 162.25H113.643L112.631 165.24H108.315L114.439 148.315H119.213L125.336 165.24H120.973L119.96 162.25ZM118.899 159.068L116.802 152.872L114.728 159.068H118.899Z" fill="#FFFEFD"/>
<circle cx="331.603" cy="373.603" r="22.6027" fill="#B30000"/>
<path d="M333.96 379.25H327.643L326.631 382.24H322.315L328.439 365.315H333.213L339.336 382.24H334.973L333.96 379.25ZM332.899 376.068L330.802 369.872L328.728 376.068H332.899Z" fill="#FFFEFD"/>
<circle cx="254.603" cy="308.603" r="22.6027" fill="#3F39C2"/>
<path d="M238.027 309.21C238.027 307.756 238.342 306.462 238.972 305.328C239.601 304.181 240.476 303.293 241.595 302.663C242.728 302.02 244.008 301.698 245.435 301.698C247.184 301.698 248.68 302.16 249.925 303.083C251.171 304.006 252.003 305.265 252.423 306.86H248.478C248.184 306.245 247.764 305.776 247.219 305.454C246.687 305.132 246.078 304.972 245.393 304.972C244.288 304.972 243.392 305.356 242.707 306.126C242.021 306.895 241.679 307.923 241.679 309.21C241.679 310.497 242.021 311.526 242.707 312.295C243.392 313.065 244.288 313.449 245.393 313.449C246.078 313.449 246.687 313.288 247.219 312.967C247.764 312.645 248.184 312.176 248.478 311.561H252.423C252.003 313.155 251.171 314.415 249.925 315.338C248.68 316.247 247.184 316.702 245.435 316.702C244.008 316.702 242.728 316.387 241.595 315.758C240.476 315.114 239.601 314.226 238.972 313.093C238.342 311.959 238.027 310.665 238.027 309.21Z" fill="#FFFEFD"/>
<path d="M268.323 307.406L267.735 310.155H270.253V313.386H267.043L266.35 316.597H262.993L263.685 313.386H260.202L259.509 316.597H256.152L256.844 313.386H253.739V310.155H257.537L258.124 307.406H255.082V304.174H258.796L259.467 301.069H262.825L262.153 304.174H265.637L266.308 301.069H269.666L268.994 304.174H271.596V307.406H268.323ZM264.965 307.406H261.482L260.894 310.155H264.378L264.965 307.406Z" fill="#FFFEFD"/>
<circle cx="247.603" cy="156.603" r="22.6027" fill="#357D58"/>
<path d="M251.069 156.561C252.049 156.769 252.837 157.26 253.431 158.031C254.026 158.787 254.323 159.655 254.323 160.635C254.323 162.049 253.825 163.175 252.829 164.01C251.848 164.83 250.474 165.24 248.706 165.24H240.822V148.315H248.441C250.16 148.315 251.503 148.709 252.467 149.496C253.447 150.284 253.938 151.353 253.938 152.703C253.938 153.7 253.672 154.527 253.142 155.186C252.628 155.845 251.936 156.303 251.069 156.561ZM244.945 155.162H247.645C248.32 155.162 248.834 155.018 249.188 154.728C249.558 154.423 249.743 153.981 249.743 153.402C249.743 152.824 249.558 152.382 249.188 152.076C248.834 151.771 248.32 151.618 247.645 151.618H244.945V155.162ZM247.983 161.913C248.674 161.913 249.204 161.76 249.574 161.455C249.959 161.133 250.152 160.675 250.152 160.081C250.152 159.486 249.951 159.02 249.55 158.682C249.164 158.345 248.625 158.176 247.934 158.176H244.945V161.913H247.983Z" fill="#FFFEFD"/>
<circle cx="105.603" cy="308.603" r="22.6027" fill="#3F39C2"/>
<path d="M109.069 308.561C110.049 308.769 110.837 309.26 111.431 310.031C112.026 310.787 112.323 311.655 112.323 312.635C112.323 314.049 111.825 315.175 110.829 316.01C109.848 316.83 108.474 317.24 106.706 317.24H98.8219V300.315H106.441C108.16 300.315 109.502 300.709 110.467 301.496C111.447 302.284 111.938 303.353 111.938 304.703C111.938 305.7 111.672 306.527 111.142 307.186C110.628 307.845 109.936 308.303 109.069 308.561ZM102.945 307.162H105.645C106.32 307.162 106.834 307.018 107.188 306.728C107.558 306.423 107.742 305.981 107.742 305.402C107.742 304.824 107.558 304.382 107.188 304.076C106.834 303.771 106.32 303.618 105.645 303.618H102.945V307.162ZM105.982 313.913C106.674 313.913 107.204 313.76 107.574 313.455C107.959 313.133 108.152 312.675 108.152 312.081C108.152 311.486 107.951 311.02 107.55 310.682C107.164 310.345 106.625 310.176 105.934 310.176H102.945V313.913H105.982Z" fill="#FFFEFD"/>
<circle cx="253.603" cy="373.603" r="22.6027" fill="#B30000"/>
<path d="M252.163 365.315C253.947 365.315 255.506 365.669 256.84 366.376C258.174 367.083 259.203 368.08 259.926 369.365C260.665 370.635 261.035 372.106 261.035 373.778C261.035 375.433 260.665 376.904 259.926 378.19C259.203 379.475 258.166 380.472 256.816 381.179C255.482 381.886 253.931 382.24 252.163 382.24H245.822V365.315H252.163ZM251.898 378.672C253.457 378.672 254.67 378.246 255.538 377.394C256.406 376.542 256.84 375.337 256.84 373.778C256.84 372.218 256.406 371.005 255.538 370.137C254.67 369.269 253.457 368.835 251.898 368.835H249.945V378.672H251.898Z" fill="#FFFEFD"/>
<circle cx="100.603" cy="373.603" r="22.6027" fill="#B30000"/>
<path d="M93.3151 373.946C93.3151 372.275 93.6767 370.788 94.4 369.486C95.1233 368.168 96.1278 367.147 97.4137 366.424C98.7156 365.685 100.186 365.315 101.826 365.315C103.835 365.315 105.555 365.846 106.985 366.906C108.416 367.967 109.372 369.414 109.854 371.246H105.322C104.984 370.539 104.502 370 103.875 369.631C103.264 369.261 102.565 369.076 101.778 369.076C100.508 369.076 99.4791 369.518 98.6915 370.402C97.9039 371.286 97.5101 372.468 97.5101 373.946C97.5101 375.425 97.9039 376.606 98.6915 377.49C99.4791 378.374 100.508 378.816 101.778 378.816C102.565 378.816 103.264 378.632 103.875 378.262C104.502 377.892 104.984 377.354 105.322 376.647H109.854C109.372 378.479 108.416 379.926 106.985 380.986C105.555 382.031 103.835 382.553 101.826 382.553C100.186 382.553 98.7156 382.192 97.4137 381.469C96.1278 380.729 95.1233 379.709 94.4 378.407C93.6767 377.105 93.3151 375.618 93.3151 373.946Z" fill="#FFFEFD"/>
<circle cx="180.603" cy="156.603" r="22.6027" fill="#357D58"/>
<path d="M179.451 151.618V155.042H184.973V158.224H179.451V161.937H185.696V165.24H175.329V148.315H185.696V151.618H179.451Z" fill="#FFFEFD"/>
<circle cx="312.603" cy="156.603" r="22.6027" fill="#357D58"/>
<path d="M307.899 149.868V152.749H301.884V155.862H306.385V158.659H301.884V164.632H298.288V149.868H307.899Z" fill="#FFFEFD"/>
<path d="M323.523 155.42L322.934 158.175H325.458V161.414H322.24L321.546 164.632H318.181L318.875 161.414H315.384L314.69 164.632H311.325L312.019 161.414H308.906V158.175H312.713L313.302 155.42H310.252V152.181H313.975L314.648 149.069H318.013L317.34 152.181H320.831L321.504 149.069H324.869L324.196 152.181H326.804V155.42H323.523ZM320.158 155.42H316.667L316.078 158.175H319.569L320.158 155.42Z" fill="#FFFEFD"/>
<circle cx="177.603" cy="308.603" r="22.6027" fill="#3F39C2"/>
<path d="M172.899 301.868V304.749H166.884V307.862H171.385V310.659H166.884V316.632H163.288V301.868H172.899Z" fill="#FFFEFD"/>
<path d="M188.523 307.42L187.934 310.175H190.458V313.414H187.24L186.546 316.632H183.181L183.875 313.414H180.384L179.69 316.632H176.325L177.019 313.414H173.906V310.175H177.713L178.302 307.42H175.252V304.181H178.975L179.648 301.068H183.013L182.34 304.181H185.831L186.504 301.068H189.869L189.196 304.181H191.804V307.42H188.523ZM185.158 307.42H181.667L181.078 310.175H184.569L185.158 307.42Z" fill="#FFFEFD"/>
<circle cx="174.603" cy="373.603" r="22.6027" fill="#B30000"/>
<path d="M177.249 370.86C176.944 370.298 176.502 369.872 175.923 369.582C175.361 369.277 174.694 369.124 173.922 369.124C172.588 369.124 171.519 369.566 170.716 370.45C169.912 371.318 169.51 372.484 169.51 373.946C169.51 375.505 169.928 376.727 170.764 377.611C171.616 378.479 172.781 378.913 174.26 378.913C175.272 378.913 176.124 378.656 176.815 378.141C177.523 377.627 178.037 376.888 178.358 375.923H173.127V372.885H182.095V376.719C181.79 377.748 181.268 378.704 180.528 379.588C179.805 380.472 178.881 381.187 177.756 381.734C176.63 382.28 175.361 382.553 173.946 382.553C172.275 382.553 170.78 382.192 169.462 381.468C168.16 380.729 167.139 379.708 166.4 378.407C165.677 377.105 165.315 375.618 165.315 373.946C165.315 372.275 165.677 370.788 166.4 369.486C167.139 368.168 168.16 367.147 169.462 366.424C170.764 365.685 172.251 365.315 173.922 365.315C175.947 365.315 177.651 365.805 179.033 366.786C180.432 367.766 181.356 369.124 181.806 370.86H177.249Z" fill="#FFFEFD"/>
<circle cx="325.603" cy="308.603" r="22.6027" fill="#3F39C2"/>
<path d="M319.413 306.408C319.145 305.916 318.759 305.543 318.252 305.29C317.76 305.023 317.176 304.889 316.501 304.889C315.334 304.889 314.399 305.276 313.696 306.05C312.992 306.809 312.641 307.829 312.641 309.109C312.641 310.473 313.006 311.542 313.738 312.315C314.483 313.075 315.503 313.454 316.797 313.454C317.683 313.454 318.428 313.229 319.033 312.779C319.652 312.329 320.102 311.682 320.383 310.838H315.805V308.18H323.653V311.535C323.386 312.435 322.929 313.271 322.282 314.045C321.649 314.819 320.84 315.444 319.856 315.923C318.871 316.401 317.76 316.64 316.522 316.64C315.06 316.64 313.752 316.323 312.599 315.69C311.459 315.044 310.566 314.15 309.919 313.011C309.287 311.872 308.97 310.571 308.97 309.109C308.97 307.646 309.287 306.345 309.919 305.206C310.566 304.053 311.459 303.16 312.599 302.527C313.738 301.88 315.039 301.556 316.501 301.556C318.273 301.556 319.764 301.985 320.974 302.843C322.197 303.701 323.006 304.889 323.4 306.408H319.413ZM339.427 307.294L338.836 310.058H341.367V313.307H338.14L337.444 316.534H334.068L334.764 313.307H331.263L330.566 316.534H327.191L327.887 313.307H324.765V310.058H328.583L329.174 307.294H326.115V304.046H329.849L330.524 300.923H333.899L333.224 304.046H336.726L337.401 300.923H340.777L340.102 304.046H342.718V307.294H339.427ZM336.051 307.294H332.549L331.959 310.058H335.461L336.051 307.294Z" fill="#FFFEFD"/>
</svg>
