<svg width="100" height="42" viewBox="0 0 100 42" fill="none" xmlns="http://www.w3.org/2000/svg">
<rect width="100" height="42" rx="5" fill="#1C1C1C"/>
<path d="M24.408 26.5V15.3H32.216V17.62H27.048V24.18H32.376V26.5H24.408ZM25.688 21.908V19.7H31.496V21.908H25.688ZM37.5864 26.676C36.8504 26.676 36.1944 26.4893 35.6184 26.116C35.053 25.732 34.605 25.2093 34.2744 24.548C33.9437 23.876 33.7784 23.1133 33.7784 22.26C33.7784 21.4067 33.9437 20.6493 34.2744 19.988C34.605 19.316 35.0584 18.788 35.6344 18.404C36.2104 18.02 36.8717 17.828 37.6184 17.828C38.0024 17.828 38.3704 17.8867 38.7224 18.004C39.0744 18.1213 39.3944 18.2813 39.6824 18.484C39.9704 18.6867 40.205 18.9213 40.3864 19.188C40.5677 19.444 40.6744 19.7107 40.7064 19.988L40.0984 20.132V14.66H42.6744V26.5H40.2904L40.1464 24.564L40.6584 24.644C40.6264 24.9107 40.5197 25.1667 40.3384 25.412C40.1677 25.6573 39.9437 25.876 39.6664 26.068C39.389 26.2493 39.069 26.3933 38.7064 26.5C38.3544 26.6173 37.981 26.676 37.5864 26.676ZM38.2424 24.548C38.637 24.548 38.9784 24.452 39.2664 24.26C39.5544 24.068 39.773 23.8013 39.9224 23.46C40.0824 23.1187 40.1624 22.7187 40.1624 22.26C40.1624 21.7907 40.0824 21.3853 39.9224 21.044C39.773 20.7027 39.5544 20.436 39.2664 20.244C38.9784 20.052 38.637 19.956 38.2424 19.956C37.8477 19.956 37.5064 20.052 37.2184 20.244C36.941 20.436 36.7224 20.7027 36.5624 21.044C36.4024 21.3853 36.3224 21.7907 36.3224 22.26C36.3224 22.7187 36.4024 23.1187 36.5624 23.46C36.7224 23.8013 36.941 24.068 37.2184 24.26C37.5064 24.452 37.8477 24.548 38.2424 24.548ZM44.9831 26.5V18.004H47.5431V26.5H44.9831ZM46.2631 16.324C45.7831 16.324 45.4045 16.212 45.1271 15.988C44.8605 15.7533 44.7271 15.4227 44.7271 14.996C44.7271 14.612 44.8658 14.2973 45.1431 14.052C45.4205 13.8067 45.7938 13.684 46.2631 13.684C46.7431 13.684 47.1165 13.8013 47.3831 14.036C47.6498 14.26 47.7831 14.58 47.7831 14.996C47.7831 15.3907 47.6445 15.7107 47.3671 15.956C47.1005 16.2013 46.7325 16.324 46.2631 16.324ZM50.6525 26.5V15.86H53.2125V26.5H50.6525ZM49.1485 20.244V18.004H54.8605V20.244H49.1485Z" fill="#FFFEFD"/>
<rect x="73.4624" y="14.0002" width="4.12795" height="11.0079" transform="rotate(43.7297 73.4624 14.0002)" fill="#FFFEFD"/>
<path d="M64.4905 26.3643L65.339 22.8915L67.9222 25.3627L64.4905 26.3643Z" fill="#FFFEFD"/>
</svg>
