<svg width="45" height="45" viewBox="0 0 45 45" fill="none" xmlns="http://www.w3.org/2000/svg">
<circle cx="22.5" cy="22.5" r="21" stroke="#1C1C1C" stroke-width="3"/>
<circle cx="23.2677" cy="13.2674" r="3.21428" transform="rotate(9.20744 23.2677 13.2674)" fill="#1C1C1C" stroke="#1C1C1C" stroke-width="2.7551"/>
<path d="M31.3201 20.3163C31.7896 20.0816 32.1007 19.8565 32.2908 19.6448C33.314 18.5051 30.5302 18.1609 29.0222 18.429L24.6187 19.2121C23.5481 19.4025 22.4522 19.4013 21.382 19.2084L15.5974 18.166C15.0599 18.0691 14.5112 18.0085 13.9665 18.0482C10.7471 18.2831 11.4806 19.9565 16.1671 21.2347C20.2079 22.3367 19.9936 25.3673 19.3814 26.7449C18.0038 29.1938 15.3406 34.6428 15.7079 36.8469C16.0046 38.6269 17.3195 38.1308 18.2982 37.3903C18.7376 37.0579 19.0799 36.619 19.3935 36.166L21.7397 32.7771C22.4124 31.8055 23.8141 31.7127 24.609 32.5871L26.8194 35.0185C27.3684 35.6225 27.9844 36.1773 28.7148 36.5417C31.5823 37.9718 31.0915 35.6091 30.4018 34.0918L26.2691 26.2857C24.7997 23.7143 29.0242 21.2347 31.3201 20.3163Z" fill="#1C1C1C"/>
<path d="M32.6325 19.9515C32.4047 19.7471 32.1769 19.5426 31.9491 19.3381C31.7604 19.5469 31.4408 19.7425 31.1148 19.9056L31.1496 19.89C30.1389 20.2991 29.1784 20.8016 28.2694 21.4115C27.4771 21.9531 26.7081 22.569 26.1191 23.4142C25.5128 24.2154 25.26 25.5601 25.8704 26.5135L25.8633 26.5005C27.2408 29.1026 28.6184 31.7046 29.9959 34.3066L29.9837 34.2818C30.2918 34.9645 30.5701 35.8332 30.438 36.3423C30.4899 36.67 29.5849 36.495 28.9198 36.1307C28.2628 35.8038 27.6854 35.2891 27.1591 34.7096C26.4223 33.8991 25.6855 33.0887 24.9487 32.2782C24.0303 31.1984 22.1302 31.3243 21.3622 32.5157C20.5801 33.6454 19.7981 34.775 19.016 35.9047C18.714 36.342 18.3974 36.7404 18.0212 37.0241C17.6067 37.3399 17.0982 37.6151 16.7415 37.6044C16.5706 37.5951 16.4832 37.5469 16.3771 37.4C16.2751 37.2526 16.2018 37.0211 16.1608 36.7714C16.1964 33.5256 18.1581 30.0691 19.7816 26.97L19.801 26.9314C20.3432 25.6756 20.3361 24.1556 19.5773 22.9575C18.8171 21.7555 17.5239 21.1291 16.2879 20.7917C14.3795 20.3024 10.2754 18.684 13.9999 18.5062C14.4893 18.4703 14.9994 18.5246 15.516 18.6179C17.4442 18.9654 19.3723 19.3128 21.3005 19.6603C22.4213 19.8627 23.5779 19.864 24.6991 19.6642C24.9161 19.6256 25.1331 19.587 25.3502 19.5484C26.5932 19.3274 27.8363 19.1063 29.0794 18.8852C29.0872 18.8839 29.0949 18.8825 29.1026 18.8811C29.7416 18.7734 30.453 18.7769 31.1067 18.8755C31.4276 18.9255 31.7638 19.0127 31.962 19.1349C32.0672 19.1977 32.0622 19.2415 32.0524 19.1904C32.0602 19.1505 32.0387 19.2459 31.9491 19.3381C32.1769 19.5426 32.4047 19.7471 32.6325 19.9515C32.7781 19.7802 32.9799 19.5425 32.9693 19.1393C32.9408 18.7156 32.6445 18.4785 32.4458 18.3544C32.0243 18.1069 31.6359 18.0349 31.2493 17.9683C30.4767 17.8547 29.7239 17.848 28.9418 17.9769C28.9341 17.9783 28.9264 17.9797 28.9186 17.9811C27.6755 18.2021 26.4325 18.4232 25.1894 18.6443C24.9723 18.6829 24.7553 18.7215 24.5383 18.76C23.5239 18.9408 22.4774 18.9396 21.4634 18.7565C19.5352 18.409 17.607 18.0616 15.6788 17.7141C15.121 17.6138 14.5354 17.5466 13.9331 17.5903C13.2915 17.6597 12.6641 17.6654 11.951 18.1468C11.7799 18.278 11.576 18.5163 11.5455 18.8342C11.5159 19.1492 11.6418 19.3925 11.7578 19.5631C12.0073 19.9096 12.2814 20.0993 12.5598 20.2853C13.6799 20.9804 14.8596 21.343 16.0463 21.6777C18.3819 22.1276 19.9681 24.4397 18.9618 26.5584L18.9812 26.5197C17.3287 29.7743 15.3203 32.8743 15.255 36.9224C15.3118 37.2467 15.3954 37.5846 15.6197 37.9194C15.8302 38.259 16.3022 38.5291 16.7145 38.5224C17.5346 38.5078 18.069 38.1175 18.5753 37.7565C19.0794 37.3743 19.4487 36.892 19.7711 36.4274C20.5531 35.2978 21.3352 34.1681 22.1173 33.0385C22.5756 32.3235 23.7205 32.2477 24.2692 32.8959C25.006 33.7064 25.7428 34.5169 26.4796 35.3274C27.0472 35.9511 27.7028 36.5494 28.5099 36.9526C28.9028 37.145 29.3096 37.3276 29.8015 37.4141C30.0465 37.4516 30.3336 37.475 30.6543 37.3526C30.9825 37.237 31.242 36.8941 31.3159 36.6121C31.5464 35.4837 31.1453 34.7116 30.8198 33.9018L30.8076 33.8769C29.43 31.2749 28.0525 28.6729 26.6749 26.0708L26.6678 26.0579C25.8089 24.6827 27.3633 23.1139 28.7834 22.1726C29.6272 21.6056 30.5479 21.1237 31.4907 20.7426L31.5255 20.727C31.9025 20.533 32.2827 20.3273 32.6325 19.9515ZM31.9491 19.3381L32.6325 19.9515L31.9491 19.3381V19.3381Z" fill="#1C1C1C"/>
</svg>
