<svg width="31" height="32" viewBox="0 0 31 32" fill="none" xmlns="http://www.w3.org/2000/svg">
<rect width="7.89129" height="5.94706" rx="0.69" transform="matrix(-0.700756 0.713401 -0.700756 -0.713401 23.9287 11.1289)" fill="white"/>
<path d="M25.1715 4.90269C25.5661 4.88988 25.8893 5.21895 25.8767 5.62066L25.6769 12.0013C25.6578 12.6105 24.9333 12.9024 24.5099 12.4713L18.4423 6.29419C18.0189 5.86317 18.3055 5.12558 18.904 5.10615L25.1715 4.90269Z" fill="white"/>
<rect width="7.89129" height="5.94706" rx="0.69" transform="matrix(0.700756 -0.713401 0.700756 0.713401 6.67188 20.0703)" fill="white"/>
<path d="M5.52089 26.2965C5.12629 26.3093 4.80305 25.9803 4.81564 25.5786L5.0155 19.1979C5.03458 18.5887 5.75909 18.2969 6.18247 18.7279L12.2501 24.905C12.6735 25.336 12.3868 26.0736 11.7884 26.0931L5.52089 26.2965Z" fill="white"/>
</svg>
