<svg width="85" height="92" viewBox="0 0 85 92" fill="none" xmlns="http://www.w3.org/2000/svg">
<g opacity="0.75" filter="url(#filter0_d_finish)">
<rect x="5" y="3" width="75" height="82" rx="10" fill="white"/>
</g>
<path d="M25 60.436V62.47H19.762V65.692H23.776V67.69H19.762V73H17.242V60.436H25ZM28.0649 61.84C27.6209 61.84 27.2489 61.702 26.9489 61.426C26.6609 61.138 26.5169 60.784 26.5169 60.364C26.5169 59.944 26.6609 59.596 26.9489 59.32C27.2489 59.032 27.6209 58.888 28.0649 58.888C28.5089 58.888 28.8749 59.032 29.1629 59.32C29.4629 59.596 29.6129 59.944 29.6129 60.364C29.6129 60.784 29.4629 61.138 29.1629 61.426C28.8749 61.702 28.5089 61.84 28.0649 61.84ZM29.3069 63.028V73H26.7869V63.028H29.3069ZM37.3227 62.884C38.5107 62.884 39.4707 63.262 40.2027 64.018C40.9347 64.762 41.3007 65.806 41.3007 67.15V73H38.7807V67.492C38.7807 66.7 38.5827 66.094 38.1867 65.674C37.7907 65.242 37.2507 65.026 36.5667 65.026C35.8707 65.026 35.3187 65.242 34.9107 65.674C34.5147 66.094 34.3167 66.7 34.3167 67.492V73H31.7967V63.028H34.3167V64.27C34.6527 63.838 35.0787 63.502 35.5947 63.262C36.1227 63.01 36.6987 62.884 37.3227 62.884ZM44.9751 61.84C44.5311 61.84 44.1591 61.702 43.8591 61.426C43.5711 61.138 43.4271 60.784 43.4271 60.364C43.4271 59.944 43.5711 59.596 43.8591 59.32C44.1591 59.032 44.5311 58.888 44.9751 58.888C45.4191 58.888 45.7851 59.032 46.0731 59.32C46.3731 59.596 46.5231 59.944 46.5231 60.364C46.5231 60.784 46.3731 61.138 46.0731 61.426C45.7851 61.702 45.4191 61.84 44.9751 61.84ZM46.2171 63.028V73H43.6971V63.028H46.2171ZM52.5228 73.162C51.7068 73.162 50.9748 73.018 50.3268 72.73C49.6788 72.43 49.1628 72.028 48.7788 71.524C48.4068 71.02 48.2028 70.462 48.1668 69.85H50.7048C50.7528 70.234 50.9388 70.552 51.2628 70.804C51.5988 71.056 52.0128 71.182 52.5048 71.182C52.9848 71.182 53.3568 71.086 53.6208 70.894C53.8968 70.702 54.0348 70.456 54.0348 70.156C54.0348 69.832 53.8668 69.592 53.5308 69.436C53.2068 69.268 52.6848 69.088 51.9648 68.896C51.2208 68.716 50.6088 68.53 50.1288 68.338C49.6608 68.146 49.2528 67.852 48.9048 67.456C48.5688 67.06 48.4008 66.526 48.4008 65.854C48.4008 65.302 48.5568 64.798 48.8688 64.342C49.1928 63.886 49.6488 63.526 50.2368 63.262C50.8368 62.998 51.5388 62.866 52.3428 62.866C53.5308 62.866 54.4788 63.166 55.1868 63.766C55.8948 64.354 56.2848 65.152 56.3568 66.16H53.9448C53.9088 65.764 53.7408 65.452 53.4408 65.224C53.1528 64.984 52.7628 64.864 52.2708 64.864C51.8148 64.864 51.4608 64.948 51.2088 65.116C50.9688 65.284 50.8488 65.518 50.8488 65.818C50.8488 66.154 51.0168 66.412 51.3528 66.592C51.6888 66.76 52.2108 66.934 52.9188 67.114C53.6388 67.294 54.2328 67.48 54.7008 67.672C55.1688 67.864 55.5708 68.164 55.9068 68.572C56.2548 68.968 56.4348 69.496 56.4468 70.156C56.4468 70.732 56.2848 71.248 55.9608 71.704C55.6488 72.16 55.1928 72.52 54.5928 72.784C54.0048 73.036 53.3148 73.162 52.5228 73.162ZM64.1314 62.884C64.8874 62.884 65.5594 63.052 66.1474 63.388C66.7354 63.712 67.1914 64.198 67.5154 64.846C67.8514 65.482 68.0194 66.25 68.0194 67.15V73H65.4994V67.492C65.4994 66.7 65.3014 66.094 64.9054 65.674C64.5094 65.242 63.9694 65.026 63.2854 65.026C62.5894 65.026 62.0374 65.242 61.6294 65.674C61.2334 66.094 61.0354 66.7 61.0354 67.492V73H58.5154V59.68H61.0354V64.27C61.3594 63.838 61.7914 63.502 62.3314 63.262C62.8714 63.01 63.4714 62.884 64.1314 62.884Z" fill="#201D63"/>
<path d="M52.7898 26.6141C53.286 26.9005 53.286 27.6168 52.7898 27.9032L39.9504 35.3161C39.4542 35.6026 38.8339 35.2444 38.8339 34.6715V19.8458C38.8339 19.2729 39.4542 18.9148 39.9504 19.2012L52.7898 26.6141Z" fill="#201D63"/>
<circle cx="35.1731" cy="15.1736" r="3.17312" fill="#201D63"/>
<rect x="33.8105" y="17.2104" width="2.97725" height="24.5623" fill="#201D63"/>
<defs>
<filter id="filter0_d_finish" x="0" y="0" width="85" height="92" filterUnits="userSpaceOnUse" color-interpolation-filters="sRGB">
<feFlood flood-opacity="0" result="BackgroundImageFix"/>
<feColorMatrix in="SourceAlpha" type="matrix" values="0 0 0 0 0 0 0 0 0 0 0 0 0 0 0 0 0 0 127 0" result="hardAlpha"/>
<feMorphology radius="1" operator="dilate" in="SourceAlpha" result="effect1_dropShadow_finish"/>
<feOffset dy="2"/>
<feGaussianBlur stdDeviation="2"/>
<feComposite in2="hardAlpha" operator="out"/>
<feColorMatrix type="matrix" values="0 0 0 0 0 0 0 0 0 0 0 0 0 0 0 0 0 0 0.25 0"/>
<feBlend mode="normal" in2="BackgroundImageFix" result="effect1_dropShadow_finish"/>
<feBlend mode="normal" in="SourceGraphic" in2="effect1_dropShadow_finish" result="shape"/>
</filter>
</defs>
</svg>
