<svg width="75" height="82" viewBox="0 0 75 82" fill="none" xmlns="http://www.w3.org/2000/svg">
<g filter="url(#filter0_i_703_2214)">
<rect width="75" height="82" rx="10" fill="white"/>
</g>
<path d="M20 57.436V59.47H14.762V62.692H18.776V64.69H14.762V70H12.242V57.436H20ZM23.0649 58.84C22.6209 58.84 22.2489 58.702 21.9489 58.426C21.6609 58.138 21.5169 57.784 21.5169 57.364C21.5169 56.944 21.6609 56.596 21.9489 56.32C22.2489 56.032 22.6209 55.888 23.0649 55.888C23.5089 55.888 23.8749 56.032 24.1629 56.32C24.4629 56.596 24.6129 56.944 24.6129 57.364C24.6129 57.784 24.4629 58.138 24.1629 58.426C23.8749 58.702 23.5089 58.84 23.0649 58.84ZM24.3069 60.028V70H21.7869V60.028H24.3069ZM32.3227 59.884C33.5107 59.884 34.4707 60.262 35.2027 61.018C35.9347 61.762 36.3007 62.806 36.3007 64.15V70H33.7807V64.492C33.7807 63.7 33.5827 63.094 33.1867 62.674C32.7907 62.242 32.2507 62.026 31.5667 62.026C30.8707 62.026 30.3187 62.242 29.9107 62.674C29.5147 63.094 29.3167 63.7 29.3167 64.492V70H26.7967V60.028H29.3167V61.27C29.6527 60.838 30.0787 60.502 30.5947 60.262C31.1227 60.01 31.6987 59.884 32.3227 59.884ZM39.9751 58.84C39.5311 58.84 39.1591 58.702 38.8591 58.426C38.5711 58.138 38.4271 57.784 38.4271 57.364C38.4271 56.944 38.5711 56.596 38.8591 56.32C39.1591 56.032 39.5311 55.888 39.9751 55.888C40.4191 55.888 40.7851 56.032 41.0731 56.32C41.3731 56.596 41.5231 56.944 41.5231 57.364C41.5231 57.784 41.3731 58.138 41.0731 58.426C40.7851 58.702 40.4191 58.84 39.9751 58.84ZM41.2171 60.028V70H38.6971V60.028H41.2171ZM47.5228 70.162C46.7068 70.162 45.9748 70.018 45.3268 69.73C44.6788 69.43 44.1628 69.028 43.7788 68.524C43.4068 68.02 43.2028 67.462 43.1668 66.85H45.7048C45.7528 67.234 45.9388 67.552 46.2628 67.804C46.5988 68.056 47.0128 68.182 47.5048 68.182C47.9848 68.182 48.3568 68.086 48.6208 67.894C48.8968 67.702 49.0348 67.456 49.0348 67.156C49.0348 66.832 48.8668 66.592 48.5308 66.436C48.2068 66.268 47.6848 66.088 46.9648 65.896C46.2208 65.716 45.6088 65.53 45.1288 65.338C44.6608 65.146 44.2528 64.852 43.9048 64.456C43.5688 64.06 43.4008 63.526 43.4008 62.854C43.4008 62.302 43.5568 61.798 43.8688 61.342C44.1928 60.886 44.6488 60.526 45.2368 60.262C45.8368 59.998 46.5388 59.866 47.3428 59.866C48.5308 59.866 49.4788 60.166 50.1868 60.766C50.8948 61.354 51.2848 62.152 51.3568 63.16H48.9448C48.9088 62.764 48.7408 62.452 48.4408 62.224C48.1528 61.984 47.7628 61.864 47.2708 61.864C46.8148 61.864 46.4608 61.948 46.2088 62.116C45.9688 62.284 45.8488 62.518 45.8488 62.818C45.8488 63.154 46.0168 63.412 46.3528 63.592C46.6888 63.76 47.2108 63.934 47.9188 64.114C48.6388 64.294 49.2328 64.48 49.7008 64.672C50.1688 64.864 50.5708 65.164 50.9068 65.572C51.2548 65.968 51.4348 66.496 51.4468 67.156C51.4468 67.732 51.2848 68.248 50.9608 68.704C50.6488 69.16 50.1928 69.52 49.5928 69.784C49.0048 70.036 48.3148 70.162 47.5228 70.162ZM59.1314 59.884C59.8874 59.884 60.5594 60.052 61.1474 60.388C61.7354 60.712 62.1914 61.198 62.5154 61.846C62.8514 62.482 63.0194 63.25 63.0194 64.15V70H60.4994V64.492C60.4994 63.7 60.3014 63.094 59.9054 62.674C59.5094 62.242 58.9694 62.026 58.2854 62.026C57.5894 62.026 57.0374 62.242 56.6294 62.674C56.2334 63.094 56.0354 63.7 56.0354 64.492V70H53.5154V56.68H56.0354V61.27C56.3594 60.838 56.7914 60.502 57.3314 60.262C57.8714 60.01 58.4714 59.884 59.1314 59.884Z" fill="#201D63"/>
<path d="M47.7898 23.6141C48.286 23.9005 48.286 24.6168 47.7898 24.9032L34.9504 32.3161C34.4542 32.6026 33.8339 32.2444 33.8339 31.6715V16.8458C33.8339 16.2729 34.4542 15.9148 34.9504 16.2012L47.7898 23.6141Z" fill="#201D63"/>
<circle cx="30.1731" cy="12.1736" r="3.17312" fill="#201D63"/>
<rect x="28.8105" y="14.2104" width="2.97725" height="24.5623" fill="#201D63"/>
<defs>
<filter id="filter0_i_703_2214" x="0" y="0" width="75" height="86" filterUnits="userSpaceOnUse" color-interpolation-filters="sRGB">
<feFlood flood-opacity="0" result="BackgroundImageFix"/>
<feBlend mode="normal" in="SourceGraphic" in2="BackgroundImageFix" result="shape"/>
<feColorMatrix in="SourceAlpha" type="matrix" values="0 0 0 0 0 0 0 0 0 0 0 0 0 0 0 0 0 0 127 0" result="hardAlpha"/>
<feMorphology radius="2" operator="erode" in="SourceAlpha" result="effect1_innerShadow_703_2214"/>
<feOffset dy="4"/>
<feGaussianBlur stdDeviation="4"/>
<feComposite in2="hardAlpha" operator="arithmetic" k2="-1" k3="1"/>
<feColorMatrix type="matrix" values="0 0 0 0 0 0 0 0 0 0 0 0 0 0 0 0 0 0 0.25 0"/>
<feBlend mode="normal" in2="shape" result="effect1_innerShadow_703_2214"/>
</filter>
</defs>
</svg>
