<svg width="75" height="82" viewBox="0 0 85 92" fill="none" xmlns="http://www.w3.org/2000/svg">
<g opacity="0.75" filter="url(#filter0_d_703_2203)">
<rect x="5" y="3" width="75" height="82" rx="10" fill="white"/>
</g>
<path d="M60.6367 12C61.6786 12 62.574 12.7382 62.7734 13.7607L66.4971 32.8662C66.61 33.4455 66.6399 34.0584 66.5332 34.6719C66.257 36.2599 65.7498 37.9287 64.9277 39.2607C64.1034 40.5964 62.9073 41.6718 61.2529 41.8643C59.6204 42.0539 57.744 41.3575 55.6055 39.6348C53.4591 37.9056 50.9607 35.0735 48.0508 30.7998C47.9053 30.5866 47.6621 30.459 47.4307 30.459H38.1807C37.9332 30.4591 37.6959 30.5864 37.5518 30.8057C36.2708 32.7553 34.6328 34.884 32.8682 36.752C31.1117 38.6113 29.1906 40.2535 27.3389 41.1836C25.4969 42.1087 23.5319 42.4122 21.916 41.2129C20.3669 40.0629 19.3916 37.6958 19.0107 33.9893C18.995 33.8352 18.9962 33.6706 19.0146 33.5137L21.3223 13.9229C21.4515 12.8267 22.3807 12.0003 23.4844 12H60.6367ZM41.25 24.5801C40.5821 24.5801 40.0403 25.1222 40.04 25.79C40.0402 26.458 40.582 26.999 41.25 26.999H43.6689C44.3367 26.9988 44.8788 26.4578 44.8789 25.79C44.8787 25.1223 44.3367 24.5803 43.6689 24.5801H41.25ZM29.1533 17.8057C28.4854 17.8057 27.9436 18.3477 27.9434 19.0156V21.1729L26.0137 21.165C25.3457 21.162 24.8011 21.7013 24.7979 22.3691C24.795 23.0369 25.3342 23.5808 26.002 23.584L27.9434 23.5918V25.3057C27.9434 25.9737 28.4852 26.5156 29.1533 26.5156C29.821 26.5152 30.3623 25.9735 30.3623 25.3057V23.6035L32.293 23.6123C32.9607 23.6149 33.5048 23.076 33.5078 22.4082C33.5106 21.7405 32.9714 21.1967 32.3037 21.1934L30.3623 21.1846V19.0156C30.3621 18.348 29.8209 17.8061 29.1533 17.8057ZM56.1133 23.8662C55.5216 23.3253 54.6083 23.3709 54.0732 23.9678C53.5382 24.5648 53.5841 25.4874 54.1758 26.0283C54.7675 26.5691 55.6808 26.5237 56.2158 25.9268C56.7508 25.3298 56.7049 24.4071 56.1133 23.8662ZM53.21 20.9629C52.6184 20.4221 51.705 20.4678 51.1699 21.0645C50.6349 21.6615 50.6808 22.5841 51.2725 23.125C51.8642 23.6658 52.7775 23.6204 53.3125 23.0234C53.8473 22.4264 53.8015 21.5037 53.21 20.9629ZM57.9424 20.4678C57.1409 20.4679 56.4913 21.1174 56.4912 21.9189C56.4912 22.7205 57.1408 23.3709 57.9424 23.3711C58.7441 23.3711 59.3945 22.7206 59.3945 21.9189C59.3944 21.1173 58.744 20.4678 57.9424 20.4678ZM55.04 17.5645C54.2384 17.5645 53.5879 18.214 53.5879 19.0156C53.5879 19.8173 54.2383 20.4678 55.04 20.4678C55.8416 20.4676 56.4912 19.8172 56.4912 19.0156C56.4912 18.2141 55.8415 17.5646 55.04 17.5645Z" fill="#201D63"/>
<path d="M24.99 64.216C24.702 63.688 24.306 63.286 23.802 63.01C23.298 62.734 22.71 62.596 22.038 62.596C21.294 62.596 20.634 62.764 20.058 63.1C19.482 63.436 19.032 63.916 18.708 64.54C18.384 65.164 18.222 65.884 18.222 66.7C18.222 67.54 18.384 68.272 18.708 68.896C19.044 69.52 19.506 70 20.094 70.336C20.682 70.672 21.366 70.84 22.146 70.84C23.106 70.84 23.892 70.588 24.504 70.084C25.116 69.568 25.518 68.854 25.71 67.942H21.39V66.016H28.194V68.212C28.026 69.088 27.666 69.898 27.114 70.642C26.562 71.386 25.848 71.986 24.972 72.442C24.108 72.886 23.136 73.108 22.056 73.108C20.844 73.108 19.746 72.838 18.762 72.298C17.79 71.746 17.022 70.984 16.458 70.012C15.906 69.04 15.63 67.936 15.63 66.7C15.63 65.464 15.906 64.36 16.458 63.388C17.022 62.404 17.79 61.642 18.762 61.102C19.746 60.55 20.838 60.274 22.038 60.274C23.454 60.274 24.684 60.622 25.728 61.318C26.772 62.002 27.492 62.968 27.888 64.216H24.99ZM29.4104 67.978C29.4104 66.97 29.6084 66.076 30.0044 65.296C30.4124 64.516 30.9584 63.916 31.6424 63.496C32.3384 63.076 33.1124 62.866 33.9644 62.866C34.7084 62.866 35.3564 63.016 35.9084 63.316C36.4724 63.616 36.9224 63.994 37.2584 64.45V63.028H39.7964V73H37.2584V71.542C36.9344 72.01 36.4844 72.4 35.9084 72.712C35.3444 73.012 34.6904 73.162 33.9464 73.162C33.1064 73.162 32.3384 72.946 31.6424 72.514C30.9584 72.082 30.4124 71.476 30.0044 70.696C29.6084 69.904 29.4104 68.998 29.4104 67.978ZM37.2584 68.014C37.2584 67.402 37.1384 66.88 36.8984 66.448C36.6584 66.004 36.3344 65.668 35.9264 65.44C35.5184 65.2 35.0804 65.08 34.6124 65.08C34.1444 65.08 33.7124 65.194 33.3164 65.422C32.9204 65.65 32.5964 65.986 32.3444 66.43C32.1044 66.862 31.9844 67.378 31.9844 67.978C31.9844 68.578 32.1044 69.106 32.3444 69.562C32.5964 70.006 32.9204 70.348 33.3164 70.588C33.7244 70.828 34.1564 70.948 34.6124 70.948C35.0804 70.948 35.5184 70.834 35.9264 70.606C36.3344 70.366 36.6584 70.03 36.8984 69.598C37.1384 69.154 37.2584 68.626 37.2584 68.014ZM54.6416 62.884C55.8656 62.884 56.8496 63.262 57.5936 64.018C58.3496 64.762 58.7276 65.806 58.7276 67.15V73H56.2076V67.492C56.2076 66.712 56.0096 66.118 55.6136 65.71C55.2176 65.29 54.6776 65.08 53.9936 65.08C53.3096 65.08 52.7636 65.29 52.3556 65.71C51.9596 66.118 51.7616 66.712 51.7616 67.492V73H49.2416V67.492C49.2416 66.712 49.0436 66.118 48.6476 65.71C48.2516 65.29 47.7116 65.08 47.0276 65.08C46.3316 65.08 45.7796 65.29 45.3716 65.71C44.9756 66.118 44.7776 66.712 44.7776 67.492V73H42.2576V63.028H44.7776V64.234C45.1016 63.814 45.5156 63.484 46.0196 63.244C46.5356 63.004 47.0996 62.884 47.7116 62.884C48.4916 62.884 49.1876 63.052 49.7996 63.388C50.4116 63.712 50.8856 64.18 51.2216 64.792C51.5456 64.216 52.0136 63.754 52.6256 63.406C53.2496 63.058 53.9216 62.884 54.6416 62.884ZM70.389 67.798C70.389 68.158 70.365 68.482 70.317 68.77H63.027C63.087 69.49 63.339 70.054 63.783 70.462C64.227 70.87 64.773 71.074 65.421 71.074C66.357 71.074 67.023 70.672 67.419 69.868H70.137C69.849 70.828 69.297 71.62 68.481 72.244C67.665 72.856 66.663 73.162 65.475 73.162C64.515 73.162 63.651 72.952 62.883 72.532C62.127 72.1 61.533 71.494 61.101 70.714C60.681 69.934 60.471 69.034 60.471 68.014C60.471 66.982 60.681 66.076 61.101 65.296C61.521 64.516 62.109 63.916 62.865 63.496C63.621 63.076 64.491 62.866 65.475 62.866C66.423 62.866 67.269 63.07 68.013 63.478C68.769 63.886 69.351 64.468 69.759 65.224C70.179 65.968 70.389 66.826 70.389 67.798ZM67.779 67.078C67.767 66.43 67.533 65.914 67.077 65.53C66.621 65.134 66.063 64.936 65.403 64.936C64.779 64.936 64.251 65.128 63.819 65.512C63.399 65.884 63.141 66.406 63.045 67.078H67.779Z" fill="#201D63"/>
<defs>
<filter id="filter0_d_703_2203" x="0" y="0" width="85" height="92" filterUnits="userSpaceOnUse" color-interpolation-filters="sRGB">
<feFlood flood-opacity="0" result="BackgroundImageFix"/>
<feColorMatrix in="SourceAlpha" type="matrix" values="0 0 0 0 0 0 0 0 0 0 0 0 0 0 0 0 0 0 127 0" result="hardAlpha"/>
<feMorphology radius="1" operator="dilate" in="SourceAlpha" result="effect1_dropShadow_703_2203"/>
<feOffset dy="2"/>
<feGaussianBlur stdDeviation="2"/>
<feComposite in2="hardAlpha" operator="out"/>
<feColorMatrix type="matrix" values="0 0 0 0 0 0 0 0 0 0 0 0 0 0 0 0 0 0 0.25 0"/>
<feBlend mode="normal" in2="BackgroundImageFix" result="effect1_dropShadow_703_2203"/>
<feBlend mode="normal" in="SourceGraphic" in2="effect1_dropShadow_703_2203" result="shape"/>
</filter>
</defs>
</svg>
