<svg width="75" height="82" viewBox="0 0 85 92" fill="none" xmlns="http://www.w3.org/2000/svg">
<g opacity="0.75" filter="url(#filter0_i_703_1495)">
<rect x="5" y="3" width="75" height="82" rx="10" fill="white"/>
</g>
<path d="M33.602 75.214L31.694 72.928C31.166 73.06 30.626 73.126 30.074 73.126C28.898 73.126 27.818 72.85 26.834 72.298C25.85 71.746 25.07 70.984 24.494 70.012C23.918 69.028 23.63 67.918 23.63 66.682C23.63 65.458 23.918 64.36 24.494 63.388C25.07 62.404 25.85 61.636 26.834 61.084C27.818 60.532 28.898 60.256 30.074 60.256C31.262 60.256 32.342 60.532 33.314 61.084C34.298 61.636 35.072 62.404 35.636 63.388C36.212 64.36 36.5 65.458 36.5 66.682C36.5 67.798 36.26 68.818 35.78 69.742C35.312 70.654 34.67 71.398 33.854 71.974L36.734 75.214H33.602ZM26.222 66.682C26.222 67.522 26.384 68.26 26.708 68.896C27.032 69.532 27.482 70.024 28.058 70.372C28.646 70.708 29.318 70.876 30.074 70.876C30.83 70.876 31.496 70.708 32.072 70.372C32.648 70.024 33.098 69.532 33.422 68.896C33.746 68.26 33.908 67.522 33.908 66.682C33.908 65.842 33.746 65.11 33.422 64.486C33.098 63.85 32.648 63.364 32.072 63.028C31.496 62.692 30.83 62.524 30.074 62.524C29.318 62.524 28.646 62.692 28.058 63.028C27.482 63.364 27.032 63.85 26.708 64.486C26.384 65.11 26.222 65.842 26.222 66.682ZM47.824 63.028V73H45.286V71.74C44.962 72.172 44.536 72.514 44.008 72.766C43.492 73.006 42.928 73.126 42.316 73.126C41.536 73.126 40.846 72.964 40.246 72.64C39.646 72.304 39.172 71.818 38.824 71.182C38.488 70.534 38.32 69.766 38.32 68.878V63.028H40.84V68.518C40.84 69.31 41.038 69.922 41.434 70.354C41.83 70.774 42.37 70.984 43.054 70.984C43.75 70.984 44.296 70.774 44.692 70.354C45.088 69.922 45.286 69.31 45.286 68.518V63.028H47.824ZM51.5884 61.84C51.1444 61.84 50.7724 61.702 50.4724 61.426C50.1844 61.138 50.0404 60.784 50.0404 60.364C50.0404 59.944 50.1844 59.596 50.4724 59.32C50.7724 59.032 51.1444 58.888 51.5884 58.888C52.0324 58.888 52.3984 59.032 52.6864 59.32C52.9864 59.596 53.1364 59.944 53.1364 60.364C53.1364 60.784 52.9864 61.138 52.6864 61.426C52.3984 61.702 52.0324 61.84 51.5884 61.84ZM52.8304 63.028V73H50.3104V63.028H52.8304ZM57.6241 70.93H62.0701V73H54.7621V70.966L59.1181 65.098H54.7801V63.028H62.0161V65.062L57.6241 70.93Z" fill="#201D63"/>
<path d="M48.582 42.124H36.1025V39.542H48.582V42.124ZM38.7363 21.9639H41.5078C41.5078 21.5623 41.6221 21.2461 41.8516 21.0166C42.081 20.7757 42.4025 20.6554 42.8154 20.6553C43.2056 20.6553 43.5105 20.7705 43.7285 21C43.9463 21.2295 44.0557 21.5449 44.0557 21.9463C44.0557 22.52 43.82 22.9157 43.3496 23.1338C42.8907 23.3518 42.2193 23.4609 41.3359 23.4609H40.3027L40.3887 26.6631H42.9707L43.0566 25.3721C44.2157 25.3606 45.1457 25.0557 45.8457 24.459C46.5569 23.8508 46.9131 23.0072 46.9131 21.9287C46.913 20.7584 46.5398 19.8516 45.7939 19.209C45.0596 18.5664 44.0783 18.2452 42.8506 18.2451C41.9671 18.2451 41.2092 18.4114 40.5781 18.7441C39.9584 19.0655 39.4883 19.508 39.167 20.0703C38.8572 20.6326 38.7134 21.2639 38.7363 21.9639ZM39.958 29.5547C39.958 30.0021 40.1192 30.3806 40.4404 30.6904C40.7732 30.9887 41.1976 31.1386 41.7139 31.1387C42.2187 31.1387 42.6318 30.9887 42.9531 30.6904C43.2859 30.3806 43.4531 30.0022 43.4531 29.5547C43.4531 29.0957 43.2859 28.7112 42.9531 28.4014C42.6318 28.0916 42.2187 27.9365 41.7139 27.9365C41.1976 27.9366 40.7732 28.0916 40.4404 28.4014C40.1191 28.7112 39.958 29.0957 39.958 29.5547ZM36.1025 36.96V33.6523C32.8686 29.123 31.0871 25.5104 30.374 22.6279C29.6527 19.7119 30.0177 17.5133 31.1084 15.8916C32.1911 14.2821 33.9403 13.3138 35.8408 12.7471C37.7442 12.1795 39.8453 12 41.6973 12H41.7061L41.7148 12.001C47.0134 12.2173 50.5426 13.1457 52.7275 14.6006C54.9496 16.0804 55.7523 18.0871 55.6279 20.3086C55.5055 22.4916 54.4914 24.8674 53.1426 27.1719C51.8152 29.4397 50.1365 31.6826 48.582 33.665V36.96H36.1025Z" fill="#201D63"/>
<defs>
<filter id="filter0_i_703_1495" x="0" y="0" width="85" height="92" filterUnits="userSpaceOnUse" color-interpolation-filters="sRGB">
<feFlood flood-opacity="0" result="BackgroundImageFix"/>
<feBlend mode="normal" in="SourceGraphic" in2="BackgroundImageFix" result="shape"/>
<feColorMatrix in="SourceAlpha" type="matrix" values="0 0 0 0 0 0 0 0 0 0 0 0 0 0 0 0 0 0 127 0" result="hardAlpha"/>
<feMorphology radius="2" operator="erode" in="SourceAlpha" result="effect1_innerShadow_703_1495"/>
<feOffset dy="4"/>
<feGaussianBlur stdDeviation="4"/>
<feComposite in2="hardAlpha" operator="arithmetic" k2="-1" k3="1"/>
<feColorMatrix type="matrix" values="0 0 0 0 0 0 0 0 0 0 0 0 0 0 0 0 0 0 0.25 0"/>
<feBlend mode="normal" in2="shape" result="effect1_innerShadow_703_1495"/>
</filter>
</defs>
</svg>
