<svg width="75" height="82" viewBox="0 0 85 92" fill="none" xmlns="http://www.w3.org/2000/svg">
<g opacity="0.75" filter="url(#filter0_i_691_1386)">
<rect x="5" y="3" width="75" height="82" rx="10" fill="white"/>
</g>
<path d="M28.528 60.0864L23.92 72.6504H20.86L16.252 60.0864H18.952L22.408 70.0764L25.846 60.0864H28.528ZM31.3169 61.4904C30.8729 61.4904 30.5009 61.3524 30.2009 61.0764C29.9129 60.7884 29.7689 60.4344 29.7689 60.0144C29.7689 59.5944 29.9129 59.2464 30.2009 58.9704C30.5009 58.6824 30.8729 58.5384 31.3169 58.5384C31.7609 58.5384 32.1269 58.6824 32.4149 58.9704C32.7149 59.2464 32.8649 59.5944 32.8649 60.0144C32.8649 60.4344 32.7149 60.7884 32.4149 61.0764C32.1269 61.3524 31.7609 61.4904 31.3169 61.4904ZM32.5589 62.6784V72.6504H30.0389V62.6784H32.5589ZM34.4006 67.6284C34.4006 66.6204 34.5986 65.7264 34.9946 64.9464C35.4026 64.1664 35.9546 63.5664 36.6506 63.1464C37.3466 62.7264 38.1206 62.5164 38.9726 62.5164C39.6206 62.5164 40.2386 62.6604 40.8266 62.9484C41.4146 63.2244 41.8826 63.5964 42.2306 64.0644V59.3304H44.7866V72.6504H42.2306V71.1744C41.9186 71.6664 41.4806 72.0624 40.9166 72.3624C40.3526 72.6624 39.6986 72.8124 38.9546 72.8124C38.1146 72.8124 37.3466 72.5964 36.6506 72.1644C35.9546 71.7324 35.4026 71.1264 34.9946 70.3464C34.5986 69.5544 34.4006 68.6484 34.4006 67.6284ZM42.2486 67.6644C42.2486 67.0524 42.1286 66.5304 41.8886 66.0984C41.6486 65.6544 41.3246 65.3184 40.9166 65.0904C40.5086 64.8504 40.0706 64.7304 39.6026 64.7304C39.1346 64.7304 38.7026 64.8444 38.3066 65.0724C37.9106 65.3004 37.5866 65.6364 37.3346 66.0804C37.0946 66.5124 36.9746 67.0284 36.9746 67.6284C36.9746 68.2284 37.0946 68.7564 37.3346 69.2124C37.5866 69.6564 37.9106 69.9984 38.3066 70.2384C38.7146 70.4784 39.1466 70.5984 39.6026 70.5984C40.0706 70.5984 40.5086 70.4844 40.9166 70.2564C41.3246 70.0164 41.6486 69.6804 41.8886 69.2484C42.1286 68.8044 42.2486 68.2764 42.2486 67.6644ZM56.5179 67.4484C56.5179 67.8084 56.4939 68.1324 56.4459 68.4204H49.1559C49.2159 69.1404 49.4679 69.7044 49.9119 70.1124C50.3559 70.5204 50.9019 70.7244 51.5499 70.7244C52.4859 70.7244 53.1519 70.3224 53.5479 69.5184H56.2659C55.9779 70.4784 55.4259 71.2704 54.6099 71.8944C53.7939 72.5064 52.7919 72.8124 51.6039 72.8124C50.6439 72.8124 49.7799 72.6024 49.0119 72.1824C48.2559 71.7504 47.6619 71.1444 47.2299 70.3644C46.8099 69.5844 46.5999 68.6844 46.5999 67.6644C46.5999 66.6324 46.8099 65.7264 47.2299 64.9464C47.6499 64.1664 48.2379 63.5664 48.9939 63.1464C49.7499 62.7264 50.6199 62.5164 51.6039 62.5164C52.5519 62.5164 53.3979 62.7204 54.1419 63.1284C54.8979 63.5364 55.4799 64.1184 55.8879 64.8744C56.3079 65.6184 56.5179 66.4764 56.5179 67.4484ZM53.9079 66.7284C53.8959 66.0804 53.6619 65.5644 53.2059 65.1804C52.7499 64.7844 52.1919 64.5864 51.5319 64.5864C50.9079 64.5864 50.3799 64.7784 49.9479 65.1624C49.5279 65.5344 49.2699 66.0564 49.1739 66.7284H53.9079ZM62.7852 72.8124C61.8252 72.8124 60.9612 72.6024 60.1932 72.1824C59.4252 71.7504 58.8192 71.1444 58.3752 70.3644C57.9432 69.5844 57.7272 68.6844 57.7272 67.6644C57.7272 66.6444 57.9492 65.7444 58.3932 64.9644C58.8492 64.1844 59.4672 63.5844 60.2472 63.1644C61.0272 62.7324 61.8972 62.5164 62.8572 62.5164C63.8172 62.5164 64.6872 62.7324 65.4672 63.1644C66.2472 63.5844 66.8592 64.1844 67.3032 64.9644C67.7592 65.7444 67.9872 66.6444 67.9872 67.6644C67.9872 68.6844 67.7532 69.5844 67.2852 70.3644C66.8292 71.1444 66.2052 71.7504 65.4132 72.1824C64.6332 72.6024 63.7572 72.8124 62.7852 72.8124ZM62.7852 70.6164C63.2412 70.6164 63.6672 70.5084 64.0632 70.2924C64.4712 70.0644 64.7952 69.7284 65.0352 69.2844C65.2752 68.8404 65.3952 68.3004 65.3952 67.6644C65.3952 66.7164 65.1432 65.9904 64.6392 65.4864C64.1472 64.9704 63.5412 64.7124 62.8212 64.7124C62.1012 64.7124 61.4952 64.9704 61.0032 65.4864C60.5232 65.9904 60.2832 66.7164 60.2832 67.6644C60.2832 68.6124 60.5172 69.3444 60.9852 69.8604C61.4652 70.3644 62.0652 70.6164 62.7852 70.6164Z" fill="#201D63"/>
<path d="M54.8049 25.7326C55.7805 26.2959 55.7805 27.7041 54.8049 28.2674L36.6951 38.723C35.7195 39.2863 34.5 38.5822 34.5 37.4557V16.5443C34.5 15.4178 35.7195 14.7137 36.6951 15.277L54.8049 25.7326Z" fill="#201D63"/>
<defs>
<filter id="filter0_i_691_1386" x="0" y="0" width="85" height="92" filterUnits="userSpaceOnUse" color-interpolation-filters="sRGB">
<feFlood flood-opacity="0" result="BackgroundImageFix"/>
<feBlend mode="normal" in="SourceGraphic" in2="BackgroundImageFix" result="shape"/>
<feColorMatrix in="SourceAlpha" type="matrix" values="0 0 0 0 0 0 0 0 0 0 0 0 0 0 0 0 0 0 127 0" result="hardAlpha"/>
<feMorphology radius="2" operator="erode" in="SourceAlpha" result="effect1_innerShadow_691_1386"/>
<feOffset dy="4"/>
<feGaussianBlur stdDeviation="4"/>
<feComposite in2="hardAlpha" operator="arithmetic" k2="-1" k3="1"/>
<feColorMatrix type="matrix" values="0 0 0 0 0 0 0 0 0 0 0 0 0 0 0 0 0 0 0.25 0"/>
<feBlend mode="normal" in2="shape" result="effect1_innerShadow_691_1386"/>
</filter>
</defs>
</svg>
