<svg width="416" height="480" viewBox="0 0 416 480" fill="none" xmlns="http://www.w3.org/2000/svg">
<path d="M215.878 32.5117C218.387 32.2289 220.652 34.0345 220.935 36.5443C221.218 39.0543 219.412 41.3187 216.902 41.6016C214.392 41.8844 212.128 40.0791 211.845 37.569C211.562 35.0591 213.368 32.7948 215.878 32.5117Z" fill="#1C1C1C"/>
<path d="M195.874 25.0482C196.909 21.5238 200.605 19.5054 204.129 20.5404C207.653 21.5753 209.671 25.2714 208.637 28.7956C207.602 32.32 203.905 34.3384 200.38 33.3034C196.856 32.2681 194.839 28.5723 195.874 25.0482Z" fill="#1C1C1C"/>
<path fill-rule="evenodd" clip-rule="evenodd" d="M208 0C224.569 0 238 13.4315 238 30C238 46.5685 224.569 60 208 60C191.431 60 178 46.5685 178 30C178 13.4315 191.431 0 208 0ZM208 4C193.641 4 182 15.6406 182 30C182 37.5424 185.212 44.3341 190.342 49.0833C191.37 43.3724 196.58 34.8365 200.583 34.9206C207.368 34.1015 211.455 49.9531 211.496 55.7643C211.993 55.6976 212.484 55.6165 212.971 55.5221C212.839 55.2244 212.734 54.8868 212.665 54.5052C212.072 51.2216 213.914 43.2594 216.54 42.7839C220.189 41.5013 222.752 47.1282 223.707 50.7174C229.96 45.9692 234 38.4573 234 30C234 15.6406 222.359 4 208 4Z" fill="#1C1C1C"/>
<path d="M92.88 114.96C92.88 116.587 92.5067 118.08 91.76 119.44C91.0133 120.773 89.8667 121.853 88.32 122.68C86.7733 123.507 84.8533 123.92 82.56 123.92H78.32V134H71.48V105.92H82.56C84.8 105.92 86.6933 106.307 88.24 107.08C89.7867 107.853 90.9467 108.92 91.72 110.28C92.4933 111.64 92.88 113.2 92.88 114.96ZM82.04 118.48C83.3467 118.48 84.32 118.173 84.96 117.56C85.6 116.947 85.92 116.08 85.92 114.96C85.92 113.84 85.6 112.973 84.96 112.36C84.32 111.747 83.3467 111.44 82.04 111.44H78.32V118.48H82.04ZM95.0809 122.8C95.0809 120.507 95.5076 118.493 96.3609 116.76C97.2409 115.027 98.4276 113.693 99.9209 112.76C101.414 111.827 103.081 111.36 104.921 111.36C106.494 111.36 107.868 111.68 109.041 112.32C110.241 112.96 111.161 113.8 111.801 114.84V111.68H118.641V134H111.801V130.84C111.134 131.88 110.201 132.72 109.001 133.36C107.828 134 106.454 134.32 104.881 134.32C103.068 134.32 101.414 133.853 99.9209 132.92C98.4276 131.96 97.2409 130.613 96.3609 128.88C95.5076 127.12 95.0809 125.093 95.0809 122.8ZM111.801 122.84C111.801 121.133 111.321 119.787 110.361 118.8C109.428 117.813 108.281 117.32 106.921 117.32C105.561 117.32 104.401 117.813 103.441 118.8C102.508 119.76 102.041 121.093 102.041 122.8C102.041 124.507 102.508 125.867 103.441 126.88C104.401 127.867 105.561 128.36 106.921 128.36C108.281 128.36 109.428 127.867 110.361 126.88C111.321 125.893 111.801 124.547 111.801 122.84ZM130.429 115.4C131.229 114.173 132.229 113.213 133.429 112.52C134.629 111.8 135.963 111.44 137.429 111.44V118.68H135.549C133.843 118.68 132.563 119.053 131.709 119.8C130.856 120.52 130.429 121.8 130.429 123.64V134H123.589V111.68H130.429V115.4ZM161.739 122.48C161.739 123.12 161.699 123.787 161.619 124.48H146.139C146.245 125.867 146.685 126.933 147.459 127.68C148.259 128.4 149.232 128.76 150.379 128.76C152.085 128.76 153.272 128.04 153.939 126.6H161.219C160.845 128.067 160.165 129.387 159.179 130.56C158.219 131.733 157.005 132.653 155.539 133.32C154.072 133.987 152.432 134.32 150.619 134.32C148.432 134.32 146.485 133.853 144.779 132.92C143.072 131.987 141.739 130.653 140.779 128.92C139.819 127.187 139.339 125.16 139.339 122.84C139.339 120.52 139.805 118.493 140.739 116.76C141.699 115.027 143.032 113.693 144.739 112.76C146.445 111.827 148.405 111.36 150.619 111.36C152.779 111.36 154.699 111.813 156.379 112.72C158.059 113.627 159.365 114.92 160.299 116.6C161.259 118.28 161.739 120.24 161.739 122.48ZM154.739 120.68C154.739 119.507 154.339 118.573 153.539 117.88C152.739 117.187 151.739 116.84 150.539 116.84C149.392 116.84 148.419 117.173 147.619 117.84C146.845 118.507 146.365 119.453 146.179 120.68H154.739ZM178.947 111.44C181.561 111.44 183.641 112.293 185.187 114C186.761 115.68 187.547 118 187.547 120.96V134H180.747V121.88C180.747 120.387 180.361 119.227 179.587 118.4C178.814 117.573 177.774 117.16 176.467 117.16C175.161 117.16 174.121 117.573 173.347 118.4C172.574 119.227 172.187 120.387 172.187 121.88V134H165.347V111.68H172.187V114.64C172.881 113.653 173.814 112.88 174.987 112.32C176.161 111.733 177.481 111.44 178.947 111.44ZM204.74 128.2V134H201.26C198.78 134 196.847 133.4 195.46 132.2C194.074 130.973 193.38 128.987 193.38 126.24V117.36H190.66V111.68H193.38V106.24H200.22V111.68H204.7V117.36H200.22V126.32C200.22 126.987 200.38 127.467 200.7 127.76C201.02 128.053 201.554 128.2 202.3 128.2H204.74ZM207.19 122.8C207.19 120.507 207.617 118.493 208.47 116.76C209.35 115.027 210.537 113.693 212.03 112.76C213.524 111.827 215.19 111.36 217.03 111.36C218.604 111.36 219.977 111.68 221.15 112.32C222.35 112.96 223.27 113.8 223.91 114.84V111.68H230.75V134H223.91V130.84C223.244 131.88 222.31 132.72 221.11 133.36C219.937 134 218.564 134.32 216.99 134.32C215.177 134.32 213.524 133.853 212.03 132.92C210.537 131.96 209.35 130.613 208.47 128.88C207.617 127.12 207.19 125.093 207.19 122.8ZM223.91 122.84C223.91 121.133 223.43 119.787 222.47 118.8C221.537 117.813 220.39 117.32 219.03 117.32C217.67 117.32 216.51 117.813 215.55 118.8C214.617 119.76 214.15 121.093 214.15 122.8C214.15 124.507 214.617 125.867 215.55 126.88C216.51 127.867 217.67 128.36 219.03 128.36C220.39 128.36 221.537 127.867 222.47 126.88C223.43 125.893 223.91 124.547 223.91 122.84ZM242.539 104.4V134H235.699V104.4H242.539ZM262.812 128.72H271.772V134H255.972V105.92H262.812V128.72ZM285.195 134.32C283.008 134.32 281.035 133.853 279.275 132.92C277.541 131.987 276.168 130.653 275.155 128.92C274.168 127.187 273.675 125.16 273.675 122.84C273.675 120.547 274.181 118.533 275.195 116.8C276.208 115.04 277.595 113.693 279.355 112.76C281.115 111.827 283.088 111.36 285.275 111.36C287.461 111.36 289.435 111.827 291.195 112.76C292.955 113.693 294.341 115.04 295.355 116.8C296.368 118.533 296.875 120.547 296.875 122.84C296.875 125.133 296.355 127.16 295.315 128.92C294.301 130.653 292.901 131.987 291.115 132.92C289.355 133.853 287.381 134.32 285.195 134.32ZM285.195 128.4C286.501 128.4 287.608 127.92 288.515 126.96C289.448 126 289.915 124.627 289.915 122.84C289.915 121.053 289.461 119.68 288.555 118.72C287.675 117.76 286.581 117.28 285.275 117.28C283.941 117.28 282.835 117.76 281.955 118.72C281.075 119.653 280.635 121.027 280.635 122.84C280.635 124.627 281.061 126 281.915 126.96C282.795 127.92 283.888 128.4 285.195 128.4ZM299.143 122.84C299.143 120.52 299.61 118.493 300.543 116.76C301.503 115.027 302.823 113.693 304.503 112.76C306.21 111.827 308.157 111.36 310.343 111.36C313.143 111.36 315.477 112.093 317.343 113.56C319.237 115.027 320.477 117.093 321.063 119.76H313.783C313.17 118.053 311.983 117.2 310.223 117.2C308.97 117.2 307.97 117.693 307.223 118.68C306.477 119.64 306.103 121.027 306.103 122.84C306.103 124.653 306.477 126.053 307.223 127.04C307.97 128 308.97 128.48 310.223 128.48C311.983 128.48 313.17 127.627 313.783 125.92H321.063C320.477 128.533 319.237 130.587 317.343 132.08C315.45 133.573 313.117 134.32 310.343 134.32C308.157 134.32 306.21 133.853 304.503 132.92C302.823 131.987 301.503 130.653 300.543 128.92C299.61 127.187 299.143 125.16 299.143 122.84ZM338.362 134L331.562 124.64V134H324.722V104.4H331.562V120.76L338.322 111.68H346.762L337.482 122.88L346.842 134H338.362Z" fill="#1C1C1C"/>
<path d="M3.696 176V166.464H0.56V164.8H8.656V166.464H5.424V176H3.696ZM10.3708 176V164.16H12.0188V169.328L11.7308 169.52C11.8374 169.147 12.0454 168.805 12.3548 168.496C12.6641 168.176 13.0321 167.92 13.4588 167.728C13.8854 167.525 14.3228 167.424 14.7708 167.424C15.4108 167.424 15.9441 167.552 16.3708 167.808C16.7974 168.053 17.1174 168.432 17.3308 168.944C17.5441 169.456 17.6508 170.101 17.6508 170.88V176H16.0028V170.992C16.0028 170.512 15.9388 170.117 15.8108 169.808C15.6828 169.488 15.4854 169.259 15.2188 169.12C14.9521 168.971 14.6214 168.907 14.2268 168.928C13.9068 168.928 13.6134 168.981 13.3468 169.088C13.0801 169.184 12.8454 169.323 12.6428 169.504C12.4508 169.685 12.2961 169.899 12.1788 170.144C12.0721 170.379 12.0188 170.635 12.0188 170.912V176H11.2028C11.0641 176 10.9254 176 10.7868 176C10.6481 176 10.5094 176 10.3708 176ZM23.8064 176.16C22.9424 176.16 22.1744 175.979 21.5024 175.616C20.841 175.243 20.3184 174.736 19.9344 174.096C19.561 173.456 19.3744 172.72 19.3744 171.888C19.3744 171.227 19.481 170.624 19.6944 170.08C19.9077 169.536 20.201 169.067 20.5744 168.672C20.9584 168.267 21.4117 167.957 21.9344 167.744C22.4677 167.52 23.0437 167.408 23.6624 167.408C24.2064 167.408 24.713 167.515 25.1824 167.728C25.6517 167.931 26.057 168.213 26.3984 168.576C26.7504 168.939 27.017 169.371 27.1984 169.872C27.3904 170.363 27.481 170.901 27.4704 171.488L27.4544 172.192H20.5904L20.2224 170.88H26.0304L25.7904 171.152V170.768C25.7584 170.416 25.641 170.101 25.4384 169.824C25.2357 169.547 24.9797 169.328 24.6704 169.168C24.361 169.008 24.025 168.928 23.6624 168.928C23.0864 168.928 22.601 169.04 22.2064 169.264C21.8117 169.477 21.513 169.797 21.3104 170.224C21.1077 170.64 21.0064 171.157 21.0064 171.776C21.0064 172.363 21.129 172.875 21.3744 173.312C21.6197 173.739 21.9664 174.069 22.4144 174.304C22.8624 174.539 23.3797 174.656 23.9664 174.656C24.3824 174.656 24.7664 174.587 25.1184 174.448C25.481 174.309 25.8704 174.059 26.2864 173.696L27.1184 174.864C26.8624 175.12 26.5477 175.344 26.1744 175.536C25.8117 175.728 25.4224 175.883 25.0064 176C24.601 176.107 24.201 176.16 23.8064 176.16ZM34.6578 176V166.656C34.6578 166.176 34.7644 165.749 34.9778 165.376C35.1911 165.003 35.4844 164.709 35.8578 164.496C36.2311 164.283 36.6631 164.176 37.1538 164.176C37.4951 164.176 37.8151 164.24 38.1138 164.368C38.4124 164.496 38.6524 164.667 38.8338 164.88L38.2738 166.144C38.1351 166.016 37.9804 165.915 37.8098 165.84C37.6498 165.755 37.4951 165.712 37.3458 165.712C37.1218 165.712 36.9298 165.749 36.7698 165.824C36.6204 165.888 36.5084 165.995 36.4338 166.144C36.3591 166.283 36.3218 166.453 36.3218 166.656V176H35.4898C35.3511 176 35.2124 176 35.0738 176C34.9351 176 34.7964 176 34.6578 176ZM33.3138 169.264V167.744H38.3058V169.264H33.3138ZM43.4905 176.16C42.6692 176.16 41.9332 175.973 41.2825 175.6C40.6425 175.216 40.1358 174.699 39.7625 174.048C39.3892 173.387 39.2025 172.635 39.2025 171.792C39.2025 170.949 39.3892 170.203 39.7625 169.552C40.1358 168.891 40.6425 168.373 41.2825 168C41.9332 167.616 42.6692 167.424 43.4905 167.424C44.3012 167.424 45.0265 167.616 45.6665 168C46.3172 168.373 46.8292 168.891 47.2025 169.552C47.5758 170.203 47.7625 170.949 47.7625 171.792C47.7625 172.635 47.5758 173.387 47.2025 174.048C46.8292 174.699 46.3172 175.216 45.6665 175.6C45.0265 175.973 44.3012 176.16 43.4905 176.16ZM43.4905 174.656C43.9918 174.656 44.4398 174.533 44.8345 174.288C45.2292 174.032 45.5385 173.691 45.7625 173.264C45.9865 172.827 46.0932 172.336 46.0825 171.792C46.0932 171.237 45.9865 170.747 45.7625 170.32C45.5385 169.883 45.2292 169.541 44.8345 169.296C44.4398 169.051 43.9918 168.928 43.4905 168.928C42.9892 168.928 42.5358 169.056 42.1305 169.312C41.7358 169.557 41.4265 169.899 41.2025 170.336C40.9785 170.763 40.8718 171.248 40.8825 171.792C40.8718 172.336 40.9785 172.827 41.2025 173.264C41.4265 173.691 41.7358 174.032 42.1305 174.288C42.5358 174.533 42.9892 174.656 43.4905 174.656ZM49.5903 176V164.16H51.2383V176H49.5903ZM53.6059 176V164.16H55.2539V176H53.6059ZM61.2093 176.16C60.3879 176.16 59.6519 175.973 59.0013 175.6C58.3613 175.216 57.8546 174.699 57.4813 174.048C57.1079 173.387 56.9213 172.635 56.9213 171.792C56.9213 170.949 57.1079 170.203 57.4813 169.552C57.8546 168.891 58.3613 168.373 59.0013 168C59.6519 167.616 60.3879 167.424 61.2093 167.424C62.0199 167.424 62.7453 167.616 63.3853 168C64.0359 168.373 64.5479 168.891 64.9213 169.552C65.2946 170.203 65.4813 170.949 65.4813 171.792C65.4813 172.635 65.2946 173.387 64.9213 174.048C64.5479 174.699 64.0359 175.216 63.3853 175.6C62.7453 175.973 62.0199 176.16 61.2093 176.16ZM61.2093 174.656C61.7106 174.656 62.1586 174.533 62.5533 174.288C62.9479 174.032 63.2573 173.691 63.4813 173.264C63.7053 172.827 63.8119 172.336 63.8013 171.792C63.8119 171.237 63.7053 170.747 63.4813 170.32C63.2573 169.883 62.9479 169.541 62.5533 169.296C62.1586 169.051 61.7106 168.928 61.2093 168.928C60.7079 168.928 60.2546 169.056 59.8493 169.312C59.4546 169.557 59.1453 169.899 58.9213 170.336C58.6973 170.763 58.5906 171.248 58.6013 171.792C58.5906 172.336 58.6973 172.827 58.9213 173.264C59.1453 173.691 59.4546 174.032 59.8493 174.288C60.2546 174.533 60.7079 174.656 61.2093 174.656ZM69.0285 176L66.1645 167.6L67.8285 167.584L69.8765 173.872L69.5085 173.84L71.7325 168.928H72.7245L74.9645 173.856L74.5325 173.888L76.5965 167.6H78.2605L75.4285 176H74.2925L71.9565 170.656L72.3245 170.704L70.1485 176H69.0285ZM80.0334 176V167.6H81.6814V176H80.0334ZM80.8334 165.744C80.4814 165.744 80.2094 165.653 80.0174 165.472C79.8254 165.291 79.7294 165.035 79.7294 164.704C79.7294 164.395 79.8254 164.144 80.0174 163.952C80.22 163.76 80.492 163.664 80.8334 163.664C81.1854 163.664 81.4574 163.755 81.6494 163.936C81.8414 164.117 81.9374 164.373 81.9374 164.704C81.9374 165.013 81.836 165.264 81.6334 165.456C81.4414 165.648 81.1747 165.744 80.8334 165.744ZM84.2145 176V167.6H85.8625V169.328L85.5745 169.52C85.6812 169.147 85.8892 168.805 86.1985 168.496C86.5078 168.176 86.8758 167.92 87.3025 167.728C87.7292 167.525 88.1665 167.424 88.6145 167.424C89.2545 167.424 89.7878 167.552 90.2145 167.808C90.6412 168.053 90.9612 168.432 91.1745 168.944C91.3878 169.456 91.4945 170.101 91.4945 170.88V176H89.8465V170.992C89.8465 170.512 89.7825 170.117 89.6545 169.808C89.5265 169.488 89.3292 169.259 89.0625 169.12C88.7958 168.971 88.4652 168.907 88.0705 168.928C87.7505 168.928 87.4572 168.981 87.1905 169.088C86.9238 169.184 86.6892 169.323 86.4865 169.504C86.2945 169.685 86.1398 169.899 86.0225 170.144C85.9158 170.379 85.8625 170.635 85.8625 170.912V176H85.0465C84.9078 176 84.7692 176 84.6305 176C84.4918 176 84.3532 176 84.2145 176ZM97.4901 179.68C96.8928 179.68 96.2955 179.584 95.6981 179.392C95.1115 179.211 94.6368 178.971 94.2741 178.672L94.8821 177.392C95.0955 177.552 95.3461 177.691 95.6341 177.808C95.9221 177.936 96.2261 178.032 96.5461 178.096C96.8661 178.171 97.1808 178.208 97.4901 178.208C98.0768 178.208 98.5675 178.112 98.9621 177.92C99.3568 177.728 99.6555 177.445 99.8581 177.072C100.061 176.699 100.162 176.235 100.162 175.68V174.064L100.338 174.176C100.285 174.507 100.109 174.827 99.8101 175.136C99.5221 175.435 99.1595 175.68 98.7221 175.872C98.2848 176.064 97.8368 176.16 97.3781 176.16C96.5781 176.16 95.8635 175.973 95.2341 175.6C94.6155 175.216 94.1248 174.699 93.7621 174.048C93.3995 173.387 93.2181 172.635 93.2181 171.792C93.2181 170.949 93.3941 170.203 93.7461 169.552C94.1088 168.891 94.5995 168.373 95.2181 168C95.8475 167.616 96.5515 167.424 97.3301 167.424C97.6501 167.424 97.9595 167.467 98.2581 167.552C98.5568 167.627 98.8341 167.739 99.0901 167.888C99.3461 168.027 99.5755 168.181 99.7781 168.352C99.9808 168.523 100.146 168.704 100.274 168.896C100.402 169.088 100.482 169.269 100.514 169.44L100.162 169.568V167.6H101.81V175.488C101.81 176.16 101.709 176.752 101.506 177.264C101.314 177.787 101.031 178.224 100.658 178.576C100.285 178.939 99.8315 179.211 99.2981 179.392C98.7648 179.584 98.1621 179.68 97.4901 179.68ZM97.5541 174.64C98.0768 174.64 98.5408 174.517 98.9461 174.272C99.3515 174.027 99.6661 173.691 99.8901 173.264C100.114 172.837 100.226 172.347 100.226 171.792C100.226 171.237 100.109 170.747 99.8741 170.32C99.6501 169.883 99.3355 169.541 98.9301 169.296C98.5355 169.051 98.0768 168.928 97.5541 168.928C97.0421 168.928 96.5835 169.056 96.1781 169.312C95.7835 169.557 95.4688 169.899 95.2341 170.336C95.0101 170.763 94.8981 171.248 94.8981 171.792C94.8981 172.336 95.0101 172.827 95.2341 173.264C95.4688 173.691 95.7835 174.027 96.1781 174.272C96.5835 174.517 97.0421 174.64 97.5541 174.64ZM112.173 176.16C111.394 176.16 110.696 175.968 110.077 175.584C109.469 175.2 108.984 174.677 108.621 174.016C108.269 173.355 108.093 172.613 108.093 171.792C108.093 170.971 108.269 170.229 108.621 169.568C108.984 168.907 109.469 168.384 110.077 168C110.696 167.616 111.394 167.424 112.173 167.424C112.92 167.424 113.597 167.579 114.205 167.888C114.824 168.187 115.293 168.597 115.613 169.12L114.701 170.24C114.53 169.995 114.312 169.771 114.045 169.568C113.778 169.365 113.496 169.205 113.197 169.088C112.898 168.971 112.61 168.912 112.333 168.912C111.821 168.912 111.362 169.04 110.957 169.296C110.562 169.541 110.248 169.883 110.013 170.32C109.778 170.757 109.661 171.248 109.661 171.792C109.661 172.336 109.784 172.827 110.029 173.264C110.274 173.691 110.6 174.032 111.005 174.288C111.41 174.544 111.858 174.672 112.349 174.672C112.637 174.672 112.914 174.624 113.181 174.528C113.458 174.432 113.725 174.288 113.981 174.096C114.237 173.904 114.477 173.669 114.701 173.392L115.613 174.512C115.272 174.992 114.781 175.387 114.141 175.696C113.512 176.005 112.856 176.16 112.173 176.16ZM120.944 176.16C120.122 176.16 119.386 175.973 118.736 175.6C118.096 175.216 117.589 174.699 117.216 174.048C116.842 173.387 116.656 172.635 116.656 171.792C116.656 170.949 116.842 170.203 117.216 169.552C117.589 168.891 118.096 168.373 118.736 168C119.386 167.616 120.122 167.424 120.944 167.424C121.754 167.424 122.48 167.616 123.12 168C123.77 168.373 124.282 168.891 124.656 169.552C125.029 170.203 125.216 170.949 125.216 171.792C125.216 172.635 125.029 173.387 124.656 174.048C124.282 174.699 123.77 175.216 123.12 175.6C122.48 175.973 121.754 176.16 120.944 176.16ZM120.944 174.656C121.445 174.656 121.893 174.533 122.288 174.288C122.682 174.032 122.992 173.691 123.216 173.264C123.44 172.827 123.546 172.336 123.536 171.792C123.546 171.237 123.44 170.747 123.216 170.32C122.992 169.883 122.682 169.541 122.288 169.296C121.893 169.051 121.445 168.928 120.944 168.928C120.442 168.928 119.989 169.056 119.584 169.312C119.189 169.557 118.88 169.899 118.656 170.336C118.432 170.763 118.325 171.248 118.336 171.792C118.325 172.336 118.432 172.827 118.656 173.264C118.88 173.691 119.189 174.032 119.584 174.288C119.989 174.533 120.442 174.656 120.944 174.656ZM127.011 176V167.6H128.659V169.328L128.371 169.52C128.478 169.147 128.686 168.805 128.995 168.496C129.305 168.176 129.673 167.92 130.099 167.728C130.526 167.525 130.963 167.424 131.411 167.424C132.051 167.424 132.585 167.552 133.011 167.808C133.438 168.053 133.758 168.432 133.971 168.944C134.185 169.456 134.291 170.101 134.291 170.88V176H132.643V170.992C132.643 170.512 132.579 170.117 132.451 169.808C132.323 169.488 132.126 169.259 131.859 169.12C131.593 168.971 131.262 168.907 130.867 168.928C130.547 168.928 130.254 168.981 129.987 169.088C129.721 169.184 129.486 169.323 129.283 169.504C129.091 169.685 128.937 169.899 128.819 170.144C128.713 170.379 128.659 170.635 128.659 170.912V176H127.843C127.705 176 127.566 176 127.427 176C127.289 176 127.15 176 127.011 176ZM137.567 176V165.456H139.215V176H137.567ZM135.823 169.2V167.6H141.167V169.2H135.823ZM146.51 176.16C145.646 176.16 144.878 175.979 144.206 175.616C143.544 175.243 143.022 174.736 142.638 174.096C142.264 173.456 142.078 172.72 142.078 171.888C142.078 171.227 142.184 170.624 142.398 170.08C142.611 169.536 142.904 169.067 143.278 168.672C143.662 168.267 144.115 167.957 144.638 167.744C145.171 167.52 145.747 167.408 146.366 167.408C146.91 167.408 147.416 167.515 147.886 167.728C148.355 167.931 148.76 168.213 149.102 168.576C149.454 168.939 149.72 169.371 149.902 169.872C150.094 170.363 150.184 170.901 150.174 171.488L150.158 172.192H143.294L142.926 170.88H148.734L148.494 171.152V170.768C148.462 170.416 148.344 170.101 148.142 169.824C147.939 169.547 147.683 169.328 147.374 169.168C147.064 169.008 146.728 168.928 146.366 168.928C145.79 168.928 145.304 169.04 144.91 169.264C144.515 169.477 144.216 169.797 144.014 170.224C143.811 170.64 143.71 171.157 143.71 171.776C143.71 172.363 143.832 172.875 144.078 173.312C144.323 173.739 144.67 174.069 145.118 174.304C145.566 174.539 146.083 174.656 146.67 174.656C147.086 174.656 147.47 174.587 147.822 174.448C148.184 174.309 148.574 174.059 148.99 173.696L149.822 174.864C149.566 175.12 149.251 175.344 148.878 175.536C148.515 175.728 148.126 175.883 147.71 176C147.304 176.107 146.904 176.16 146.51 176.16ZM151.965 176V167.6H153.613V169.328L153.325 169.52C153.431 169.147 153.639 168.805 153.949 168.496C154.258 168.176 154.626 167.92 155.053 167.728C155.479 167.525 155.917 167.424 156.365 167.424C157.005 167.424 157.538 167.552 157.965 167.808C158.391 168.053 158.711 168.432 158.925 168.944C159.138 169.456 159.245 170.101 159.245 170.88V176H157.597V170.992C157.597 170.512 157.533 170.117 157.405 169.808C157.277 169.488 157.079 169.259 156.813 169.12C156.546 168.971 156.215 168.907 155.821 168.928C155.501 168.928 155.207 168.981 154.941 169.088C154.674 169.184 154.439 169.323 154.237 169.504C154.045 169.685 153.89 169.899 153.773 170.144C153.666 170.379 153.613 170.635 153.613 170.912V176H152.797C152.658 176 152.519 176 152.381 176C152.242 176 152.103 176 151.965 176ZM162.52 176V165.456H164.168V176H162.52ZM160.776 169.2V167.6H166.12V169.2H160.776ZM172.377 176V167.6H174.025V176H172.377ZM173.177 165.744C172.825 165.744 172.553 165.653 172.361 165.472C172.169 165.291 172.073 165.035 172.073 164.704C172.073 164.395 172.169 164.144 172.361 163.952C172.564 163.76 172.836 163.664 173.177 163.664C173.529 163.664 173.801 163.755 173.993 163.936C174.185 164.117 174.281 164.373 174.281 164.704C174.281 165.013 174.18 165.264 173.977 165.456C173.785 165.648 173.518 165.744 173.177 165.744ZM179.358 176.16C178.654 176.16 178.02 176.037 177.454 175.792C176.889 175.547 176.42 175.184 176.046 174.704L177.166 173.744C177.486 174.117 177.833 174.389 178.206 174.56C178.59 174.72 179.022 174.8 179.502 174.8C179.694 174.8 179.87 174.779 180.03 174.736C180.201 174.683 180.345 174.608 180.462 174.512C180.59 174.416 180.686 174.304 180.75 174.176C180.814 174.037 180.846 173.888 180.846 173.728C180.846 173.451 180.745 173.227 180.542 173.056C180.436 172.981 180.265 172.901 180.03 172.816C179.806 172.72 179.513 172.624 179.15 172.528C178.532 172.368 178.025 172.187 177.63 171.984C177.236 171.781 176.932 171.552 176.718 171.296C176.558 171.093 176.441 170.875 176.366 170.64C176.292 170.395 176.254 170.128 176.254 169.84C176.254 169.488 176.329 169.168 176.478 168.88C176.638 168.581 176.852 168.325 177.118 168.112C177.396 167.888 177.716 167.717 178.078 167.6C178.452 167.483 178.846 167.424 179.262 167.424C179.657 167.424 180.046 167.477 180.43 167.584C180.825 167.691 181.188 167.845 181.518 168.048C181.849 168.251 182.126 168.491 182.35 168.768L181.406 169.808C181.204 169.605 180.98 169.429 180.734 169.28C180.5 169.12 180.26 168.997 180.014 168.912C179.769 168.827 179.545 168.784 179.342 168.784C179.118 168.784 178.916 168.805 178.734 168.848C178.553 168.891 178.398 168.955 178.27 169.04C178.153 169.125 178.062 169.232 177.998 169.36C177.934 169.488 177.902 169.632 177.902 169.792C177.913 169.931 177.945 170.064 177.998 170.192C178.062 170.309 178.148 170.411 178.254 170.496C178.372 170.581 178.548 170.672 178.782 170.768C179.017 170.864 179.316 170.955 179.678 171.04C180.212 171.179 180.649 171.333 180.99 171.504C181.342 171.664 181.62 171.851 181.822 172.064C182.036 172.267 182.185 172.501 182.27 172.768C182.356 173.035 182.398 173.333 182.398 173.664C182.398 174.144 182.26 174.576 181.982 174.96C181.716 175.333 181.353 175.627 180.894 175.84C180.436 176.053 179.924 176.16 179.358 176.16ZM188.699 176V167.6H190.363V170.24L190.203 169.6C190.32 169.195 190.518 168.827 190.795 168.496C191.083 168.165 191.408 167.904 191.771 167.712C192.144 167.52 192.528 167.424 192.923 167.424C193.104 167.424 193.275 167.44 193.435 167.472C193.606 167.504 193.739 167.541 193.835 167.584L193.403 169.376C193.275 169.323 193.131 169.28 192.971 169.248C192.822 169.205 192.672 169.184 192.523 169.184C192.235 169.184 191.958 169.243 191.691 169.36C191.435 169.467 191.206 169.621 191.003 169.824C190.811 170.016 190.656 170.245 190.539 170.512C190.422 170.768 190.363 171.051 190.363 171.36V176H188.699ZM198.713 176.16C197.849 176.16 197.081 175.979 196.409 175.616C195.747 175.243 195.225 174.736 194.841 174.096C194.467 173.456 194.281 172.72 194.281 171.888C194.281 171.227 194.387 170.624 194.601 170.08C194.814 169.536 195.107 169.067 195.481 168.672C195.865 168.267 196.318 167.957 196.841 167.744C197.374 167.52 197.95 167.408 198.569 167.408C199.113 167.408 199.619 167.515 200.089 167.728C200.558 167.931 200.963 168.213 201.305 168.576C201.657 168.939 201.923 169.371 202.105 169.872C202.297 170.363 202.387 170.901 202.377 171.488L202.361 172.192H195.497L195.129 170.88H200.937L200.697 171.152V170.768C200.665 170.416 200.547 170.101 200.345 169.824C200.142 169.547 199.886 169.328 199.577 169.168C199.267 169.008 198.931 168.928 198.569 168.928C197.993 168.928 197.507 169.04 197.113 169.264C196.718 169.477 196.419 169.797 196.217 170.224C196.014 170.64 195.913 171.157 195.913 171.776C195.913 172.363 196.035 172.875 196.281 173.312C196.526 173.739 196.873 174.069 197.321 174.304C197.769 174.539 198.286 174.656 198.873 174.656C199.289 174.656 199.673 174.587 200.025 174.448C200.387 174.309 200.777 174.059 201.193 173.696L202.025 174.864C201.769 175.12 201.454 175.344 201.081 175.536C200.718 175.728 200.329 175.883 199.913 176C199.507 176.107 199.107 176.16 198.713 176.16ZM206.968 176.16C206.264 176.16 205.629 176.037 205.064 175.792C204.498 175.547 204.029 175.184 203.656 174.704L204.776 173.744C205.096 174.117 205.442 174.389 205.816 174.56C206.2 174.72 206.632 174.8 207.112 174.8C207.304 174.8 207.48 174.779 207.64 174.736C207.81 174.683 207.954 174.608 208.072 174.512C208.2 174.416 208.296 174.304 208.36 174.176C208.424 174.037 208.456 173.888 208.456 173.728C208.456 173.451 208.354 173.227 208.152 173.056C208.045 172.981 207.874 172.901 207.64 172.816C207.416 172.72 207.122 172.624 206.76 172.528C206.141 172.368 205.634 172.187 205.24 171.984C204.845 171.781 204.541 171.552 204.328 171.296C204.168 171.093 204.05 170.875 203.976 170.64C203.901 170.395 203.864 170.128 203.864 169.84C203.864 169.488 203.938 169.168 204.088 168.88C204.248 168.581 204.461 168.325 204.728 168.112C205.005 167.888 205.325 167.717 205.688 167.6C206.061 167.483 206.456 167.424 206.872 167.424C207.266 167.424 207.656 167.477 208.04 167.584C208.434 167.691 208.797 167.845 209.128 168.048C209.458 168.251 209.736 168.491 209.96 168.768L209.016 169.808C208.813 169.605 208.589 169.429 208.344 169.28C208.109 169.12 207.869 168.997 207.624 168.912C207.378 168.827 207.154 168.784 206.952 168.784C206.728 168.784 206.525 168.805 206.344 168.848C206.162 168.891 206.008 168.955 205.88 169.04C205.762 169.125 205.672 169.232 205.608 169.36C205.544 169.488 205.512 169.632 205.512 169.792C205.522 169.931 205.554 170.064 205.608 170.192C205.672 170.309 205.757 170.411 205.864 170.496C205.981 170.581 206.157 170.672 206.392 170.768C206.626 170.864 206.925 170.955 207.288 171.04C207.821 171.179 208.258 171.333 208.6 171.504C208.952 171.664 209.229 171.851 209.432 172.064C209.645 172.267 209.794 172.501 209.88 172.768C209.965 173.035 210.008 173.333 210.008 173.664C210.008 174.144 209.869 174.576 209.592 174.96C209.325 175.333 208.962 175.627 208.504 175.84C208.045 176.053 207.533 176.16 206.968 176.16ZM212.864 176V165.456H214.512V176H212.864ZM211.12 169.2V167.6H216.464V169.2H211.12ZM217.965 176V167.6H219.629V170.24L219.469 169.6C219.586 169.195 219.783 168.827 220.061 168.496C220.349 168.165 220.674 167.904 221.036 167.712C221.41 167.52 221.794 167.424 222.189 167.424C222.37 167.424 222.541 167.44 222.701 167.472C222.871 167.504 223.005 167.541 223.101 167.584L222.669 169.376C222.541 169.323 222.397 169.28 222.237 169.248C222.087 169.205 221.938 169.184 221.789 169.184C221.501 169.184 221.223 169.243 220.957 169.36C220.701 169.467 220.471 169.621 220.269 169.824C220.077 170.016 219.922 170.245 219.805 170.512C219.687 170.768 219.629 171.051 219.629 171.36V176H217.965ZM224.69 176V167.6H226.338V176H224.69ZM225.49 165.744C225.138 165.744 224.866 165.653 224.674 165.472C224.482 165.291 224.386 165.035 224.386 164.704C224.386 164.395 224.482 164.144 224.674 163.952C224.876 163.76 225.148 163.664 225.49 163.664C225.842 163.664 226.114 163.755 226.306 163.936C226.498 164.117 226.594 164.373 226.594 164.704C226.594 165.013 226.492 165.264 226.29 165.456C226.098 165.648 225.831 165.744 225.49 165.744ZM232.439 176.16C231.66 176.16 230.961 175.968 230.343 175.584C229.735 175.2 229.249 174.677 228.887 174.016C228.535 173.355 228.359 172.613 228.359 171.792C228.359 170.971 228.535 170.229 228.887 169.568C229.249 168.907 229.735 168.384 230.343 168C230.961 167.616 231.66 167.424 232.439 167.424C233.185 167.424 233.863 167.579 234.471 167.888C235.089 168.187 235.559 168.597 235.879 169.12L234.967 170.24C234.796 169.995 234.577 169.771 234.311 169.568C234.044 169.365 233.761 169.205 233.463 169.088C233.164 168.971 232.876 168.912 232.599 168.912C232.087 168.912 231.628 169.04 231.223 169.296C230.828 169.541 230.513 169.883 230.279 170.32C230.044 170.757 229.927 171.248 229.927 171.792C229.927 172.336 230.049 172.827 230.295 173.264C230.54 173.691 230.865 174.032 231.271 174.288C231.676 174.544 232.124 174.672 232.615 174.672C232.903 174.672 233.18 174.624 233.447 174.528C233.724 174.432 233.991 174.288 234.247 174.096C234.503 173.904 234.743 173.669 234.967 173.392L235.879 174.512C235.537 174.992 235.047 175.387 234.407 175.696C233.777 176.005 233.121 176.16 232.439 176.16ZM238.473 176V165.456H240.121V176H238.473ZM236.729 169.2V167.6H242.073V169.2H236.729ZM247.416 176.16C246.552 176.16 245.784 175.979 245.112 175.616C244.45 175.243 243.928 174.736 243.544 174.096C243.17 173.456 242.984 172.72 242.984 171.888C242.984 171.227 243.09 170.624 243.304 170.08C243.517 169.536 243.81 169.067 244.184 168.672C244.568 168.267 245.021 167.957 245.544 167.744C246.077 167.52 246.653 167.408 247.272 167.408C247.816 167.408 248.322 167.515 248.792 167.728C249.261 167.931 249.666 168.213 250.008 168.576C250.36 168.939 250.626 169.371 250.808 169.872C251 170.363 251.09 170.901 251.08 171.488L251.064 172.192H244.2L243.832 170.88H249.64L249.4 171.152V170.768C249.368 170.416 249.25 170.101 249.048 169.824C248.845 169.547 248.589 169.328 248.28 169.168C247.97 169.008 247.634 168.928 247.272 168.928C246.696 168.928 246.21 169.04 245.816 169.264C245.421 169.477 245.122 169.797 244.92 170.224C244.717 170.64 244.616 171.157 244.616 171.776C244.616 172.363 244.738 172.875 244.984 173.312C245.229 173.739 245.576 174.069 246.024 174.304C246.472 174.539 246.989 174.656 247.576 174.656C247.992 174.656 248.376 174.587 248.728 174.448C249.09 174.309 249.48 174.059 249.896 173.696L250.728 174.864C250.472 175.12 250.157 175.344 249.784 175.536C249.421 175.728 249.032 175.883 248.616 176C248.21 176.107 247.81 176.16 247.416 176.16ZM256.375 176.16C255.607 176.16 254.919 175.973 254.311 175.6C253.713 175.216 253.239 174.699 252.887 174.048C252.535 173.387 252.359 172.635 252.359 171.792C252.359 170.949 252.529 170.203 252.871 169.552C253.223 168.891 253.697 168.373 254.295 168C254.892 167.616 255.569 167.424 256.327 167.424C256.743 167.424 257.143 167.493 257.527 167.632C257.921 167.76 258.273 167.941 258.583 168.176C258.892 168.4 259.132 168.651 259.303 168.928C259.484 169.195 259.575 169.467 259.575 169.744L259.095 169.776V164.16H260.743V176H259.095V174H259.415C259.415 174.256 259.329 174.512 259.159 174.768C258.988 175.013 258.759 175.243 258.471 175.456C258.193 175.669 257.868 175.84 257.495 175.968C257.132 176.096 256.759 176.16 256.375 176.16ZM256.599 174.736C257.1 174.736 257.543 174.608 257.927 174.352C258.311 174.096 258.609 173.749 258.823 173.312C259.047 172.864 259.159 172.357 259.159 171.792C259.159 171.227 259.047 170.725 258.823 170.288C258.609 169.84 258.311 169.488 257.927 169.232C257.543 168.976 257.1 168.848 256.599 168.848C256.097 168.848 255.655 168.976 255.271 169.232C254.887 169.488 254.583 169.84 254.359 170.288C254.145 170.725 254.039 171.227 254.039 171.792C254.039 172.357 254.145 172.864 254.359 173.312C254.583 173.749 254.887 174.096 255.271 174.352C255.655 174.608 256.097 174.736 256.599 174.736ZM271.912 176.16C271.549 176.16 271.186 176.101 270.824 175.984C270.472 175.867 270.146 175.712 269.848 175.52C269.56 175.317 269.314 175.099 269.112 174.864C268.92 174.619 268.792 174.373 268.728 174.128L269.144 173.904V175.952H267.496V164.16H269.144V169.52L268.888 169.376C268.941 169.131 269.058 168.896 269.24 168.672C269.421 168.437 269.65 168.229 269.928 168.048C270.216 167.856 270.525 167.707 270.856 167.6C271.186 167.483 271.522 167.424 271.864 167.424C272.621 167.424 273.293 167.611 273.88 167.984C274.466 168.357 274.93 168.875 275.272 169.536C275.613 170.187 275.784 170.933 275.784 171.776C275.784 172.619 275.613 173.371 275.272 174.032C274.941 174.693 274.482 175.216 273.896 175.6C273.309 175.973 272.648 176.16 271.912 176.16ZM271.64 174.656C272.13 174.656 272.568 174.533 272.952 174.288C273.336 174.032 273.64 173.691 273.864 173.264C274.088 172.827 274.2 172.331 274.2 171.776C274.2 171.232 274.088 170.747 273.864 170.32C273.65 169.883 273.352 169.541 272.968 169.296C272.584 169.051 272.141 168.928 271.64 168.928C271.138 168.928 270.696 169.051 270.312 169.296C269.928 169.541 269.624 169.883 269.4 170.32C269.176 170.747 269.064 171.232 269.064 171.776C269.064 172.331 269.176 172.827 269.4 173.264C269.624 173.691 269.928 174.032 270.312 174.288C270.696 174.533 271.138 174.656 271.64 174.656ZM278.669 179.68L280.365 175.76L280.381 177.072L276.189 167.6H278.109L280.733 173.776C280.787 173.883 280.851 174.048 280.925 174.272C281 174.485 281.064 174.699 281.117 174.912L280.701 175.008C280.787 174.784 280.867 174.56 280.941 174.336C281.027 174.112 281.107 173.888 281.181 173.664L283.373 167.6H285.325L281.869 176L280.445 179.68H278.669ZM291.459 176V164.8H296.019C296.627 164.8 297.176 164.955 297.667 165.264C298.168 165.563 298.568 165.973 298.867 166.496C299.165 167.019 299.315 167.6 299.315 168.24C299.315 168.88 299.165 169.461 298.867 169.984C298.568 170.507 298.168 170.928 297.667 171.248C297.176 171.557 296.627 171.712 296.019 171.712H293.187V176H291.459ZM293.187 170.048H295.987C296.275 170.048 296.536 169.968 296.771 169.808C297.005 169.637 297.192 169.419 297.331 169.152C297.48 168.875 297.555 168.571 297.555 168.24C297.555 167.909 297.48 167.611 297.331 167.344C297.192 167.077 297.005 166.864 296.771 166.704C296.536 166.544 296.275 166.464 295.987 166.464H293.187V170.048ZM304.259 176.16C303.566 176.16 302.931 175.968 302.355 175.584C301.79 175.2 301.336 174.677 300.995 174.016C300.654 173.355 300.483 172.608 300.483 171.776C300.483 170.933 300.654 170.187 300.995 169.536C301.347 168.875 301.816 168.357 302.403 167.984C303 167.611 303.667 167.424 304.403 167.424C304.84 167.424 305.24 167.488 305.603 167.616C305.966 167.744 306.28 167.925 306.547 168.16C306.824 168.384 307.048 168.645 307.219 168.944C307.4 169.243 307.512 169.563 307.555 169.904L307.187 169.776V167.6H308.851V176H307.187V174L307.571 173.888C307.507 174.176 307.374 174.459 307.171 174.736C306.979 175.003 306.728 175.243 306.419 175.456C306.12 175.669 305.784 175.84 305.411 175.968C305.048 176.096 304.664 176.16 304.259 176.16ZM304.691 174.64C305.192 174.64 305.635 174.517 306.019 174.272C306.403 174.027 306.702 173.691 306.915 173.264C307.139 172.827 307.251 172.331 307.251 171.776C307.251 171.232 307.139 170.747 306.915 170.32C306.702 169.893 306.403 169.557 306.019 169.312C305.635 169.067 305.192 168.944 304.691 168.944C304.2 168.944 303.763 169.067 303.379 169.312C303.006 169.557 302.707 169.893 302.483 170.32C302.27 170.747 302.163 171.232 302.163 171.776C302.163 172.331 302.27 172.827 302.483 173.264C302.707 173.691 303.006 174.027 303.379 174.272C303.763 174.517 304.2 174.64 304.691 174.64ZM311.152 176V167.6H312.816V170.24L312.656 169.6C312.773 169.195 312.971 168.827 313.248 168.496C313.536 168.165 313.861 167.904 314.224 167.712C314.597 167.52 314.981 167.424 315.376 167.424C315.557 167.424 315.728 167.44 315.888 167.472C316.059 167.504 316.192 167.541 316.288 167.584L315.856 169.376C315.728 169.323 315.584 169.28 315.424 169.248C315.275 169.205 315.125 169.184 314.976 169.184C314.688 169.184 314.411 169.243 314.144 169.36C313.888 169.467 313.659 169.621 313.456 169.824C313.264 170.016 313.109 170.245 312.992 170.512C312.875 170.768 312.816 171.051 312.816 171.36V176H311.152ZM321.166 176.16C320.302 176.16 319.534 175.979 318.862 175.616C318.2 175.243 317.678 174.736 317.294 174.096C316.92 173.456 316.734 172.72 316.734 171.888C316.734 171.227 316.84 170.624 317.054 170.08C317.267 169.536 317.56 169.067 317.934 168.672C318.318 168.267 318.771 167.957 319.294 167.744C319.827 167.52 320.403 167.408 321.022 167.408C321.566 167.408 322.072 167.515 322.542 167.728C323.011 167.931 323.416 168.213 323.758 168.576C324.11 168.939 324.376 169.371 324.558 169.872C324.75 170.363 324.84 170.901 324.83 171.488L324.814 172.192H317.95L317.582 170.88H323.39L323.15 171.152V170.768C323.118 170.416 323 170.101 322.798 169.824C322.595 169.547 322.339 169.328 322.03 169.168C321.72 169.008 321.384 168.928 321.022 168.928C320.446 168.928 319.96 169.04 319.566 169.264C319.171 169.477 318.872 169.797 318.67 170.224C318.467 170.64 318.366 171.157 318.366 171.776C318.366 172.363 318.488 172.875 318.734 173.312C318.979 173.739 319.326 174.069 319.774 174.304C320.222 174.539 320.739 174.656 321.326 174.656C321.742 174.656 322.126 174.587 322.478 174.448C322.84 174.309 323.23 174.059 323.646 173.696L324.478 174.864C324.222 175.12 323.907 175.344 323.534 175.536C323.171 175.728 322.782 175.883 322.366 176C321.96 176.107 321.56 176.16 321.166 176.16ZM326.621 176V167.6H328.269V169.328L327.981 169.52C328.087 169.147 328.295 168.805 328.605 168.496C328.914 168.176 329.282 167.92 329.709 167.728C330.135 167.525 330.573 167.424 331.021 167.424C331.661 167.424 332.194 167.552 332.621 167.808C333.047 168.053 333.367 168.432 333.581 168.944C333.794 169.456 333.901 170.101 333.901 170.88V176H332.253V170.992C332.253 170.512 332.189 170.117 332.061 169.808C331.933 169.488 331.735 169.259 331.469 169.12C331.202 168.971 330.871 168.907 330.477 168.928C330.157 168.928 329.863 168.981 329.597 169.088C329.33 169.184 329.095 169.323 328.893 169.504C328.701 169.685 328.546 169.899 328.429 170.144C328.322 170.379 328.269 170.635 328.269 170.912V176H327.453C327.314 176 327.175 176 327.037 176C326.898 176 326.759 176 326.621 176ZM337.176 176V165.456H338.824V176H337.176ZM335.432 169.2V167.6H340.776V169.2H335.432ZM345.431 176.16C344.738 176.16 344.103 175.968 343.527 175.584C342.962 175.2 342.508 174.677 342.167 174.016C341.826 173.355 341.655 172.608 341.655 171.776C341.655 170.933 341.826 170.187 342.167 169.536C342.519 168.875 342.988 168.357 343.575 167.984C344.172 167.611 344.839 167.424 345.575 167.424C346.012 167.424 346.412 167.488 346.775 167.616C347.138 167.744 347.452 167.925 347.719 168.16C347.996 168.384 348.22 168.645 348.391 168.944C348.572 169.243 348.684 169.563 348.727 169.904L348.359 169.776V167.6H350.023V176H348.359V174L348.743 173.888C348.679 174.176 348.546 174.459 348.343 174.736C348.151 175.003 347.9 175.243 347.591 175.456C347.292 175.669 346.956 175.84 346.583 175.968C346.22 176.096 345.836 176.16 345.431 176.16ZM345.863 174.64C346.364 174.64 346.807 174.517 347.191 174.272C347.575 174.027 347.874 173.691 348.087 173.264C348.311 172.827 348.423 172.331 348.423 171.776C348.423 171.232 348.311 170.747 348.087 170.32C347.874 169.893 347.575 169.557 347.191 169.312C346.807 169.067 346.364 168.944 345.863 168.944C345.372 168.944 344.935 169.067 344.551 169.312C344.178 169.557 343.879 169.893 343.655 170.32C343.442 170.747 343.335 171.232 343.335 171.776C343.335 172.331 343.442 172.827 343.655 173.264C343.879 173.691 344.178 174.027 344.551 174.272C344.935 174.517 345.372 174.64 345.863 174.64ZM352.356 176V164.16H354.004V176H352.356ZM6.112 196.16C5.33333 196.16 4.61867 196.021 3.968 195.744C3.31733 195.467 2.752 195.072 2.272 194.56C1.792 194.037 1.41867 193.424 1.152 192.72C0.896 192.016 0.768 191.243 0.768 190.4C0.768 189.6 0.906667 188.859 1.184 188.176C1.472 187.483 1.86667 186.875 2.368 186.352C2.86933 185.829 3.45067 185.424 4.112 185.136C4.77333 184.848 5.488 184.704 6.256 184.704C6.8 184.704 7.328 184.789 7.84 184.96C8.36267 185.12 8.832 185.349 9.248 185.648C9.67467 185.936 10.0213 186.267 10.288 186.64L9.136 187.84C8.82667 187.531 8.512 187.275 8.192 187.072C7.88267 186.859 7.56267 186.699 7.232 186.592C6.912 186.485 6.58667 186.432 6.256 186.432C5.73333 186.432 5.24267 186.533 4.784 186.736C4.336 186.928 3.94133 187.2 3.6 187.552C3.26933 187.904 3.008 188.325 2.816 188.816C2.624 189.296 2.528 189.824 2.528 190.4C2.528 191.008 2.61867 191.563 2.8 192.064C2.992 192.555 3.25867 192.976 3.6 193.328C3.94133 193.68 4.34667 193.952 4.816 194.144C5.296 194.325 5.824 194.416 6.4 194.416C6.752 194.416 7.09867 194.368 7.44 194.272C7.78133 194.176 8.10133 194.037 8.4 193.856C8.69867 193.675 8.97067 193.461 9.216 193.216L10.08 194.624C9.83467 194.912 9.49867 195.173 9.072 195.408C8.656 195.643 8.18667 195.829 7.664 195.968C7.152 196.096 6.63467 196.16 6.112 196.16ZM15.7874 196.16C14.966 196.16 14.23 195.973 13.5794 195.6C12.9394 195.216 12.4327 194.699 12.0594 194.048C11.686 193.387 11.4994 192.635 11.4994 191.792C11.4994 190.949 11.686 190.203 12.0594 189.552C12.4327 188.891 12.9394 188.373 13.5794 188C14.23 187.616 14.966 187.424 15.7874 187.424C16.598 187.424 17.3234 187.616 17.9634 188C18.614 188.373 19.126 188.891 19.4994 189.552C19.8727 190.203 20.0594 190.949 20.0594 191.792C20.0594 192.635 19.8727 193.387 19.4994 194.048C19.126 194.699 18.614 195.216 17.9634 195.6C17.3234 195.973 16.598 196.16 15.7874 196.16ZM15.7874 194.656C16.2887 194.656 16.7367 194.533 17.1314 194.288C17.526 194.032 17.8354 193.691 18.0594 193.264C18.2834 192.827 18.39 192.336 18.3794 191.792C18.39 191.237 18.2834 190.747 18.0594 190.32C17.8354 189.883 17.526 189.541 17.1314 189.296C16.7367 189.051 16.2887 188.928 15.7874 188.928C15.286 188.928 14.8327 189.056 14.4274 189.312C14.0327 189.557 13.7234 189.899 13.4994 190.336C13.2754 190.763 13.1687 191.248 13.1794 191.792C13.1687 192.336 13.2754 192.827 13.4994 193.264C13.7234 193.691 14.0327 194.032 14.4274 194.288C14.8327 194.533 15.286 194.656 15.7874 194.656ZM21.8551 196V187.6H23.5031V189.328L23.2151 189.52C23.3218 189.147 23.5298 188.805 23.8391 188.496C24.1485 188.176 24.5165 187.92 24.9431 187.728C25.3698 187.525 25.8071 187.424 26.2551 187.424C26.8951 187.424 27.4285 187.552 27.8551 187.808C28.2818 188.053 28.6018 188.432 28.8151 188.944C29.0285 189.456 29.1351 190.101 29.1351 190.88V196H27.4871V190.992C27.4871 190.512 27.4231 190.117 27.2951 189.808C27.1671 189.488 26.9698 189.259 26.7031 189.12C26.4365 188.971 26.1058 188.907 25.7111 188.928C25.3911 188.928 25.0978 188.981 24.8311 189.088C24.5645 189.184 24.3298 189.323 24.1271 189.504C23.9351 189.685 23.7805 189.899 23.6631 190.144C23.5565 190.379 23.5031 190.635 23.5031 190.912V196H22.6871C22.5485 196 22.4098 196 22.2711 196C22.1325 196 21.9938 196 21.8551 196ZM32.4108 196V185.456H34.0588V196H32.4108ZM30.6668 189.2V187.6H36.0108V189.2H30.6668ZM37.5114 196V187.6H39.1754V190.24L39.0154 189.6C39.1327 189.195 39.33 188.827 39.6074 188.496C39.8954 188.165 40.2207 187.904 40.5834 187.712C40.9567 187.52 41.3407 187.424 41.7354 187.424C41.9167 187.424 42.0874 187.44 42.2474 187.472C42.418 187.504 42.5514 187.541 42.6474 187.584L42.2154 189.376C42.0874 189.323 41.9434 189.28 41.7834 189.248C41.634 189.205 41.4847 189.184 41.3354 189.184C41.0474 189.184 40.77 189.243 40.5034 189.36C40.2474 189.467 40.018 189.621 39.8154 189.824C39.6234 190.016 39.4687 190.245 39.3514 190.512C39.234 190.768 39.1754 191.051 39.1754 191.36V196H37.5114ZM47.3811 196.16C46.5598 196.16 45.8238 195.973 45.1731 195.6C44.5331 195.216 44.0265 194.699 43.6531 194.048C43.2798 193.387 43.0931 192.635 43.0931 191.792C43.0931 190.949 43.2798 190.203 43.6531 189.552C44.0265 188.891 44.5331 188.373 45.1731 188C45.8238 187.616 46.5598 187.424 47.3811 187.424C48.1918 187.424 48.9171 187.616 49.5571 188C50.2078 188.373 50.7198 188.891 51.0931 189.552C51.4665 190.203 51.6531 190.949 51.6531 191.792C51.6531 192.635 51.4665 193.387 51.0931 194.048C50.7198 194.699 50.2078 195.216 49.5571 195.6C48.9171 195.973 48.1918 196.16 47.3811 196.16ZM47.3811 194.656C47.8825 194.656 48.3305 194.533 48.7251 194.288C49.1198 194.032 49.4291 193.691 49.6531 193.264C49.8771 192.827 49.9838 192.336 49.9731 191.792C49.9838 191.237 49.8771 190.747 49.6531 190.32C49.4291 189.883 49.1198 189.541 48.7251 189.296C48.3305 189.051 47.8825 188.928 47.3811 188.928C46.8798 188.928 46.4265 189.056 46.0211 189.312C45.6265 189.557 45.3171 189.899 45.0931 190.336C44.8691 190.763 44.7625 191.248 44.7731 191.792C44.7625 192.336 44.8691 192.827 45.0931 193.264C45.3171 193.691 45.6265 194.032 46.0211 194.288C46.4265 194.533 46.8798 194.656 47.3811 194.656ZM53.4809 196V184.16H55.1289V196H53.4809ZM60.2645 196.16C59.5605 196.16 58.9258 196.037 58.3605 195.792C57.7952 195.547 57.3258 195.184 56.9525 194.704L58.0725 193.744C58.3925 194.117 58.7392 194.389 59.1125 194.56C59.4965 194.72 59.9285 194.8 60.4085 194.8C60.6005 194.8 60.7765 194.779 60.9365 194.736C61.1072 194.683 61.2512 194.608 61.3685 194.512C61.4965 194.416 61.5925 194.304 61.6565 194.176C61.7205 194.037 61.7525 193.888 61.7525 193.728C61.7525 193.451 61.6512 193.227 61.4485 193.056C61.3418 192.981 61.1712 192.901 60.9365 192.816C60.7125 192.72 60.4192 192.624 60.0565 192.528C59.4378 192.368 58.9312 192.187 58.5365 191.984C58.1418 191.781 57.8378 191.552 57.6245 191.296C57.4645 191.093 57.3472 190.875 57.2725 190.64C57.1978 190.395 57.1605 190.128 57.1605 189.84C57.1605 189.488 57.2352 189.168 57.3845 188.88C57.5445 188.581 57.7578 188.325 58.0245 188.112C58.3018 187.888 58.6218 187.717 58.9845 187.6C59.3578 187.483 59.7525 187.424 60.1685 187.424C60.5632 187.424 60.9525 187.477 61.3365 187.584C61.7312 187.691 62.0938 187.845 62.4245 188.048C62.7552 188.251 63.0325 188.491 63.2565 188.768L62.3125 189.808C62.1098 189.605 61.8858 189.429 61.6405 189.28C61.4058 189.12 61.1658 188.997 60.9205 188.912C60.6752 188.827 60.4512 188.784 60.2485 188.784C60.0245 188.784 59.8218 188.805 59.6405 188.848C59.4592 188.891 59.3045 188.955 59.1765 189.04C59.0592 189.125 58.9685 189.232 58.9045 189.36C58.8405 189.488 58.8085 189.632 58.8085 189.792C58.8192 189.931 58.8512 190.064 58.9045 190.192C58.9685 190.309 59.0538 190.411 59.1605 190.496C59.2778 190.581 59.4538 190.672 59.6885 190.768C59.9232 190.864 60.2218 190.955 60.5845 191.04C61.1178 191.179 61.5552 191.333 61.8965 191.504C62.2485 191.664 62.5258 191.851 62.7285 192.064C62.9418 192.267 63.0912 192.501 63.1765 192.768C63.2618 193.035 63.3045 193.333 63.3045 193.664C63.3045 194.144 63.1658 194.576 62.8885 194.96C62.6218 195.333 62.2592 195.627 61.8005 195.84C61.3418 196.053 60.8298 196.16 60.2645 196.16ZM65.7928 196.176C65.4408 196.176 65.1688 196.075 64.9768 195.872C64.7848 195.659 64.6888 195.36 64.6888 194.976C64.6888 194.624 64.7901 194.336 64.9928 194.112C65.1954 193.888 65.4621 193.776 65.7928 193.776C66.1448 193.776 66.4168 193.883 66.6088 194.096C66.8008 194.299 66.8968 194.592 66.8968 194.976C66.8968 195.328 66.7954 195.616 66.5928 195.84C66.3901 196.064 66.1234 196.176 65.7928 196.176ZM73.6618 196V184.8H78.2218C78.8298 184.8 79.3791 184.955 79.8698 185.264C80.3711 185.563 80.7711 185.973 81.0698 186.496C81.3684 187.019 81.5178 187.6 81.5178 188.24C81.5178 188.88 81.3684 189.461 81.0698 189.984C80.7711 190.507 80.3711 190.928 79.8698 191.248C79.3791 191.557 78.8298 191.712 78.2218 191.712H75.3898V196H73.6618ZM75.3898 190.048H78.1898C78.4778 190.048 78.7391 189.968 78.9738 189.808C79.2084 189.637 79.3951 189.419 79.5338 189.152C79.6831 188.875 79.7578 188.571 79.7578 188.24C79.7578 187.909 79.6831 187.611 79.5338 187.344C79.3951 187.077 79.2084 186.864 78.9738 186.704C78.7391 186.544 78.4778 186.464 78.1898 186.464H75.3898V190.048ZM83.4184 196V184.16H85.0664V196H83.4184ZM91.1658 196.16C90.3018 196.16 89.5338 195.979 88.8618 195.616C88.2004 195.243 87.6778 194.736 87.2938 194.096C86.9204 193.456 86.7338 192.72 86.7338 191.888C86.7338 191.227 86.8404 190.624 87.0538 190.08C87.2671 189.536 87.5604 189.067 87.9338 188.672C88.3178 188.267 88.7711 187.957 89.2938 187.744C89.8271 187.52 90.4031 187.408 91.0218 187.408C91.5658 187.408 92.0724 187.515 92.5418 187.728C93.0111 187.931 93.4164 188.213 93.7578 188.576C94.1098 188.939 94.3764 189.371 94.5578 189.872C94.7498 190.363 94.8404 190.901 94.8298 191.488L94.8138 192.192H87.9498L87.5818 190.88H93.3898L93.1498 191.152V190.768C93.1178 190.416 93.0004 190.101 92.7978 189.824C92.5951 189.547 92.3391 189.328 92.0298 189.168C91.7204 189.008 91.3844 188.928 91.0218 188.928C90.4458 188.928 89.9604 189.04 89.5658 189.264C89.1711 189.477 88.8724 189.797 88.6698 190.224C88.4671 190.64 88.3658 191.157 88.3658 191.776C88.3658 192.363 88.4884 192.875 88.7338 193.312C88.9791 193.739 89.3258 194.069 89.7738 194.304C90.2218 194.539 90.7391 194.656 91.3258 194.656C91.7418 194.656 92.1258 194.587 92.4778 194.448C92.8404 194.309 93.2298 194.059 93.6458 193.696L94.4778 194.864C94.2218 195.12 93.9071 195.344 93.5338 195.536C93.1711 195.728 92.7818 195.883 92.3658 196C91.9604 196.107 91.5604 196.16 91.1658 196.16ZM99.8528 196.16C99.1594 196.16 98.5248 195.968 97.9488 195.584C97.3834 195.2 96.9301 194.677 96.5888 194.016C96.2474 193.355 96.0768 192.608 96.0768 191.776C96.0768 190.933 96.2474 190.187 96.5888 189.536C96.9408 188.875 97.4101 188.357 97.9968 187.984C98.5941 187.611 99.2608 187.424 99.9968 187.424C100.434 187.424 100.834 187.488 101.197 187.616C101.559 187.744 101.874 187.925 102.141 188.16C102.418 188.384 102.642 188.645 102.813 188.944C102.994 189.243 103.106 189.563 103.149 189.904L102.781 189.776V187.6H104.445V196H102.781V194L103.165 193.888C103.101 194.176 102.967 194.459 102.765 194.736C102.573 195.003 102.322 195.243 102.013 195.456C101.714 195.669 101.378 195.84 101.005 195.968C100.642 196.096 100.258 196.16 99.8528 196.16ZM100.285 194.64C100.786 194.64 101.229 194.517 101.613 194.272C101.997 194.027 102.295 193.691 102.509 193.264C102.733 192.827 102.845 192.331 102.845 191.776C102.845 191.232 102.733 190.747 102.509 190.32C102.295 189.893 101.997 189.557 101.613 189.312C101.229 189.067 100.786 188.944 100.285 188.944C99.7941 188.944 99.3568 189.067 98.9728 189.312C98.5994 189.557 98.3008 189.893 98.0768 190.32C97.8634 190.747 97.7568 191.232 97.7568 191.776C97.7568 192.331 97.8634 192.827 98.0768 193.264C98.3008 193.691 98.5994 194.027 98.9728 194.272C99.3568 194.517 99.7941 194.64 100.285 194.64ZM109.546 196.16C108.842 196.16 108.207 196.037 107.642 195.792C107.076 195.547 106.607 195.184 106.234 194.704L107.354 193.744C107.674 194.117 108.02 194.389 108.394 194.56C108.778 194.72 109.21 194.8 109.69 194.8C109.882 194.8 110.058 194.779 110.218 194.736C110.388 194.683 110.532 194.608 110.65 194.512C110.778 194.416 110.874 194.304 110.938 194.176C111.002 194.037 111.034 193.888 111.034 193.728C111.034 193.451 110.932 193.227 110.73 193.056C110.623 192.981 110.452 192.901 110.218 192.816C109.994 192.72 109.7 192.624 109.338 192.528C108.719 192.368 108.212 192.187 107.818 191.984C107.423 191.781 107.119 191.552 106.906 191.296C106.746 191.093 106.628 190.875 106.554 190.64C106.479 190.395 106.442 190.128 106.442 189.84C106.442 189.488 106.516 189.168 106.666 188.88C106.826 188.581 107.039 188.325 107.306 188.112C107.583 187.888 107.903 187.717 108.266 187.6C108.639 187.483 109.034 187.424 109.45 187.424C109.844 187.424 110.234 187.477 110.618 187.584C111.012 187.691 111.375 187.845 111.706 188.048C112.036 188.251 112.314 188.491 112.538 188.768L111.594 189.808C111.391 189.605 111.167 189.429 110.922 189.28C110.687 189.12 110.447 188.997 110.202 188.912C109.956 188.827 109.732 188.784 109.53 188.784C109.306 188.784 109.103 188.805 108.922 188.848C108.74 188.891 108.586 188.955 108.458 189.04C108.34 189.125 108.25 189.232 108.186 189.36C108.122 189.488 108.09 189.632 108.09 189.792C108.1 189.931 108.132 190.064 108.186 190.192C108.25 190.309 108.335 190.411 108.442 190.496C108.559 190.581 108.735 190.672 108.97 190.768C109.204 190.864 109.503 190.955 109.866 191.04C110.399 191.179 110.836 191.333 111.178 191.504C111.53 191.664 111.807 191.851 112.01 192.064C112.223 192.267 112.372 192.501 112.458 192.768C112.543 193.035 112.586 193.333 112.586 193.664C112.586 194.144 112.447 194.576 112.17 194.96C111.903 195.333 111.54 195.627 111.082 195.84C110.623 196.053 110.111 196.16 109.546 196.16ZM118.322 196.16C117.458 196.16 116.69 195.979 116.018 195.616C115.357 195.243 114.834 194.736 114.45 194.096C114.077 193.456 113.89 192.72 113.89 191.888C113.89 191.227 113.997 190.624 114.21 190.08C114.423 189.536 114.717 189.067 115.09 188.672C115.474 188.267 115.927 187.957 116.45 187.744C116.983 187.52 117.559 187.408 118.178 187.408C118.722 187.408 119.229 187.515 119.698 187.728C120.167 187.931 120.573 188.213 120.914 188.576C121.266 188.939 121.533 189.371 121.714 189.872C121.906 190.363 121.997 190.901 121.986 191.488L121.97 192.192H115.106L114.738 190.88H120.546L120.306 191.152V190.768C120.274 190.416 120.157 190.101 119.954 189.824C119.751 189.547 119.495 189.328 119.186 189.168C118.877 189.008 118.541 188.928 118.178 188.928C117.602 188.928 117.117 189.04 116.722 189.264C116.327 189.477 116.029 189.797 115.826 190.224C115.623 190.64 115.522 191.157 115.522 191.776C115.522 192.363 115.645 192.875 115.89 193.312C116.135 193.739 116.482 194.069 116.93 194.304C117.378 194.539 117.895 194.656 118.482 194.656C118.898 194.656 119.282 194.587 119.634 194.448C119.997 194.309 120.386 194.059 120.802 193.696L121.634 194.864C121.378 195.12 121.063 195.344 120.69 195.536C120.327 195.728 119.938 195.883 119.522 196C119.117 196.107 118.717 196.16 118.322 196.16ZM132.181 196.16C131.317 196.16 130.549 195.979 129.877 195.616C129.216 195.243 128.693 194.736 128.309 194.096C127.936 193.456 127.749 192.72 127.749 191.888C127.749 191.227 127.856 190.624 128.069 190.08C128.283 189.536 128.576 189.067 128.949 188.672C129.333 188.267 129.787 187.957 130.309 187.744C130.843 187.52 131.419 187.408 132.037 187.408C132.581 187.408 133.088 187.515 133.557 187.728C134.027 187.931 134.432 188.213 134.773 188.576C135.125 188.939 135.392 189.371 135.573 189.872C135.765 190.363 135.856 190.901 135.845 191.488L135.829 192.192H128.965L128.597 190.88H134.405L134.165 191.152V190.768C134.133 190.416 134.016 190.101 133.813 189.824C133.611 189.547 133.355 189.328 133.045 189.168C132.736 189.008 132.4 188.928 132.037 188.928C131.461 188.928 130.976 189.04 130.581 189.264C130.187 189.477 129.888 189.797 129.685 190.224C129.483 190.64 129.381 191.157 129.381 191.776C129.381 192.363 129.504 192.875 129.749 193.312C129.995 193.739 130.341 194.069 130.789 194.304C131.237 194.539 131.755 194.656 132.341 194.656C132.757 194.656 133.141 194.587 133.493 194.448C133.856 194.309 134.245 194.059 134.661 193.696L135.493 194.864C135.237 195.12 134.923 195.344 134.549 195.536C134.187 195.728 133.797 195.883 133.381 196C132.976 196.107 132.576 196.16 132.181 196.16ZM137.636 196V187.6H139.284V189.328L138.996 189.52C139.103 189.147 139.311 188.805 139.62 188.496C139.93 188.176 140.298 187.92 140.724 187.728C141.151 187.525 141.588 187.424 142.036 187.424C142.676 187.424 143.21 187.552 143.636 187.808C144.063 188.053 144.383 188.432 144.596 188.944C144.81 189.456 144.916 190.101 144.916 190.88V196H143.268V190.992C143.268 190.512 143.204 190.117 143.076 189.808C142.948 189.488 142.751 189.259 142.484 189.12C142.218 188.971 141.887 188.907 141.492 188.928C141.172 188.928 140.879 188.981 140.612 189.088C140.346 189.184 140.111 189.323 139.908 189.504C139.716 189.685 139.562 189.899 139.444 190.144C139.338 190.379 139.284 190.635 139.284 190.912V196H138.468C138.33 196 138.191 196 138.052 196C137.914 196 137.775 196 137.636 196ZM148.192 196V185.456H149.84V196H148.192ZM146.448 189.2V187.6H151.792V189.2H146.448ZM157.135 196.16C156.271 196.16 155.503 195.979 154.831 195.616C154.169 195.243 153.647 194.736 153.263 194.096C152.889 193.456 152.703 192.72 152.703 191.888C152.703 191.227 152.809 190.624 153.023 190.08C153.236 189.536 153.529 189.067 153.903 188.672C154.287 188.267 154.74 187.957 155.263 187.744C155.796 187.52 156.372 187.408 156.991 187.408C157.535 187.408 158.041 187.515 158.511 187.728C158.98 187.931 159.385 188.213 159.727 188.576C160.079 188.939 160.345 189.371 160.527 189.872C160.719 190.363 160.809 190.901 160.799 191.488L160.783 192.192H153.919L153.551 190.88H159.359L159.119 191.152V190.768C159.087 190.416 158.969 190.101 158.767 189.824C158.564 189.547 158.308 189.328 157.999 189.168C157.689 189.008 157.353 188.928 156.991 188.928C156.415 188.928 155.929 189.04 155.535 189.264C155.14 189.477 154.841 189.797 154.639 190.224C154.436 190.64 154.335 191.157 154.335 191.776C154.335 192.363 154.457 192.875 154.703 193.312C154.948 193.739 155.295 194.069 155.743 194.304C156.191 194.539 156.708 194.656 157.295 194.656C157.711 194.656 158.095 194.587 158.447 194.448C158.809 194.309 159.199 194.059 159.615 193.696L160.447 194.864C160.191 195.12 159.876 195.344 159.503 195.536C159.14 195.728 158.751 195.883 158.335 196C157.929 196.107 157.529 196.16 157.135 196.16ZM162.59 196V187.6H164.254V190.24L164.094 189.6C164.211 189.195 164.408 188.827 164.686 188.496C164.974 188.165 165.299 187.904 165.661 187.712C166.035 187.52 166.419 187.424 166.814 187.424C166.995 187.424 167.166 187.44 167.326 187.472C167.496 187.504 167.63 187.541 167.726 187.584L167.294 189.376C167.166 189.323 167.022 189.28 166.862 189.248C166.712 189.205 166.563 189.184 166.414 189.184C166.126 189.184 165.848 189.243 165.582 189.36C165.326 189.467 165.096 189.621 164.894 189.824C164.702 190.016 164.547 190.245 164.43 190.512C164.312 190.768 164.254 191.051 164.254 191.36V196H162.59ZM174.935 199.68L176.631 195.76L176.647 197.072L172.455 187.6H174.375L176.999 193.776C177.052 193.883 177.116 194.048 177.191 194.272C177.266 194.485 177.33 194.699 177.383 194.912L176.967 195.008C177.052 194.784 177.132 194.56 177.207 194.336C177.292 194.112 177.372 193.888 177.447 193.664L179.639 187.6H181.591L178.135 196L176.711 199.68H174.935ZM186.444 196.16C185.622 196.16 184.886 195.973 184.236 195.6C183.596 195.216 183.089 194.699 182.716 194.048C182.342 193.387 182.156 192.635 182.156 191.792C182.156 190.949 182.342 190.203 182.716 189.552C183.089 188.891 183.596 188.373 184.236 188C184.886 187.616 185.622 187.424 186.444 187.424C187.254 187.424 187.98 187.616 188.62 188C189.27 188.373 189.782 188.891 190.156 189.552C190.529 190.203 190.716 190.949 190.716 191.792C190.716 192.635 190.529 193.387 190.156 194.048C189.782 194.699 189.27 195.216 188.62 195.6C187.98 195.973 187.254 196.16 186.444 196.16ZM186.444 194.656C186.945 194.656 187.393 194.533 187.788 194.288C188.182 194.032 188.492 193.691 188.716 193.264C188.94 192.827 189.046 192.336 189.036 191.792C189.046 191.237 188.94 190.747 188.716 190.32C188.492 189.883 188.182 189.541 187.788 189.296C187.393 189.051 186.945 188.928 186.444 188.928C185.942 188.928 185.489 189.056 185.084 189.312C184.689 189.557 184.38 189.899 184.156 190.336C183.932 190.763 183.825 191.248 183.836 191.792C183.825 192.336 183.932 192.827 184.156 193.264C184.38 193.691 184.689 194.032 185.084 194.288C185.489 194.533 185.942 194.656 186.444 194.656ZM195.455 196.16C194.858 196.16 194.335 196.021 193.887 195.744C193.45 195.467 193.109 195.077 192.863 194.576C192.629 194.075 192.511 193.477 192.511 192.784V187.6H194.159V192.336C194.159 192.827 194.234 193.253 194.383 193.616C194.543 193.968 194.767 194.24 195.055 194.432C195.354 194.624 195.711 194.72 196.127 194.72C196.437 194.72 196.719 194.672 196.975 194.576C197.231 194.469 197.45 194.325 197.631 194.144C197.823 193.963 197.973 193.744 198.079 193.488C198.186 193.232 198.239 192.955 198.239 192.656V187.6H199.887V196H198.239V194.24L198.527 194.048C198.399 194.443 198.181 194.8 197.871 195.12C197.573 195.44 197.215 195.696 196.799 195.888C196.383 196.069 195.935 196.16 195.455 196.16ZM202.199 196V187.6H203.863V190.24L203.703 189.6C203.82 189.195 204.018 188.827 204.295 188.496C204.583 188.165 204.908 187.904 205.271 187.712C205.644 187.52 206.028 187.424 206.423 187.424C206.604 187.424 206.775 187.44 206.935 187.472C207.106 187.504 207.239 187.541 207.335 187.584L206.903 189.376C206.775 189.323 206.631 189.28 206.471 189.248C206.322 189.205 206.172 189.184 206.023 189.184C205.735 189.184 205.458 189.243 205.191 189.36C204.935 189.467 204.706 189.621 204.503 189.824C204.311 190.016 204.156 190.245 204.039 190.512C203.922 190.768 203.863 191.051 203.863 191.36V196H202.199ZM213.552 196V184.8H218.112C218.72 184.8 219.27 184.955 219.76 185.264C220.262 185.563 220.662 185.973 220.96 186.496C221.259 187.019 221.408 187.6 221.408 188.24C221.408 188.88 221.259 189.461 220.96 189.984C220.662 190.507 220.262 190.928 219.76 191.248C219.27 191.557 218.72 191.712 218.112 191.712H215.28V196H213.552ZM215.28 190.048H218.08C218.368 190.048 218.63 189.968 218.864 189.808C219.099 189.637 219.286 189.419 219.424 189.152C219.574 188.875 219.648 188.571 219.648 188.24C219.648 187.909 219.574 187.611 219.424 187.344C219.286 187.077 219.099 186.864 218.864 186.704C218.63 186.544 218.368 186.464 218.08 186.464H215.28V190.048ZM223.277 196V194.4H225.085V186.4H223.277V184.8H228.621V186.4H226.813V194.4H228.621V196H223.277ZM231.334 196V184.8H232.886L239.734 193.968L239.478 194.112C239.435 193.845 239.398 193.557 239.366 193.248C239.334 192.928 239.302 192.592 239.27 192.24C239.248 191.877 239.227 191.499 239.206 191.104C239.195 190.699 239.184 190.277 239.174 189.84C239.163 189.403 239.158 188.949 239.158 188.48V184.8H240.886V196H239.302L232.566 187.168L232.742 186.944C232.795 187.595 232.838 188.149 232.87 188.608C232.912 189.056 232.944 189.44 232.966 189.76C232.998 190.069 233.019 190.325 233.03 190.528C233.04 190.72 233.046 190.88 233.046 191.008C233.056 191.136 233.062 191.248 233.062 191.344V196H231.334ZM249.13 196V185.456H250.778V196H249.13ZM247.386 189.2V187.6H252.73V189.2H247.386ZM257.928 196.16C257.107 196.16 256.371 195.973 255.72 195.6C255.08 195.216 254.573 194.699 254.2 194.048C253.827 193.387 253.64 192.635 253.64 191.792C253.64 190.949 253.827 190.203 254.2 189.552C254.573 188.891 255.08 188.373 255.72 188C256.371 187.616 257.107 187.424 257.928 187.424C258.739 187.424 259.464 187.616 260.104 188C260.755 188.373 261.267 188.891 261.64 189.552C262.013 190.203 262.2 190.949 262.2 191.792C262.2 192.635 262.013 193.387 261.64 194.048C261.267 194.699 260.755 195.216 260.104 195.6C259.464 195.973 258.739 196.16 257.928 196.16ZM257.928 194.656C258.429 194.656 258.877 194.533 259.272 194.288C259.667 194.032 259.976 193.691 260.2 193.264C260.424 192.827 260.531 192.336 260.52 191.792C260.531 191.237 260.424 190.747 260.2 190.32C259.976 189.883 259.667 189.541 259.272 189.296C258.877 189.051 258.429 188.928 257.928 188.928C257.427 188.928 256.973 189.056 256.568 189.312C256.173 189.557 255.864 189.899 255.64 190.336C255.416 190.763 255.309 191.248 255.32 191.792C255.309 192.336 255.416 192.827 255.64 193.264C255.864 193.691 256.173 194.032 256.568 194.288C256.973 194.533 257.427 194.656 257.928 194.656ZM271.424 196.16C270.827 196.16 270.304 196.021 269.856 195.744C269.419 195.467 269.077 195.077 268.832 194.576C268.597 194.075 268.48 193.477 268.48 192.784V187.6H270.128V192.336C270.128 192.827 270.203 193.253 270.352 193.616C270.512 193.968 270.736 194.24 271.024 194.432C271.323 194.624 271.68 194.72 272.096 194.72C272.405 194.72 272.688 194.672 272.944 194.576C273.2 194.469 273.419 194.325 273.6 194.144C273.792 193.963 273.941 193.744 274.048 193.488C274.155 193.232 274.208 192.955 274.208 192.656V187.6H275.856V196H274.208V194.24L274.496 194.048C274.368 194.443 274.149 194.8 273.84 195.12C273.541 195.44 273.184 195.696 272.768 195.888C272.352 196.069 271.904 196.16 271.424 196.16ZM280.968 196.16C280.264 196.16 279.629 196.037 279.064 195.792C278.498 195.547 278.029 195.184 277.656 194.704L278.776 193.744C279.096 194.117 279.442 194.389 279.816 194.56C280.2 194.72 280.632 194.8 281.112 194.8C281.304 194.8 281.48 194.779 281.64 194.736C281.81 194.683 281.954 194.608 282.072 194.512C282.2 194.416 282.296 194.304 282.36 194.176C282.424 194.037 282.456 193.888 282.456 193.728C282.456 193.451 282.354 193.227 282.152 193.056C282.045 192.981 281.874 192.901 281.64 192.816C281.416 192.72 281.122 192.624 280.76 192.528C280.141 192.368 279.634 192.187 279.24 191.984C278.845 191.781 278.541 191.552 278.328 191.296C278.168 191.093 278.05 190.875 277.976 190.64C277.901 190.395 277.864 190.128 277.864 189.84C277.864 189.488 277.938 189.168 278.088 188.88C278.248 188.581 278.461 188.325 278.728 188.112C279.005 187.888 279.325 187.717 279.688 187.6C280.061 187.483 280.456 187.424 280.872 187.424C281.266 187.424 281.656 187.477 282.04 187.584C282.434 187.691 282.797 187.845 283.128 188.048C283.458 188.251 283.736 188.491 283.96 188.768L283.016 189.808C282.813 189.605 282.589 189.429 282.344 189.28C282.109 189.12 281.869 188.997 281.624 188.912C281.378 188.827 281.154 188.784 280.952 188.784C280.728 188.784 280.525 188.805 280.344 188.848C280.162 188.891 280.008 188.955 279.88 189.04C279.762 189.125 279.672 189.232 279.608 189.36C279.544 189.488 279.512 189.632 279.512 189.792C279.522 189.931 279.554 190.064 279.608 190.192C279.672 190.309 279.757 190.411 279.864 190.496C279.981 190.581 280.157 190.672 280.392 190.768C280.626 190.864 280.925 190.955 281.288 191.04C281.821 191.179 282.258 191.333 282.6 191.504C282.952 191.664 283.229 191.851 283.432 192.064C283.645 192.267 283.794 192.501 283.88 192.768C283.965 193.035 284.008 193.333 284.008 193.664C284.008 194.144 283.869 194.576 283.592 194.96C283.325 195.333 282.962 195.627 282.504 195.84C282.045 196.053 281.533 196.16 280.968 196.16ZM289.744 196.16C288.88 196.16 288.112 195.979 287.44 195.616C286.779 195.243 286.256 194.736 285.872 194.096C285.499 193.456 285.312 192.72 285.312 191.888C285.312 191.227 285.419 190.624 285.632 190.08C285.845 189.536 286.139 189.067 286.512 188.672C286.896 188.267 287.349 187.957 287.872 187.744C288.405 187.52 288.981 187.408 289.6 187.408C290.144 187.408 290.651 187.515 291.12 187.728C291.589 187.931 291.995 188.213 292.336 188.576C292.688 188.939 292.955 189.371 293.136 189.872C293.328 190.363 293.419 190.901 293.408 191.488L293.392 192.192H286.528L286.16 190.88H291.968L291.728 191.152V190.768C291.696 190.416 291.579 190.101 291.376 189.824C291.173 189.547 290.917 189.328 290.608 189.168C290.299 189.008 289.963 188.928 289.6 188.928C289.024 188.928 288.539 189.04 288.144 189.264C287.749 189.477 287.451 189.797 287.248 190.224C287.045 190.64 286.944 191.157 286.944 191.776C286.944 192.363 287.067 192.875 287.312 193.312C287.557 193.739 287.904 194.069 288.352 194.304C288.8 194.539 289.317 194.656 289.904 194.656C290.32 194.656 290.704 194.587 291.056 194.448C291.419 194.309 291.808 194.059 292.224 193.696L293.056 194.864C292.8 195.12 292.485 195.344 292.112 195.536C291.749 195.728 291.36 195.883 290.944 196C290.539 196.107 290.139 196.16 289.744 196.16ZM300.723 196V185.456H302.371V196H300.723ZM298.979 189.2V187.6H304.323V189.2H298.979ZM305.824 196V184.16H307.472V189.328L307.184 189.52C307.291 189.147 307.499 188.805 307.808 188.496C308.117 188.176 308.485 187.92 308.912 187.728C309.339 187.525 309.776 187.424 310.224 187.424C310.864 187.424 311.397 187.552 311.824 187.808C312.251 188.053 312.571 188.432 312.784 188.944C312.997 189.456 313.104 190.101 313.104 190.88V196H311.456V190.992C311.456 190.512 311.392 190.117 311.264 189.808C311.136 189.488 310.939 189.259 310.672 189.12C310.405 188.971 310.075 188.907 309.68 188.928C309.36 188.928 309.067 188.981 308.8 189.088C308.533 189.184 308.299 189.323 308.096 189.504C307.904 189.685 307.749 189.899 307.632 190.144C307.525 190.379 307.472 190.635 307.472 190.912V196H306.656C306.517 196 306.379 196 306.24 196C306.101 196 305.963 196 305.824 196ZM315.612 196V187.6H317.26V196H315.612ZM316.412 185.744C316.06 185.744 315.788 185.653 315.596 185.472C315.404 185.291 315.308 185.035 315.308 184.704C315.308 184.395 315.404 184.144 315.596 183.952C315.798 183.76 316.07 183.664 316.412 183.664C316.764 183.664 317.036 183.755 317.228 183.936C317.42 184.117 317.516 184.373 317.516 184.704C317.516 185.013 317.414 185.264 317.212 185.456C317.02 185.648 316.753 185.744 316.412 185.744ZM322.593 196.16C321.889 196.16 321.254 196.037 320.689 195.792C320.123 195.547 319.654 195.184 319.281 194.704L320.401 193.744C320.721 194.117 321.067 194.389 321.441 194.56C321.825 194.72 322.257 194.8 322.737 194.8C322.929 194.8 323.105 194.779 323.265 194.736C323.435 194.683 323.579 194.608 323.697 194.512C323.825 194.416 323.921 194.304 323.985 194.176C324.049 194.037 324.081 193.888 324.081 193.728C324.081 193.451 323.979 193.227 323.777 193.056C323.67 192.981 323.499 192.901 323.265 192.816C323.041 192.72 322.747 192.624 322.385 192.528C321.766 192.368 321.259 192.187 320.865 191.984C320.47 191.781 320.166 191.552 319.953 191.296C319.793 191.093 319.675 190.875 319.601 190.64C319.526 190.395 319.489 190.128 319.489 189.84C319.489 189.488 319.563 189.168 319.713 188.88C319.873 188.581 320.086 188.325 320.353 188.112C320.63 187.888 320.95 187.717 321.313 187.6C321.686 187.483 322.081 187.424 322.497 187.424C322.891 187.424 323.281 187.477 323.665 187.584C324.059 187.691 324.422 187.845 324.753 188.048C325.083 188.251 325.361 188.491 325.585 188.768L324.641 189.808C324.438 189.605 324.214 189.429 323.969 189.28C323.734 189.12 323.494 188.997 323.249 188.912C323.003 188.827 322.779 188.784 322.577 188.784C322.353 188.784 322.15 188.805 321.969 188.848C321.787 188.891 321.633 188.955 321.505 189.04C321.387 189.125 321.297 189.232 321.233 189.36C321.169 189.488 321.137 189.632 321.137 189.792C321.147 189.931 321.179 190.064 321.233 190.192C321.297 190.309 321.382 190.411 321.489 190.496C321.606 190.581 321.782 190.672 322.017 190.768C322.251 190.864 322.55 190.955 322.913 191.04C323.446 191.179 323.883 191.333 324.225 191.504C324.577 191.664 324.854 191.851 325.057 192.064C325.27 192.267 325.419 192.501 325.505 192.768C325.59 193.035 325.633 193.333 325.633 193.664C325.633 194.144 325.494 194.576 325.217 194.96C324.95 195.333 324.587 195.627 324.129 195.84C323.67 196.053 323.158 196.16 322.593 196.16ZM332.845 196V186.656C332.845 186.176 332.952 185.749 333.165 185.376C333.379 185.003 333.672 184.709 334.045 184.496C334.419 184.283 334.851 184.176 335.341 184.176C335.683 184.176 336.003 184.24 336.301 184.368C336.6 184.496 336.84 184.667 337.021 184.88L336.461 186.144C336.323 186.016 336.168 185.915 335.997 185.84C335.837 185.755 335.683 185.712 335.533 185.712C335.309 185.712 335.117 185.749 334.957 185.824C334.808 185.888 334.696 185.995 334.621 186.144C334.547 186.283 334.509 186.453 334.509 186.656V196H333.677C333.539 196 333.4 196 333.261 196C333.123 196 332.984 196 332.845 196ZM331.501 189.264V187.744H336.493V189.264H331.501ZM341.822 196.16C340.958 196.16 340.19 195.979 339.518 195.616C338.857 195.243 338.334 194.736 337.95 194.096C337.577 193.456 337.39 192.72 337.39 191.888C337.39 191.227 337.497 190.624 337.71 190.08C337.923 189.536 338.217 189.067 338.59 188.672C338.974 188.267 339.427 187.957 339.95 187.744C340.483 187.52 341.059 187.408 341.678 187.408C342.222 187.408 342.729 187.515 343.198 187.728C343.667 187.931 344.073 188.213 344.414 188.576C344.766 188.939 345.033 189.371 345.214 189.872C345.406 190.363 345.497 190.901 345.486 191.488L345.47 192.192H338.606L338.238 190.88H344.046L343.806 191.152V190.768C343.774 190.416 343.657 190.101 343.454 189.824C343.251 189.547 342.995 189.328 342.686 189.168C342.377 189.008 342.041 188.928 341.678 188.928C341.102 188.928 340.617 189.04 340.222 189.264C339.827 189.477 339.529 189.797 339.326 190.224C339.123 190.64 339.022 191.157 339.022 191.776C339.022 192.363 339.145 192.875 339.39 193.312C339.635 193.739 339.982 194.069 340.43 194.304C340.878 194.539 341.395 194.656 341.982 194.656C342.398 194.656 342.782 194.587 343.134 194.448C343.497 194.309 343.886 194.059 344.302 193.696L345.134 194.864C344.878 195.12 344.563 195.344 344.19 195.536C343.827 195.728 343.438 195.883 343.022 196C342.617 196.107 342.217 196.16 341.822 196.16ZM350.509 196.16C349.816 196.16 349.181 195.968 348.605 195.584C348.04 195.2 347.586 194.677 347.245 194.016C346.904 193.355 346.733 192.608 346.733 191.776C346.733 190.933 346.904 190.187 347.245 189.536C347.597 188.875 348.066 188.357 348.653 187.984C349.25 187.611 349.917 187.424 350.653 187.424C351.09 187.424 351.49 187.488 351.853 187.616C352.216 187.744 352.53 187.925 352.797 188.16C353.074 188.384 353.298 188.645 353.469 188.944C353.65 189.243 353.762 189.563 353.805 189.904L353.437 189.776V187.6H355.101V196H353.437V194L353.821 193.888C353.757 194.176 353.624 194.459 353.421 194.736C353.229 195.003 352.978 195.243 352.669 195.456C352.37 195.669 352.034 195.84 351.661 195.968C351.298 196.096 350.914 196.16 350.509 196.16ZM350.941 194.64C351.442 194.64 351.885 194.517 352.269 194.272C352.653 194.027 352.952 193.691 353.165 193.264C353.389 192.827 353.501 192.331 353.501 191.776C353.501 191.232 353.389 190.747 353.165 190.32C352.952 189.893 352.653 189.557 352.269 189.312C351.885 189.067 351.442 188.944 350.941 188.944C350.45 188.944 350.013 189.067 349.629 189.312C349.256 189.557 348.957 189.893 348.733 190.32C348.52 190.747 348.413 191.232 348.413 191.776C348.413 192.331 348.52 192.827 348.733 193.264C348.957 193.691 349.256 194.027 349.629 194.272C350.013 194.517 350.45 194.64 350.941 194.64ZM358.442 196V185.456H360.09V196H358.442ZM356.698 189.2V187.6H362.042V189.2H356.698ZM366.487 196.16C365.889 196.16 365.367 196.021 364.919 195.744C364.481 195.467 364.14 195.077 363.895 194.576C363.66 194.075 363.543 193.477 363.543 192.784V187.6H365.191V192.336C365.191 192.827 365.265 193.253 365.415 193.616C365.575 193.968 365.799 194.24 366.087 194.432C366.385 194.624 366.743 194.72 367.159 194.72C367.468 194.72 367.751 194.672 368.007 194.576C368.263 194.469 368.481 194.325 368.663 194.144C368.855 193.963 369.004 193.744 369.111 193.488C369.217 193.232 369.271 192.955 369.271 192.656V187.6H370.919V196H369.271V194.24L369.559 194.048C369.431 194.443 369.212 194.8 368.903 195.12C368.604 195.44 368.247 195.696 367.831 195.888C367.415 196.069 366.967 196.16 366.487 196.16ZM373.23 196V187.6H374.894V190.24L374.734 189.6C374.851 189.195 375.049 188.827 375.326 188.496C375.614 188.165 375.939 187.904 376.302 187.712C376.675 187.52 377.059 187.424 377.454 187.424C377.635 187.424 377.806 187.44 377.966 187.472C378.137 187.504 378.27 187.541 378.366 187.584L377.934 189.376C377.806 189.323 377.662 189.28 377.502 189.248C377.353 189.205 377.203 189.184 377.054 189.184C376.766 189.184 376.489 189.243 376.222 189.36C375.966 189.467 375.737 189.621 375.534 189.824C375.342 190.016 375.187 190.245 375.07 190.512C374.953 190.768 374.894 191.051 374.894 191.36V196H373.23ZM383.244 196.16C382.38 196.16 381.612 195.979 380.94 195.616C380.279 195.243 379.756 194.736 379.372 194.096C378.999 193.456 378.812 192.72 378.812 191.888C378.812 191.227 378.919 190.624 379.132 190.08C379.345 189.536 379.639 189.067 380.012 188.672C380.396 188.267 380.849 187.957 381.372 187.744C381.905 187.52 382.481 187.408 383.1 187.408C383.644 187.408 384.151 187.515 384.62 187.728C385.089 187.931 385.495 188.213 385.836 188.576C386.188 188.939 386.455 189.371 386.636 189.872C386.828 190.363 386.919 190.901 386.908 191.488L386.892 192.192H380.028L379.66 190.88H385.468L385.228 191.152V190.768C385.196 190.416 385.079 190.101 384.876 189.824C384.673 189.547 384.417 189.328 384.108 189.168C383.799 189.008 383.463 188.928 383.1 188.928C382.524 188.928 382.039 189.04 381.644 189.264C381.249 189.477 380.951 189.797 380.748 190.224C380.545 190.64 380.444 191.157 380.444 191.776C380.444 192.363 380.567 192.875 380.812 193.312C381.057 193.739 381.404 194.069 381.852 194.304C382.3 194.539 382.817 194.656 383.404 194.656C383.82 194.656 384.204 194.587 384.556 194.448C384.919 194.309 385.308 194.059 385.724 193.696L386.556 194.864C386.3 195.12 385.985 195.344 385.612 195.536C385.249 195.728 384.86 195.883 384.444 196C384.039 196.107 383.639 196.16 383.244 196.16ZM389.371 196.176C389.019 196.176 388.747 196.075 388.555 195.872C388.363 195.659 388.267 195.36 388.267 194.976C388.267 194.624 388.368 194.336 388.571 194.112C388.774 193.888 389.04 193.776 389.371 193.776C389.723 193.776 389.995 193.883 390.187 194.096C390.379 194.299 390.475 194.592 390.475 194.976C390.475 195.328 390.374 195.616 390.171 195.84C389.968 196.064 389.702 196.176 389.371 196.176Z" fill="#8D8D8D"/>
<mask id="path-4-inside-1_1183_935" fill="white">
<path d="M18 245C18 236.716 24.7157 230 33 230H83C91.2843 230 98 236.716 98 245V299C98 307.284 91.2843 314 83 314H33C24.7157 314 18 307.284 18 299V245Z"/>
</mask>
<path d="M18 245C18 236.716 24.7157 230 33 230H83C91.2843 230 98 236.716 98 245V299C98 307.284 91.2843 314 83 314H33C24.7157 314 18 307.284 18 299V245Z" fill="#FFFEFD"/>
<path d="M33 230V232H83V230V228H33V230ZM98 245H96V299H98H100V245H98ZM83 314V312H33V314V316H83V314ZM18 299H20V245H18H16V299H18ZM33 314V312C25.8203 312 20 306.18 20 299H18H16C16 308.389 23.6112 316 33 316V314ZM98 299H96C96 306.18 90.1797 312 83 312V314V316C92.3888 316 100 308.389 100 299H98ZM83 230V232C90.1797 232 96 237.82 96 245H98H100C100 235.611 92.3888 228 83 228V230ZM33 230V228C23.6112 228 16 235.611 16 245H18H20C20 237.82 25.8203 232 33 232V230Z" fill="#DDDCDB" mask="url(#path-4-inside-1_1183_935)"/>
<mask id="path-6-inside-2_1183_935" fill="white">
<path d="M118 245C118 236.716 124.716 230 133 230H183C191.284 230 198 236.716 198 245V299C198 307.284 191.284 314 183 314H133C124.716 314 118 307.284 118 299V245Z"/>
</mask>
<path d="M118 245C118 236.716 124.716 230 133 230H183C191.284 230 198 236.716 198 245V299C198 307.284 191.284 314 183 314H133C124.716 314 118 307.284 118 299V245Z" fill="#FFFEFD"/>
<path d="M133 230V232H183V230V228H133V230ZM198 245H196V299H198H200V245H198ZM183 314V312H133V314V316H183V314ZM118 299H120V245H118H116V299H118ZM133 314V312C125.82 312 120 306.18 120 299H118H116C116 308.389 123.611 316 133 316V314ZM198 299H196C196 306.18 190.18 312 183 312V314V316C192.389 316 200 308.389 200 299H198ZM183 230V232C190.18 232 196 237.82 196 245H198H200C200 235.611 192.389 228 183 228V230ZM133 230V228C123.611 228 116 235.611 116 245H118H120C120 237.82 125.82 232 133 232V230Z" fill="#DDDCDB" mask="url(#path-6-inside-2_1183_935)"/>
<mask id="path-8-inside-3_1183_935" fill="white">
<path d="M218 245C218 236.716 224.716 230 233 230H283C291.284 230 298 236.716 298 245V299C298 307.284 291.284 314 283 314H233C224.716 314 218 307.284 218 299V245Z"/>
</mask>
<path d="M218 245C218 236.716 224.716 230 233 230H283C291.284 230 298 236.716 298 245V299C298 307.284 291.284 314 283 314H233C224.716 314 218 307.284 218 299V245Z" fill="#FFFEFD"/>
<path d="M233 230V232H283V230V228H233V230ZM298 245H296V299H298H300V245H298ZM283 314V312H233V314V316H283V314ZM218 299H220V245H218H216V299H218ZM233 314V312C225.82 312 220 306.18 220 299H218H216C216 308.389 223.611 316 233 316V314ZM298 299H296C296 306.18 290.18 312 283 312V314V316C292.389 316 300 308.389 300 299H298ZM283 230V232C290.18 232 296 237.82 296 245H298H300C300 235.611 292.389 228 283 228V230ZM233 230V228C223.611 228 216 235.611 216 245H218H220C220 237.82 225.82 232 233 232V230Z" fill="#DDDCDB" mask="url(#path-8-inside-3_1183_935)"/>
<mask id="path-10-inside-4_1183_935" fill="white">
<path d="M318 245C318 236.716 324.716 230 333 230H383C391.284 230 398 236.716 398 245V299C398 307.284 391.284 314 383 314H333C324.716 314 318 307.284 318 299V245Z"/>
</mask>
<path d="M318 245C318 236.716 324.716 230 333 230H383C391.284 230 398 236.716 398 245V299C398 307.284 391.284 314 383 314H333C324.716 314 318 307.284 318 299V245Z" fill="#FFFEFD"/>
<path d="M333 230V232H383V230V228H333V230ZM398 245H396V299H398H400V245H398ZM383 314V312H333V314V316H383V314ZM318 299H320V245H318H316V299H318ZM333 314V312C325.82 312 320 306.18 320 299H318H316C316 308.389 323.611 316 333 316V314ZM398 299H396C396 306.18 390.18 312 383 312V314V316C392.389 316 400 308.389 400 299H398ZM383 230V232C390.18 232 396 237.82 396 245H398H400C400 235.611 392.389 228 383 228V230ZM333 230V228C323.611 228 316 235.611 316 245H318H320C320 237.82 325.82 232 333 232V230Z" fill="#DDDCDB" mask="url(#path-10-inside-4_1183_935)"/>
<path d="M118 379C118 376.239 120.239 374 123 374H293C295.761 374 298 376.239 298 379V411C298 413.761 295.761 416 293 416H123C120.239 416 118 413.761 118 411V379Z" fill="#1C1C1C"/>
<path d="M178.098 401.16C177.255 401.16 176.476 401.021 175.762 400.744C175.058 400.456 174.444 400.056 173.922 399.544C173.399 399.021 172.994 398.408 172.706 397.704C172.428 396.989 172.29 396.205 172.29 395.352C172.29 394.52 172.439 393.752 172.738 393.048C173.036 392.344 173.447 391.736 173.97 391.224C174.503 390.701 175.127 390.296 175.842 390.008C176.567 389.72 177.356 389.576 178.21 389.576C178.743 389.576 179.266 389.645 179.778 389.784C180.29 389.923 180.764 390.131 181.202 390.408C181.65 390.675 182.034 390.995 182.354 391.368L180.69 393.272C180.466 393.037 180.226 392.835 179.97 392.664C179.724 392.483 179.452 392.344 179.154 392.248C178.855 392.152 178.535 392.104 178.194 392.104C177.767 392.104 177.362 392.184 176.978 392.344C176.604 392.493 176.274 392.712 175.986 393C175.708 393.277 175.49 393.619 175.33 394.024C175.17 394.429 175.09 394.883 175.09 395.384C175.09 395.875 175.17 396.323 175.33 396.728C175.49 397.123 175.714 397.464 176.002 397.752C176.29 398.04 176.636 398.259 177.042 398.408C177.458 398.557 177.916 398.632 178.418 398.632C178.759 398.632 179.084 398.584 179.394 398.488C179.703 398.392 179.986 398.264 180.242 398.104C180.508 397.933 180.743 397.741 180.946 397.528L182.258 399.608C181.991 399.907 181.634 400.173 181.186 400.408C180.748 400.643 180.258 400.829 179.714 400.968C179.18 401.096 178.642 401.16 178.098 401.16ZM187.847 401.16C186.962 401.16 186.172 400.968 185.479 400.584C184.796 400.2 184.252 399.677 183.847 399.016C183.452 398.355 183.255 397.597 183.255 396.744C183.255 395.891 183.452 395.133 183.847 394.472C184.252 393.811 184.796 393.288 185.479 392.904C186.172 392.52 186.962 392.328 187.847 392.328C188.732 392.328 189.516 392.52 190.199 392.904C190.892 393.288 191.436 393.811 191.831 394.472C192.226 395.133 192.423 395.891 192.423 396.744C192.423 397.597 192.226 398.355 191.831 399.016C191.436 399.677 190.892 400.2 190.199 400.584C189.516 400.968 188.732 401.16 187.847 401.16ZM187.847 398.952C188.231 398.952 188.572 398.856 188.871 398.664C189.17 398.472 189.404 398.211 189.575 397.88C189.746 397.549 189.826 397.171 189.815 396.744C189.826 396.317 189.746 395.939 189.575 395.608C189.404 395.267 189.17 395 188.871 394.808C188.572 394.616 188.231 394.52 187.847 394.52C187.463 394.52 187.116 394.616 186.807 394.808C186.508 395 186.274 395.267 186.103 395.608C185.932 395.939 185.852 396.317 185.863 396.744C185.852 397.171 185.932 397.549 186.103 397.88C186.274 398.211 186.508 398.472 186.807 398.664C187.116 398.856 187.463 398.952 187.847 398.952ZM194.097 401V392.504H196.529L196.609 394.232L196.097 394.424C196.214 394.04 196.422 393.693 196.721 393.384C197.03 393.064 197.398 392.808 197.825 392.616C198.252 392.424 198.7 392.328 199.169 392.328C199.809 392.328 200.348 392.461 200.785 392.728C201.222 392.984 201.553 393.373 201.777 393.896C202.001 394.408 202.113 395.037 202.113 395.784V401H199.537V395.992C199.537 395.651 199.489 395.368 199.393 395.144C199.297 394.92 199.148 394.755 198.945 394.648C198.753 394.531 198.513 394.477 198.225 394.488C198.001 394.488 197.793 394.525 197.601 394.6C197.409 394.664 197.244 394.765 197.105 394.904C196.966 395.032 196.854 395.181 196.769 395.352C196.694 395.523 196.657 395.709 196.657 395.912V401H195.393C195.094 401 194.838 401 194.625 401C194.412 401 194.236 401 194.097 401ZM204.957 401V390.36H207.517V401H204.957ZM203.453 394.744V392.504H209.165V394.744H203.453ZM210.772 401V392.504H213.332V401H210.772ZM212.052 390.824C211.572 390.824 211.194 390.712 210.916 390.488C210.65 390.253 210.516 389.923 210.516 389.496C210.516 389.112 210.655 388.797 210.932 388.552C211.21 388.307 211.583 388.184 212.052 388.184C212.532 388.184 212.906 388.301 213.172 388.536C213.439 388.76 213.572 389.08 213.572 389.496C213.572 389.891 213.434 390.211 213.156 390.456C212.89 390.701 212.522 390.824 212.052 390.824ZM215.738 401V392.504H218.17L218.25 394.232L217.738 394.424C217.855 394.04 218.063 393.693 218.362 393.384C218.671 393.064 219.039 392.808 219.466 392.616C219.892 392.424 220.34 392.328 220.81 392.328C221.45 392.328 221.988 392.461 222.426 392.728C222.863 392.984 223.194 393.373 223.418 393.896C223.642 394.408 223.754 395.037 223.754 395.784V401H221.178V395.992C221.178 395.651 221.13 395.368 221.034 395.144C220.938 394.92 220.788 394.755 220.586 394.648C220.394 394.531 220.154 394.477 219.866 394.488C219.642 394.488 219.434 394.525 219.242 394.6C219.05 394.664 218.884 394.765 218.746 394.904C218.607 395.032 218.495 395.181 218.41 395.352C218.335 395.523 218.298 395.709 218.298 395.912V401H217.034C216.735 401 216.479 401 216.266 401C216.052 401 215.876 401 215.738 401ZM228.79 401.176C228.16 401.176 227.622 401.043 227.174 400.776C226.736 400.499 226.395 400.104 226.15 399.592C225.915 399.08 225.798 398.467 225.798 397.752V392.504H228.374V397.4C228.374 397.741 228.427 398.035 228.534 398.28C228.64 398.525 228.8 398.717 229.014 398.856C229.227 398.984 229.483 399.048 229.782 399.048C230.006 399.048 230.208 399.011 230.39 398.936C230.582 398.861 230.742 398.76 230.87 398.632C231.008 398.493 231.115 398.339 231.19 398.168C231.264 397.987 231.302 397.789 231.302 397.576V392.504H233.878V401H231.462L231.35 399.256L231.83 399.064C231.702 399.469 231.488 399.832 231.19 400.152C230.891 400.461 230.534 400.712 230.118 400.904C229.702 401.085 229.259 401.176 228.79 401.176ZM240.207 401.16C239.269 401.16 238.453 400.973 237.759 400.6C237.066 400.216 236.527 399.699 236.143 399.048C235.759 398.387 235.567 397.635 235.567 396.792C235.567 396.141 235.674 395.544 235.887 395C236.101 394.456 236.399 393.987 236.783 393.592C237.167 393.187 237.621 392.877 238.143 392.664C238.677 392.44 239.258 392.328 239.887 392.328C240.485 392.328 241.029 392.435 241.519 392.648C242.021 392.861 242.453 393.16 242.815 393.544C243.178 393.928 243.455 394.381 243.647 394.904C243.839 395.427 243.925 395.997 243.903 396.616L243.887 397.304H237.119L236.751 395.864H241.807L241.535 396.168V395.848C241.514 395.581 241.429 395.347 241.279 395.144C241.141 394.931 240.954 394.765 240.719 394.648C240.485 394.531 240.218 394.472 239.919 394.472C239.503 394.472 239.146 394.557 238.847 394.728C238.559 394.888 238.341 395.128 238.191 395.448C238.042 395.757 237.967 396.141 237.967 396.6C237.967 397.069 238.063 397.48 238.255 397.832C238.458 398.173 238.746 398.44 239.119 398.632C239.503 398.824 239.957 398.92 240.479 398.92C240.842 398.92 241.162 398.867 241.439 398.76C241.727 398.653 242.037 398.472 242.367 398.216L243.567 399.912C243.237 400.2 242.885 400.435 242.511 400.616C242.138 400.797 241.754 400.931 241.359 401.016C240.975 401.112 240.591 401.16 240.207 401.16Z" fill="#FFFEFD"/>
<path d="M143.135 471.076H151.788V464.923H143.135V471.076Z" fill="#8D8D8D"/>
<path d="M136.212 468L143.135 474.129V461.871L136.212 468Z" fill="#8D8D8D"/>
<path d="M174.177 466.288C174.177 466.885 174.033 467.445 173.745 467.968C173.468 468.491 173.025 468.912 172.417 469.232C171.82 469.552 171.062 469.712 170.145 469.712H168.273V474H166.033V462.832H170.145C171.009 462.832 171.745 462.981 172.353 463.28C172.961 463.579 173.414 463.989 173.713 464.512C174.022 465.035 174.177 465.627 174.177 466.288ZM170.049 467.904C170.668 467.904 171.126 467.765 171.425 467.488C171.724 467.2 171.873 466.8 171.873 466.288C171.873 465.2 171.265 464.656 170.049 464.656H168.273V467.904H170.049ZM178.007 466.512C178.295 466.043 178.669 465.675 179.127 465.408C179.597 465.141 180.13 465.008 180.727 465.008V467.36H180.135C179.431 467.36 178.898 467.525 178.535 467.856C178.183 468.187 178.007 468.763 178.007 469.584V474H175.767V465.136H178.007V466.512ZM190.476 469.376C190.476 469.696 190.455 469.984 190.412 470.24H183.932C183.986 470.88 184.21 471.381 184.604 471.744C184.999 472.107 185.484 472.288 186.06 472.288C186.892 472.288 187.484 471.931 187.836 471.216H190.252C189.996 472.069 189.506 472.773 188.78 473.328C188.055 473.872 187.164 474.144 186.108 474.144C185.255 474.144 184.487 473.957 183.804 473.584C183.132 473.2 182.604 472.661 182.22 471.968C181.847 471.275 181.66 470.475 181.66 469.568C181.66 468.651 181.847 467.845 182.22 467.152C182.594 466.459 183.116 465.925 183.788 465.552C184.46 465.179 185.234 464.992 186.108 464.992C186.951 464.992 187.703 465.173 188.364 465.536C189.036 465.899 189.554 466.416 189.916 467.088C190.29 467.749 190.476 468.512 190.476 469.376ZM188.156 468.736C188.146 468.16 187.938 467.701 187.532 467.36C187.127 467.008 186.631 466.832 186.044 466.832C185.49 466.832 185.02 467.003 184.636 467.344C184.263 467.675 184.034 468.139 183.948 468.736H188.156ZM195.807 471.936L198.047 465.136H200.431L197.151 474H194.431L191.167 465.136H193.567L195.807 471.936ZM202.825 464.08C202.431 464.08 202.1 463.957 201.833 463.712C201.577 463.456 201.449 463.141 201.449 462.768C201.449 462.395 201.577 462.085 201.833 461.84C202.1 461.584 202.431 461.456 202.825 461.456C203.22 461.456 203.545 461.584 203.801 461.84C204.068 462.085 204.201 462.395 204.201 462.768C204.201 463.141 204.068 463.456 203.801 463.712C203.545 463.957 203.22 464.08 202.825 464.08ZM203.929 465.136V474H201.689V465.136H203.929ZM210.078 474.144C209.225 474.144 208.457 473.957 207.774 473.584C207.092 473.2 206.553 472.661 206.158 471.968C205.774 471.275 205.582 470.475 205.582 469.568C205.582 468.661 205.78 467.861 206.174 467.168C206.58 466.475 207.129 465.941 207.822 465.568C208.516 465.184 209.289 464.992 210.142 464.992C210.996 464.992 211.769 465.184 212.462 465.568C213.156 465.941 213.7 466.475 214.094 467.168C214.5 467.861 214.702 468.661 214.702 469.568C214.702 470.475 214.494 471.275 214.078 471.968C213.673 472.661 213.118 473.2 212.414 473.584C211.721 473.957 210.942 474.144 210.078 474.144ZM210.078 472.192C210.484 472.192 210.862 472.096 211.214 471.904C211.577 471.701 211.865 471.403 212.078 471.008C212.292 470.613 212.398 470.133 212.398 469.568C212.398 468.725 212.174 468.08 211.726 467.632C211.289 467.173 210.75 466.944 210.11 466.944C209.47 466.944 208.932 467.173 208.494 467.632C208.068 468.08 207.854 468.725 207.854 469.568C207.854 470.411 208.062 471.061 208.478 471.52C208.905 471.968 209.438 472.192 210.078 472.192ZM224.714 465.136V474H222.458V472.88C222.17 473.264 221.791 473.568 221.322 473.792C220.863 474.005 220.362 474.112 219.818 474.112C219.124 474.112 218.511 473.968 217.978 473.68C217.444 473.381 217.023 472.949 216.714 472.384C216.415 471.808 216.266 471.125 216.266 470.336V465.136H218.506V470.016C218.506 470.72 218.682 471.264 219.034 471.648C219.386 472.021 219.866 472.208 220.474 472.208C221.092 472.208 221.578 472.021 221.93 471.648C222.282 471.264 222.458 470.72 222.458 470.016V465.136H224.714ZM230.316 474.144C229.59 474.144 228.94 474.016 228.364 473.76C227.788 473.493 227.329 473.136 226.988 472.688C226.657 472.24 226.476 471.744 226.444 471.2H228.7C228.742 471.541 228.908 471.824 229.196 472.048C229.494 472.272 229.862 472.384 230.3 472.384C230.726 472.384 231.057 472.299 231.292 472.128C231.537 471.957 231.66 471.739 231.66 471.472C231.66 471.184 231.51 470.971 231.212 470.832C230.924 470.683 230.46 470.523 229.82 470.352C229.158 470.192 228.614 470.027 228.188 469.856C227.772 469.685 227.409 469.424 227.1 469.072C226.801 468.72 226.652 468.245 226.652 467.648C226.652 467.157 226.79 466.709 227.068 466.304C227.356 465.899 227.761 465.579 228.284 465.344C228.817 465.109 229.441 464.992 230.156 464.992C231.212 464.992 232.054 465.259 232.684 465.792C233.313 466.315 233.66 467.024 233.724 467.92H231.58C231.548 467.568 231.398 467.291 231.132 467.088C230.876 466.875 230.529 466.768 230.092 466.768C229.686 466.768 229.372 466.843 229.148 466.992C228.934 467.141 228.828 467.349 228.828 467.616C228.828 467.915 228.977 468.144 229.276 468.304C229.574 468.453 230.038 468.608 230.668 468.768C231.308 468.928 231.836 469.093 232.252 469.264C232.668 469.435 233.025 469.701 233.324 470.064C233.633 470.416 233.793 470.885 233.804 471.472C233.804 471.984 233.66 472.443 233.372 472.848C233.094 473.253 232.689 473.573 232.156 473.808C231.633 474.032 231.02 474.144 230.316 474.144ZM247.599 466.288C247.599 466.885 247.455 467.445 247.167 467.968C246.89 468.491 246.447 468.912 245.839 469.232C245.242 469.552 244.484 469.712 243.567 469.712H241.695V474H239.455V462.832H243.567C244.431 462.832 245.167 462.981 245.775 463.28C246.383 463.579 246.836 463.989 247.135 464.512C247.444 465.035 247.599 465.627 247.599 466.288ZM243.471 467.904C244.09 467.904 244.548 467.765 244.847 467.488C245.146 467.2 245.295 466.8 245.295 466.288C245.295 465.2 244.687 464.656 243.471 464.656H241.695V467.904H243.471ZM248.613 469.536C248.613 468.64 248.789 467.845 249.141 467.152C249.504 466.459 249.989 465.925 250.597 465.552C251.216 465.179 251.904 464.992 252.661 464.992C253.323 464.992 253.899 465.125 254.389 465.392C254.891 465.659 255.291 465.995 255.589 466.4V465.136H257.845V474H255.589V472.704C255.301 473.12 254.901 473.467 254.389 473.744C253.888 474.011 253.307 474.144 252.645 474.144C251.899 474.144 251.216 473.952 250.597 473.568C249.989 473.184 249.504 472.645 249.141 471.952C248.789 471.248 248.613 470.443 248.613 469.536ZM255.589 469.568C255.589 469.024 255.483 468.56 255.269 468.176C255.056 467.781 254.768 467.483 254.405 467.28C254.043 467.067 253.653 466.96 253.237 466.96C252.821 466.96 252.437 467.061 252.085 467.264C251.733 467.467 251.445 467.765 251.221 468.16C251.008 468.544 250.901 469.003 250.901 469.536C250.901 470.069 251.008 470.539 251.221 470.944C251.445 471.339 251.733 471.643 252.085 471.856C252.448 472.069 252.832 472.176 253.237 472.176C253.653 472.176 254.043 472.075 254.405 471.872C254.768 471.659 255.056 471.36 255.269 470.976C255.483 470.581 255.589 470.112 255.589 469.568ZM263.505 464.992C264.166 464.992 264.748 465.125 265.249 465.392C265.75 465.648 266.145 465.984 266.433 466.4V465.136H268.689V474.064C268.689 474.885 268.524 475.616 268.193 476.256C267.862 476.907 267.366 477.419 266.705 477.792C266.044 478.176 265.244 478.368 264.305 478.368C263.046 478.368 262.012 478.075 261.201 477.488C260.401 476.901 259.948 476.101 259.841 475.088H262.065C262.182 475.493 262.433 475.813 262.817 476.048C263.212 476.293 263.686 476.416 264.241 476.416C264.892 476.416 265.42 476.219 265.825 475.824C266.23 475.44 266.433 474.853 266.433 474.064V472.688C266.145 473.104 265.745 473.451 265.233 473.728C264.732 474.005 264.156 474.144 263.505 474.144C262.758 474.144 262.076 473.952 261.457 473.568C260.838 473.184 260.348 472.645 259.985 471.952C259.633 471.248 259.457 470.443 259.457 469.536C259.457 468.64 259.633 467.845 259.985 467.152C260.348 466.459 260.833 465.925 261.441 465.552C262.06 465.179 262.748 464.992 263.505 464.992ZM266.433 469.568C266.433 469.024 266.326 468.56 266.113 468.176C265.9 467.781 265.612 467.483 265.249 467.28C264.886 467.067 264.497 466.96 264.081 466.96C263.665 466.96 263.281 467.061 262.929 467.264C262.577 467.467 262.289 467.765 262.065 468.16C261.852 468.544 261.745 469.003 261.745 469.536C261.745 470.069 261.852 470.539 262.065 470.944C262.289 471.339 262.577 471.643 262.929 471.856C263.292 472.069 263.676 472.176 264.081 472.176C264.497 472.176 264.886 472.075 265.249 471.872C265.612 471.659 265.9 471.36 266.113 470.976C266.326 470.581 266.433 470.112 266.433 469.568ZM279.117 469.376C279.117 469.696 279.095 469.984 279.053 470.24H272.573C272.626 470.88 272.85 471.381 273.245 471.744C273.639 472.107 274.125 472.288 274.701 472.288C275.533 472.288 276.125 471.931 276.477 471.216H278.893C278.637 472.069 278.146 472.773 277.421 473.328C276.695 473.872 275.805 474.144 274.749 474.144C273.895 474.144 273.127 473.957 272.445 473.584C271.773 473.2 271.245 472.661 270.861 471.968C270.487 471.275 270.301 470.475 270.301 469.568C270.301 468.651 270.487 467.845 270.861 467.152C271.234 466.459 271.757 465.925 272.429 465.552C273.101 465.179 273.874 464.992 274.749 464.992C275.591 464.992 276.343 465.173 277.005 465.536C277.677 465.899 278.194 466.416 278.557 467.088C278.93 467.749 279.117 468.512 279.117 469.376ZM276.797 468.736C276.786 468.16 276.578 467.701 276.173 467.36C275.767 467.008 275.271 466.832 274.685 466.832C274.13 466.832 273.661 467.003 273.277 467.344C272.903 467.675 272.674 468.139 272.589 468.736H276.797Z" fill="#8D8D8D"/>
</svg>
