<svg width="149" height="18" viewBox="0 0 149 18" fill="none" xmlns="http://www.w3.org/2000/svg">
<path d="M14.3282 17.76H10.9682L3.36024 6.26401V17.76H0.000238419V0.984008H3.36024L10.9682 12.504V0.984008H14.3282V17.76ZM30.0087 10.824C30.0087 11.304 29.9767 11.736 29.9127 12.12H20.1927C20.2727 13.08 20.6087 13.832 21.2007 14.376C21.7927 14.92 22.5207 15.192 23.3847 15.192C24.6327 15.192 25.5207 14.656 26.0487 13.584H29.6727C29.2887 14.864 28.5527 15.92 27.4647 16.752C26.3767 17.568 25.0407 17.976 23.4567 17.976C22.1767 17.976 21.0247 17.696 20.0007 17.136C18.9927 16.56 18.2007 15.752 17.6247 14.712C17.0647 13.672 16.7847 12.472 16.7847 11.112C16.7847 9.73601 17.0647 8.52801 17.6247 7.48801C18.1847 6.44801 18.9687 5.64801 19.9767 5.08801C20.9847 4.52801 22.1447 4.24801 23.4567 4.24801C24.7207 4.24801 25.8487 4.52001 26.8407 5.06401C27.8487 5.60801 28.6247 6.38401 29.1687 7.39201C29.7287 8.38401 30.0087 9.52801 30.0087 10.824ZM26.5287 9.86401C26.5127 9.00001 26.2007 8.31201 25.5927 7.80001C24.9847 7.27201 24.2407 7.00801 23.3607 7.00801C22.5287 7.00801 21.8247 7.26401 21.2487 7.77601C20.6887 8.27201 20.3447 8.96801 20.2167 9.86401H26.5287ZM50.8932 4.46401L47.0052 17.76H43.3812L40.9572 8.47201L38.5332 17.76H34.8852L30.9732 4.46401H34.3812L36.7332 14.592L39.2772 4.46401H42.8292L45.3252 14.568L47.6772 4.46401H50.8932ZM68.7019 14.568H62.0299L60.9259 17.76H57.3979L63.4219 0.984008H67.3339L73.3579 17.76H69.8059L68.7019 14.568ZM67.7899 11.88L65.3659 4.87201L62.9419 11.88H67.7899ZM94.0416 4.46401L90.1536 17.76H86.5296L84.1056 8.47201L81.6816 17.76H78.0336L74.1216 4.46401H77.5296L79.8816 14.592L82.4256 4.46401H85.9776L88.4736 14.568L90.8256 4.46401H94.0416ZM94.9956 11.064C94.9956 9.72001 95.2596 8.52801 95.7876 7.48801C96.3316 6.44801 97.0596 5.64801 97.9716 5.08801C98.8996 4.52801 99.9316 4.24801 101.068 4.24801C102.06 4.24801 102.924 4.44801 103.66 4.84801C104.412 5.24801 105.012 5.75201 105.46 6.36001V4.46401H108.844V17.76H105.46V15.816C105.028 16.44 104.428 16.96 103.66 17.376C102.908 17.776 102.036 17.976 101.044 17.976C99.9236 17.976 98.8996 17.688 97.9716 17.112C97.0596 16.536 96.3316 15.728 95.7876 14.688C95.2596 13.632 94.9956 12.424 94.9956 11.064ZM105.46 11.112C105.46 10.296 105.3 9.60001 104.98 9.02401C104.66 8.43201 104.228 7.98401 103.684 7.68001C103.14 7.36001 102.556 7.20001 101.932 7.20001C101.308 7.20001 100.732 7.35201 100.204 7.65601C99.6756 7.96001 99.2436 8.40801 98.9076 9.00001C98.5876 9.57601 98.4276 10.264 98.4276 11.064C98.4276 11.864 98.5876 12.568 98.9076 13.176C99.2436 13.768 99.6756 14.224 100.204 14.544C100.748 14.864 101.324 15.024 101.932 15.024C102.556 15.024 103.14 14.872 103.684 14.568C104.228 14.248 104.66 13.8 104.98 13.224C105.3 12.632 105.46 11.928 105.46 11.112ZM115.485 6.52801C115.917 5.82401 116.477 5.27201 117.165 4.87201C117.869 4.47201 118.669 4.27201 119.565 4.27201V7.80001H118.677C117.621 7.80001 116.821 8.04801 116.277 8.54401C115.749 9.04001 115.485 9.90401 115.485 11.136V17.76H112.125V4.46401H115.485V6.52801ZM120.964 11.064C120.964 9.72001 121.228 8.52801 121.756 7.48801C122.3 6.44801 123.036 5.64801 123.964 5.08801C124.892 4.52801 125.924 4.24801 127.06 4.24801C127.924 4.24801 128.748 4.44001 129.532 4.82401C130.316 5.19201 130.94 5.68801 131.404 6.31201V9.53674e-06H134.812V17.76H131.404V15.792C130.988 16.448 130.404 16.976 129.652 17.376C128.9 17.776 128.028 17.976 127.036 17.976C125.916 17.976 124.892 17.688 123.964 17.112C123.036 16.536 122.3 15.728 121.756 14.688C121.228 13.632 120.964 12.424 120.964 11.064ZM131.428 11.112C131.428 10.296 131.268 9.60001 130.948 9.02401C130.628 8.43201 130.196 7.98401 129.652 7.68001C129.108 7.36001 128.524 7.20001 127.9 7.20001C127.276 7.20001 126.7 7.35201 126.172 7.65601C125.644 7.96001 125.212 8.40801 124.876 9.00001C124.556 9.57601 124.396 10.264 124.396 11.064C124.396 11.864 124.556 12.568 124.876 13.176C125.212 13.768 125.644 14.224 126.172 14.544C126.716 14.864 127.292 15.024 127.9 15.024C128.524 15.024 129.108 14.872 129.652 14.568C130.196 14.248 130.628 13.8 130.948 13.224C131.268 12.632 131.428 11.928 131.428 11.112ZM143.182 17.976C142.094 17.976 141.118 17.784 140.254 17.4C139.39 17 138.702 16.464 138.19 15.792C137.694 15.12 137.422 14.376 137.374 13.56H140.758C140.822 14.072 141.07 14.496 141.502 14.832C141.95 15.168 142.502 15.336 143.158 15.336C143.798 15.336 144.294 15.208 144.646 14.952C145.014 14.696 145.198 14.368 145.198 13.968C145.198 13.536 144.974 13.216 144.526 13.008C144.094 12.784 143.398 12.544 142.438 12.288C141.446 12.048 140.63 11.8 139.99 11.544C139.366 11.288 138.822 10.896 138.358 10.368C137.91 9.84001 137.686 9.12801 137.686 8.23201C137.686 7.49601 137.894 6.82401 138.31 6.21601C138.742 5.60801 139.35 5.12801 140.134 4.77601C140.934 4.42401 141.87 4.24801 142.942 4.24801C144.526 4.24801 145.79 4.64801 146.734 5.44801C147.678 6.23201 148.198 7.29601 148.294 8.64001H145.078C145.03 8.11201 144.806 7.69601 144.406 7.39201C144.022 7.07201 143.502 6.91201 142.846 6.91201C142.238 6.91201 141.766 7.02401 141.43 7.24801C141.11 7.47201 140.95 7.78401 140.95 8.18401C140.95 8.63201 141.174 8.97601 141.622 9.21601C142.07 9.44001 142.766 9.67201 143.71 9.91201C144.67 10.152 145.462 10.4 146.086 10.656C146.71 10.912 147.246 11.312 147.694 11.856C148.158 12.384 148.398 13.088 148.414 13.968C148.414 14.736 148.198 15.424 147.766 16.032C147.35 16.64 146.742 17.12 145.942 17.472C145.158 17.808 144.238 17.976 143.182 17.976Z" fill="#1C1C1C"/>
</svg>
