<svg width="152" height="17" viewBox="0 0 152 17" fill="none" xmlns="http://www.w3.org/2000/svg">
<path d="M14.3282 16.7759H10.9682L3.36024 5.27988V16.7759H0.000238419V-0.000122547H3.36024L10.9682 11.5199V-0.000122547H14.3282V16.7759ZM30.0087 9.83988C30.0087 10.3199 29.9767 10.7519 29.9127 11.1359H20.1927C20.2727 12.0959 20.6087 12.8479 21.2007 13.3919C21.7927 13.9359 22.5207 14.2079 23.3847 14.2079C24.6327 14.2079 25.5207 13.6719 26.0487 12.5999H29.6727C29.2887 13.8799 28.5527 14.9359 27.4647 15.7679C26.3767 16.5839 25.0407 16.9919 23.4567 16.9919C22.1767 16.9919 21.0247 16.7119 20.0007 16.1519C18.9927 15.5759 18.2007 14.7679 17.6247 13.7279C17.0647 12.6879 16.7847 11.4879 16.7847 10.1279C16.7847 8.75188 17.0647 7.54388 17.6247 6.50388C18.1847 5.46388 18.9687 4.66388 19.9767 4.10388C20.9847 3.54388 22.1447 3.26388 23.4567 3.26388C24.7207 3.26388 25.8487 3.53588 26.8407 4.07988C27.8487 4.62388 28.6247 5.39988 29.1687 6.40788C29.7287 7.39988 30.0087 8.54388 30.0087 9.83988ZM26.5287 8.87988C26.5127 8.01588 26.2007 7.32788 25.5927 6.81588C24.9847 6.28788 24.2407 6.02388 23.3607 6.02388C22.5287 6.02388 21.8247 6.27988 21.2487 6.79188C20.6887 7.28788 20.3447 7.98388 20.2167 8.87988H26.5287ZM50.8932 3.47988L47.0052 16.7759H43.3812L40.9572 7.48788L38.5332 16.7759H34.8852L30.9732 3.47988H34.3812L36.7332 13.6079L39.2772 3.47988H42.8292L45.3252 13.5839L47.6772 3.47988H50.8932ZM61.7899 14.1119H67.3099V16.7759H58.4299V0.0238786H61.7899V14.1119ZM81.8056 9.83988C81.8056 10.3199 81.7736 10.7519 81.7096 11.1359H71.9896C72.0696 12.0959 72.4056 12.8479 72.9976 13.3919C73.5896 13.9359 74.3176 14.2079 75.1816 14.2079C76.4296 14.2079 77.3176 13.6719 77.8456 12.5999H81.4696C81.0856 13.8799 80.3496 14.9359 79.2616 15.7679C78.1736 16.5839 76.8376 16.9919 75.2536 16.9919C73.9736 16.9919 72.8216 16.7119 71.7976 16.1519C70.7896 15.5759 69.9976 14.7679 69.4216 13.7279C68.8616 12.6879 68.5816 11.4879 68.5816 10.1279C68.5816 8.75188 68.8616 7.54388 69.4216 6.50388C69.9816 5.46388 70.7656 4.66388 71.7736 4.10388C72.7816 3.54388 73.9416 3.26388 75.2536 3.26388C76.5176 3.26388 77.6456 3.53588 78.6376 4.07988C79.6456 4.62388 80.4216 5.39988 80.9656 6.40788C81.5256 7.39988 81.8056 8.54388 81.8056 9.83988ZM78.3256 8.87988C78.3096 8.01588 77.9976 7.32788 77.3896 6.81588C76.7816 6.28788 76.0376 6.02388 75.1576 6.02388C74.3256 6.02388 73.6216 6.27988 73.0456 6.79188C72.4856 7.28788 72.1416 7.98388 72.0136 8.87988H78.3256ZM89.3461 16.9919C88.2581 16.9919 87.2821 16.7999 86.4181 16.4159C85.5541 16.0159 84.8661 15.4799 84.3541 14.8079C83.8581 14.1359 83.5861 13.3919 83.5381 12.5759H86.9221C86.9861 13.0879 87.2341 13.5119 87.6661 13.8479C88.1141 14.1839 88.6661 14.3519 89.3221 14.3519C89.9621 14.3519 90.4581 14.2239 90.8101 13.9679C91.1781 13.7119 91.3621 13.3839 91.3621 12.9839C91.3621 12.5519 91.1381 12.2319 90.6901 12.0239C90.2581 11.7999 89.5621 11.5599 88.6021 11.3039C87.6101 11.0639 86.7941 10.8159 86.1541 10.5599C85.5301 10.3039 84.9861 9.91188 84.5221 9.38388C84.0741 8.85588 83.8501 8.14388 83.8501 7.24788C83.8501 6.51188 84.0581 5.83988 84.4741 5.23188C84.9061 4.62388 85.5141 4.14388 86.2981 3.79188C87.0981 3.43988 88.0341 3.26388 89.1061 3.26388C90.6901 3.26388 91.9541 3.66388 92.8981 4.46388C93.8421 5.24788 94.3621 6.31188 94.4581 7.65588H91.2421C91.1941 7.12788 90.9701 6.71188 90.5701 6.40788C90.1861 6.08788 89.6661 5.92788 89.0101 5.92788C88.4021 5.92788 87.9301 6.03988 87.5941 6.26388C87.2741 6.48788 87.1141 6.79988 87.1141 7.19988C87.1141 7.64788 87.3381 7.99188 87.7861 8.23188C88.2341 8.45588 88.9301 8.68788 89.8741 8.92788C90.8341 9.16788 91.6261 9.41588 92.2501 9.67188C92.8741 9.92788 93.4101 10.3279 93.8581 10.8719C94.3221 11.3999 94.5621 12.1039 94.5781 12.9839C94.5781 13.7519 94.3621 14.4399 93.9301 15.0479C93.5141 15.6559 92.9061 16.1359 92.1061 16.4879C91.3221 16.8239 90.4021 16.9919 89.3461 16.9919ZM102.424 16.9919C101.336 16.9919 100.36 16.7999 99.4962 16.4159C98.6322 16.0159 97.9442 15.4799 97.4322 14.8079C96.9362 14.1359 96.6642 13.3919 96.6162 12.5759H100C100.064 13.0879 100.312 13.5119 100.744 13.8479C101.192 14.1839 101.744 14.3519 102.4 14.3519C103.04 14.3519 103.536 14.2239 103.888 13.9679C104.256 13.7119 104.44 13.3839 104.44 12.9839C104.44 12.5519 104.216 12.2319 103.768 12.0239C103.336 11.7999 102.64 11.5599 101.68 11.3039C100.688 11.0639 99.8722 10.8159 99.2322 10.5599C98.6082 10.3039 98.0642 9.91188 97.6002 9.38388C97.1522 8.85588 96.9282 8.14388 96.9282 7.24788C96.9282 6.51188 97.1362 5.83988 97.5522 5.23188C97.9842 4.62388 98.5922 4.14388 99.3762 3.79188C100.176 3.43988 101.112 3.26388 102.184 3.26388C103.768 3.26388 105.032 3.66388 105.976 4.46388C106.92 5.24788 107.44 6.31188 107.536 7.65588H104.32C104.272 7.12788 104.048 6.71188 103.648 6.40788C103.264 6.08788 102.744 5.92788 102.088 5.92788C101.48 5.92788 101.008 6.03988 100.672 6.26388C100.352 6.48788 100.192 6.79988 100.192 7.19988C100.192 7.64788 100.416 7.99188 100.864 8.23188C101.312 8.45588 102.008 8.68788 102.952 8.92788C103.912 9.16788 104.704 9.41588 105.328 9.67188C105.952 9.92788 106.488 10.3279 106.936 10.8719C107.4 11.3999 107.64 12.1039 107.656 12.9839C107.656 13.7519 107.44 14.4399 107.008 15.0479C106.592 15.6559 105.984 16.1359 105.184 16.4879C104.4 16.8239 103.48 16.9919 102.424 16.9919ZM116.318 16.9919C115.038 16.9919 113.886 16.7119 112.862 16.1519C111.838 15.5759 111.03 14.7679 110.438 13.7279C109.862 12.6879 109.574 11.4879 109.574 10.1279C109.574 8.76788 109.87 7.56788 110.462 6.52788C111.07 5.48788 111.894 4.68788 112.934 4.12788C113.974 3.55188 115.134 3.26388 116.414 3.26388C117.694 3.26388 118.854 3.55188 119.894 4.12788C120.934 4.68788 121.75 5.48788 122.342 6.52788C122.95 7.56788 123.254 8.76788 123.254 10.1279C123.254 11.4879 122.942 12.6879 122.318 13.7279C121.71 14.7679 120.878 15.5759 119.822 16.1519C118.782 16.7119 117.614 16.9919 116.318 16.9919ZM116.318 14.0639C116.926 14.0639 117.494 13.9199 118.022 13.6319C118.566 13.3279 118.998 12.8799 119.318 12.2879C119.638 11.6959 119.798 10.9759 119.798 10.1279C119.798 8.86388 119.462 7.89588 118.79 7.22388C118.134 6.53588 117.326 6.19188 116.366 6.19188C115.406 6.19188 114.598 6.53588 113.942 7.22388C113.302 7.89588 112.982 8.86388 112.982 10.1279C112.982 11.3919 113.294 12.3679 113.918 13.0559C114.558 13.7279 115.358 14.0639 116.318 14.0639ZM133.087 3.28788C134.671 3.28788 135.951 3.79188 136.927 4.79988C137.903 5.79188 138.391 7.18388 138.391 8.97588V16.7759H135.031V9.43188C135.031 8.37588 134.767 7.56788 134.239 7.00788C133.711 6.43188 132.991 6.14388 132.079 6.14388C131.151 6.14388 130.415 6.43188 129.871 7.00788C129.343 7.56788 129.079 8.37588 129.079 9.43188V16.7759H125.719V3.47988H129.079V5.13588C129.527 4.55988 130.095 4.11188 130.783 3.79188C131.487 3.45588 132.255 3.28788 133.087 3.28788ZM146.674 16.9919C145.586 16.9919 144.61 16.7999 143.746 16.4159C142.882 16.0159 142.194 15.4799 141.682 14.8079C141.186 14.1359 140.914 13.3919 140.866 12.5759H144.25C144.314 13.0879 144.562 13.5119 144.994 13.8479C145.442 14.1839 145.994 14.3519 146.65 14.3519C147.29 14.3519 147.786 14.2239 148.138 13.9679C148.506 13.7119 148.69 13.3839 148.69 12.9839C148.69 12.5519 148.466 12.2319 148.018 12.0239C147.586 11.7999 146.89 11.5599 145.93 11.3039C144.938 11.0639 144.122 10.8159 143.482 10.5599C142.858 10.3039 142.314 9.91188 141.85 9.38388C141.402 8.85588 141.178 8.14388 141.178 7.24788C141.178 6.51188 141.386 5.83988 141.802 5.23188C142.234 4.62388 142.842 4.14388 143.626 3.79188C144.426 3.43988 145.362 3.26388 146.434 3.26388C148.018 3.26388 149.282 3.66388 150.226 4.46388C151.17 5.24788 151.69 6.31188 151.786 7.65588H148.57C148.522 7.12788 148.298 6.71188 147.898 6.40788C147.514 6.08788 146.994 5.92788 146.338 5.92788C145.73 5.92788 145.258 6.03988 144.922 6.26388C144.602 6.48788 144.442 6.79988 144.442 7.19988C144.442 7.64788 144.666 7.99188 145.114 8.23188C145.562 8.45588 146.258 8.68788 147.202 8.92788C148.162 9.16788 148.954 9.41588 149.578 9.67188C150.202 9.92788 150.738 10.3279 151.186 10.8719C151.65 11.3999 151.89 12.1039 151.906 12.9839C151.906 13.7519 151.69 14.4399 151.258 15.0479C150.842 15.6559 150.234 16.1359 149.434 16.4879C148.65 16.8239 147.73 16.9919 146.674 16.9919Z" fill="#1C1C1C"/>
</svg>
