<svg width="144" height="18" viewBox="0 0 144 18" fill="none" xmlns="http://www.w3.org/2000/svg">
<path d="M14.3282 16.968H10.9682L3.36024 5.47202V16.968H0.000238419V0.192016H3.36024L10.9682 11.712V0.192016H14.3282V16.968ZM30.0087 10.032C30.0087 10.512 29.9767 10.944 29.9127 11.328H20.1927C20.2727 12.288 20.6087 13.04 21.2007 13.584C21.7927 14.128 22.5207 14.4 23.3847 14.4C24.6327 14.4 25.5207 13.864 26.0487 12.792H29.6727C29.2887 14.072 28.5527 15.128 27.4647 15.96C26.3767 16.776 25.0407 17.184 23.4567 17.184C22.1767 17.184 21.0247 16.904 20.0007 16.344C18.9927 15.768 18.2007 14.96 17.6247 13.92C17.0647 12.88 16.7847 11.68 16.7847 10.32C16.7847 8.94402 17.0647 7.73602 17.6247 6.69602C18.1847 5.65602 18.9687 4.85602 19.9767 4.29602C20.9847 3.73602 22.1447 3.45602 23.4567 3.45602C24.7207 3.45602 25.8487 3.72802 26.8407 4.27202C27.8487 4.81602 28.6247 5.59202 29.1687 6.60002C29.7287 7.59202 30.0087 8.73602 30.0087 10.032ZM26.5287 9.07202C26.5127 8.20802 26.2007 7.52002 25.5927 7.00802C24.9847 6.48002 24.2407 6.21602 23.3607 6.21602C22.5287 6.21602 21.8247 6.47202 21.2487 6.98402C20.6887 7.48002 20.3447 8.17602 20.2167 9.07202H26.5287ZM50.8932 3.67202L47.0052 16.968H43.3812L40.9572 7.68002L38.5332 16.968H34.8852L30.9732 3.67202H34.3812L36.7332 13.8L39.2772 3.67202H42.8292L45.3252 13.776L47.6772 3.67202H50.8932ZM70.0939 5.25602C69.7099 4.55202 69.1819 4.01602 68.5099 3.64802C67.8379 3.28002 67.0539 3.09602 66.1579 3.09602C65.1659 3.09602 64.2859 3.32002 63.5179 3.76802C62.7499 4.21602 62.1499 4.85602 61.7179 5.68802C61.2859 6.52002 61.0699 7.48002 61.0699 8.56802C61.0699 9.68802 61.2859 10.664 61.7179 11.496C62.1659 12.328 62.7819 12.968 63.5659 13.416C64.3499 13.864 65.2619 14.088 66.3019 14.088C67.5819 14.088 68.6299 13.752 69.4459 13.08C70.2619 12.392 70.7979 11.44 71.0539 10.224H65.2939V7.65602H74.3659V10.584C74.1419 11.752 73.6619 12.832 72.9259 13.824C72.1899 14.816 71.2379 15.616 70.0699 16.224C68.9179 16.816 67.6219 17.112 66.1819 17.112C64.5659 17.112 63.1019 16.752 61.7899 16.032C60.4939 15.296 59.4699 14.28 58.7179 12.984C57.9819 11.688 57.6139 10.216 57.6139 8.56802C57.6139 6.92002 57.9819 5.44802 58.7179 4.15202C59.4699 2.84002 60.4939 1.82402 61.7899 1.10402C63.1019 0.368017 64.5579 1.71661e-05 66.1579 1.71661e-05C68.0459 1.71661e-05 69.6859 0.464017 71.0779 1.39202C72.4699 2.30402 73.4299 3.59202 73.9579 5.25602H70.0939ZM75.9878 10.272C75.9878 8.92802 76.2518 7.73602 76.7798 6.69602C77.3238 5.65602 78.0518 4.85602 78.9638 4.29602C79.8918 3.73602 80.9238 3.45602 82.0598 3.45602C83.0518 3.45602 83.9158 3.65602 84.6518 4.05602C85.4038 4.45602 86.0038 4.96002 86.4518 5.56802V3.67202H89.8358V16.968H86.4518V15.024C86.0198 15.648 85.4198 16.168 84.6518 16.584C83.8998 16.984 83.0278 17.184 82.0358 17.184C80.9158 17.184 79.8918 16.896 78.9638 16.32C78.0518 15.744 77.3238 14.936 76.7798 13.896C76.2518 12.84 75.9878 11.632 75.9878 10.272ZM86.4518 10.32C86.4518 9.50402 86.2918 8.80802 85.9718 8.23202C85.6518 7.64002 85.2198 7.19202 84.6758 6.88802C84.1318 6.56802 83.5478 6.40802 82.9238 6.40802C82.2998 6.40802 81.7238 6.56002 81.1958 6.86402C80.6678 7.16802 80.2358 7.61602 79.8998 8.20802C79.5798 8.78402 79.4198 9.47202 79.4198 10.272C79.4198 11.072 79.5798 11.776 79.8998 12.384C80.2358 12.976 80.6678 13.432 81.1958 13.752C81.7398 14.072 82.3158 14.232 82.9238 14.232C83.5478 14.232 84.1318 14.08 84.6758 13.776C85.2198 13.456 85.6518 13.008 85.9718 12.432C86.2918 11.84 86.4518 11.136 86.4518 10.32ZM109.629 3.48002C111.261 3.48002 112.573 3.98402 113.565 4.99202C114.573 5.98402 115.077 7.37602 115.077 9.16802V16.968H111.717V9.62402C111.717 8.58402 111.453 7.79202 110.925 7.24802C110.397 6.68802 109.677 6.40802 108.765 6.40802C107.853 6.40802 107.125 6.68802 106.581 7.24802C106.053 7.79202 105.789 8.58402 105.789 9.62402V16.968H102.429V9.62402C102.429 8.58402 102.165 7.79202 101.637 7.24802C101.109 6.68802 100.389 6.40802 99.4774 6.40802C98.5494 6.40802 97.8134 6.68802 97.2694 7.24802C96.7414 7.79202 96.4774 8.58402 96.4774 9.62402V16.968H93.1174V3.67202H96.4774V5.28002C96.9094 4.72002 97.4614 4.28002 98.1334 3.96002C98.8214 3.64002 99.5734 3.48002 100.389 3.48002C101.429 3.48002 102.357 3.70402 103.173 4.15202C103.989 4.58402 104.621 5.20802 105.069 6.02402C105.501 5.25602 106.125 4.64002 106.941 4.17602C107.773 3.71202 108.669 3.48002 109.629 3.48002ZM130.626 10.032C130.626 10.512 130.594 10.944 130.53 11.328H120.81C120.89 12.288 121.226 13.04 121.818 13.584C122.41 14.128 123.138 14.4 124.002 14.4C125.25 14.4 126.138 13.864 126.666 12.792H130.29C129.906 14.072 129.17 15.128 128.082 15.96C126.994 16.776 125.658 17.184 124.074 17.184C122.794 17.184 121.642 16.904 120.618 16.344C119.61 15.768 118.818 14.96 118.242 13.92C117.682 12.88 117.402 11.68 117.402 10.32C117.402 8.94402 117.682 7.73602 118.242 6.69602C118.802 5.65602 119.586 4.85602 120.594 4.29602C121.602 3.73602 122.762 3.45602 124.074 3.45602C125.338 3.45602 126.466 3.72802 127.458 4.27202C128.466 4.81602 129.242 5.59202 129.786 6.60002C130.346 7.59202 130.626 8.73602 130.626 10.032ZM127.146 9.07202C127.13 8.20802 126.818 7.52002 126.21 7.00802C125.602 6.48002 124.858 6.21602 123.978 6.21602C123.146 6.21602 122.442 6.47202 121.866 6.98402C121.306 7.48002 120.962 8.17602 120.834 9.07202H127.146ZM138.166 17.184C137.078 17.184 136.102 16.992 135.238 16.608C134.374 16.208 133.686 15.672 133.174 15C132.678 14.328 132.406 13.584 132.358 12.768H135.742C135.806 13.28 136.054 13.704 136.486 14.04C136.934 14.376 137.486 14.544 138.142 14.544C138.782 14.544 139.278 14.416 139.63 14.16C139.998 13.904 140.182 13.576 140.182 13.176C140.182 12.744 139.958 12.424 139.51 12.216C139.078 11.992 138.382 11.752 137.422 11.496C136.43 11.256 135.614 11.008 134.974 10.752C134.35 10.496 133.806 10.104 133.342 9.57602C132.894 9.04802 132.67 8.33602 132.67 7.44002C132.67 6.70402 132.878 6.03202 133.294 5.42402C133.726 4.81602 134.334 4.33602 135.118 3.98402C135.918 3.63202 136.854 3.45602 137.926 3.45602C139.51 3.45602 140.774 3.85602 141.718 4.65602C142.662 5.44002 143.182 6.50402 143.278 7.84802H140.062C140.014 7.32002 139.79 6.90402 139.39 6.60002C139.006 6.28002 138.486 6.12002 137.83 6.12002C137.222 6.12002 136.75 6.23202 136.414 6.45602C136.094 6.68002 135.934 6.99202 135.934 7.39202C135.934 7.84002 136.158 8.18402 136.606 8.42402C137.054 8.64802 137.75 8.88002 138.694 9.12002C139.654 9.36002 140.446 9.60802 141.07 9.86402C141.694 10.12 142.23 10.52 142.678 11.064C143.142 11.592 143.382 12.296 143.398 13.176C143.398 13.944 143.182 14.632 142.75 15.24C142.334 15.848 141.726 16.328 140.926 16.68C140.142 17.016 139.222 17.184 138.166 17.184Z" fill="#1C1C1C"/>
</svg>
