<svg width="188" height="135" viewBox="0 0 188 135" fill="none" xmlns="http://www.w3.org/2000/svg">
<path d="M168.694 131.257C127.727 119.801 40.3338 78.1071 18.4954 2.97607" stroke="#2C4A3B" stroke-width="5.95041" stroke-linecap="round"/>
<path d="M127.786 88.2318C125.166 89.1007 123.232 91.4815 122.298 94.7898C121.365 98.0932 121.461 102.242 122.852 106.437C124.243 110.631 126.645 114.016 129.367 116.107C132.093 118.202 135.066 118.955 137.686 118.086C140.306 117.217 142.241 114.836 143.175 111.528C144.107 108.225 144.011 104.076 142.62 99.8811C141.229 95.6863 138.827 92.3022 136.105 90.2107C133.379 88.1162 130.406 87.3629 127.786 88.2318Z" fill="#2C4A3B" stroke="#2C4A3B" stroke-width="1.4876"/>
<path d="M42.7165 88.4086C42.6724 91.1106 44.5343 93.7301 47.8891 95.7395C51.2245 97.7371 55.9054 99.0392 61.1382 99.1249C66.371 99.2106 71.0921 98.0625 74.491 96.1752C77.9098 94.2768 79.8566 91.7197 79.901 89.0177C79.9452 86.3157 78.0832 83.6964 74.7284 81.6869C71.393 79.6892 66.7122 78.3872 61.4793 78.3015C56.2464 78.2158 51.5254 79.3638 48.1265 81.2512C44.7076 83.1497 42.7608 85.7066 42.7165 88.4086Z" fill="#2C4A3B" stroke="#2C4A3B" stroke-width="1.4876"/>
<path d="M45.1131 52.3881C47.7959 52.7125 50.5944 51.1324 52.9411 48.0042C55.2741 44.8942 57.055 40.3737 57.6833 35.1781C58.3116 29.9824 57.6597 25.1677 56.1353 21.5912C54.6019 17.9938 52.2607 15.7922 49.578 15.4676C46.8951 15.1432 44.0967 16.7233 41.7499 19.8515C39.4168 22.9615 37.6361 27.482 37.0077 32.6777C36.3794 37.8734 37.0313 42.6881 38.5557 46.2646C40.0891 49.862 42.4302 52.0637 45.1131 52.3881Z" fill="#2C4A3B" stroke="#2C4A3B" stroke-width="1.4876"/>
</svg>
