<svg width="188" height="135" viewBox="0 0 188 135" fill="none" xmlns="http://www.w3.org/2000/svg">
<path d="M18.4954 131.257C59.4624 119.801 146.856 78.1071 168.694 2.97607" stroke="#2C4A3B" stroke-width="5.95041" stroke-linecap="round"/>
<path d="M59.4032 88.2318C62.0232 89.1007 63.9573 91.4815 64.8913 94.7898C65.8239 98.0932 65.7277 102.242 64.3366 106.437C62.9454 110.631 60.5435 114.016 57.8217 116.107C55.096 118.202 52.1225 118.955 49.5025 118.086C46.8824 117.217 44.9484 114.836 44.0143 111.528C43.0817 108.225 43.1779 104.076 44.5691 99.8811C45.9602 95.6863 48.3621 92.3022 51.0839 90.2107C53.8097 88.1162 56.7832 87.3629 59.4032 88.2318Z" fill="#2C4A3B" stroke="#2C4A3B" stroke-width="1.4876"/>
<path d="M144.473 88.4086C144.517 91.1106 142.655 93.7301 139.3 95.7395C135.965 97.7371 131.284 99.0392 126.051 99.1249C120.818 99.2106 116.097 98.0625 112.698 96.1752C109.28 94.2768 107.333 91.7197 107.288 89.0177C107.244 86.3157 109.106 83.6964 112.461 81.6869C115.796 79.6892 120.477 78.3872 125.71 78.3015C130.943 78.2158 135.664 79.3638 139.063 81.2512C142.482 83.1497 144.429 85.7066 144.473 88.4086Z" fill="#2C4A3B" stroke="#2C4A3B" stroke-width="1.4876"/>
<path d="M142.076 52.3879C139.393 52.7122 136.594 51.1321 134.248 48.004C131.915 44.894 130.134 40.3734 129.506 35.1778C128.877 29.9822 129.529 25.1674 131.054 21.591C132.587 17.9936 134.928 15.7919 137.611 15.4674C140.294 15.143 143.092 16.7231 145.439 19.8513C147.772 22.9613 149.553 27.4818 150.181 32.6775C150.809 37.8732 150.158 42.6878 148.633 46.2643C147.1 49.8618 144.759 52.0634 142.076 52.3879Z" fill="#2C4A3B" stroke="#2C4A3B" stroke-width="1.4876"/>
</svg>
