<svg width="180" height="42" viewBox="0 0 180 42" fill="none" xmlns="http://www.w3.org/2000/svg">
<rect width="180" height="42" rx="5" fill="#2C4A3B"/>
<path d="M27.12 27.16C26.384 27.16 25.7173 27.0747 25.12 26.904C24.5333 26.7227 24.0107 26.4667 23.552 26.136C23.0933 25.7947 22.6827 25.3947 22.32 24.936L23.968 23.064C24.5013 23.7787 25.0347 24.2587 25.568 24.504C26.112 24.7493 26.672 24.872 27.248 24.872C27.536 24.872 27.7973 24.8347 28.032 24.76C28.2667 24.6853 28.448 24.5787 28.576 24.44C28.704 24.2907 28.768 24.1093 28.768 23.896C28.768 23.736 28.7253 23.592 28.64 23.464C28.5653 23.336 28.4587 23.224 28.32 23.128C28.1813 23.032 28.016 22.9467 27.824 22.872C27.632 22.7867 27.4293 22.7173 27.216 22.664C27.0027 22.6 26.784 22.5467 26.56 22.504C25.9413 22.3653 25.4027 22.1947 24.944 21.992C24.4853 21.7893 24.1013 21.544 23.792 21.256C23.4933 20.9573 23.2693 20.6213 23.12 20.248C22.9707 19.864 22.896 19.4373 22.896 18.968C22.896 18.4667 23.008 18.008 23.232 17.592C23.4667 17.1653 23.776 16.8027 24.16 16.504C24.5547 16.1947 25.008 15.96 25.52 15.8C26.032 15.6293 26.5653 15.544 27.12 15.544C27.856 15.544 28.4853 15.624 29.008 15.784C29.5413 15.9333 29.9947 16.152 30.368 16.44C30.752 16.728 31.0773 17.0747 31.344 17.48L29.664 19.096C29.44 18.8187 29.1947 18.5893 28.928 18.408C28.672 18.2267 28.3947 18.088 28.096 17.992C27.808 17.896 27.5093 17.848 27.2 17.848C26.88 17.848 26.6027 17.8907 26.368 17.976C26.144 18.0507 25.968 18.1627 25.84 18.312C25.712 18.4507 25.648 18.6213 25.648 18.824C25.648 19.0053 25.7013 19.16 25.808 19.288C25.9147 19.416 26.0587 19.5333 26.24 19.64C26.4213 19.736 26.6293 19.8213 26.864 19.896C27.0987 19.96 27.344 20.0133 27.6 20.056C28.1867 20.1733 28.7147 20.328 29.184 20.52C29.664 20.712 30.0747 20.9467 30.416 21.224C30.768 21.5013 31.0347 21.832 31.216 22.216C31.408 22.5893 31.504 23.0267 31.504 23.528C31.504 24.3067 31.312 24.968 30.928 25.512C30.5547 26.0453 30.0373 26.456 29.376 26.744C28.7253 27.0213 27.9733 27.16 27.12 27.16ZM33.4206 27V18.504H35.9806V27H33.4206ZM34.7006 16.824C34.2206 16.824 33.842 16.712 33.5646 16.488C33.298 16.2533 33.1646 15.9227 33.1646 15.496C33.1646 15.112 33.3033 14.7973 33.5806 14.552C33.858 14.3067 34.2313 14.184 34.7006 14.184C35.1806 14.184 35.554 14.3013 35.8206 14.536C36.0873 14.76 36.2206 15.08 36.2206 15.496C36.2206 15.8907 36.082 16.2107 35.8046 16.456C35.538 16.7013 35.17 16.824 34.7006 16.824ZM42.274 30.68C41.5807 30.68 40.8873 30.5787 40.194 30.376C39.5113 30.1733 38.9567 29.912 38.53 29.592L39.426 27.8C39.65 27.9493 39.8953 28.0773 40.162 28.184C40.4393 28.3013 40.7273 28.392 41.026 28.456C41.3247 28.52 41.6287 28.552 41.938 28.552C42.482 28.552 42.9247 28.472 43.266 28.312C43.6073 28.152 43.8633 27.9067 44.034 27.576C44.2047 27.256 44.29 26.8507 44.29 26.36V24.936L44.786 25.016C44.7113 25.368 44.5247 25.688 44.226 25.976C43.938 26.264 43.5807 26.4987 43.154 26.68C42.7273 26.8507 42.274 26.936 41.794 26.936C41.026 26.936 40.338 26.76 39.73 26.408C39.1327 26.0453 38.658 25.5493 38.306 24.92C37.9647 24.28 37.794 23.544 37.794 22.712C37.794 21.8587 37.9647 21.1067 38.306 20.456C38.6473 19.7947 39.1167 19.2773 39.714 18.904C40.3113 18.52 40.9833 18.328 41.73 18.328C42.05 18.328 42.354 18.3653 42.642 18.44C42.9407 18.5147 43.2127 18.616 43.458 18.744C43.714 18.8613 43.938 19.0053 44.13 19.176C44.3327 19.336 44.4927 19.512 44.61 19.704C44.738 19.896 44.8233 20.0933 44.866 20.296L44.338 20.424L44.434 18.504H46.866V26.312C46.866 27.0053 46.7593 27.6187 46.546 28.152C46.3433 28.696 46.0393 29.1547 45.634 29.528C45.2393 29.912 44.7593 30.2 44.194 30.392C43.6287 30.584 42.9887 30.68 42.274 30.68ZM42.338 24.952C42.754 24.952 43.1113 24.8613 43.41 24.68C43.7193 24.488 43.954 24.2267 44.114 23.896C44.2847 23.5653 44.37 23.176 44.37 22.728C44.37 22.28 44.2847 21.8907 44.114 21.56C43.954 21.2187 43.7193 20.9573 43.41 20.776C43.1113 20.584 42.754 20.488 42.338 20.488C41.9327 20.488 41.5807 20.584 41.282 20.776C40.9833 20.9573 40.7487 21.2187 40.578 21.56C40.418 21.8907 40.338 22.28 40.338 22.728C40.338 23.176 40.418 23.5653 40.578 23.896C40.7487 24.2267 40.9833 24.488 41.282 24.68C41.5807 24.8613 41.9327 24.952 42.338 24.952ZM49.0891 27V18.504H51.5211L51.6011 20.232L51.0891 20.424C51.2065 20.04 51.4145 19.6933 51.7131 19.384C52.0225 19.064 52.3905 18.808 52.8171 18.616C53.2438 18.424 53.6918 18.328 54.1611 18.328C54.8011 18.328 55.3398 18.4613 55.7771 18.728C56.2145 18.984 56.5451 19.3733 56.7691 19.896C56.9931 20.408 57.1051 21.0373 57.1051 21.784V27H54.5291V21.992C54.5291 21.6507 54.4811 21.368 54.3851 21.144C54.2891 20.92 54.1398 20.7547 53.9371 20.648C53.7451 20.5307 53.5051 20.4773 53.2171 20.488C52.9931 20.488 52.7851 20.5253 52.5931 20.6C52.4011 20.664 52.2358 20.7653 52.0971 20.904C51.9585 21.032 51.8465 21.1813 51.7611 21.352C51.6865 21.5227 51.6491 21.7093 51.6491 21.912V27H50.3851C50.0865 27 49.8305 27 49.6171 27C49.4038 27 49.2278 27 49.0891 27ZM69.3624 27.096C68.4344 27.096 67.6077 26.9093 66.8824 26.536C66.157 26.152 65.5864 25.6293 65.1704 24.968C64.765 24.3067 64.5624 23.5493 64.5624 22.696V15.8H67.3144V22.552C67.3144 22.9573 67.405 23.3253 67.5864 23.656C67.7677 23.976 68.013 24.232 68.3224 24.424C68.6317 24.6053 68.9784 24.696 69.3624 24.696C69.7677 24.696 70.125 24.6053 70.4344 24.424C70.7544 24.232 71.0104 23.976 71.2024 23.656C71.3944 23.3253 71.4904 22.9573 71.4904 22.552V15.8H74.1464V22.696C74.1464 23.5493 73.9384 24.3067 73.5224 24.968C73.117 25.6293 72.5517 26.152 71.8264 26.536C71.101 26.9093 70.2797 27.096 69.3624 27.096ZM76.6048 30.52V18.504H79.0368L79.1328 20.408L78.6528 20.264C78.7274 19.912 78.9088 19.592 79.1968 19.304C79.4848 19.016 79.8474 18.7867 80.2848 18.616C80.7328 18.4347 81.2021 18.344 81.6928 18.344C82.4181 18.344 83.0634 18.536 83.6288 18.92C84.1941 19.2933 84.6368 19.8107 84.9568 20.472C85.2874 21.1227 85.4528 21.88 85.4528 22.744C85.4528 23.5973 85.2874 24.3547 84.9568 25.016C84.6368 25.6773 84.1888 26.2 83.6128 26.584C83.0474 26.9573 82.3968 27.144 81.6608 27.144C81.1808 27.144 80.7221 27.0533 80.2848 26.872C79.8474 26.6907 79.4794 26.4453 79.1808 26.136C78.8821 25.8267 78.6848 25.4907 78.5888 25.128L79.1808 24.904V30.52H76.6048ZM81.0368 24.984C81.4208 24.984 81.7568 24.8933 82.0448 24.712C82.3328 24.52 82.5568 24.2587 82.7168 23.928C82.8768 23.5973 82.9568 23.2027 82.9568 22.744C82.9568 22.296 82.8768 21.9067 82.7168 21.576C82.5568 21.2347 82.3328 20.9733 82.0448 20.792C81.7674 20.6 81.4314 20.504 81.0368 20.504C80.6421 20.504 80.3008 20.5947 80.0128 20.776C79.7248 20.9573 79.5008 21.2187 79.3408 21.56C79.1808 21.9013 79.1008 22.296 79.1008 22.744C79.1008 23.2027 79.1808 23.5973 79.3408 23.928C79.5008 24.2587 79.7248 24.52 80.0128 24.712C80.3008 24.8933 80.6421 24.984 81.0368 24.984ZM92.5486 27V15.8H94.9806L100.853 23.8L100.325 23.72C100.271 23.368 100.229 23.032 100.197 22.712C100.165 22.392 100.133 22.0773 100.101 21.768C100.079 21.4587 100.058 21.144 100.037 20.824C100.026 20.504 100.015 20.1573 100.005 19.784C100.005 19.4107 100.005 19.0053 100.005 18.568V15.8H102.645V27H100.181L94.0526 18.744L94.8686 18.856C94.922 19.368 94.9646 19.8053 94.9966 20.168C95.0393 20.52 95.0713 20.8347 95.0926 21.112C95.1246 21.3893 95.146 21.64 95.1566 21.864C95.1673 22.088 95.1726 22.312 95.1726 22.536C95.1833 22.7493 95.1886 22.9893 95.1886 23.256V27H92.5486ZM109.183 27.16C108.298 27.16 107.508 26.968 106.815 26.584C106.132 26.2 105.588 25.6773 105.183 25.016C104.788 24.3547 104.591 23.5973 104.591 22.744C104.591 21.8907 104.788 21.1333 105.183 20.472C105.588 19.8107 106.132 19.288 106.815 18.904C107.508 18.52 108.298 18.328 109.183 18.328C110.068 18.328 110.852 18.52 111.535 18.904C112.228 19.288 112.772 19.8107 113.167 20.472C113.562 21.1333 113.759 21.8907 113.759 22.744C113.759 23.5973 113.562 24.3547 113.167 25.016C112.772 25.6773 112.228 26.2 111.535 26.584C110.852 26.968 110.068 27.16 109.183 27.16ZM109.183 24.952C109.567 24.952 109.908 24.856 110.207 24.664C110.506 24.472 110.74 24.2107 110.911 23.88C111.082 23.5493 111.162 23.1707 111.151 22.744C111.162 22.3173 111.082 21.9387 110.911 21.608C110.74 21.2667 110.506 21 110.207 20.808C109.908 20.616 109.567 20.52 109.183 20.52C108.799 20.52 108.452 20.616 108.143 20.808C107.844 21 107.61 21.2667 107.439 21.608C107.268 21.9387 107.188 22.3173 107.199 22.744C107.188 23.1707 107.268 23.5493 107.439 23.88C107.61 24.2107 107.844 24.472 108.143 24.664C108.452 24.856 108.799 24.952 109.183 24.952ZM116.976 27L114.176 18.504H116.88L118.448 24.024L118.112 23.96L119.872 19.672H121.376L123.232 23.976L122.864 24.008L124.432 18.504H127.136L124.24 27H122.352L120.512 22.44L120.704 22.472L118.864 27H116.976ZM128.992 22.92C128.907 22.2693 128.821 21.5973 128.736 20.904C128.651 20.2107 128.581 19.5227 128.528 18.84C128.475 18.1573 128.448 17.5013 128.448 16.872V15.624H131.152V16.872C131.152 17.512 131.125 18.1787 131.072 18.872C131.019 19.5653 130.949 20.2587 130.864 20.952C130.779 21.6347 130.688 22.2907 130.592 22.92H128.992ZM129.792 27.176C129.355 27.176 129.013 27.0533 128.768 26.808C128.523 26.5627 128.4 26.2107 128.4 25.752C128.4 25.3253 128.528 24.9787 128.784 24.712C129.04 24.4453 129.376 24.312 129.792 24.312C130.229 24.312 130.565 24.44 130.8 24.696C131.045 24.9413 131.168 25.2933 131.168 25.752C131.168 26.168 131.04 26.5093 130.784 26.776C130.528 27.0427 130.197 27.176 129.792 27.176Z" fill="#FFFEFD"/>
<path d="M151.654 25.2052H143V19.0514H151.654V25.2052Z" fill="#FFFEFD"/>
<path d="M158 22.1288L151.077 28.2576V16L158 22.1288Z" fill="#FFFEFD"/>
</svg>
