<svg width="20" height="12" viewBox="0 0 20 12" fill="none" xmlns="http://www.w3.org/2000/svg">
<path d="M1.00024 1.00018C4.00024 6.00018 11.7002 13.0002 18.5002 1.00018" stroke="#1C1C1C" stroke-width="2" stroke-linecap="round"/>
<path d="M17.4334 7.72054C17.8655 8.06442 18.4946 7.99285 18.8385 7.56069C19.1824 7.12852 19.1108 6.49942 18.6787 6.15554L18.056 6.93804L17.4334 7.72054ZM15.0002 4.50652L14.3776 5.28903L17.4334 7.72054L18.056 6.93804L18.6787 6.15554L15.6229 3.72402L15.0002 4.50652Z" fill="#1C1C1C"/>
<path d="M5.35242 10.37C5.17333 10.8925 5.45168 11.4612 5.97412 11.6403C6.49656 11.8193 7.06526 11.541 7.24435 11.0186L6.29839 10.6943L5.35242 10.37ZM7.5647 7.00018L6.61873 6.67591L5.35242 10.37L6.29839 10.6943L7.24435 11.0186L8.51066 7.32444L7.5647 7.00018Z" fill="#1C1C1C"/>
<path d="M0.608313 6.43531C0.249847 6.85546 0.299846 7.48664 0.719989 7.84511C1.14013 8.20358 1.77132 8.15358 2.12979 7.73343L1.36905 7.08437L0.608313 6.43531ZM4.00049 4.00018L3.23975 3.35111L0.608313 6.43531L1.36905 7.08437L2.12979 7.73343L4.76122 4.64924L4.00049 4.00018Z" fill="#1C1C1C"/>
<path d="M12.3607 11.025C12.5273 11.5516 13.0892 11.8434 13.6158 11.6768C14.1423 11.5101 14.4341 10.9482 14.2675 10.4217L13.3141 10.7234L12.3607 11.025ZM12.136 7.00018L11.1826 7.30186L12.3607 11.025L13.3141 10.7234L14.2675 10.4217L13.0894 6.69849L12.136 7.00018Z" fill="#1C1C1C"/>
</svg>
