<svg width="218" height="100" viewBox="0 0 218 100" fill="none" xmlns="http://www.w3.org/2000/svg">
<path d="M78.9183 83.4008C78.053 89.3383 78.0292 93.936 76.628 96.0319C75.9324 97.0722 74.5385 97.2062 73.2934 97.3317C69.5824 97.7059 66.5381 98.0657 63.4328 96.896L60.3074 93.1452C59.9814 79.9707 61.1145 76.164 61.6343 65.0784C61.4259 62.5779 63.4725 56.5086 73.5941 55.2432C83.5963 53.9928 97.1326 57.5123 97.9745 61.4946C102.134 69.3899 95.7012 80.9017 88.5974 78.3732C86.6189 77.669 86.316 75.0955 84.2214 75.2475C81.2651 75.4621 79.7153 77.9312 78.9183 83.4008Z" fill="#FFFEFD"/>
<path d="M78.4049 83.326C78.7472 83.3758 79.0894 83.4257 79.4316 83.4756C79.7906 81.1835 80.2375 78.7571 81.6126 77.0728C82.2765 76.279 83.2133 75.8288 84.259 75.7649C85.7914 75.5002 86.259 78.0545 88.4234 78.8619C92.7899 80.488 96.8504 76.7942 98.422 73.1959C100.142 69.491 100.388 64.9673 98.4334 61.2528L98.482 61.3873C95.9634 56.7483 90.91 56.4036 86.7485 55.3216C82.4051 54.5037 77.9478 54.1996 73.5297 54.7285C68.0699 55.2739 61.1491 58.505 61.1173 65.1215L61.1161 65.0541C60.6824 74.2464 59.3806 83.497 59.7797 92.7763C59.7825 92.9027 59.7856 93.0299 59.7887 93.158L59.7932 93.3385L59.9088 93.4773C60.3316 93.9847 60.7544 94.4921 61.1772 94.9995C61.7159 95.6459 62.2545 96.2924 62.7932 96.9389C62.8736 97.0353 62.9539 97.1317 63.0342 97.2281L63.1218 97.3332L63.2499 97.3815C63.6202 97.521 63.9973 97.6424 64.3791 97.7451C67.3832 98.5555 70.4389 98.1261 73.3454 97.8479C74.5187 97.7069 76.1115 97.6702 77.0592 96.3202C78.1867 94.4496 78.2954 92.4575 78.5753 90.5494C78.863 88.174 79.0866 85.8169 79.4316 83.4756C79.0894 83.4257 78.7472 83.3758 78.4049 83.326C78.0559 85.6949 77.8302 88.0744 77.5457 90.4219C77.2899 92.2875 77.0936 94.2973 76.1967 95.7435C75.6854 96.5428 74.4464 96.7021 73.2413 96.8155C70.3182 97.1015 67.3815 97.488 64.6488 96.7432C64.2992 96.6492 63.9545 96.5382 63.6156 96.4105L63.8313 96.5639C63.751 96.4675 63.6706 96.3711 63.5903 96.2747C63.0516 95.6282 62.513 94.9818 61.9743 94.3353C61.5515 93.8279 61.1287 93.3205 60.7059 92.8131L60.826 93.1323C60.8228 93.0049 60.8198 92.8783 60.8169 92.7526C60.4205 83.5213 61.7122 74.3895 62.1525 65.1027L62.1513 65.0353C62.1255 59.4948 68.3455 56.254 73.6584 55.758C81.8277 55.112 92.4245 55.6465 97.4669 61.6019L97.5155 61.7364C101.096 68.0761 96.6439 79.9157 88.7713 77.8845C88.0474 77.6386 87.5114 76.9863 86.9256 76.248C86.3969 75.5384 85.3805 74.5763 84.1839 74.7301C82.9315 74.7926 81.6299 75.4133 80.8251 76.3973C79.1699 78.4653 78.7925 80.9638 78.4049 83.326ZM79.4316 83.4756L78.4049 83.326L79.4316 83.4756V83.4756Z" fill="#FFFEFD"/>
<path d="M60.3072 93.1454C60.3072 94.3957 60.5572 97.5214 66.5585 97.5214" stroke="#FFFEFD" stroke-width="1.03755"/>
<path d="M55.5021 81.0382C55.5021 90.7053 53.0016 95.4165 46.125 97.292C39.9156 98.9854 36.1228 90.7053 36.1228 81.0382C36.1228 71.3711 40.601 63.5343 46.125 63.5343C51.6491 63.5343 55.5021 72.2862 55.5021 81.0382Z" fill="#FFFEFD" fill-opacity="0.992157"/>
<path d="M13.9532 60.6375C23.9553 53.1359 36.0453 52.7647 44.5059 58.2439C45.7568 59.054 46.9181 59.9862 47.9649 61.033C48.1178 61.2493 48.2634 61.4676 48.4024 61.6873C50.6843 64.1897 53.0496 67.7391 53.962 71.9968C54.7843 75.8346 52.9993 73.5864 50.5958 69.5359C50.4473 76.8691 44.9191 84.7979 36.087 91.0398C24.8346 101.667 9.16188 102.171 2.7276 93.0671C-3.70654 83.963 1.72514 69.8084 13.9532 60.6375ZM32.3292 68.3767C30.0917 66.5498 26.0896 67.7481 23.3907 71.0535C20.6918 74.3588 20.3174 78.5194 22.5547 80.3464C24.7922 82.1734 28.7943 80.975 31.4932 77.6697C34.1921 74.3645 34.5662 70.2038 32.3292 68.3767Z" fill="#FFFEFD" fill-opacity="0.992157"/>
<path d="M117.354 56.6694C127.156 53.2035 137.656 55.0259 142.096 63.2241C145.223 71.1713 139.214 71.3661 136.858 70.8247C135.186 70.2198 133.087 70.2226 131.026 70.9761C127.165 72.3874 124.9 75.8976 125.966 78.8159C127.033 81.7341 131.028 82.9558 134.889 81.5444C135.644 81.2685 136.337 80.9109 136.957 80.4946C144.607 76.6935 144.145 82.1802 143.542 85.4878C141.723 89.2752 138.725 92.5921 134.438 94.8394C123.286 100.686 110.249 100.825 104.091 92.0015C103.007 90.4469 102.416 88.605 102.089 86.7378C100.501 77.6563 101.999 69.6856 108.623 62.4985C111.023 59.8942 114.015 57.8502 117.354 56.6694Z" fill="#FFFEFD"/>
<path d="M199.03 59.3884L200.279 62.5147C200.905 51.6786 202.406 29.8813 203.406 29.3812C204.657 28.7561 209.658 30.6315 212.783 36.2578C215.284 40.7588 210.908 49.386 208.407 53.7619C213.409 48.7608 215.492 45.4266 215.909 43.7596C220.91 36.2579 215.284 25.4223 211.533 21.2547C207.157 16.3925 204.656 13.7531 202.156 0L199.03 59.3884Z" fill="#FFFEFD"/>
<path d="M162.278 60.9481C174.323 52.3142 190.903 53.7611 197.281 62.0829C204.4 71.3707 199.655 87.8456 189.784 94.08C177.907 101.582 160.302 102.607 153.665 93.3485C147.029 84.0905 150.234 69.5819 162.278 60.9481ZM182.98 68.6317C180.742 66.8053 176.741 68.0043 174.042 71.3094C171.343 74.6148 170.969 78.7755 173.206 80.6024C175.444 82.4292 179.446 81.23 182.145 77.9247C184.843 74.6194 185.217 70.4586 182.98 68.6317Z" fill="#FFFEFD"/>
<path d="M78.9183 83.4008C78.053 89.3383 78.0292 93.936 76.628 96.0319C75.9324 97.0722 74.5385 97.2062 73.2934 97.3317C69.5824 97.7059 66.5381 98.0657 63.4328 96.896L60.3074 93.1452C59.9814 79.9707 61.1145 76.164 61.6343 65.0784C61.4259 62.5779 63.4725 56.5086 73.5941 55.2432C83.5963 53.9928 97.1326 57.5123 97.9745 61.4946C102.134 69.3899 95.7012 80.9017 88.5974 78.3732C86.6189 77.669 86.316 75.0955 84.2214 75.2475C81.2651 75.4621 79.7153 77.9312 78.9183 83.4008Z" fill="#FFFEFD"/>
<path d="M78.4049 83.326C78.7472 83.3758 79.0894 83.4257 79.4316 83.4756C79.7906 81.1835 80.2375 78.7571 81.6126 77.0728C82.2765 76.279 83.2133 75.8288 84.259 75.7649C85.7914 75.5002 86.259 78.0545 88.4234 78.8619C92.7899 80.488 96.8504 76.7942 98.422 73.1959C100.142 69.491 100.388 64.9673 98.4334 61.2528L98.482 61.3873C95.9634 56.7483 90.91 56.4036 86.7485 55.3216C82.4051 54.5037 77.9478 54.1996 73.5297 54.7285C68.0699 55.2739 61.1491 58.505 61.1173 65.1215L61.1161 65.0541C60.6824 74.2464 59.3806 83.497 59.7797 92.7763C59.7825 92.9027 59.7856 93.0299 59.7887 93.158L59.7932 93.3385L59.9088 93.4773C60.3316 93.9847 60.7544 94.4921 61.1772 94.9995C61.7159 95.6459 62.2545 96.2924 62.7932 96.9389C62.8736 97.0353 62.9539 97.1317 63.0342 97.2281L63.1218 97.3332L63.2499 97.3815C63.6202 97.521 63.9973 97.6424 64.3791 97.7451C67.3832 98.5555 70.4389 98.1261 73.3454 97.8479C74.5187 97.7069 76.1115 97.6702 77.0592 96.3202C78.1867 94.4496 78.2954 92.4575 78.5753 90.5494C78.863 88.174 79.0866 85.8169 79.4316 83.4756C79.0894 83.4257 78.7472 83.3758 78.4049 83.326C78.0559 85.6949 77.8302 88.0744 77.5457 90.4219C77.2899 92.2875 77.0936 94.2973 76.1967 95.7435C75.6854 96.5428 74.4464 96.7021 73.2413 96.8155C70.3182 97.1015 67.3815 97.488 64.6488 96.7432C64.2992 96.6492 63.9545 96.5382 63.6156 96.4105L63.8313 96.5639C63.751 96.4675 63.6706 96.3711 63.5903 96.2747C63.0516 95.6282 62.513 94.9818 61.9743 94.3353C61.5515 93.8279 61.1287 93.3205 60.7059 92.8131L60.826 93.1323C60.8228 93.0049 60.8198 92.8783 60.8169 92.7526C60.4205 83.5213 61.7122 74.3895 62.1525 65.1027L62.1513 65.0353C62.1255 59.4948 68.3455 56.254 73.6584 55.758C81.8277 55.112 92.4245 55.6465 97.4669 61.6019L97.5155 61.7364C101.096 68.0761 96.6439 79.9157 88.7713 77.8845C88.0474 77.6386 87.5114 76.9863 86.9256 76.248C86.3969 75.5384 85.3805 74.5763 84.1839 74.7301C82.9315 74.7926 81.6299 75.4133 80.8251 76.3973C79.1699 78.4653 78.7925 80.9638 78.4049 83.326ZM79.4316 83.4756L78.4049 83.326L79.4316 83.4756V83.4756Z" fill="#FFFEFD"/>
<path d="M60.3072 93.1454C60.3072 94.3957 60.5572 97.5214 66.5585 97.5214" stroke="#FFFEFD" stroke-width="1.03755"/>
<path d="M55.5021 81.0382C55.5021 90.7053 53.0016 95.4165 46.125 97.292C39.9156 98.9854 36.1228 90.7053 36.1228 81.0382C36.1228 71.3711 40.601 63.5343 46.125 63.5343C51.6491 63.5343 55.5021 72.2862 55.5021 81.0382Z" fill="#FFFEFD" fill-opacity="0.992157"/>
<path d="M13.9893 60.6393C23.9912 53.138 36.0805 52.7659 44.541 58.2448C45.7919 59.0548 46.9532 59.988 48 61.0348C48.153 61.2512 48.2994 61.4693 48.4385 61.6891C50.7203 64.1915 53.0847 67.741 53.9971 71.9987C54.8193 75.836 53.0343 73.5881 50.6309 69.5377C50.4824 76.871 44.9542 84.7997 36.1221 91.0416C24.8696 101.669 9.19679 102.172 2.7627 93.068C-3.67122 83.9638 1.7613 69.8102 13.9893 60.6393ZM32.3643 68.3776C30.1269 66.5507 26.1247 67.7492 23.4258 71.0543C20.727 74.3595 20.3528 78.5202 22.5898 80.3473C24.8273 82.1742 28.8294 80.9759 31.5283 77.6705C34.2271 74.3652 34.6016 70.2045 32.3643 68.3776Z" fill="#FFFEFD" fill-opacity="0.992157"/>
<path d="M117.353 56.6696C127.155 53.2035 137.655 55.0262 142.095 63.2242C145.223 71.1719 139.213 71.3663 136.857 70.8248C135.185 70.22 133.086 70.2228 131.025 70.9762C127.164 72.3875 124.899 75.8978 125.965 78.816C127.032 81.7343 131.027 82.9559 134.888 81.5446C135.642 81.269 136.334 80.9123 136.953 80.4967C144.609 76.6918 144.144 82.1843 143.539 85.4918C141.721 89.2781 138.723 92.5938 134.438 94.8405C123.286 100.687 110.248 100.826 104.09 92.0016C103.006 90.447 102.415 88.6051 102.088 86.7379C100.5 77.6564 101.998 69.6857 108.622 62.4987C111.023 59.8944 114.014 57.8503 117.353 56.6696Z" fill="#FFFEFD"/>
<path d="M199.03 59.3884L200.279 62.5147C200.905 51.6786 202.406 29.8813 203.406 29.3812C204.657 28.7561 209.658 30.6315 212.783 36.2578C215.284 40.7588 210.908 49.386 208.407 53.7619C213.409 48.7608 215.492 45.4266 215.909 43.7596C220.91 36.2579 215.284 25.4223 211.533 21.2547C207.157 16.3925 204.656 13.7531 202.156 0L199.03 59.3884Z" fill="#FFFEFD"/>
<path d="M162.278 60.9481C174.323 52.3142 190.903 53.7611 197.281 62.0829C204.4 71.3707 199.655 87.8456 189.784 94.08C177.907 101.582 160.302 102.607 153.665 93.3485C147.029 84.0905 150.234 69.5819 162.278 60.9481ZM182.98 68.6317C180.742 66.8053 176.741 68.0043 174.042 71.3094C171.343 74.6148 170.969 78.7755 173.206 80.6024C175.444 82.4292 179.446 81.23 182.145 77.9247C184.843 74.6194 185.217 70.4586 182.98 68.6317Z" fill="#FFFEFD"/>
</svg>
