<svg width="20" height="20" viewBox="0 0 20 20" fill="none" xmlns="http://www.w3.org/2000/svg">
<path d="M18.8 10.2084C18.8 9.55837 18.7417 8.93337 18.6333 8.33337H10V11.8834H14.9333C14.7167 13.025 14.0667 13.9917 13.0917 14.6417V16.95H16.0667C17.8 15.35 18.8 13 18.8 10.2084Z" fill="#1C1C1C"/>
<path d="M10 19.1667C12.475 19.1667 14.55 18.35 16.0667 16.95L13.0917 14.6417C12.275 15.1917 11.2333 15.525 10 15.525C7.61667 15.525 5.59167 13.9167 4.86667 11.75H1.81667V14.1167C3.325 17.1083 6.41667 19.1667 10 19.1667Z" fill="#1C1C1C"/>
<path d="M4.86666 11.7416C4.68333 11.1916 4.57499 10.6083 4.57499 9.99993C4.57499 9.3916 4.68333 8.80827 4.86666 8.25827V5.8916H1.81666C1.19166 7.12493 0.833328 8.5166 0.833328 9.99993C0.833328 11.4833 1.19166 12.8749 1.81666 14.1083L4.19166 12.2583L4.86666 11.7416Z" fill="#1C1C1C"/>
<path d="M10 4.48337C11.35 4.48337 12.55 4.95004 13.5083 5.85004L16.1333 3.22504C14.5417 1.74171 12.475 0.833374 10 0.833374C6.41667 0.833374 3.325 2.89171 1.81667 5.89171L4.86667 8.25837C5.59167 6.09171 7.61667 4.48337 10 4.48337Z" fill="#1C1C1C"/>
</svg>
